<svg height="14.80058cm" viewBox="0 0 82680 58270" width="21.00072cm" xmlns="http://www.w3.org/2000/svg"><g stroke-linecap="round" stroke-linejoin="round"><path d="m0 0h82680v58270h-82680z" fill="#f5f4ef" stroke="#f5f4ef" stroke-width=".03937"/><g fill="#840000" fill-opacity="0" stroke="#840000" stroke-width="60"><path d="m35435.905512 40947.165354h42519.68503900001v12598.42519700001h-42519.68503900001z"/><path d="m3937.007874 3937.007874h74805.984252v50395.984252h-74805.984252z"/><path d="m4724.409449 4724.409449h73231.181102v48821.181102h-73231.181102z"/><path d="m23622 4724v-787"/><path d="m43307 4724v-787"/><path d="m62992 4724v-787"/><text font-size="682.401575" lengthAdjust="spacingAndGlyphs" opacity="0" textLength="549.960630" x="13779.527559" y="4586.614173">1</text><path d="m14199 4562h-292"/><path d="m14053 4562v-512l-49 73-49 49-48 24"/><text font-size="682.401575" lengthAdjust="spacingAndGlyphs" opacity="0" textLength="547.440945" x="33464.566929" y="4586.614173">2</text><path d="m33592 4099 24-25 49-24h122l48 24 25 25 24 48v49l-24 73-293 293h317"/><text font-size="682.401575" lengthAdjust="spacingAndGlyphs" opacity="0" textLength="547.440945" x="53149.606299" y="4586.614173">3</text><path d="m53252 4050h317l-171 195h74l48 24 25 25 24 48v122l-24 49-25 24-48 25h-147l-48-25-25-24"/><text font-size="682.401575" lengthAdjust="spacingAndGlyphs" opacity="0" textLength="547.440945" x="72834.645669" y="4586.614173">4</text><path d="m73205 4221v341"/><path d="m73083 4026-121 365h316"/><path d="m23622 53545v787"/><path d="m43307 53545v787"/><path d="m62992 53545v787"/><text font-size="682.401575" lengthAdjust="spacingAndGlyphs" opacity="0" textLength="547.440945" x="13779.527559" y="54195.19685">1</text><path d="m14199 54170h-292"/><path d="m14053 54170v-512l-49 74-49 48-48 25"/><text font-size="682.401575" lengthAdjust="spacingAndGlyphs" opacity="0" textLength="547.440945" x="33464.566929" y="54195.19685">2</text><path d="m33592 53707 24-24 49-25h122l48 25 25 24 24 49v49l-24 73-293 292h317"/><text font-size="682.401575" lengthAdjust="spacingAndGlyphs" opacity="0" textLength="547.440945" x="53149.606299" y="54195.19685">3</text><path d="m53252 53658h317l-171 195h74l48 25 25 24 24 49v122l-24 49-25 24-48 24h-147l-48-24-25-24"/><text font-size="682.401575" lengthAdjust="spacingAndGlyphs" opacity="0" textLength="547.440945" x="72834.645669" y="54195.19685">4</text><path d="m73205 53829v341"/><path d="m73083 53634-121 366h316"/><path d="m3937 23622h787"/><path d="m3937 43307h787"/><text font-size="682.401575" lengthAdjust="spacingAndGlyphs" opacity="0" text-anchor="middle" textLength="498.700787" x="4330.708661" y="14035.433071">A</text><path d="m4208 13864h244"/><path d="m4160 14011 170-512 171 512"/><text font-size="682.401575" lengthAdjust="spacingAndGlyphs" opacity="0" text-anchor="middle" textLength="571.811024" x="4330.708661" y="33720.472441">B</text><path d="m4367 33427 73 25 24 24 25 49v73l-25 49-24 24-49 25h-195v-512h171l48 24 25 25 24 48v49l-24 49-25 24-48 24h-171"/><text font-size="682.401575" lengthAdjust="spacingAndGlyphs" opacity="0" text-anchor="middle" textLength="571.811024" x="4330.708661" y="53405.511811">C</text><path d="m4489 53332-25 24-73 25h-49l-73-25-48-49-25-48-24-98v-73l24-97 25-49 48-49 73-24h49l73 24 25 25"/><path d="m78742 23622h-787"/><path d="m78742 43307h-787"/><text font-size="682.401575" lengthAdjust="spacingAndGlyphs" opacity="0" text-anchor="middle" textLength="498.700787" x="78349.291339" y="14035.433071">A</text><path d="m78227 13864h244"/><path d="m78178 14011 171-512 170 512"/><text font-size="682.401575" lengthAdjust="spacingAndGlyphs" opacity="0" text-anchor="middle" textLength="571.811024" x="78349.291339" y="33720.472441">B</text><path d="m78385 33427 73 25 25 24 24 49v73l-24 49-25 24-48 25h-195v-512h170l49 24 24 25 25 48v49l-25 49-24 24-49 24h-170"/><text font-size="682.401575" lengthAdjust="spacingAndGlyphs" opacity="0" text-anchor="middle" textLength="571.811024" x="78349.291339" y="53405.511811">C</text><path d="m78507 53332-24 24-73 25h-49l-73-25-49-49-24-48-25-98v-73l25-97 24-49 49-49 73-24h49l73 24 24 25"/><text font-size="787.401575" lengthAdjust="spacingAndGlyphs" opacity="0" textLength="8721.417323" x="44491.023622" y="51911.732283">Date: 2022-03-10</text><path d="m44661 51883v-590h141l84 28 56 56 28 56 29 113v84l-29 112-28 57-56 56-84 28z"/><path d="m45505 51883v-309l-28-56-57-29h-112l-56 29"/><path d="m45505 51855-56 28h-141l-56-28-28-56v-57l28-56 56-28h141l56-28"/><path d="m45702 51489h225"/><path d="m45786 51293v506l28 56 56 28h57"/><path d="m46348 51855-56 28h-112l-57-28-28-56v-225l28-56 57-29h112l56 29 29 56v56l-282 56"/><path d="m46630 51827 28 28-28 28-28-28 28-28v56"/><path d="m46630 51518 28 28-28 28-28-28 28-28v56"/><path d="m47333 51349 28-28 56-28h141l56 28 28 28 28 56v56l-28 85-337 337h365"/><path d="m48036 51293h56l56 28 28 28 28 56 29 113v140l-29 113-28 56-28 28-56 28h-56l-57-28-28-28-28-56-28-113v-140l28-113 28-56 28-28z"/><path d="m48458 51349 28-28 56-28h140l57 28 28 28 28 56v56l-28 85-338 337h366"/><path d="m49020 51349 28-28 56-28h141l56 28 28 28 28 56v56l-28 85-337 337h365"/><path d="m49610 51658h450"/><path d="m50454 51293h56l57 28 28 28 28 56 28 113v140l-28 113-28 56-28 28-57 28h-56l-56-28-28-28-28-56-28-113v-140l28-113 28-56 28-28z"/><path d="m50848 51293h365l-196 225h84l56 28 28 28 28 56v141l-28 56-28 28-56 28h-169l-56-28-28-28"/><path d="m51467 51658h449"/><path d="m52507 51883h-337"/><path d="m52338 51883v-590l-56 84-56 56-56 28"/><path d="m52873 51293h56l56 28 28 28 28 56 28 113v140l-28 113-28 56-28 28-56 28h-56l-57-28-28-28-28-56-28-113v-140l28-113 28-56 28-28z"/><path d="m35435 52167h42520"/><text font-size="787.401575" lengthAdjust="spacingAndGlyphs" opacity="0" textLength="12236.614173" x="35829.606299" y="53014.094488">KiCad E.D.A. kicad (6.0.1)</text><path d="m36000 52985v-590"/><path d="m36337 52985-253-337"/><path d="m36337 52395-337 337"/><path d="m36590 52985v-393"/><path d="m36590 52395-28 28 28 28 28-28-28-28v56"/><path d="m37209 52929-28 28-85 28h-56l-84-28-56-56-29-56-28-113v-84l28-112 29-57 56-56 84-28h56l85 28 28 28"/><path d="m37715 52985v-309l-28-56-56-28h-113l-56 28"/><path d="m37715 52957-56 28h-141l-56-28-28-56v-56l28-56 56-29h141l56-28"/><path d="m38249 52985v-590"/><path d="m38249 52957-56 28h-112l-57-28-28-28-28-56v-169l28-56 28-28 57-28h112l56 28"/><path d="m38981 52676h196"/><path d="m39262 52985h-281v-590h281"/><path d="m39515 52929 28 28-28 28-28-28 28-28v56"/><path d="m39796 52985v-590h141l84 28 56 56 28 57 29 112v84l-29 113-28 56-56 56-84 28z"/><path d="m40387 52929 28 28-28 28-28-28 28-28v56"/><path d="m40640 52817h281"/><path d="m40584 52985 196-590 197 590"/><path d="m41174 52929 28 28-28 28-28-28 28-28v56"/><path d="m42355 52985v-590"/><path d="m42411 52760 169 225"/><path d="m42580 52592-225 225"/><path d="m42833 52985v-393"/><path d="m42833 52395-28 28 28 28 28-28-28-28v56"/><path d="m43368 52957-57 28h-112l-56-28-29-28-28-56v-169l28-56 29-28 56-28h112l57 28"/><path d="m43874 52985v-309l-28-56-57-28h-112l-56 28"/><path d="m43874 52957-57 28h-140l-56-28-29-56v-56l29-56 56-29h140l57-28"/><path d="m44408 52985v-590"/><path d="m44408 52957-56 28h-113l-56-28-28-28-28-56v-169l28-56 28-28 56-28h113l56 28"/><path d="m45308 53210-28-28-56-84-29-56-28-85-28-140v-113l28-140 28-85 29-56 56-84 28-28"/><path d="m45786 52395h-113l-56 28-28 28-56 85-28 112v225l28 56 28 28 56 28h113l56-28 28-28 28-56v-141l-28-56-28-28-56-28h-113l-56 28-28 28-28 56"/><path d="m46095 52929 28 28-28 28-28-28 28-28v56"/><path d="m46489 52395h56l57 28 28 28 28 56 28 113v140l-28 113-28 56-28 28-57 28h-56l-56-28-28-28-28-56-29-113v-140l29-113 28-56 28-28z"/><path d="m46939 52929 28 28-28 28-28-28 28-28v56"/><path d="m47530 52985h-338"/><path d="m47361 52985v-590l-56 84-57 57-56 28"/><path d="m47726 53210 28-28 57-84 28-56 28-85 28-140v-113l-28-140-28-85-28-56-57-84-28-28"/><path d="m35435 50986h42520"/></g><g fill="#840000" fill-opacity="0" stroke="#840000" stroke-width="118.110236"><text font-size="787.401575" lengthAdjust="spacingAndGlyphs" opacity="0" textLength="3743.897638" x="69294.173228" y="51911.732283">Rev: 1.0</text><path d="m69848 51883-196-281"/><path d="m69511 51883v-590h225l56 28 28 28 28 56v84l-28 57-28 28-56 28h-225"/><path d="m70327 51855-57 28h-112l-56-28-29-56v-225l29-56 56-29h112l57 29 28 56v56l-282 56"/><path d="m70552 51489 140 394 141-394"/><path d="m71058 51827 28 28-28 28-28-28 28-28v56"/><path d="m71058 51518 28 28-28 28-28-28 28-28v56"/><path d="m72098 51883h-337"/><path d="m71930 51883v-590l-57 84-56 56-56 28"/><path d="m72351 51827 28 28-28 28-28-28 28-28v56"/><path d="m72745 51293h56l56 28 29 28 28 56 28 113v140l-28 113-28 56-29 28-56 28h-56l-56-28-28-28-28-56-29-113v-140l29-113 28-56 28-28z"/></g><g fill="#840000" fill-opacity="0" stroke="#840000" stroke-width="60"><text font-size="787.401575" lengthAdjust="spacingAndGlyphs" opacity="0" textLength="3781.220472" x="35829.606299" y="51911.732283">Size: A5</text><path d="m35972 51855 84 28h141l56-28 28-28 28-56v-57l-28-56-28-28-56-28-113-28-56-28-28-28-28-57v-56l28-56 28-28 56-28h141l84 28"/><path d="m36562 51883v-394"/><path d="m36562 51293-28 28 28 28 28-28-28-28v56"/><path d="m36787 51489h309l-309 394h309"/><path d="m37546 51855-56 28h-112l-57-28-28-56v-225l28-56 57-29h112l56 29 29 56v56l-282 56"/><path d="m37828 51827 28 28-28 28-29-28 29-28v56"/><path d="m37828 51518 28 28-28 28-29-28 29-28v56"/><path d="m38531 51714h281"/><path d="m38474 51883 197-590 197 590"/><path d="m39346 51293h-281l-28 281 28-28 56-28h141l56 28 28 28 28 56v141l-28 56-28 28-56 28h-141l-56-28-28-28"/><text font-size="787.401575" lengthAdjust="spacingAndGlyphs" opacity="0" textLength="3350.196850" x="69294.173228" y="53014.094488">Id: 3/3</text><path d="m69464 52985v-590"/><path d="m69999 52985v-590"/><path d="m69999 52957-57 28h-112l-56-28-29-28-28-56v-169l28-56 29-28 56-28h112l57 28"/><path d="m70280 52929 28 28-28 28-28-28 28-28v56"/><path d="m70280 52620 28 28-28 28-28-28 28-28v56"/><path d="m70955 52395h365l-197 225h85l56 28 28 28 28 56v141l-28 56-28 28-56 28h-169l-56-28-28-28"/><path d="m71995 52367-506 759"/><path d="m72136 52395h365l-196 225h84l56 28 28 28 28 56v141l-28 56-28 28-56 28h-169l-56-28-28-28"/><path d="m35435 49411h42520"/></g><g fill="#840000" fill-opacity="0" stroke="#840000" stroke-width="157.480315"><text font-size="1049.84252" lengthAdjust="spacingAndGlyphs" opacity="0" textLength="14091.732283" x="35829.606299" y="50514.094488">Title: Power Regulators</text><path d="m36110 49689h450"/><path d="m36236 50476 99-787"/><path d="m36724 50476 65-525"/><path d="m36822 49689-42 37 33 38 42-38-33-37-9 75"/><path d="m37052 49951h300"/><path d="m37197 49689-84 675 28 75 70 37h75"/><path d="m37661 50476-70-37-29-75 85-675"/><path d="m38266 50439-80 37h-150l-70-37-29-75 38-300 47-75 80-38h149l71 38 28 75-9 75-385 75"/><path d="m38645 50401 33 38-42 37-33-37 42-38-9 75"/><path d="m38697 49989 33 37-43 38-32-38 42-37-10 75"/><path d="m39611 50476 98-787h300l70 37 33 38 28 75-14 112-47 75-42 38-80 37h-299"/><path d="m40511 50476-71-37-33-38-28-75 28-225 47-75 43-37 79-38h113l70 38 33 37 28 75-28 225-47 75-42 38-80 37z"/><path d="m41101 49951 84 525 197-375 103 375 216-525"/><path d="m42240 50439-80 37h-150l-70-37-28-75 37-300 47-75 80-38h150l70 38 28 75-9 75-384 75"/><path d="m42610 50476 66-525"/><path d="m42657 50101 47-75 42-37 80-38h75"/><path d="m44148 50476-216-375"/><path d="m43698 50476 98-787h300l70 37 33 38 28 75-14 112-47 75-42 38-79 37h-300"/><path d="m44790 50439-80 37h-150l-70-37-28-75 37-300 47-75 80-38h150l70 38 28 75-9 75-385 75"/><path d="m45563 49951-80 638-46 75-43 37-79 38h-113l-70-38"/><path d="m45502 50439-80 37h-150l-70-37-33-38-28-75 28-225 47-75 42-37 80-38h150l70 38"/><path d="m46275 49951-65 525"/><path d="m45938 49951-52 413 29 75 70 37h112l80-37 42-38"/><path d="m46697 50476-70-37-28-75 84-675"/><path d="m47335 50476 51-412-28-75-70-38h-150l-80 38"/><path d="m47339 50439-79 37h-188l-70-37-28-75 9-75 47-75 80-38h187l80-37"/><path d="m47663 49951h300"/><path d="m47808 49689-84 675 28 75 70 37h75"/><path d="m48272 50476-70-37-33-38-28-75 28-225 47-75 42-37 80-38h112l70 38 33 37 28 75-28 225-47 75-42 38-79 37z"/><path d="m48872 50476 66-525"/><path d="m48919 50101 47-75 42-37 80-38h75"/><path d="m49327 50439 70 37h150l80-37 46-75 5-38-28-75-70-37h-113l-70-38-28-75 5-37 46-75 80-38h113l70 38"/></g><g fill="#840000" fill-opacity="0" stroke="#840000" stroke-width="60"><text font-size="787.401575" lengthAdjust="spacingAndGlyphs" opacity="0" textLength="8641.181102" x="35829.606299" y="48998.346457">File: pwr.kicad_sch</text><path d="m36197 48660h-197"/><path d="m36000 48970v-591h281"/><path d="m36506 48970v-394"/><path d="m36506 48379-28 28 28 28 28-28-28-28v56"/><path d="m36871 48970-56-28-28-57v-506"/><path d="m37321 48942-56 28h-112l-57-28-28-57v-225l28-56 57-28h112l56 28 29 56v57l-282 56"/><path d="m37603 48913 28 29-28 28-28-28 28-29v57"/><path d="m37603 48604 28 28-28 28-28-28 28-28v56"/><path d="m38334 48576v591"/><path d="m38334 48604 56-28h112l57 28 28 28 28 56v169l-28 56-28 29-57 28h-112l-56-28"/><path d="m38812 48576 112 394 113-282 112 282 113-394"/><path d="m39487 48970v-394"/><path d="m39487 48688 28-56 28-28 56-28h56"/><path d="m39852 48913 28 29-28 28-28-28 28-29v57"/><path d="m40134 48970v-591"/><path d="m40190 48745 169 225"/><path d="m40359 48576-225 225"/><path d="m40612 48970v-394"/><path d="m40612 48379-28 28 28 28 28-28-28-28v56"/><path d="m41146 48942-56 28h-113l-56-28-28-29-28-56v-169l28-56 28-28 56-28h113l56 28"/><path d="m41652 48970v-310l-28-56-56-28h-113l-56 28"/><path d="m41652 48942-56 28h-141l-56-28-28-57v-56l28-56 56-28h141l56-28"/><path d="m42186 48970v-591"/><path d="m42186 48942-56 28h-112l-57-28-28-29-28-56v-169l28-56 28-28 57-28h112l56 28"/><path d="m42327 49026h450"/><path d="m42889 48942 57 28h112l56-28 29-57v-28l-29-56-56-28h-84l-56-28-29-57v-28l29-56 56-28h84l56 28"/><path d="m43649 48942-57 28h-112l-56-28-28-29-28-56v-169l28-56 28-28 56-28h112l57 28"/><path d="m43902 48970v-591"/><path d="m44155 48970v-310l-28-56-56-28h-85l-56 28-28 28"/><path d="m35435 47049h42520"/><text font-size="787.401575" lengthAdjust="spacingAndGlyphs" opacity="0" textLength="12236.614173" x="35829.606299" y="47935.354331">Sheet: /Power Regulation/</text><path d="m35972 47879 84 28h141l56-28 28-29 28-56v-56l-28-56-28-28-56-29-113-28-56-28-28-28-28-56v-56l28-57 28-28 56-28h141l84 28"/><path d="m36562 47907v-591"/><path d="m36815 47907v-310l-28-56-56-28h-84l-57 28-28 28"/><path d="m37321 47879-56 28h-112l-57-28-28-57v-225l28-56 57-28h112l56 28 29 56v57l-282 56"/><path d="m37828 47879-57 28h-112l-56-28-28-57v-225l28-56 56-28h112l57 28 28 56v57l-281 56"/><path d="m38024 47513h225"/><path d="m38109 47316v506l28 57 56 28h56"/><path d="m38446 47850 28 29-28 28-28-28 28-29v57"/><path d="m38446 47541 28 28-28 28-28-28 28-28v56"/><path d="m39599 47288-506 759"/><path d="m39796 47907v-591h225l56 28 28 28 29 57v84l-29 56-28 28-56 28h-225"/><path d="m40471 47907-56-28-28-29-28-56v-169l28-56 28-28 56-28h84l57 28 28 28 28 56v169l-28 56-28 29-57 28z"/><path d="m40865 47513 112 394 113-282 112 282 113-394"/><path d="m41765 47879-57 28h-112l-56-28-28-57v-225l28-56 56-28h112l57 28 28 56v57l-281 56"/><path d="m42046 47907v-394"/><path d="m42046 47625 28-56 28-28 56-28h57"/><path d="m43199 47907-197-282"/><path d="m42861 47907v-591h225l57 28 28 28 28 57v84l-28 56-28 28-57 28h-225"/><path d="m43677 47879-56 28h-113l-56-28-28-57v-225l28-56 56-28h113l56 28 28 56v57l-281 56"/><path d="m44211 47513v478l-28 56-28 28-56 29h-85l-56-29"/><path d="m44211 47879-56 28h-113l-56-28-28-29-28-56v-169l28-56 28-28 56-28h113l56 28"/><path d="m44745 47513v394"/><path d="m44492 47513v309l29 57 56 28h84l56-28 28-29"/><path d="m45111 47907-56-28-28-57v-506"/><path d="m45589 47907v-310l-28-56-56-28h-113l-56 28"/><path d="m45589 47879-56 28h-141l-56-28-28-57v-56l28-56 56-28h141l56-28"/><path d="m45786 47513h225"/><path d="m45870 47316v506l28 57 57 28h56"/><path d="m46208 47907v-394"/><path d="m46208 47316-28 28 28 28 28-28-28-28v56"/><path d="m46573 47907-56-28-28-29-28-56v-169l28-56 28-28 56-28h85l56 28 28 28 28 56v169l-28 56-28 29-56 28z"/><path d="m47023 47513v394"/><path d="m47023 47569 28-28 57-28h84l56 28 28 56v310"/><path d="m47979 47288-506 759"/></g><text fill="none" lengthAdjust="spacingAndGlyphs" opacity="0" stroke="#840000" stroke-width="118.110236" textLength="60.000000" x="35829.606299" y="46754.251969"/><g stroke-width="60"><g fill="#840000" fill-opacity="0" stroke="#840000"><text lengthAdjust="spacingAndGlyphs" opacity="0" textLength="118.110236" x="35829.606299" y="45573.149606"/><text lengthAdjust="spacingAndGlyphs" opacity="0" textLength="60.000000" x="35829.606299" y="44392.047244"/><text lengthAdjust="spacingAndGlyphs" opacity="0" textLength="60.000000" x="35829.606299" y="43210.94488200001"/><text lengthAdjust="spacingAndGlyphs" opacity="0" textLength="60.000000" x="35829.606299" y="42029.84252"/><path d="m43309 50986v1181"/><path d="m68506 50986v2559"/><g stroke-linecap="round" stroke-linejoin="round" stroke-width="60"><path d="m46900 34620h1200v150h-1200z" fill="#840000" fill-opacity="1" stroke="#840000"/><g fill="#840000" fill-opacity="0" stroke="#840000"><path d="m46900 34230h1200v150h-1200z"/><path d="m47000 33900h200" fill="none" stroke="#840000" stroke-linecap="round" stroke-linejoin="round" stroke-width="60"/><path d="m47100 34000v-200" fill="none" stroke="#840000" stroke-linecap="round" stroke-linejoin="round" stroke-width="60"/><path d="m47500 34230v-730"/><path d="m47500 34770v730"/></g><g fill="#006464" fill-opacity="0" stroke="#006464"><text font-size="666.653543" lengthAdjust="spacingAndGlyphs" opacity="0" text-anchor="middle" textLength="1512.362205" x="49257.440945" y="34034.96063">C14</text><path d="m48935 33963-23 24-72 24h-47l-72-24-47-48-24-47-24-96v-71l24-95 24-48 47-48 72-23h47l72 23 23 24"/><path d="m49412 34011h-286"/><path d="m49269 34011v-500l-48 71-47 48-48 23"/><path d="m49840 33677v334"/><path d="m49721 33487-119 357h310"/><text font-size="666.653543" lengthAdjust="spacingAndGlyphs" opacity="0" text-anchor="middle" textLength="1964.763780" x="49483.622047" y="35034.96063">10µF</text><path d="m48912 35011h-286"/><path d="m48769 35011v-500l-48 71-47 48-48 23"/><path d="m49221 34511h48l47 23 24 24 24 48 24 95v119l-24 95-24 48-24 24-47 24h-48l-47-24-24-24-24-48-24-95v-119l24-95 24-48 24-24z"/><path d="m49602 34677v500"/><path d="m49840 34939 24 48 48 24"/><path d="m49602 34939 24 48 48 24h95l47-24 24-48v-262"/><path d="m50293 34749h-167"/><path d="m50126 35011v-500h238"/></g></g></g><g fill="#006464" fill-opacity="0" stroke="#006464"><path d="m42500 37000v500h500l-500 500-500-500h500" fill="none" stroke="#840000"/><g fill="#006464" fill-opacity="0" stroke="#006464"><text font-size="666.653543" lengthAdjust="spacingAndGlyphs" opacity="0" text-anchor="middle" textLength="1583.818898" x="42500" y="39250">GND</text><path d="m42119 38750-48-24h-71l-72 24-48 47-23 48-24 95v71l24 96 23 47 48 48 72 24h47l72-24 23-24v-167h-95"/><path d="m42357 39226v-500l285 500v-500"/><path d="m42880 39226v-500h120l71 24 48 47 23 48 24 95v71l-24 96-23 47-48 48-71 24z"/></g></g><g fill="#006464" fill-opacity="0" stroke="#006464"><path d="m40500 12750h4000v2750h-4000z" fill="none" stroke="#840000" stroke-width="100"/><g stroke-width="60"><path d="m42500 15500v1000" fill="none" stroke="#840000"/><g fill="#006464" fill-opacity="0" stroke="#006464"><text font-size="666.653543" lengthAdjust="spacingAndGlyphs" opacity="0" textLength="1583.818898" transform="matrix(0 -1 1 0 27100 57900)" x="42500" y="15650">GND</text><path d="m42250 14989-24 47v72l24 71 47 48 48 23 95 24h71l96-24 47-23 48-48 24-71v-48l-24-71-24-24h-167v95"/><path d="m42726 14750h-500l500-285h-500"/><path d="m42726 14227h-500v-119l24-72 47-47 48-24 95-24h71l96 24 47 24 48 47 24 72z"/></g><g fill="#a90000" fill-opacity="0" stroke="#a90000"><text font-size="666.653543" lengthAdjust="spacingAndGlyphs" opacity="0" text-anchor="middle" textLength="536.181102" transform="matrix(0 -1 1 0 26400 58400)" x="42400" y="16000">1</text><path d="m42376 15857v285"/><path d="m42376 16000h-500l71 47 48 48 24 47"/></g><path d="m44500 13500h1000" fill="none" stroke="#840000"/><g fill="#006464" fill-opacity="0" stroke="#006464"><text font-size="666.653543" lengthAdjust="spacingAndGlyphs" opacity="0" text-anchor="end" textLength="1012.362205" x="44400" y="13750">VO</text><path d="m43465 13226 166 500 167-500"/><path d="m44060 13226h95l48 24 47 47 24 95v167l-24 95-47 48-48 24h-95l-48-24-47-48-24-95v-167l24-95 47-47z"/></g><g fill="#a90000" fill-opacity="0" stroke="#a90000"><text font-size="666.653543" lengthAdjust="spacingAndGlyphs" opacity="0" text-anchor="middle" textLength="536.181102" x="45000" y="13400">2</text><path d="m44857 12923 23-23 48-24h119l48 24 24 23 23 48v48l-23 71-286 286h309"/></g><path d="m40500 13500h-1000" fill="none" stroke="#840000"/><g fill="#006464" fill-opacity="0" stroke="#006464"><text font-size="666.653543" lengthAdjust="spacingAndGlyphs" opacity="0" textLength="726.653543" x="40600" y="13750">VI</text><path d="m40677 13226 167 500 166-500"/><path d="m41177 13726v-500"/></g><g fill="#a90000" fill-opacity="0" stroke="#a90000"><text font-size="666.653543" lengthAdjust="spacingAndGlyphs" opacity="0" text-anchor="middle" textLength="536.181102" x="40000" y="13400">3</text><path d="m39833 12876h309l-166 190h71l48 24 24 24 23 47v119l-23 48-24 24-48 24h-143l-47-24-24-24"/></g><g fill="#006464" fill-opacity="0" stroke="#006464"><text font-size="666.653543" lengthAdjust="spacingAndGlyphs" opacity="0" text-anchor="middle" textLength="1060.000000" x="42500" y="10750">U2</text><path d="m42119 10226v404l23 48 24 24 48 24h95l48-24 23-24 24-48v-404"/><path d="m42619 10273 23-23 48-24h119l48 24 23 23 24 48v48l-24 71-285 286h309"/><text font-size="666.653543" lengthAdjust="spacingAndGlyphs" opacity="0" text-anchor="middle" textLength="8369.527559" x="42500" y="11750">LD1117S33TR_SOT223</text><path d="m38702 11726h-238v-500"/><path d="m38869 11726v-500h119l71 24 48 47 23 48 24 95v71l-24 96-23 47-48 48-71 24z"/><path d="m39630 11726h-285"/><path d="m39488 11726v-500l-48 71-48 48-47 24"/><path d="m40107 11726h-286"/><path d="m39964 11726v-500l-48 71-47 48-48 24"/><path d="m40583 11726h-286"/><path d="m40440 11726v-500l-48 71-47 48-48 24"/><path d="m40750 11226h333l-214 500"/><path d="m41250 11702 71 24h119l48-24 23-24 24-48v-47l-24-48-23-24-48-23-95-24-48-24-24-24-23-47v-48l23-48 24-23 48-24h119l71 24"/><path d="m41702 11226h309l-166 190h71l48 24 24 24 23 47v119l-23 48-24 24-48 24h-143l-47-24-24-24"/><path d="m42178 11226h310l-167 190h71l48 24 24 24 24 47v119l-24 48-24 24-48 24h-142l-48-24-24-24"/><path d="m42630 11226h286"/><path d="m42773 11726v-500"/><path d="m43369 11726-167-238"/><path d="m43083 11726v-500h190l48 24 24 23 24 48v71l-24 48-24 24-48 24h-190"/><path d="m43464 11773h381"/><path d="m43940 11702 71 24h119l48-24 24-24 24-48v-47l-24-48-24-24-48-23-95-24-47-24-24-24-24-47v-48l24-48 24-23 47-24h119l72 24"/><path d="m44535 11226h95l48 24 48 47 24 95v167l-24 95-48 48-48 24h-95l-47-24-48-48-24-95v-167l24-95 48-47z"/><path d="m44892 11226h286"/><path d="m45035 11726v-500"/><path d="m45321 11273 24-23 47-24h119l48 24 24 23 24 48v48l-24 71-286 286h310"/><path d="m45797 11273 24-23 48-24h119l47 24 24 23 24 48v48l-24 71-286 286h310"/><path d="m46250 11226h309l-167 190h72l47 24 24 24 24 47v119l-24 48-24 24-47 24h-143l-48-24-23-24"/></g></g></g><g fill="#006464" fill-opacity="0" stroke="#006464"><path d="m36400 15620h1200v150h-1200z" fill="#840000" fill-opacity="1" stroke="#840000"/><g fill-opacity="0"><g fill="#840000" stroke="#840000"><path d="m36400 15230h1200v150h-1200z"/><path d="m36500 14900h200" fill="none" stroke="#840000" stroke-linecap="round" stroke-linejoin="round" stroke-width="60"/><path d="m36600 15000v-200" fill="none" stroke="#840000" stroke-linecap="round" stroke-linejoin="round" stroke-width="60"/><path d="m37000 15230v-730"/><path d="m37000 15770v730"/></g><g fill="#006464" stroke="#006464"><text font-size="666.653543" lengthAdjust="spacingAndGlyphs" opacity="0" text-anchor="middle" textLength="1512.362205" x="38757.440945" y="15034.96063">C11</text><path d="m38435 14963-23 24-72 24h-47l-72-24-47-48-24-47-24-96v-71l24-95 24-48 47-48 72-23h47l72 23 23 24"/><path d="m38912 15011h-286"/><path d="m38769 15011v-500l-48 71-47 48-48 23"/><path d="m39388 15011h-286"/><path d="m39245 15011v-500l-48 71-47 48-48 23"/><text font-size="666.653543" lengthAdjust="spacingAndGlyphs" opacity="0" text-anchor="middle" textLength="2369.527559" x="39186.023622" y="16034.96063">100nF</text><path d="m38412 16011h-286"/><path d="m38269 16011v-500l-48 71-47 48-48 23"/><path d="m38721 15511h48l47 23 24 24 24 48 24 95v119l-24 95-24 48-24 24-47 24h-48l-47-24-24-24-24-48-24-95v-119l24-95 24-48 24-24z"/><path d="m39197 15511h48l48 23 23 24 24 48 24 95v119l-24 95-24 48-23 24-48 24h-48l-47-24-24-24-24-48-24-95v-119l24-95 24-48 24-24z"/><path d="m39578 15677v334"/><path d="m39578 15725 24-24 48-24h71l48 24 24 48v262"/><path d="m40197 15749h-166"/><path d="m40031 16011v-500h238"/></g></g></g><g fill="#006464" fill-opacity="0" stroke="#006464"><path d="m40500 31250h4000v2750h-4000z" fill="none" stroke="#840000" stroke-width="100"/><g stroke-width="60"><path d="m42500 34000v1000" fill="none" stroke="#840000"/><g fill="#006464" fill-opacity="0" stroke="#006464"><text font-size="666.653543" lengthAdjust="spacingAndGlyphs" opacity="0" textLength="1583.818898" transform="matrix(0 -1 1 0 8600 76400)" x="42500" y="34150">GND</text><path d="m42250 33489-24 47v72l24 71 47 48 48 23 95 24h71l96-24 47-23 48-48 24-71v-48l-24-71-24-24h-167v95"/><path d="m42726 33250h-500l500-285h-500"/><path d="m42726 32727h-500v-119l24-72 47-47 48-24 95-24h71l96 24 47 24 48 47 24 72z"/></g><g fill="#a90000" fill-opacity="0" stroke="#a90000"><text font-size="666.653543" lengthAdjust="spacingAndGlyphs" opacity="0" text-anchor="middle" textLength="536.181102" transform="matrix(0 -1 1 0 7900 76900)" x="42400" y="34500">1</text><path d="m42376 34357v285"/><path d="m42376 34500h-500l71 47 48 48 24 47"/></g><path d="m44500 32000h1000" fill="none" stroke="#840000"/><g fill="#006464" fill-opacity="0" stroke="#006464"><text font-size="666.653543" lengthAdjust="spacingAndGlyphs" opacity="0" text-anchor="end" textLength="1012.362205" x="44400" y="32250">VO</text><path d="m43465 31726 166 500 167-500"/><path d="m44060 31726h95l48 24 47 47 24 95v167l-24 95-47 48-48 24h-95l-48-24-47-48-24-95v-167l24-95 47-47z"/></g><g fill="#a90000" fill-opacity="0" stroke="#a90000"><text font-size="666.653543" lengthAdjust="spacingAndGlyphs" opacity="0" text-anchor="middle" textLength="536.181102" x="45000" y="31900">2</text><path d="m44857 31423 23-23 48-24h119l48 24 24 23 23 48v48l-23 71-286 286h309"/></g><path d="m40500 32000h-1000" fill="none" stroke="#840000"/><g fill="#006464" fill-opacity="0" stroke="#006464"><text font-size="666.653543" lengthAdjust="spacingAndGlyphs" opacity="0" textLength="726.653543" x="40600" y="32250">VI</text><path d="m40677 31726 167 500 166-500"/><path d="m41177 32226v-500"/></g><g fill="#a90000" fill-opacity="0" stroke="#a90000"><text font-size="666.653543" lengthAdjust="spacingAndGlyphs" opacity="0" text-anchor="middle" textLength="536.181102" x="40000" y="31900">3</text><path d="m39833 31376h309l-166 190h71l48 24 24 24 23 47v119l-23 48-24 24-48 24h-143l-47-24-24-24"/></g><g fill="#006464" fill-opacity="0" stroke="#006464"><text font-size="666.653543" lengthAdjust="spacingAndGlyphs" opacity="0" text-anchor="middle" textLength="1060.000000" x="42500" y="29250">U3</text><path d="m42119 28726v404l23 48 24 24 48 24h95l48-24 23-24 24-48v-404"/><path d="m42595 28726h309l-166 190h71l48 24 23 24 24 47v119l-24 48-23 24-48 24h-143l-47-24-24-24"/><text font-size="666.653543" lengthAdjust="spacingAndGlyphs" opacity="0" text-anchor="middle" textLength="8369.527559" x="42500" y="30250">LD1117S50TR_SOT223</text><path d="m38702 30226h-238v-500"/><path d="m38869 30226v-500h119l71 24 48 47 23 48 24 95v71l-24 96-23 47-48 48-71 24z"/><path d="m39630 30226h-285"/><path d="m39488 30226v-500l-48 71-48 48-47 24"/><path d="m40107 30226h-286"/><path d="m39964 30226v-500l-48 71-47 48-48 24"/><path d="m40583 30226h-286"/><path d="m40440 30226v-500l-48 71-47 48-48 24"/><path d="m40750 29726h333l-214 500"/><path d="m41250 30202 71 24h119l48-24 23-24 24-48v-47l-24-48-23-24-48-23-95-24-48-24-24-24-23-47v-48l23-48 24-23 48-24h119l71 24"/><path d="m41988 29726h-238l-24 238 24-24 47-24h119l48 24 24 24 23 47v119l-23 48-24 24-48 24h-119l-47-24-24-24"/><path d="m42321 29726h48l47 24 24 23 24 48 24 95v119l-24 95-24 48-24 24-47 24h-48l-48-24-23-24-24-48-24-95v-119l24-95 24-48 23-23z"/><path d="m42630 29726h286"/><path d="m42773 30226v-500"/><path d="m43369 30226-167-238"/><path d="m43083 30226v-500h190l48 24 24 23 24 48v71l-24 48-24 24-48 24h-190"/><path d="m43464 30273h381"/><path d="m43940 30202 71 24h119l48-24 24-24 24-48v-47l-24-48-24-24-48-23-95-24-47-24-24-24-24-47v-48l24-48 24-23 47-24h119l72 24"/><path d="m44535 29726h95l48 24 48 47 24 95v167l-24 95-48 48-48 24h-95l-47-24-48-48-24-95v-167l24-95 48-47z"/><path d="m44892 29726h286"/><path d="m45035 30226v-500"/><path d="m45321 29773 24-23 47-24h119l48 24 24 23 24 48v48l-24 71-286 286h310"/><path d="m45797 29773 24-23 48-24h119l47 24 24 23 24 48v48l-24 71-286 286h310"/><path d="m46250 29726h309l-167 190h72l47 24 24 24 24 47v119l-24 48-24 24-47 24h-143l-48-24-23-24"/></g></g></g><g fill="#006464" fill-opacity="0" stroke="#006464"><path d="m42500 18000v500h500l-500 500-500-500h500" fill="none" stroke="#840000"/><g fill="#006464" fill-opacity="0" stroke="#006464"><text font-size="666.653543" lengthAdjust="spacingAndGlyphs" opacity="0" text-anchor="middle" textLength="1583.818898" x="42500" y="20250">GND</text><path d="m42119 19750-48-24h-71l-72 24-48 47-23 48-24 95v71l24 96 23 47 48 48 72 24h47l72-24 23-24v-167h-95"/><path d="m42357 20226v-500l285 500v-500"/><path d="m42880 20226v-500h120l71 24 48 47 23 48 24 95v71l-24 96-23 47-48 48-71 24z"/></g></g><g fill="#006464" fill-opacity="0" stroke="#006464"><path d="m36400 34620h1200v150h-1200z" fill="#840000" fill-opacity="1" stroke="#840000"/><g fill-opacity="0"><g fill="#840000" stroke="#840000"><path d="m36400 34230h1200v150h-1200z"/><path d="m36500 33900h200" fill="none" stroke="#840000" stroke-linecap="round" stroke-linejoin="round" stroke-width="60"/><path d="m36600 34000v-200" fill="none" stroke="#840000" stroke-linecap="round" stroke-linejoin="round" stroke-width="60"/><path d="m37000 34230v-730"/><path d="m37000 34770v730"/></g><g fill="#006464" stroke="#006464"><text font-size="666.653543" lengthAdjust="spacingAndGlyphs" opacity="0" text-anchor="middle" textLength="1512.362205" x="38757.440945" y="34034.96063">C12</text><path d="m38435 33963-23 24-72 24h-47l-72-24-47-48-24-47-24-96v-71l24-95 24-48 47-48 72-23h47l72 23 23 24"/><path d="m38912 34011h-286"/><path d="m38769 34011v-500l-48 71-47 48-48 23"/><path d="m39102 33558 24-24 48-23h119l47 23 24 24 24 48v47l-24 72-286 286h310"/><text font-size="666.653543" lengthAdjust="spacingAndGlyphs" opacity="0" text-anchor="middle" textLength="2369.527559" x="39186.023622" y="35034.96063">100nF</text><path d="m38412 35011h-286"/><path d="m38269 35011v-500l-48 71-47 48-48 23"/><path d="m38721 34511h48l47 23 24 24 24 48 24 95v119l-24 95-24 48-24 24-47 24h-48l-47-24-24-24-24-48-24-95v-119l24-95 24-48 24-24z"/><path d="m39197 34511h48l48 23 23 24 24 48 24 95v119l-24 95-24 48-23 24-48 24h-48l-47-24-24-24-24-48-24-95v-119l24-95 24-48 24-24z"/><path d="m39578 34677v334"/><path d="m39578 34725 24-24 48-24h71l48 24 24 48v262"/><path d="m40197 34749h-166"/><path d="m40031 35011v-500h238"/></g></g></g><g fill="#006464" fill-opacity="0" stroke="#006464"><path d="m46900 15620h1200v150h-1200z" fill="#840000" fill-opacity="1" stroke="#840000"/><g fill-opacity="0"><g fill="#840000" stroke="#840000"><path d="m46900 15230h1200v150h-1200z"/><path d="m47000 14900h200" fill="none" stroke="#840000" stroke-linecap="round" stroke-linejoin="round" stroke-width="60"/><path d="m47100 15000v-200" fill="none" stroke="#840000" stroke-linecap="round" stroke-linejoin="round" stroke-width="60"/><path d="m47500 15230v-730"/><path d="m47500 15770v730"/></g><g fill="#006464" stroke="#006464"><text font-size="666.653543" lengthAdjust="spacingAndGlyphs" opacity="0" text-anchor="middle" textLength="1512.362205" x="49257.440945" y="15034.96063">C13</text><path d="m48935 14963-23 24-72 24h-47l-72-24-47-48-24-47-24-96v-71l24-95 24-48 47-48 72-23h47l72 23 23 24"/><path d="m49412 15011h-286"/><path d="m49269 15011v-500l-48 71-47 48-48 23"/><path d="m49578 14511h310l-167 190h72l47 24 24 24 24 47v119l-24 48-24 24-47 24h-143l-48-24-24-24"/><text font-size="666.653543" lengthAdjust="spacingAndGlyphs" opacity="0" text-anchor="middle" textLength="1964.763780" x="49483.622047" y="16034.96063">10µF</text><path d="m48912 16011h-286"/><path d="m48769 16011v-500l-48 71-47 48-48 23"/><path d="m49221 15511h48l47 23 24 24 24 48 24 95v119l-24 95-24 48-24 24-47 24h-48l-47-24-24-24-24-48-24-95v-119l24-95 24-48 24-24z"/><path d="m49602 15677v500"/><path d="m49840 15939 24 48 48 24"/><path d="m49602 15939 24 48 48 24h95l47-24 24-48v-262"/><path d="m50293 15749h-167"/><path d="m50126 16011v-500h238"/></g></g></g><g fill="#725600" fill-opacity="0" stroke="#725600"><text font-size="666.653543" lengthAdjust="spacingAndGlyphs" opacity="0" text-anchor="end" textLength="3631.417323" x="33425" y="32250">BATT_POS</text><path d="m30109 31964 71 24 24 23 24 48v71l-24 48-24 24-47 24h-191v-500h167l47 24 24 23 24 48v48l-24 47-24 24-47 24h-167"/><path d="m30418 32083h238"/><path d="m30371 32226 166-500 167 500"/><path d="m30799 31726h286"/><path d="m30942 32226v-500"/><path d="m31180 31726h286"/><path d="m31323 32226v-500"/><path d="m31514 32273h381"/><path d="m32014 32226v-500h190l48 24 23 23 24 48v71l-24 48-23 24-48 24h-190"/><path d="m32609 31726h95l48 24 47 47 24 95v167l-24 95-47 48-48 24h-95l-48-24-47-48-24-95v-167l24-95 47-47z"/><path d="m33014 32202 71 24h119l48-24 23-24 24-48v-47l-24-48-23-24-48-23-95-24-48-24-24-24-23-47v-48l23-48 24-23 48-24h119l71 24"/><path d="m34000 32000-250-250h-250v500h250z" fill="none" stroke="#725600" stroke-linecap="round" stroke-linejoin="round" stroke-width="60"/></g><g fill="#725600" fill-opacity="0" stroke="#725600"><text font-size="666.653543" lengthAdjust="spacingAndGlyphs" opacity="0" text-anchor="end" textLength="3607.637795" x="33425" y="36750">BATT_NEG</text><path d="m30133 36464 71 24 24 23 24 48v71l-24 48-24 24-48 24h-190v-500h167l47 24 24 23 24 48v48l-24 47-24 24-47 24h-167"/><path d="m30442 36583h238"/><path d="m30395 36726 166-500 167 500"/><path d="m30823 36226h286"/><path d="m30966 36726v-500"/><path d="m31204 36226h286"/><path d="m31347 36726v-500"/><path d="m31537 36773h381"/><path d="m32037 36726v-500l286 500v-500"/><path d="m32561 36464h167"/><path d="m32799 36726h-238v-500h238"/><path d="m33275 36250-47-24h-72l-71 24-48 47-23 48-24 95v71l24 96 23 47 48 48 71 24h48l71-24 24-24v-167h-95"/><path d="m34000 36500-250-250h-250v500h250z" fill="none" stroke="#725600" stroke-linecap="round" stroke-linejoin="round" stroke-width="60"/></g><g fill="#725600" fill-opacity="0" stroke="#725600"><text font-size="666.653543" lengthAdjust="spacingAndGlyphs" opacity="0" textLength="1679.055118" x="52075" y="13750">3.3V</text><path d="m52176 13226h309l-166 190h71l48 24 24 24 23 47v119l-23 48-24 24-48 24h-143l-47-24-24-24"/><path d="m52700 13678 24 24-24 24-24-24 24-24v48"/><path d="m52890 13226h310l-167 190h72l47 24 24 24 24 47v119l-24 48-24 24-47 24h-143l-48-24-24-24"/><path d="m53343 13226 166 500 167-500"/><path d="m51500 13500 250 250h250v-500h-250z" fill="none" stroke="#725600" stroke-linecap="round" stroke-linejoin="round" stroke-width="60"/></g><g fill="#725600" fill-opacity="0" stroke="#725600"><text font-size="666.653543" lengthAdjust="spacingAndGlyphs" opacity="0" text-anchor="end" textLength="3607.637795" x="33425" y="17750">BATT_NEG</text><path d="m30133 17464 71 24 24 23 24 48v71l-24 48-24 24-48 24h-190v-500h167l47 24 24 23 24 48v48l-24 47-24 24-47 24h-167"/><path d="m30442 17583h238"/><path d="m30395 17726 166-500 167 500"/><path d="m30823 17226h286"/><path d="m30966 17726v-500"/><path d="m31204 17226h286"/><path d="m31347 17726v-500"/><path d="m31537 17773h381"/><path d="m32037 17726v-500l286 500v-500"/><path d="m32561 17464h167"/><path d="m32799 17726h-238v-500h238"/><path d="m33275 17250-47-24h-72l-71 24-48 47-23 48-24 95v71l24 96 23 47 48 48 71 24h48l71-24 24-24v-167h-95"/><path d="m34000 17500-250-250h-250v500h250z" fill="none" stroke="#725600" stroke-linecap="round" stroke-linejoin="round" stroke-width="60"/></g><g fill="#725600" fill-opacity="0" stroke="#725600"><text font-size="666.653543" lengthAdjust="spacingAndGlyphs" opacity="0" text-anchor="end" textLength="3631.417323" x="33425" y="13750">BATT_POS</text><path d="m30109 13464 71 24 24 23 24 48v71l-24 48-24 24-47 24h-191v-500h167l47 24 24 23 24 48v48l-24 47-24 24-47 24h-167"/><path d="m30418 13583h238"/><path d="m30371 13726 166-500 167 500"/><path d="m30799 13226h286"/><path d="m30942 13726v-500"/><path d="m31180 13226h286"/><path d="m31323 13726v-500"/><path d="m31514 13773h381"/><path d="m32014 13726v-500h190l48 24 23 23 24 48v71l-24 48-23 24-48 24h-190"/><path d="m32609 13226h95l48 24 47 47 24 95v167l-24 95-47 48-48 24h-95l-48-24-47-48-24-95v-167l24-95 47-47z"/><path d="m33014 13702 71 24h119l48-24 23-24 24-48v-47l-24-48-23-24-48-23-95-24-48-24-24-24-23-47v-48l23-48 24-23 48-24h119l71 24"/><path d="m34000 13500-250-250h-250v500h250z" fill="none" stroke="#725600" stroke-linecap="round" stroke-linejoin="round" stroke-width="60"/></g><g fill="#725600" fill-opacity="0" stroke="#725600"><text font-size="666.653543" lengthAdjust="spacingAndGlyphs" opacity="0" textLength="964.763780" x="52075" y="32250">5V</text><path d="m52462 31726h-238l-24 238 24-24 47-24h119l48 24 24 24 23 47v119l-23 48-24 24-48 24h-119l-47-24-24-24"/><path d="m52628 31726 167 500 167-500"/><path d="m51500 32000 250 250h250v-500h-250z" fill="none" stroke="#725600" stroke-linecap="round" stroke-linejoin="round" stroke-width="60"/></g><g fill="#009600" fill-opacity="0" stroke="#009600"><path d="m42500 36500v-1500"/><path d="m45500 32000h2000"/><path d="m47500 36500h-5000"/><path d="m37000 16500v1000"/><path d="m37000 13500h2500"/><path d="m37000 13500v1000"/><path d="m37000 17500h5500"/><path d="m47500 17500h-5000"/><path d="m42500 17500v-1000"/><path d="m47500 16500v1000"/><path d="m42500 17500v500"/><path d="m37000 32000h2500"/><path d="m37000 32000v1500"/><path d="m45500 13500h2000"/><path d="m47500 13500v1000"/><path d="m47500 13500h4000"/><path d="m34000 36500h3000"/><path d="m34000 32000h3000"/><path d="m34000 13500h3000"/><path d="m34000 17500h3000"/><path d="m37000 36500h5500"/><path d="m37000 35500v1000"/><path d="m47500 32000h4000"/><path d="m47500 32000v1500"/><path d="m42500 36500v500"/><path d="m47500 35500v1000"/></g><g fill="#009600" stroke="#009600"><circle cx="37000" cy="13500" r="180"/><circle cx="42500" cy="17500" r="180"/><circle cx="37000" cy="32000" r="180"/><circle cx="42500" cy="36500" r="180"/><circle cx="37000" cy="36500" r="180"/><circle cx="47500" cy="13500" r="180"/><circle cx="37000" cy="17500" r="180"/><circle cx="47500" cy="32000" r="180"/></g></g></g></svg>