<svg height="21.00072cm" viewBox="0 0 116930 82680" width="29.70022cm" xmlns="http://www.w3.org/2000/svg"><g stroke-linecap="round" stroke-linejoin="round"><path d="m0 0h116930v82680h-116930z" fill="#f5f4ef" stroke="#f5f4ef" stroke-width=".03937"/><g fill="#840000" fill-opacity="0" stroke="#840000" stroke-width="60"><path d="m69685.905512 65357.165354h42519.68503900001v12598.42519700001h-42519.68503900001z"/><path d="m3937.007874 3937.007874h109055.984252v74805.984252h-109055.984252z"/><path d="m4724.409449 4724.409449h107481.181102v73231.181102h-107481.181102z"/><path d="m23622 4724v-787"/><path d="m43307 4724v-787"/><path d="m62992 4724v-787"/><path d="m82677 4724v-787"/><path d="m102362 4724v-787"/><text font-size="682.401575" lengthAdjust="spacingAndGlyphs" opacity="0" textLength="549.960630" x="13779.527559" y="4586.614173">1</text><path d="m14199 4562h-292"/><path d="m14053 4562v-512l-49 73-49 49-48 24"/><text font-size="682.401575" lengthAdjust="spacingAndGlyphs" opacity="0" textLength="547.440945" x="33464.566929" y="4586.614173">2</text><path d="m33592 4099 24-25 49-24h122l48 24 25 25 24 48v49l-24 73-293 293h317"/><text font-size="682.401575" lengthAdjust="spacingAndGlyphs" opacity="0" textLength="547.440945" x="53149.606299" y="4586.614173">3</text><path d="m53252 4050h317l-171 195h74l48 24 25 25 24 48v122l-24 49-25 24-48 25h-147l-48-25-25-24"/><text font-size="682.401575" lengthAdjust="spacingAndGlyphs" opacity="0" textLength="547.440945" x="72834.645669" y="4586.614173">4</text><path d="m73205 4221v341"/><path d="m73083 4026-121 365h316"/><text font-size="682.401575" lengthAdjust="spacingAndGlyphs" opacity="0" textLength="547.440945" x="92519.685039" y="4586.614173">5</text><path d="m92915 4050h-244l-24 244 24-25 49-24h122l48 24 25 25 24 48v122l-24 49-25 24-48 25h-122l-49-25-24-24"/><text font-size="682.401575" lengthAdjust="spacingAndGlyphs" opacity="0" textLength="547.440945" x="112204.724409" y="4586.614173">6</text><path d="m112575 4050h-97l-49 24-24 25-49 73-24 97v195l24 49 24 24 49 25h98l48-25 25-24 24-49v-122l-24-48-25-25-48-24h-98l-49 24-24 25-24 48"/><path d="m23622 77955v787"/><path d="m43307 77955v787"/><path d="m62992 77955v787"/><path d="m82677 77955v787"/><path d="m102362 77955v787"/><text font-size="682.401575" lengthAdjust="spacingAndGlyphs" opacity="0" textLength="547.440945" x="13779.527559" y="78605.19685">1</text><path d="m14199 78580h-292"/><path d="m14053 78580v-512l-49 74-49 48-48 25"/><text font-size="682.401575" lengthAdjust="spacingAndGlyphs" opacity="0" textLength="547.440945" x="33464.566929" y="78605.19685">2</text><path d="m33592 78117 24-24 49-25h122l48 25 25 24 24 49v49l-24 73-293 292h317"/><text font-size="682.401575" lengthAdjust="spacingAndGlyphs" opacity="0" textLength="547.440945" x="53149.606299" y="78605.19685">3</text><path d="m53252 78068h317l-171 195h74l48 25 25 24 24 49v122l-24 49-25 24-48 24h-147l-48-24-25-24"/><text font-size="682.401575" lengthAdjust="spacingAndGlyphs" opacity="0" textLength="547.440945" x="72834.645669" y="78605.19685">4</text><path d="m73205 78239v341"/><path d="m73083 78044-121 366h316"/><text font-size="682.401575" lengthAdjust="spacingAndGlyphs" opacity="0" textLength="547.440945" x="92519.685039" y="78605.19685">5</text><path d="m92915 78068h-244l-24 244 24-24 49-25h122l48 25 25 24 24 49v122l-24 49-25 24-48 24h-122l-49-24-24-24"/><text font-size="682.401575" lengthAdjust="spacingAndGlyphs" opacity="0" textLength="547.440945" x="112204.724409" y="78605.19685">6</text><path d="m112575 78068h-97l-49 25-24 24-49 73-24 98v195l24 49 24 24 49 24h98l48-24 25-24 24-49v-122l-24-49-25-24-48-25h-98l-49 25-24 24-24 49"/><path d="m3937 23622h787"/><path d="m3937 43307h787"/><path d="m3937 62992h787"/><text font-size="682.401575" lengthAdjust="spacingAndGlyphs" opacity="0" text-anchor="middle" textLength="498.700787" x="4330.708661" y="14035.433071">A</text><path d="m4208 13864h244"/><path d="m4160 14011 170-512 171 512"/><text font-size="682.401575" lengthAdjust="spacingAndGlyphs" opacity="0" text-anchor="middle" textLength="571.811024" x="4330.708661" y="33720.472441">B</text><path d="m4367 33427 73 25 24 24 25 49v73l-25 49-24 24-49 25h-195v-512h171l48 24 25 25 24 48v49l-24 49-25 24-48 24h-171"/><text font-size="682.401575" lengthAdjust="spacingAndGlyphs" opacity="0" text-anchor="middle" textLength="571.811024" x="4330.708661" y="53405.511811">C</text><path d="m4489 53332-25 24-73 25h-49l-73-25-48-49-25-48-24-98v-73l24-97 25-49 48-49 73-24h49l73 24 25 25"/><text font-size="682.401575" lengthAdjust="spacingAndGlyphs" opacity="0" text-anchor="middle" textLength="571.811024" x="4330.708661" y="73090.551181">D</text><path d="m4196 73066v-512h122l73 24 49 49 24 49 25 97v73l-25 98-24 49-49 48-73 25z"/><path d="m112992 23622h-787"/><path d="m112992 43307h-787"/><path d="m112992 62992h-787"/><text font-size="682.401575" lengthAdjust="spacingAndGlyphs" opacity="0" text-anchor="middle" textLength="498.700787" x="112599.291339" y="14035.433071">A</text><path d="m112477 13864h244"/><path d="m112428 14011 171-512 170 512"/><text font-size="682.401575" lengthAdjust="spacingAndGlyphs" opacity="0" text-anchor="middle" textLength="571.811024" x="112599.291339" y="33720.472441">B</text><path d="m112635 33427 73 25 25 24 24 49v73l-24 49-25 24-48 25h-195v-512h170l49 24 24 25 25 48v49l-25 49-24 24-49 24h-170"/><text font-size="682.401575" lengthAdjust="spacingAndGlyphs" opacity="0" text-anchor="middle" textLength="571.811024" x="112599.291339" y="53405.511811">C</text><path d="m112757 53332-24 24-73 25h-49l-73-25-49-49-24-48-25-98v-73l25-97 24-49 49-49 73-24h49l73 24 24 25"/><text font-size="682.401575" lengthAdjust="spacingAndGlyphs" opacity="0" text-anchor="middle" textLength="571.811024" x="112599.291339" y="73090.551181">D</text><path d="m112465 73066v-512h122l73 24 48 49 25 49 24 97v73l-24 98-25 49-48 48-73 25z"/><text font-size="787.401575" lengthAdjust="spacingAndGlyphs" opacity="0" textLength="8721.417323" x="78741.023622" y="76321.732283">Date: 2022-03-10</text><path d="m78911 76293v-590h141l84 28 56 56 28 56 29 113v84l-29 112-28 57-56 56-84 28z"/><path d="m79755 76293v-309l-28-56-57-29h-112l-56 29"/><path d="m79755 76265-56 28h-141l-56-28-28-56v-57l28-56 56-28h141l56-28"/><path d="m79952 75899h225"/><path d="m80036 75703v506l28 56 56 28h57"/><path d="m80598 76265-56 28h-112l-57-28-28-56v-225l28-56 57-29h112l56 29 29 56v56l-282 56"/><path d="m80880 76237 28 28-28 28-28-28 28-28v56"/><path d="m80880 75928 28 28-28 28-28-28 28-28v56"/><path d="m81583 75759 28-28 56-28h141l56 28 28 28 28 56v56l-28 85-337 337h365"/><path d="m82286 75703h56l56 28 28 28 28 56 29 113v140l-29 113-28 56-28 28-56 28h-56l-57-28-28-28-28-56-28-113v-140l28-113 28-56 28-28z"/><path d="m82708 75759 28-28 56-28h140l57 28 28 28 28 56v56l-28 85-338 337h366"/><path d="m83270 75759 28-28 56-28h141l56 28 28 28 28 56v56l-28 85-337 337h365"/><path d="m83860 76068h450"/><path d="m84704 75703h56l57 28 28 28 28 56 28 113v140l-28 113-28 56-28 28-57 28h-56l-56-28-28-28-28-56-28-113v-140l28-113 28-56 28-28z"/><path d="m85098 75703h365l-196 225h84l56 28 28 28 28 56v141l-28 56-28 28-56 28h-169l-56-28-28-28"/><path d="m85717 76068h449"/><path d="m86757 76293h-337"/><path d="m86588 76293v-590l-56 84-56 56-56 28"/><path d="m87123 75703h56l56 28 28 28 28 56 28 113v140l-28 113-28 56-28 28-56 28h-56l-57-28-28-28-28-56-28-113v-140l28-113 28-56 28-28z"/><path d="m69685 76577h42520"/><text font-size="787.401575" lengthAdjust="spacingAndGlyphs" opacity="0" textLength="12236.614173" x="70079.606299" y="77424.094488">KiCad E.D.A. kicad (6.0.1)</text><path d="m70250 77395v-590"/><path d="m70587 77395-253-337"/><path d="m70587 76805-337 337"/><path d="m70840 77395v-393"/><path d="m70840 76805-28 28 28 28 28-28-28-28v56"/><path d="m71459 77339-28 28-85 28h-56l-84-28-56-56-29-56-28-113v-84l28-112 29-57 56-56 84-28h56l85 28 28 28"/><path d="m71965 77395v-309l-28-56-56-28h-113l-56 28"/><path d="m71965 77367-56 28h-141l-56-28-28-56v-56l28-56 56-29h141l56-28"/><path d="m72499 77395v-590"/><path d="m72499 77367-56 28h-112l-57-28-28-28-28-56v-169l28-56 28-28 57-28h112l56 28"/><path d="m73231 77086h196"/><path d="m73512 77395h-281v-590h281"/><path d="m73765 77339 28 28-28 28-28-28 28-28v56"/><path d="m74046 77395v-590h141l84 28 56 56 28 57 29 112v84l-29 113-28 56-56 56-84 28z"/><path d="m74637 77339 28 28-28 28-28-28 28-28v56"/><path d="m74890 77227h281"/><path d="m74834 77395 196-590 197 590"/><path d="m75424 77339 28 28-28 28-28-28 28-28v56"/><path d="m76605 77395v-590"/><path d="m76661 77170 169 225"/><path d="m76830 77002-225 225"/><path d="m77083 77395v-393"/><path d="m77083 76805-28 28 28 28 28-28-28-28v56"/><path d="m77618 77367-57 28h-112l-56-28-29-28-28-56v-169l28-56 29-28 56-28h112l57 28"/><path d="m78124 77395v-309l-28-56-57-28h-112l-56 28"/><path d="m78124 77367-57 28h-140l-56-28-29-56v-56l29-56 56-29h140l57-28"/><path d="m78658 77395v-590"/><path d="m78658 77367-56 28h-113l-56-28-28-28-28-56v-169l28-56 28-28 56-28h113l56 28"/><path d="m79558 77620-28-28-56-84-29-56-28-85-28-140v-113l28-140 28-85 29-56 56-84 28-28"/><path d="m80036 76805h-113l-56 28-28 28-56 85-28 112v225l28 56 28 28 56 28h113l56-28 28-28 28-56v-141l-28-56-28-28-56-28h-113l-56 28-28 28-28 56"/><path d="m80345 77339 28 28-28 28-28-28 28-28v56"/><path d="m80739 76805h56l57 28 28 28 28 56 28 113v140l-28 113-28 56-28 28-57 28h-56l-56-28-28-28-28-56-29-113v-140l29-113 28-56 28-28z"/><path d="m81189 77339 28 28-28 28-28-28 28-28v56"/><path d="m81780 77395h-338"/><path d="m81611 77395v-590l-56 84-57 57-56 28"/><path d="m81976 77620 28-28 57-84 28-56 28-85 28-140v-113l-28-140-28-85-28-56-57-84-28-28"/><path d="m69685 75396h42520"/></g><g fill="#840000" fill-opacity="0" stroke="#840000" stroke-width="118.110236"><text font-size="787.401575" lengthAdjust="spacingAndGlyphs" opacity="0" textLength="3743.897638" x="103544.173228" y="76321.732283">Rev: 1.0</text><path d="m104098 76293-196-281"/><path d="m103761 76293v-590h225l56 28 28 28 28 56v84l-28 57-28 28-56 28h-225"/><path d="m104577 76265-57 28h-112l-56-28-29-56v-225l29-56 56-29h112l57 29 28 56v56l-282 56"/><path d="m104802 75899 140 394 141-394"/><path d="m105308 76237 28 28-28 28-28-28 28-28v56"/><path d="m105308 75928 28 28-28 28-28-28 28-28v56"/><path d="m106348 76293h-337"/><path d="m106180 76293v-590l-57 84-56 56-56 28"/><path d="m106601 76237 28 28-28 28-28-28 28-28v56"/><path d="m106995 75703h56l56 28 29 28 28 56 28 113v140l-28 113-28 56-29 28-56 28h-56l-56-28-28-28-28-56-29-113v-140l29-113 28-56 28-28z"/></g><g fill="#840000" fill-opacity="0" stroke="#840000" stroke-width="60"><text font-size="787.401575" lengthAdjust="spacingAndGlyphs" opacity="0" textLength="3781.220472" x="70079.606299" y="76321.732283">Size: A4</text><path d="m70222 76265 84 28h141l56-28 28-28 28-56v-57l-28-56-28-28-56-28-113-28-56-28-28-28-28-57v-56l28-56 28-28 56-28h141l84 28"/><path d="m70812 76293v-394"/><path d="m70812 75703-28 28 28 28 28-28-28-28v56"/><path d="m71037 75899h309l-309 394h309"/><path d="m71796 76265-56 28h-112l-57-28-28-56v-225l28-56 57-29h112l56 29 29 56v56l-282 56"/><path d="m72078 76237 28 28-28 28-29-28 29-28v56"/><path d="m72078 75928 28 28-28 28-29-28 29-28v56"/><path d="m72781 76124h281"/><path d="m72724 76293 197-590 197 590"/><path d="m73568 75899v394"/><path d="m73427 75674-140 422h365"/><text font-size="787.401575" lengthAdjust="spacingAndGlyphs" opacity="0" textLength="3350.196850" x="103544.173228" y="77424.094488">Id: 2/3</text><path d="m103714 77395v-590"/><path d="m104249 77395v-590"/><path d="m104249 77367-57 28h-112l-56-28-29-28-28-56v-169l28-56 29-28 56-28h112l57 28"/><path d="m104530 77339 28 28-28 28-28-28 28-28v56"/><path d="m104530 77030 28 28-28 28-28-28 28-28v56"/><path d="m105233 76861 28-28 56-28h141l56 28 28 28 28 56v57l-28 84-337 337h365"/><path d="m106245 76777-506 759"/><path d="m106386 76805h365l-196 225h84l56 28 28 28 28 56v141l-28 56-28 28-56 28h-169l-56-28-28-28"/><path d="m69685 73821h42520"/></g><g fill="#840000" fill-opacity="0" stroke="#840000" stroke-width="157.480315"><text font-size="1049.84252" lengthAdjust="spacingAndGlyphs" opacity="0" textLength="19041.102362" x="70079.606299" y="74924.094488">Title: RN2483 LoRaWAN module</text><path d="m70360 74099h450"/><path d="m70486 74886 99-787"/><path d="m70974 74886 65-525"/><path d="m71072 74099-42 37 33 38 42-38-33-37-9 75"/><path d="m71302 74361h300"/><path d="m71447 74099-84 675 28 75 70 37h75"/><path d="m71911 74886-70-37-29-75 85-675"/><path d="m72516 74849-80 37h-150l-70-37-29-75 38-300 47-75 80-38h149l71 38 28 75-9 75-385 75"/><path d="m72895 74811 33 38-42 37-33-37 42-38-9 75"/><path d="m72947 74399 33 37-43 38-32-38 42-37-10 75"/><path d="m74311 74886-216-375"/><path d="m73861 74886 98-787h300l70 37 33 38 28 75-14 112-47 75-42 38-80 37h-299"/><path d="m74648 74886 99-787 351 787 98-787"/><path d="m75525 74174 42-38 79-37h188l70 37 33 38 28 75-9 75-52 112-506 450h487"/><path d="m76626 74361-66 525"/><path d="m76476 74061-258 563h488"/><path d="m77142 74436-71-37-33-38-28-75 5-37 47-75 42-38 80-37h150l70 37 33 38 28 75-5 37-47 75-42 38-79 37h-150l-80 38-42 37-47 75-19 150 28 75 33 38 70 37h150l80-37 42-38 47-75 19-150-28-75-33-37-70-38"/><path d="m77746 74099h488l-300 300h112l70 37 33 38 28 75-23 187-47 75-42 38-80 37h-225l-70-37-33-38"/><path d="m79447 74886h-374l98-787"/><path d="m79822 74886-70-37-33-38-28-75 28-225 47-75 42-37 80-38h113l70 38 33 37 28 75-28 225-47 75-42 38-80 37z"/><path d="m80872 74886-215-375"/><path d="m80422 74886 99-787h300l70 37 33 38 28 75-14 112-47 75-42 38-80 37h-300"/><path d="m81547 74886 52-412-28-75-71-38h-150l-79 38"/><path d="m81552 74849-80 37h-187l-71-37-28-75 10-75 47-75 79-38h188l79-37"/><path d="m81946 74099 89 787 220-562 80 562 286-787"/><path d="m82813 74661h375"/><path d="m82710 74886 360-787 165 787"/><path d="m83497 74886 98-787 352 787 98-787"/><path d="m84922 74886 65-525"/><path d="m84978 74436 42-37 80-38h112l71 38 28 75-52 412"/><path d="m85311 74474 47-75 79-38h113l70 38 28 75-51 412"/><path d="m86084 74886-70-37-33-38-28-75 28-225 47-75 42-37 80-38h112l71 38 32 37 28 75-28 225-47 75-42 38-79 37z"/><path d="m87022 74886 98-787"/><path d="m87026 74849-79 37h-150l-71-37-33-38-28-75 28-225 47-75 42-37 80-38h150l70 38"/><path d="m87800 74361-66 525"/><path d="m87462 74361-51 413 28 75 70 37h112l80-37 42-38"/><path d="m88221 74886-70-37-28-75 84-675"/><path d="m88826 74849-80 37h-150l-70-37-28-75 37-300 47-75 80-38h150l70 38 28 75-9 75-384 75"/></g><g fill="#840000" fill-opacity="0" stroke="#840000" stroke-width="60"><text font-size="787.401575" lengthAdjust="spacingAndGlyphs" opacity="0" textLength="10581.535433" x="70079.606299" y="73408.346457">File: RN2483.kicad_sch</text><path d="m70447 73070h-197"/><path d="m70250 73380v-591h281"/><path d="m70756 73380v-394"/><path d="m70756 72789-28 28 28 28 28-28-28-28v56"/><path d="m71121 73380-56-28-28-57v-506"/><path d="m71571 73352-56 28h-112l-57-28-28-57v-225l28-56 57-28h112l56 28 29 56v57l-282 56"/><path d="m71853 73323 28 29-28 28-28-28 28-29v57"/><path d="m71853 73014 28 28-28 28-28-28 28-28v56"/><path d="m72921 73380-197-282"/><path d="m72584 73380v-591h225l56 28 28 28 28 57v84l-28 56-28 28-56 28h-225"/><path d="m73174 73380v-591l338 591v-591"/><path d="m73765 72845 28-28 56-28h141l56 28 28 28 28 57v56l-28 84-337 338h365"/><path d="m74609 72986v394"/><path d="m74468 72761-141 422h366"/><path d="m75002 73042-56-28-28-28-28-56v-28l28-57 28-28 56-28h113l56 28 28 28 28 57v28l-28 56-28 28-56 28h-113l-56 28-28 28-28 57v112l28 56 28 29 56 28h113l56-28 28-29 28-56v-112l-28-57-28-28-56-28"/><path d="m75424 72789h366l-197 225h84l56 28 29 28 28 57v140l-28 56-29 29-56 28h-169l-56-28-28-29"/><path d="m76043 73323 28 29-28 28-28-28 28-29v57"/><path d="m76324 73380v-591"/><path d="m76380 73155 169 225"/><path d="m76549 72986-225 225"/><path d="m76802 73380v-394"/><path d="m76802 72789-28 28 28 28 28-28-28-28v56"/><path d="m77336 73352-56 28h-112l-57-28-28-29-28-56v-169l28-56 28-28 57-28h112l56 28"/><path d="m77842 73380v-310l-28-56-56-28h-112l-57 28"/><path d="m77842 73352-56 28h-140l-57-28-28-57v-56l28-56 57-28h140l56-28"/><path d="m78377 73380v-591"/><path d="m78377 73352-56 28h-113l-56-28-28-29-28-56v-169l28-56 28-28 56-28h113l56 28"/><path d="m78517 73436h450"/><path d="m79080 73352 56 28h113l56-28 28-57v-28l-28-56-56-28h-85l-56-28-28-57v-28l28-56 56-28h85l56 28"/><path d="m79839 73352-56 28h-113l-56-28-28-29-28-56v-169l28-56 28-28 56-28h113l56 28"/><path d="m80092 73380v-591"/><path d="m80345 73380v-310l-28-56-56-28h-84l-57 28-28 28"/><path d="m69685 71459h42520"/><text font-size="787.401575" lengthAdjust="spacingAndGlyphs" opacity="0" textLength="15976.771654" x="70079.606299" y="72345.354331">Sheet: /RN2483 LoRaWAN module/</text><path d="m70222 72289 84 28h141l56-28 28-29 28-56v-56l-28-56-28-28-56-29-113-28-56-28-28-28-28-56v-56l28-57 28-28 56-28h141l84 28"/><path d="m70812 72317v-591"/><path d="m71065 72317v-310l-28-56-56-28h-84l-57 28-28 28"/><path d="m71571 72289-56 28h-112l-57-28-28-57v-225l28-56 57-28h112l56 28 29 56v57l-282 56"/><path d="m72078 72289-57 28h-112l-56-28-28-57v-225l28-56 56-28h112l57 28 28 56v57l-281 56"/><path d="m72274 71923h225"/><path d="m72359 71726v506l28 57 56 28h56"/><path d="m72696 72260 28 29-28 28-28-28 28-29v57"/><path d="m72696 71951 28 28-28 28-28-28 28-28v56"/><path d="m73849 71698-506 759"/><path d="m74384 72317-197-282"/><path d="m74046 72317v-591h225l56 28 28 28 29 57v84l-29 56-28 28-56 28h-225"/><path d="m74637 72317v-591l337 591v-591"/><path d="m75227 71782 28-28 57-28h140l56 28 29 28 28 57v56l-28 84-338 338h366"/><path d="m76071 71923v394"/><path d="m75930 71698-140 422h365"/><path d="m76465 71979-57-28-28-28-28-56v-28l28-57 28-28 57-28h112l56 28 28 28 29 57v28l-29 56-28 28-56 28h-112l-57 28-28 28-28 57v112l28 56 28 29 57 28h112l56-28 28-29 29-56v-112l-29-57-28-28-56-28"/><path d="m76886 71726h366l-197 225h84l57 28 28 28 28 57v140l-28 56-28 29-57 28h-168l-56-28-29-29"/><path d="m78236 72317h-281v-591"/><path d="m78517 72317-56-28-28-29-28-56v-169l28-56 28-28 56-28h85l56 28 28 28 28 56v169l-28 56-28 29-56 28z"/><path d="m79305 72317-197-282"/><path d="m78967 72317v-591h225l57 28 28 28 28 57v84l-28 56-28 28-57 28h-225"/><path d="m79811 72317v-310l-28-56-56-28h-113l-56 28"/><path d="m79811 72289-56 28h-141l-56-28-28-57v-56l28-56 56-28h141l56-28"/><path d="m80036 71726 141 591 112-422 113 422 140-591"/><path d="m80739 72148h281"/><path d="m80683 72317 197-591 196 591"/><path d="m81273 72317v-591l338 591v-591"/><path d="m82342 72317v-394"/><path d="m82342 71979 28-28 56-28h85l56 28 28 56v310"/><path d="m82595 72007 28-56 56-28h85l56 28 28 56v310"/><path d="m83214 72317-57-28-28-29-28-56v-169l28-56 28-28 57-28h84l56 28 28 28 29 56v169l-29 56-28 29-56 28z"/><path d="m83917 72317v-591"/><path d="m83917 72289-57 28h-112l-56-28-28-29-28-56v-169l28-56 28-28 56-28h112l57 28"/><path d="m84451 71923v394"/><path d="m84198 71923v309l28 57 56 28h85l56-28 28-29"/><path d="m84817 72317-57-28-28-57v-506"/><path d="m85267 72289-57 28h-112l-56-28-29-57v-225l29-56 56-28h112l57 28 28 56v57l-282 56"/><path d="m85970 71698-507 759"/></g><text fill="none" lengthAdjust="spacingAndGlyphs" opacity="0" stroke="#840000" stroke-width="118.110236" textLength="60.000000" x="70079.606299" y="71164.251969"/><g stroke-width="60"><g fill="#840000" fill-opacity="0" stroke="#840000"><text lengthAdjust="spacingAndGlyphs" opacity="0" textLength="118.110236" x="70079.606299" y="69983.149606"/><text lengthAdjust="spacingAndGlyphs" opacity="0" textLength="60.000000" x="70079.606299" y="68802.047244"/><text lengthAdjust="spacingAndGlyphs" opacity="0" textLength="60.000000" x="70079.606299" y="67620.944882"/><text lengthAdjust="spacingAndGlyphs" opacity="0" textLength="60.000000" x="70079.606299" y="66439.84252"/><path d="m77559 75396v1181"/><path d="m102756 75396v2559"/><g stroke-linecap="round" stroke-linejoin="round" stroke-width="60"><path d="m67700 26000 300-500" fill="none" stroke="#840000"/><path d="m68000 26500v-1000" fill="none" stroke="#840000"/><path d="m68000 25500 300 500" fill="none" stroke="#840000"/><g fill="#006464" fill-opacity="0" stroke="#006464"><text font-size="666.653543" lengthAdjust="spacingAndGlyphs" opacity="0" text-anchor="middle" textLength="2298.110236" x="68000" y="24750">+3.3V</text><path d="m67000 24535h380"/><path d="m67190 24726v-381"/><path d="m67571 24226h309l-166 190h71l48 24 24 24 23 47v119l-23 48-24 24-48 24h-143l-47-24-24-24"/><path d="m68095 24678 24 24-24 24-24-24 24-24v48"/><path d="m68285 24226h310l-167 190h72l47 24 24 24 24 47v119l-24 48-24 24-47 24h-143l-48-24-24-24"/><path d="m68738 24226 166 500 167-500"/></g></g></g><g fill="#006464" fill-opacity="0" stroke="#006464"><g fill="none" stroke="#840000"><path d="m42699.756189 27200.088146a713.543307 713.543307 0 0 0 -199.26518-1400.110128" stroke-width="100"/><g fill-opacity="0" stroke-width="60"><path d="m42500 27500v-800"/><path d="m43500 26500h-300"/></g><circle cx="42500" cy="26500" r="200" stroke-width="80"/><path d="m42499.39088 25799.978018a713.543307 713.543307 0 0 0 -199.265179 1400.110128" stroke-width="100"/><path d="m42500 27500v1000" stroke-width="60"/></g><g fill="#a90000" fill-opacity="0" stroke="#a90000" stroke-width="60"><text font-size="666.653543" lengthAdjust="spacingAndGlyphs" opacity="0" text-anchor="middle" textLength="536.181102" transform="matrix(0 -1 1 0 14400 70400)" x="42400" y="28000">1</text><path d="m42376 27857v285"/><path d="m42376 28000h-500l71 47 48 48 24 47"/></g><path d="m43500 26500h1000" fill="none" stroke="#840000" stroke-width="60"/><g fill="#a90000" fill-opacity="0" stroke="#a90000" stroke-width="60"><text font-size="666.653543" lengthAdjust="spacingAndGlyphs" opacity="0" text-anchor="middle" textLength="536.181102" x="44000" y="26400">2</text><path d="m43857 25923 23-23 48-24h119l48 24 24 23 23 48v48l-23 71-286 286h309"/></g><g fill="#006464" fill-opacity="0" stroke="#006464" stroke-width="60"><text font-size="666.653543" lengthAdjust="spacingAndGlyphs" opacity="0" text-anchor="middle" textLength="917.125984" x="42615.393701" y="23749.96063">J1</text><path d="m42448 23226v357l-24 71-47 48-72 24h-47"/><path d="m42948 23726h-286"/><path d="m42805 23726v-500l-47 71-48 48-48 23"/><text font-size="666.653543" lengthAdjust="spacingAndGlyphs" opacity="0" text-anchor="middle" textLength="5060.000000" x="42615.433071" y="24749.96063">Conn_Coaxial</text><path d="m40520 24678-24 24-72 24h-47l-72-24-47-48-24-47-24-96v-71l24-95 24-48 47-48 72-23h47l72 23 24 24"/><path d="m40805 24726-47-24-24-24-24-48v-142l24-48 24-24 47-24h72l47 24 24 24 24 48v142l-24 48-24 24-47 24z"/><path d="m41186 24392v334"/><path d="m41186 24440 24-24 48-24h71l48 24 24 48v262"/><path d="m41639 24392v334"/><path d="m41639 24440 24-24 47-24h72l47 24 24 48v262"/><path d="m41972 24773h381"/><path d="m42758 24678-24 24-71 24h-48l-72-24-47-48-24-47-24-96v-71l24-95 24-48 47-48 72-23h48l71 23 24 24"/><path d="m43043 24726-47-24-24-24-24-48v-142l24-48 24-24 47-24h72l48 24 23 24 24 48v142l-24 48-23 24-48 24z"/><path d="m43639 24726v-262l-24-48-48-24h-95l-48 24"/><path d="m43639 24702-48 24h-119l-48-24-23-48v-47l23-48 48-24h119l48-24"/><path d="m43829 24726 262-334"/><path d="m43829 24392 262 334"/><path d="m44282 24726v-334"/><path d="m44282 24226-24 23 24 24 23-24-23-23v47"/><path d="m44734 24726v-262l-24-48-47-24h-96l-47 24"/><path d="m44734 24702-48 24h-119l-47-24-24-48v-47l24-48 47-24h119l48-24"/><path d="m45043 24726-47-24-24-48v-428"/></g></g><g fill="#006464" fill-opacity="0" stroke="#006464"><path d="m53500 26000h12000v26000h-12000z" fill="#ffffc2" fill-opacity=".6" stroke="#ffffc2" stroke-width=".03937"/><g fill="#840000" fill-opacity="0" stroke="#840000" stroke-width="100"><path d="m53500 26000h12000v26000h-12000z"/><path d="m53500 26000h12000v26000h-12000z"/></g><g stroke-width="60"><path d="m65500 51000h2000" fill="none" stroke="#840000"/><g fill="#006464" fill-opacity="0" stroke="#006464"><text font-size="533.307087" lengthAdjust="spacingAndGlyphs" opacity="0" text-anchor="end" textLength="1279.055118" x="65100" y="51200">GND</text><path d="m64155 50800-38-20h-57l-57 20-38 38-19 38-19 76v57l19 76 19 38 38 38 57 19h38l57-19 19-19v-133h-76"/><path d="m64346 51180v-400l228 400v-400"/><path d="m64765 51180v-400h95l57 20 38 38 19 38 19 76v57l-19 76-19 38-38 38-57 19z"/></g><g fill="#a90000" fill-opacity="0" stroke="#a90000"><text font-size="533.307087" lengthAdjust="spacingAndGlyphs" opacity="0" text-anchor="middle" textLength="440.944882" x="66500" y="50900">1</text><path d="m66614 50880h-229"/><path d="m66500 50880v-400l-39 58-38 38-38 19"/></g><path d="m53500 49000h-2000" fill="none" stroke="#840000"/><g fill="#006464" fill-opacity="0" stroke="#006464"><text font-size="533.307087" lengthAdjust="spacingAndGlyphs" opacity="0" textLength="2231.417323" x="53900" y="49200">GPIO12</text><path d="m54234 48800-38-20h-57l-57 20-38 38-19 38-19 76v57l19 76 19 38 38 38 57 19h38l57-19 19-19v-133h-76"/><path d="m54425 49180v-400h152l38 20 19 19 19 38v57l-19 38-19 19-38 19h-152"/><path d="m54825 49180v-400"/><path d="m55091 48780h77l38 20 38 38 19 76v133l-19 76-38 38-38 19h-77l-38-19-38-38-19-76v-133l19-76 38-38z"/><path d="m55644 49180h-229"/><path d="m55530 49180v-400l-39 58-38 38-38 19"/><path d="m55796 48819 19-19 38-20h96l38 20 19 19 19 38v38l-19 57-229 228h248"/></g><g fill="#a90000" fill-opacity="0" stroke="#a90000"><text font-size="533.307087" lengthAdjust="spacingAndGlyphs" opacity="0" text-anchor="middle" textLength="821.889764" x="52500" y="48900">10</text><path d="m52423 48880h-228"/><path d="m52309 48880v-400l-38 58-38 38-38 19"/><path d="m52671 48480h38l38 20 19 19 19 38 19 76v95l-19 76-19 38-19 19-38 19h-38l-38-19-19-19-19-38-19-76v-95l19-76 19-38 19-19z"/></g><path d="m65500 51000h2000" fill="none" stroke="#840000"/><g fill="#006464" fill-opacity="0" stroke="#006464"><text font-size="533.307087" lengthAdjust="spacingAndGlyphs" opacity="0" text-anchor="end" textLength="1279.055118" x="65100" y="51200">GND</text><path d="m64155 50800-38-20h-57l-57 20-38 38-19 38-19 76v57l19 76 19 38 38 38 57 19h38l57-19 19-19v-133h-76"/><path d="m64346 51180v-400l228 400v-400"/><path d="m64765 51180v-400h95l57 20 38 38 19 38 19 76v57l-19 76-19 38-38 38-57 19z"/></g><g fill="#a90000" fill-opacity="0" stroke="#a90000"><text font-size="533.307087" lengthAdjust="spacingAndGlyphs" opacity="0" text-anchor="middle" textLength="821.889764" x="66500" y="50900">11</text><path d="m66423 50880h-228"/><path d="m66309 50880v-400l-38 58-38 38-38 19"/><path d="m66804 50880h-228"/><path d="m66690 50880v-400l-38 58-38 38-38 19"/></g><path d="m65500 27000h2000" fill="none" stroke="#840000"/><g fill="#006464" fill-opacity="0" stroke="#006464"><text font-size="533.307087" lengthAdjust="spacingAndGlyphs" opacity="0" text-anchor="end" textLength="1583.818898" x="65100" y="27200">VDD1</text><path d="m63584 26780 133 400 133-400"/><path d="m63984 27180v-400h95l57 20 38 38 19 38 19 76v57l-19 76-19 38-38 38-57 19z"/><path d="m64384 27180v-400h95l57 20 38 38 19 38 19 76v57l-19 76-19 38-38 38-57 19z"/><path d="m64993 27180h-228"/><path d="m64879 27180v-400l-38 58-38 38-38 19"/></g><g fill="#a90000" fill-opacity="0" stroke="#a90000"><text font-size="533.307087" lengthAdjust="spacingAndGlyphs" opacity="0" text-anchor="middle" textLength="821.889764" x="66500" y="26900">12</text><path d="m66423 26880h-228"/><path d="m66309 26880v-400l-38 58-38 38-38 19"/><path d="m66576 26519 19-19 38-20h95l38 20 19 19 19 38v38l-19 57-228 228h247"/></g><path d="m53500 48000h-2000" fill="none" stroke="#840000"/><g fill="#006464" fill-opacity="0" stroke="#006464"><text font-size="533.307087" lengthAdjust="spacingAndGlyphs" opacity="0" textLength="2231.417323" x="53900" y="48200">GPIO11</text><path d="m54234 47800-38-20h-57l-57 20-38 38-19 38-19 76v57l19 76 19 38 38 38 57 19h38l57-19 19-19v-133h-76"/><path d="m54425 48180v-400h152l38 20 19 19 19 38v57l-19 38-19 19-38 19h-152"/><path d="m54825 48180v-400"/><path d="m55091 47780h77l38 20 38 38 19 76v133l-19 76-38 38-38 19h-77l-38-19-38-38-19-76v-133l19-76 38-38z"/><path d="m55644 48180h-229"/><path d="m55530 48180v-400l-39 58-38 38-38 19"/><path d="m56025 48180h-229"/><path d="m55910 48180v-400l-38 58-38 38-38 19"/></g><g fill="#a90000" fill-opacity="0" stroke="#a90000"><text font-size="533.307087" lengthAdjust="spacingAndGlyphs" opacity="0" text-anchor="middle" textLength="821.889764" x="52500" y="47900">13</text><path d="m52423 47880h-228"/><path d="m52309 47880v-400l-38 58-38 38-38 19"/><path d="m52557 47480h247l-133 153h57l38 19 19 19 19 38v95l-19 38-19 19-38 19h-114l-38-19-19-19"/></g><path d="m53500 47000h-2000" fill="none" stroke="#840000"/><g fill="#006464" fill-opacity="0" stroke="#006464"><text font-size="533.307087" lengthAdjust="spacingAndGlyphs" opacity="0" textLength="2231.417323" x="53900" y="47200">GPIO10</text><path d="m54234 46800-38-20h-57l-57 20-38 38-19 38-19 76v57l19 76 19 38 38 38 57 19h38l57-19 19-19v-133h-76"/><path d="m54425 47180v-400h152l38 20 19 19 19 38v57l-19 38-19 19-38 19h-152"/><path d="m54825 47180v-400"/><path d="m55091 46780h77l38 20 38 38 19 76v133l-19 76-38 38-38 19h-77l-38-19-38-38-19-76v-133l19-76 38-38z"/><path d="m55644 47180h-229"/><path d="m55530 47180v-400l-39 58-38 38-38 19"/><path d="m55891 46780h39l38 20 19 19 19 38 19 76v95l-19 76-19 38-19 19-38 19h-39l-38-19-19-19-19-38-19-76v-95l19-76 19-38 19-19z"/></g><g fill="#a90000" fill-opacity="0" stroke="#a90000"><text font-size="533.307087" lengthAdjust="spacingAndGlyphs" opacity="0" text-anchor="middle" textLength="821.889764" x="52500" y="46900">14</text><path d="m52423 46880h-228"/><path d="m52309 46880v-400l-38 58-38 38-38 19"/><path d="m52766 46614v266"/><path d="m52671 46461-95 286h247"/></g><path d="m65500 33000h2000" fill="none" stroke="#840000"/><g fill="#006464" fill-opacity="0" stroke="#006464"><text font-size="533.307087" lengthAdjust="spacingAndGlyphs" opacity="0" text-anchor="end" textLength="2917.125984" x="65100" y="33200">UART_RTS</text><path d="m62308 32780v324l19 38 19 19 38 19h76l38-19 19-19 19-38v-324"/><path d="m62708 33066h190"/><path d="m62670 33180 133-400 133 400"/><path d="m63298 33180-133-190"/><path d="m63070 33180v-400h152l38 20 19 19 19 38v57l-19 38-19 19-38 19h-152"/><path d="m63412 32780h229"/><path d="m63527 33180v-400"/><path d="m63679 33219h305"/><path d="m64308 33180-134-190"/><path d="m64079 33180v-400h152l39 20 19 19 19 38v57l-19 38-19 19-39 19h-152"/><path d="m64422 32780h228"/><path d="m64536 33180v-400"/><path d="m64765 33161 57 19h95l38-19 19-19 19-38v-38l-19-38-19-19-38-19-76-19-38-19-19-19-19-38v-38l19-38 19-19 38-20h95l57 20"/></g><g fill="#a90000" fill-opacity="0" stroke="#a90000"><text font-size="533.307087" lengthAdjust="spacingAndGlyphs" opacity="0" text-anchor="middle" textLength="440.944882" x="66500" y="32900">2</text><path d="m66385 32519 19-19 38-20h96l38 20 19 19 19 38v38l-19 57-229 228h248"/></g><path d="m65500 51000h2000" fill="none" stroke="#840000"/><g fill="#006464" fill-opacity="0" stroke="#006464"><text font-size="533.307087" lengthAdjust="spacingAndGlyphs" opacity="0" text-anchor="end" textLength="1279.055118" x="65100" y="51200">GND</text><path d="m64155 50800-38-20h-57l-57 20-38 38-19 38-19 76v57l19 76 19 38 38 38 57 19h38l57-19 19-19v-133h-76"/><path d="m64346 51180v-400l228 400v-400"/><path d="m64765 51180v-400h95l57 20 38 38 19 38 19 76v57l-19 76-19 38-38 38-57 19z"/></g><g fill="#a90000" fill-opacity="0" stroke="#a90000"><text font-size="533.307087" lengthAdjust="spacingAndGlyphs" opacity="0" text-anchor="middle" textLength="821.889764" x="66500" y="50900">20</text><path d="m66195 50519 19-19 38-20h95l38 20 19 19 19 38v38l-19 57-228 228h247"/><path d="m66671 50480h38l38 20 19 19 19 38 19 76v95l-19 76-19 38-19 19-38 19h-38l-38-19-19-19-19-38-19-76v-95l19-76 19-38 19-19z"/></g><path d="m65500 51000h2000" fill="none" stroke="#840000"/><g fill="#006464" fill-opacity="0" stroke="#006464"><text font-size="533.307087" lengthAdjust="spacingAndGlyphs" opacity="0" text-anchor="end" textLength="1279.055118" x="65100" y="51200">GND</text><path d="m64155 50800-38-20h-57l-57 20-38 38-19 38-19 76v57l19 76 19 38 38 38 57 19h38l57-19 19-19v-133h-76"/><path d="m64346 51180v-400l228 400v-400"/><path d="m64765 51180v-400h95l57 20 38 38 19 38 19 76v57l-19 76-19 38-38 38-57 19z"/></g><g fill="#a90000" fill-opacity="0" stroke="#a90000"><text font-size="533.307087" lengthAdjust="spacingAndGlyphs" opacity="0" text-anchor="middle" textLength="821.889764" x="66500" y="50900">21</text><path d="m66195 50519 19-19 38-20h95l38 20 19 19 19 38v38l-19 57-228 228h247"/><path d="m66804 50880h-228"/><path d="m66690 50880v-400l-38 58-38 38-38 19"/></g><path d="m65500 51000h2000" fill="none" stroke="#840000"/><g fill="#006464" fill-opacity="0" stroke="#006464"><text font-size="533.307087" lengthAdjust="spacingAndGlyphs" opacity="0" text-anchor="end" textLength="1279.055118" x="65100" y="51200">GND</text><path d="m64155 50800-38-20h-57l-57 20-38 38-19 38-19 76v57l19 76 19 38 38 38 57 19h38l57-19 19-19v-133h-76"/><path d="m64346 51180v-400l228 400v-400"/><path d="m64765 51180v-400h95l57 20 38 38 19 38 19 76v57l-19 76-19 38-38 38-57 19z"/></g><g fill="#a90000" fill-opacity="0" stroke="#a90000"><text font-size="533.307087" lengthAdjust="spacingAndGlyphs" opacity="0" text-anchor="middle" textLength="821.889764" x="66500" y="50900">22</text><path d="m66195 50519 19-19 38-20h95l38 20 19 19 19 38v38l-19 57-228 228h247"/><path d="m66576 50519 19-19 38-20h95l38 20 19 19 19 38v38l-19 57-228 228h247"/></g><path d="m53500 30000h-2000" fill="none" stroke="#840000"/><g fill="#006464" fill-opacity="0" stroke="#006464"><text font-size="533.307087" lengthAdjust="spacingAndGlyphs" opacity="0" textLength="1221.889764" x="53900" y="30200">RFH</text><path d="m54253 30180-133-190"/><path d="m54025 30180v-400h152l38 20 19 19 19 38v57l-19 38-19 19-38 19h-152"/><path d="m54558 29971h-133"/><path d="m54425 30180v-400h190"/><path d="m54768 30180v-400"/><path d="m54768 29971h228"/><path d="m54996 30180v-400"/></g><g fill="#a90000" fill-opacity="0" stroke="#a90000"><text font-size="533.307087" lengthAdjust="spacingAndGlyphs" opacity="0" text-anchor="middle" textLength="821.889764" x="52500" y="29900">23</text><path d="m52195 29519 19-19 38-20h95l38 20 19 19 19 38v38l-19 57-228 228h247"/><path d="m52557 29480h247l-133 153h57l38 19 19 19 19 38v95l-19 38-19 19-38 19h-114l-38-19-19-19"/></g><path d="m65500 51000h2000" fill="none" stroke="#840000"/><g fill="#006464" fill-opacity="0" stroke="#006464"><text font-size="533.307087" lengthAdjust="spacingAndGlyphs" opacity="0" text-anchor="end" textLength="1279.055118" x="65100" y="51200">GND</text><path d="m64155 50800-38-20h-57l-57 20-38 38-19 38-19 76v57l19 76 19 38 38 38 57 19h38l57-19 19-19v-133h-76"/><path d="m64346 51180v-400l228 400v-400"/><path d="m64765 51180v-400h95l57 20 38 38 19 38 19 76v57l-19 76-19 38-38 38-57 19z"/></g><g fill="#a90000" fill-opacity="0" stroke="#a90000"><text font-size="533.307087" lengthAdjust="spacingAndGlyphs" opacity="0" text-anchor="middle" textLength="821.889764" x="66500" y="50900">24</text><path d="m66195 50519 19-19 38-20h95l38 20 19 19 19 38v38l-19 57-228 228h247"/><path d="m66766 50614v266"/><path d="m66671 50461-95 286h247"/></g><path d="m53500 31000h-2000" fill="none" stroke="#840000"/><g fill="#006464" fill-opacity="0" stroke="#006464"><text font-size="533.307087" lengthAdjust="spacingAndGlyphs" opacity="0" textLength="1126.653543" x="53900" y="31200">RFL</text><path d="m54253 31180-133-190"/><path d="m54025 31180v-400h152l38 20 19 19 19 38v57l-19 38-19 19-38 19h-152"/><path d="m54558 30971h-133"/><path d="m54425 31180v-400h190"/><path d="m54958 31180h-190v-400"/></g><g fill="#a90000" fill-opacity="0" stroke="#a90000"><text font-size="533.307087" lengthAdjust="spacingAndGlyphs" opacity="0" text-anchor="middle" textLength="821.889764" x="52500" y="30900">25</text><path d="m52195 30519 19-19 38-20h95l38 20 19 19 19 38v38l-19 57-228 228h247"/><path d="m52785 30480h-190l-19 191 19-19 38-19h95l38 19 19 19 19 38v95l-19 38-19 19-38 19h-95l-38-19-19-19"/></g><path d="m65500 51000h2000" fill="none" stroke="#840000"/><g fill="#006464" fill-opacity="0" stroke="#006464"><text font-size="533.307087" lengthAdjust="spacingAndGlyphs" opacity="0" text-anchor="end" textLength="1279.055118" x="65100" y="51200">GND</text><path d="m64155 50800-38-20h-57l-57 20-38 38-19 38-19 76v57l19 76 19 38 38 38 57 19h38l57-19 19-19v-133h-76"/><path d="m64346 51180v-400l228 400v-400"/><path d="m64765 51180v-400h95l57 20 38 38 19 38 19 76v57l-19 76-19 38-38 38-57 19z"/></g><g fill="#a90000" fill-opacity="0" stroke="#a90000"><text font-size="533.307087" lengthAdjust="spacingAndGlyphs" opacity="0" text-anchor="middle" textLength="821.889764" x="66500" y="50900">26</text><path d="m66195 50519 19-19 38-20h95l38 20 19 19 19 38v38l-19 57-228 228h247"/><path d="m66766 50480h-76l-38 20-19 19-38 57-19 76v152l19 38 19 19 38 19h76l38-19 19-19 19-38v-95l-19-38-19-19-38-19h-76l-38 19-19 19-19 38"/></g><path d="m65500 51000h2000" fill="none" stroke="#840000"/><g fill="#006464" fill-opacity="0" stroke="#006464"><text font-size="533.307087" lengthAdjust="spacingAndGlyphs" opacity="0" text-anchor="end" textLength="1279.055118" x="65100" y="51200">GND</text><path d="m64155 50800-38-20h-57l-57 20-38 38-19 38-19 76v57l19 76 19 38 38 38 57 19h38l57-19 19-19v-133h-76"/><path d="m64346 51180v-400l228 400v-400"/><path d="m64765 51180v-400h95l57 20 38 38 19 38 19 76v57l-19 76-19 38-38 38-57 19z"/></g><g fill="#a90000" fill-opacity="0" stroke="#a90000"><text font-size="533.307087" lengthAdjust="spacingAndGlyphs" opacity="0" text-anchor="middle" textLength="821.889764" x="66500" y="50900">27</text><path d="m66195 50519 19-19 38-20h95l38 20 19 19 19 38v38l-19 57-228 228h247"/><path d="m66557 50480h266l-171 400"/></g><path d="m65500 51000h2000" fill="none" stroke="#840000"/><g fill="#006464" fill-opacity="0" stroke="#006464"><text font-size="533.307087" lengthAdjust="spacingAndGlyphs" opacity="0" text-anchor="end" textLength="1279.055118" x="65100" y="51200">GND</text><path d="m64155 50800-38-20h-57l-57 20-38 38-19 38-19 76v57l19 76 19 38 38 38 57 19h38l57-19 19-19v-133h-76"/><path d="m64346 51180v-400l228 400v-400"/><path d="m64765 51180v-400h95l57 20 38 38 19 38 19 76v57l-19 76-19 38-38 38-57 19z"/></g><g fill="#a90000" fill-opacity="0" stroke="#a90000"><text font-size="533.307087" lengthAdjust="spacingAndGlyphs" opacity="0" text-anchor="middle" textLength="821.889764" x="66500" y="50900">28</text><path d="m66195 50519 19-19 38-20h95l38 20 19 19 19 38v38l-19 57-228 228h247"/><path d="m66652 50652-38-19-19-19-19-38v-19l19-38 19-19 38-20h76l38 20 19 19 19 38v19l-19 38-19 19-38 19h-76l-38 19-19 19-19 38v76l19 38 19 19 38 19h76l38-19 19-19 19-38v-76l-19-38-19-19-38-19"/></g><path d="m53500 33000h-2000" fill="none" stroke="#840000"/><g fill="#006464" fill-opacity="0" stroke="#006464"><text font-size="533.307087" lengthAdjust="spacingAndGlyphs" opacity="0" textLength="2917.125984" x="53900" y="33200">UART_CTS</text><path d="m54025 32780v324l19 38 19 19 38 19h76l38-19 19-19 19-38v-324"/><path d="m54425 33066h190"/><path d="m54387 33180 133-400 133 400"/><path d="m55015 33180-133-190"/><path d="m54787 33180v-400h152l38 20 19 19 19 38v57l-19 38-19 19-38 19h-152"/><path d="m55130 32780h228"/><path d="m55244 33180v-400"/><path d="m55396 33219h305"/><path d="m56025 33142-19 19-57 19h-39l-57-19-38-38-19-38-19-76v-57l19-76 19-38 38-38 57-20h39l57 20 19 19"/><path d="m56139 32780h229"/><path d="m56253 33180v-400"/><path d="m56482 33161 57 19h95l38-19 19-19 19-38v-38l-19-38-19-19-38-19-76-19-38-19-19-19-19-38v-38l19-38 19-19 38-20h95l57 20"/></g><g fill="#a90000" fill-opacity="0" stroke="#a90000"><text font-size="533.307087" lengthAdjust="spacingAndGlyphs" opacity="0" text-anchor="middle" textLength="440.944882" x="52500" y="32900">3</text><path d="m52366 32480h248l-134 153h58l38 19 19 19 19 38v95l-19 38-19 19-38 19h-115l-38-19-19-19"/></g><path d="m65500 37000h2000" fill="none" stroke="#840000"/><g fill="#006464" fill-opacity="0" stroke="#006464"><text font-size="533.307087" lengthAdjust="spacingAndGlyphs" opacity="0" text-anchor="end" textLength="1793.346457" x="65100" y="37200">TEST0</text><path d="m63374 36780h229"/><path d="m63489 37180v-400"/><path d="m63736 36971h134"/><path d="m63927 37180h-191v-400h191"/><path d="m64079 37161 57 19h95l39-19 19-19 19-38v-38l-19-38-19-19-39-19-76-19-38-19-19-19-19-38v-38l19-38 19-19 38-20h95l58 20"/><path d="m64422 36780h228"/><path d="m64536 37180v-400"/><path d="m64860 36780h38l38 20 19 19 19 38 19 76v95l-19 76-19 38-19 19-38 19h-38l-38-19-19-19-19-38-19-76v-95l19-76 19-38 19-19z"/></g><g fill="#a90000" fill-opacity="0" stroke="#a90000"><text font-size="533.307087" lengthAdjust="spacingAndGlyphs" opacity="0" text-anchor="middle" textLength="821.889764" x="66500" y="36900">30</text><path d="m66176 36480h247l-133 153h57l38 19 19 19 19 38v95l-19 38-19 19-38 19h-114l-38-19-19-19"/><path d="m66671 36480h38l38 20 19 19 19 38 19 76v95l-19 76-19 38-19 19-38 19h-38l-38-19-19-19-19-38-19-76v-95l19-76 19-38 19-19z"/></g><path d="m65500 38000h2000" fill="none" stroke="#840000"/><g fill="#006464" fill-opacity="0" stroke="#006464"><text font-size="533.307087" lengthAdjust="spacingAndGlyphs" opacity="0" text-anchor="end" textLength="1793.346457" x="65100" y="38200">TEST1</text><path d="m63374 37780h229"/><path d="m63489 38180v-400"/><path d="m63736 37971h134"/><path d="m63927 38180h-191v-400h191"/><path d="m64079 38161 57 19h95l39-19 19-19 19-38v-38l-19-38-19-19-39-19-76-19-38-19-19-19-19-38v-38l19-38 19-19 38-20h95l58 20"/><path d="m64422 37780h228"/><path d="m64536 38180v-400"/><path d="m64993 38180h-228"/><path d="m64879 38180v-400l-38 58-38 38-38 19"/></g><g fill="#a90000" fill-opacity="0" stroke="#a90000"><text font-size="533.307087" lengthAdjust="spacingAndGlyphs" opacity="0" text-anchor="middle" textLength="821.889764" x="66500" y="37900">31</text><path d="m66176 37480h247l-133 153h57l38 19 19 19 19 38v95l-19 38-19 19-38 19h-114l-38-19-19-19"/><path d="m66804 37880h-228"/><path d="m66690 37880v-400l-38 58-38 38-38 19"/></g><path d="m53500 29000h-2000" fill="none" stroke="#840000"/><g fill="#006464" fill-opacity="0" stroke="#006464"><text font-size="533.307087" lengthAdjust="spacingAndGlyphs" opacity="0" textLength="1869.527559" x="53900" y="29200">~{RESET}</text><path d="m53930 28667h400"/><path d="m54253 29180-133-190"/><path d="m54025 29180v-400h152l38 20 19 19 19 38v57l-19 38-19 19-38 19h-152"/><path d="m54330 28667h361"/><path d="m54425 28971h133"/><path d="m54615 29180h-190v-400h190"/><path d="m54691 28667h381"/><path d="m54768 29161 57 19h95l38-19 19-19 19-38v-38l-19-38-19-19-38-19-76-19-38-19-19-19-19-38v-38l19-38 19-19 38-20h95l57 20"/><path d="m55072 28667h362"/><path d="m55168 28971h133"/><path d="m55358 29180h-190v-400h190"/><path d="m55434 28667h305"/><path d="m55472 28780h229"/><path d="m55587 29180v-400"/></g><g fill="#a90000" fill-opacity="0" stroke="#a90000"><text font-size="533.307087" lengthAdjust="spacingAndGlyphs" opacity="0" text-anchor="middle" textLength="821.889764" x="52500" y="28900">32</text><path d="m52176 28480h247l-133 153h57l38 19 19 19 19 38v95l-19 38-19 19-38 19h-114l-38-19-19-19"/><path d="m52576 28519 19-19 38-20h95l38 20 19 19 19 38v38l-19 57-228 228h247"/></g><path d="m65500 51000h2000" fill="none" stroke="#840000"/><g fill="#006464" fill-opacity="0" stroke="#006464"><text font-size="533.307087" lengthAdjust="spacingAndGlyphs" opacity="0" text-anchor="end" textLength="1279.055118" x="65100" y="51200">GND</text><path d="m64155 50800-38-20h-57l-57 20-38 38-19 38-19 76v57l19 76 19 38 38 38 57 19h38l57-19 19-19v-133h-76"/><path d="m64346 51180v-400l228 400v-400"/><path d="m64765 51180v-400h95l57 20 38 38 19 38 19 76v57l-19 76-19 38-38 38-57 19z"/></g><g fill="#a90000" fill-opacity="0" stroke="#a90000"><text font-size="533.307087" lengthAdjust="spacingAndGlyphs" opacity="0" text-anchor="middle" textLength="821.889764" x="66500" y="50900">33</text><path d="m66176 50480h247l-133 153h57l38 19 19 19 19 38v95l-19 38-19 19-38 19h-114l-38-19-19-19"/><path d="m66557 50480h247l-133 153h57l38 19 19 19 19 38v95l-19 38-19 19-38 19h-114l-38-19-19-19"/></g><path d="m65500 28000h2000" fill="none" stroke="#840000"/><g fill="#006464" fill-opacity="0" stroke="#006464"><text font-size="533.307087" lengthAdjust="spacingAndGlyphs" opacity="0" text-anchor="end" textLength="1583.818898" x="65100" y="28200">VDD2</text><path d="m63584 27780 133 400 133-400"/><path d="m63984 28180v-400h95l57 20 38 38 19 38 19 76v57l-19 76-19 38-38 38-57 19z"/><path d="m64384 28180v-400h95l57 20 38 38 19 38 19 76v57l-19 76-19 38-38 38-57 19z"/><path d="m64765 27819 19-19 38-20h95l38 20 19 19 19 38v38l-19 57-228 228h247"/></g><g fill="#a90000" fill-opacity="0" stroke="#a90000"><text font-size="533.307087" lengthAdjust="spacingAndGlyphs" opacity="0" text-anchor="middle" textLength="821.889764" x="66500" y="27900">34</text><path d="m66176 27480h247l-133 153h57l38 19 19 19 19 38v95l-19 38-19 19-38 19h-114l-38-19-19-19"/><path d="m66766 27614v266"/><path d="m66671 27461-95 286h247"/></g><path d="m53500 37000h-2000" fill="none" stroke="#840000"/><g fill="#006464" fill-opacity="0" stroke="#006464"><text font-size="533.307087" lengthAdjust="spacingAndGlyphs" opacity="0" textLength="1850.472441" x="53900" y="37200">GPIO0</text><path d="m54234 36800-38-20h-57l-57 20-38 38-19 38-19 76v57l19 76 19 38 38 38 57 19h38l57-19 19-19v-133h-76"/><path d="m54425 37180v-400h152l38 20 19 19 19 38v57l-19 38-19 19-38 19h-152"/><path d="m54825 37180v-400"/><path d="m55091 36780h77l38 20 38 38 19 76v133l-19 76-38 38-38 19h-77l-38-19-38-38-19-76v-133l19-76 38-38z"/><path d="m55510 36780h39l38 20 19 19 19 38 19 76v95l-19 76-19 38-19 19-38 19h-39l-38-19-19-19-19-38-19-76v-95l19-76 19-38 19-19z"/></g><g fill="#a90000" fill-opacity="0" stroke="#a90000"><text font-size="533.307087" lengthAdjust="spacingAndGlyphs" opacity="0" text-anchor="middle" textLength="821.889764" x="52500" y="36900">35</text><path d="m52176 36480h247l-133 153h57l38 19 19 19 19 38v95l-19 38-19 19-38 19h-114l-38-19-19-19"/><path d="m52785 36480h-190l-19 191 19-19 38-19h95l38 19 19 19 19 38v95l-19 38-19 19-38 19h-95l-38-19-19-19"/></g><path d="m53500 38000h-2000" fill="none" stroke="#840000"/><g fill="#006464" fill-opacity="0" stroke="#006464"><text font-size="533.307087" lengthAdjust="spacingAndGlyphs" opacity="0" textLength="1850.472441" x="53900" y="38200">GPIO1</text><path d="m54234 37800-38-20h-57l-57 20-38 38-19 38-19 76v57l19 76 19 38 38 38 57 19h38l57-19 19-19v-133h-76"/><path d="m54425 38180v-400h152l38 20 19 19 19 38v57l-19 38-19 19-38 19h-152"/><path d="m54825 38180v-400"/><path d="m55091 37780h77l38 20 38 38 19 76v133l-19 76-38 38-38 19h-77l-38-19-38-38-19-76v-133l19-76 38-38z"/><path d="m55644 38180h-229"/><path d="m55530 38180v-400l-39 58-38 38-38 19"/></g><g fill="#a90000" fill-opacity="0" stroke="#a90000"><text font-size="533.307087" lengthAdjust="spacingAndGlyphs" opacity="0" text-anchor="middle" textLength="821.889764" x="52500" y="37900">36</text><path d="m52176 37480h247l-133 153h57l38 19 19 19 19 38v95l-19 38-19 19-38 19h-114l-38-19-19-19"/><path d="m52766 37480h-76l-38 20-19 19-38 57-19 76v152l19 38 19 19 38 19h76l38-19 19-19 19-38v-95l-19-38-19-19-38-19h-76l-38 19-19 19-19 38"/></g><path d="m53500 39000h-2000" fill="none" stroke="#840000"/><g fill="#006464" fill-opacity="0" stroke="#006464"><text font-size="533.307087" lengthAdjust="spacingAndGlyphs" opacity="0" textLength="1850.472441" x="53900" y="39200">GPIO2</text><path d="m54234 38800-38-20h-57l-57 20-38 38-19 38-19 76v57l19 76 19 38 38 38 57 19h38l57-19 19-19v-133h-76"/><path d="m54425 39180v-400h152l38 20 19 19 19 38v57l-19 38-19 19-38 19h-152"/><path d="m54825 39180v-400"/><path d="m55091 38780h77l38 20 38 38 19 76v133l-19 76-38 38-38 19h-77l-38-19-38-38-19-76v-133l19-76 38-38z"/><path d="m55415 38819 19-19 38-20h96l38 20 19 19 19 38v38l-19 57-229 228h248"/></g><g fill="#a90000" fill-opacity="0" stroke="#a90000"><text font-size="533.307087" lengthAdjust="spacingAndGlyphs" opacity="0" text-anchor="middle" textLength="821.889764" x="52500" y="38900">37</text><path d="m52176 38480h247l-133 153h57l38 19 19 19 19 38v95l-19 38-19 19-38 19h-114l-38-19-19-19"/><path d="m52557 38480h266l-171 400"/></g><path d="m53500 40000h-2000" fill="none" stroke="#840000"/><g fill="#006464" fill-opacity="0" stroke="#006464"><text font-size="533.307087" lengthAdjust="spacingAndGlyphs" opacity="0" textLength="1850.472441" x="53900" y="40200">GPIO3</text><path d="m54234 39800-38-20h-57l-57 20-38 38-19 38-19 76v57l19 76 19 38 38 38 57 19h38l57-19 19-19v-133h-76"/><path d="m54425 40180v-400h152l38 20 19 19 19 38v57l-19 38-19 19-38 19h-152"/><path d="m54825 40180v-400"/><path d="m55091 39780h77l38 20 38 38 19 76v133l-19 76-38 38-38 19h-77l-38-19-38-38-19-76v-133l19-76 38-38z"/><path d="m55396 39780h248l-134 153h58l38 19 19 19 19 38v95l-19 38-19 19-38 19h-115l-38-19-19-19"/></g><g fill="#a90000" fill-opacity="0" stroke="#a90000"><text font-size="533.307087" lengthAdjust="spacingAndGlyphs" opacity="0" text-anchor="middle" textLength="821.889764" x="52500" y="39900">38</text><path d="m52176 39480h247l-133 153h57l38 19 19 19 19 38v95l-19 38-19 19-38 19h-114l-38-19-19-19"/><path d="m52652 39652-38-19-19-19-19-38v-19l19-38 19-19 38-20h76l38 20 19 19 19 38v19l-19 38-19 19-38 19h-76l-38 19-19 19-19 38v76l19 38 19 19 38 19h76l38-19 19-19 19-38v-76l-19-38-19-19-38-19"/></g><path d="m53500 41000h-2000" fill="none" stroke="#840000"/><g fill="#006464" fill-opacity="0" stroke="#006464"><text font-size="533.307087" lengthAdjust="spacingAndGlyphs" opacity="0" textLength="1850.472441" x="53900" y="41200">GPIO4</text><path d="m54234 40800-38-20h-57l-57 20-38 38-19 38-19 76v57l19 76 19 38 38 38 57 19h38l57-19 19-19v-133h-76"/><path d="m54425 41180v-400h152l38 20 19 19 19 38v57l-19 38-19 19-38 19h-152"/><path d="m54825 41180v-400"/><path d="m55091 40780h77l38 20 38 38 19 76v133l-19 76-38 38-38 19h-77l-38-19-38-38-19-76v-133l19-76 38-38z"/><path d="m55606 40914v266"/><path d="m55510 40761-95 286h248"/></g><g fill="#a90000" fill-opacity="0" stroke="#a90000"><text font-size="533.307087" lengthAdjust="spacingAndGlyphs" opacity="0" text-anchor="middle" textLength="821.889764" x="52500" y="40900">39</text><path d="m52176 40480h247l-133 153h57l38 19 19 19 19 38v95l-19 38-19 19-38 19h-114l-38-19-19-19"/><path d="m52614 40880h76l38-19 19-19 38-57 19-76v-152l-19-38-19-19-38-20h-76l-38 20-19 19-19 38v95l19 38 19 19 38 19h76l38-19 19-19 19-38"/></g><path d="m65500 40000h2000" fill="none" stroke="#840000"/><g fill="#006464" fill-opacity="0" stroke="#006464"><text font-size="533.307087" lengthAdjust="spacingAndGlyphs" opacity="0" text-anchor="end" textLength="3450.472441" x="65100" y="40200">RESERVED1</text><path d="m62003 40180-133-190"/><path d="m61774 40180v-400h153l38 20 19 19 19 38v57l-19 38-19 19-38 19h-153"/><path d="m62174 39971h134"/><path d="m62365 40180h-191v-400h191"/><path d="m62517 40161 57 19h96l38-19 19-19 19-38v-38l-19-38-19-19-38-19-77-19-38-19-19-19-19-38v-38l19-38 19-19 38-20h96l57 20"/><path d="m62917 39971h133"/><path d="m63108 40180h-191v-400h191"/><path d="m63508 40180-134-190"/><path d="m63279 40180v-400h152l39 20 19 19 19 38v57l-19 38-19 19-39 19h-152"/><path d="m63622 39780 133 400 134-400"/><path d="m64022 39971h133"/><path d="m64212 40180h-190v-400h190"/><path d="m64384 40180v-400h95l57 20 38 38 19 38 19 76v57l-19 76-19 38-38 38-57 19z"/><path d="m64993 40180h-228"/><path d="m64879 40180v-400l-38 58-38 38-38 19"/></g><g fill="#a90000" fill-opacity="0" stroke="#a90000"><text font-size="533.307087" lengthAdjust="spacingAndGlyphs" opacity="0" text-anchor="middle" textLength="440.944882" x="66500" y="39900">4</text><path d="m66576 39614v266"/><path d="m66480 39461-95 286h248"/></g><path d="m53500 42000h-2000" fill="none" stroke="#840000"/><g fill="#006464" fill-opacity="0" stroke="#006464"><text font-size="533.307087" lengthAdjust="spacingAndGlyphs" opacity="0" textLength="1850.472441" x="53900" y="42200">GPIO5</text><path d="m54234 41800-38-20h-57l-57 20-38 38-19 38-19 76v57l19 76 19 38 38 38 57 19h38l57-19 19-19v-133h-76"/><path d="m54425 42180v-400h152l38 20 19 19 19 38v57l-19 38-19 19-38 19h-152"/><path d="m54825 42180v-400"/><path d="m55091 41780h77l38 20 38 38 19 76v133l-19 76-38 38-38 19h-77l-38-19-38-38-19-76v-133l19-76 38-38z"/><path d="m55625 41780h-191l-19 191 19-19 38-19h96l38 19 19 19 19 38v95l-19 38-19 19-38 19h-96l-38-19-19-19"/></g><g fill="#a90000" fill-opacity="0" stroke="#a90000"><text font-size="533.307087" lengthAdjust="spacingAndGlyphs" opacity="0" text-anchor="middle" textLength="821.889764" x="52500" y="41900">40</text><path d="m52385 41614v266"/><path d="m52290 41461-95 286h247"/><path d="m52671 41480h38l38 20 19 19 19 38 19 76v95l-19 76-19 38-19 19-38 19h-38l-38-19-19-19-19-38-19-76v-95l19-76 19-38 19-19z"/></g><path d="m65500 51000h2000" fill="none" stroke="#840000"/><g fill="#006464" fill-opacity="0" stroke="#006464"><text font-size="533.307087" lengthAdjust="spacingAndGlyphs" opacity="0" text-anchor="end" textLength="1279.055118" x="65100" y="51200">GND</text><path d="m64155 50800-38-20h-57l-57 20-38 38-19 38-19 76v57l19 76 19 38 38 38 57 19h38l57-19 19-19v-133h-76"/><path d="m64346 51180v-400l228 400v-400"/><path d="m64765 51180v-400h95l57 20 38 38 19 38 19 76v57l-19 76-19 38-38 38-57 19z"/></g><g fill="#a90000" fill-opacity="0" stroke="#a90000"><text font-size="533.307087" lengthAdjust="spacingAndGlyphs" opacity="0" text-anchor="middle" textLength="821.889764" x="66500" y="50900">41</text><path d="m66385 50614v266"/><path d="m66290 50461-95 286h247"/><path d="m66804 50880h-228"/><path d="m66690 50880v-400l-38 58-38 38-38 19"/></g><path d="m53500 43000h-2000" fill="none" stroke="#840000"/><g fill="#006464" fill-opacity="0" stroke="#006464"><text font-size="533.307087" lengthAdjust="spacingAndGlyphs" opacity="0" textLength="1850.472441" x="53900" y="43200">GPIO6</text><path d="m54234 42800-38-20h-57l-57 20-38 38-19 38-19 76v57l19 76 19 38 38 38 57 19h38l57-19 19-19v-133h-76"/><path d="m54425 43180v-400h152l38 20 19 19 19 38v57l-19 38-19 19-38 19h-152"/><path d="m54825 43180v-400"/><path d="m55091 42780h77l38 20 38 38 19 76v133l-19 76-38 38-38 19h-77l-38-19-38-38-19-76v-133l19-76 38-38z"/><path d="m55606 42780h-76l-39 20-19 19-38 57-19 76v152l19 38 19 19 38 19h77l38-19 19-19 19-38v-95l-19-38-19-19-38-19h-77l-38 19-19 19-19 38"/></g><g fill="#a90000" fill-opacity="0" stroke="#a90000"><text font-size="533.307087" lengthAdjust="spacingAndGlyphs" opacity="0" text-anchor="middle" textLength="821.889764" x="52500" y="42900">43</text><path d="m52385 42614v266"/><path d="m52290 42461-95 286h247"/><path d="m52557 42480h247l-133 153h57l38 19 19 19 19 38v95l-19 38-19 19-38 19h-114l-38-19-19-19"/></g><path d="m53500 44000h-2000" fill="none" stroke="#840000"/><g fill="#006464" fill-opacity="0" stroke="#006464"><text font-size="533.307087" lengthAdjust="spacingAndGlyphs" opacity="0" textLength="1850.472441" x="53900" y="44200">GPIO7</text><path d="m54234 43800-38-20h-57l-57 20-38 38-19 38-19 76v57l19 76 19 38 38 38 57 19h38l57-19 19-19v-133h-76"/><path d="m54425 44180v-400h152l38 20 19 19 19 38v57l-19 38-19 19-38 19h-152"/><path d="m54825 44180v-400"/><path d="m55091 43780h77l38 20 38 38 19 76v133l-19 76-38 38-38 19h-77l-38-19-38-38-19-76v-133l19-76 38-38z"/><path d="m55396 43780h267l-172 400"/></g><g fill="#a90000" fill-opacity="0" stroke="#a90000"><text font-size="533.307087" lengthAdjust="spacingAndGlyphs" opacity="0" text-anchor="middle" textLength="821.889764" x="52500" y="43900">44</text><path d="m52385 43614v266"/><path d="m52290 43461-95 286h247"/><path d="m52766 43614v266"/><path d="m52671 43461-95 286h247"/></g><path d="m53500 45000h-2000" fill="none" stroke="#840000"/><g fill="#006464" fill-opacity="0" stroke="#006464"><text font-size="533.307087" lengthAdjust="spacingAndGlyphs" opacity="0" textLength="1850.472441" x="53900" y="45200">GPIO8</text><path d="m54234 44800-38-20h-57l-57 20-38 38-19 38-19 76v57l19 76 19 38 38 38 57 19h38l57-19 19-19v-133h-76"/><path d="m54425 45180v-400h152l38 20 19 19 19 38v57l-19 38-19 19-38 19h-152"/><path d="m54825 45180v-400"/><path d="m55091 44780h77l38 20 38 38 19 76v133l-19 76-38 38-38 19h-77l-38-19-38-38-19-76v-133l19-76 38-38z"/><path d="m55491 44952-38-19-19-19-19-38v-19l19-38 19-19 38-20h77l38 20 19 19 19 38v19l-19 38-19 19-38 19h-77l-38 19-19 19-19 38v76l19 38 19 19 38 19h77l38-19 19-19 19-38v-76l-19-38-19-19-38-19"/></g><g fill="#a90000" fill-opacity="0" stroke="#a90000"><text font-size="533.307087" lengthAdjust="spacingAndGlyphs" opacity="0" text-anchor="middle" textLength="821.889764" x="52500" y="44900">45</text><path d="m52385 44614v266"/><path d="m52290 44461-95 286h247"/><path d="m52785 44480h-190l-19 191 19-19 38-19h95l38 19 19 19 19 38v95l-19 38-19 19-38 19h-95l-38-19-19-19"/></g><path d="m53500 46000h-2000" fill="none" stroke="#840000"/><g fill="#006464" fill-opacity="0" stroke="#006464"><text font-size="533.307087" lengthAdjust="spacingAndGlyphs" opacity="0" textLength="1850.472441" x="53900" y="46200">GPIO9</text><path d="m54234 45800-38-20h-57l-57 20-38 38-19 38-19 76v57l19 76 19 38 38 38 57 19h38l57-19 19-19v-133h-76"/><path d="m54425 46180v-400h152l38 20 19 19 19 38v57l-19 38-19 19-38 19h-152"/><path d="m54825 46180v-400"/><path d="m55091 45780h77l38 20 38 38 19 76v133l-19 76-38 38-38 19h-77l-38-19-38-38-19-76v-133l19-76 38-38z"/><path d="m55453 46180h77l38-19 19-19 38-57 19-76v-152l-19-38-19-19-38-20h-77l-38 20-19 19-19 38v95l19 38 19 19 38 19h77l38-19 19-19 19-38"/></g><g fill="#a90000" fill-opacity="0" stroke="#a90000"><text font-size="533.307087" lengthAdjust="spacingAndGlyphs" opacity="0" text-anchor="middle" textLength="821.889764" x="52500" y="45900">46</text><path d="m52385 45614v266"/><path d="m52290 45461-95 286h247"/><path d="m52766 45480h-76l-38 20-19 19-38 57-19 76v152l19 38 19 19 38 19h76l38-19 19-19 19-38v-95l-19-38-19-19-38-19h-76l-38 19-19 19-19 38"/></g><path d="m65500 51000h2000" fill="none" stroke="#840000"/><g fill="#006464" fill-opacity="0" stroke="#006464"><text font-size="533.307087" lengthAdjust="spacingAndGlyphs" opacity="0" text-anchor="end" textLength="1279.055118" x="65100" y="51200">GND</text><path d="m64155 50800-38-20h-57l-57 20-38 38-19 38-19 76v57l19 76 19 38 38 38 57 19h38l57-19 19-19v-133h-76"/><path d="m64346 51180v-400l228 400v-400"/><path d="m64765 51180v-400h95l57 20 38 38 19 38 19 76v57l-19 76-19 38-38 38-57 19z"/></g><g fill="#a90000" fill-opacity="0" stroke="#a90000"><text font-size="533.307087" lengthAdjust="spacingAndGlyphs" opacity="0" text-anchor="middle" textLength="821.889764" x="66500" y="50900">47</text><path d="m66385 50614v266"/><path d="m66290 50461-95 286h247"/><path d="m66557 50480h266l-171 400"/></g><path d="m65500 41000h2000" fill="none" stroke="#840000"/><g fill="#006464" fill-opacity="0" stroke="#006464"><text font-size="533.307087" lengthAdjust="spacingAndGlyphs" opacity="0" text-anchor="end" textLength="3450.472441" x="65100" y="41200">RESERVED2</text><path d="m62003 41180-133-190"/><path d="m61774 41180v-400h153l38 20 19 19 19 38v57l-19 38-19 19-38 19h-153"/><path d="m62174 40971h134"/><path d="m62365 41180h-191v-400h191"/><path d="m62517 41161 57 19h96l38-19 19-19 19-38v-38l-19-38-19-19-38-19-77-19-38-19-19-19-19-38v-38l19-38 19-19 38-20h96l57 20"/><path d="m62917 40971h133"/><path d="m63108 41180h-191v-400h191"/><path d="m63508 41180-134-190"/><path d="m63279 41180v-400h152l39 20 19 19 19 38v57l-19 38-19 19-39 19h-152"/><path d="m63622 40780 133 400 134-400"/><path d="m64022 40971h133"/><path d="m64212 41180h-190v-400h190"/><path d="m64384 41180v-400h95l57 20 38 38 19 38 19 76v57l-19 76-19 38-38 38-57 19z"/><path d="m64765 40819 19-19 38-20h95l38 20 19 19 19 38v38l-19 57-228 228h247"/></g><g fill="#a90000" fill-opacity="0" stroke="#a90000"><text font-size="533.307087" lengthAdjust="spacingAndGlyphs" opacity="0" text-anchor="middle" textLength="440.944882" x="66500" y="40900">5</text><path d="m66595 40480h-191l-19 191 19-19 38-19h96l38 19 19 19 19 38v95l-19 38-19 19-38 19h-96l-38-19-19-19"/></g><path d="m65500 34000h2000" fill="none" stroke="#840000"/><g fill="#006464" fill-opacity="0" stroke="#006464"><text font-size="533.307087" lengthAdjust="spacingAndGlyphs" opacity="0" text-anchor="end" textLength="2517.125984" x="65100" y="34200">UART_TX</text><path d="m62708 33780v324l19 38 19 19 38 19h76l38-19 19-19 19-38v-324"/><path d="m63108 34066h190"/><path d="m63070 34180 133-400 133 400"/><path d="m63698 34180-133-190"/><path d="m63470 34180v-400h152l38 20 19 19 19 38v57l-19 38-19 19-38 19h-152"/><path d="m63812 33780h229"/><path d="m63927 34180v-400"/><path d="m64079 34219h305"/><path d="m64422 33780h228"/><path d="m64536 34180v-400"/><path d="m64746 33780 266 400"/><path d="m65012 33780-266 400"/></g><g fill="#a90000" fill-opacity="0" stroke="#a90000"><text font-size="533.307087" lengthAdjust="spacingAndGlyphs" opacity="0" text-anchor="middle" textLength="440.944882" x="66500" y="33900">6</text><path d="m66576 33480h-76l-39 20-19 19-38 57-19 76v152l19 38 19 19 38 19h77l38-19 19-19 19-38v-95l-19-38-19-19-38-19h-77l-38 19-19 19-19 38"/></g><path d="m53500 34000h-2000" fill="none" stroke="#840000"/><g fill="#006464" fill-opacity="0" stroke="#006464"><text font-size="533.307087" lengthAdjust="spacingAndGlyphs" opacity="0" textLength="2612.362205" x="53900" y="34200">UART_RX</text><path d="m54025 33780v324l19 38 19 19 38 19h76l38-19 19-19 19-38v-324"/><path d="m54425 34066h190"/><path d="m54387 34180 133-400 133 400"/><path d="m55015 34180-133-190"/><path d="m54787 34180v-400h152l38 20 19 19 19 38v57l-19 38-19 19-38 19h-152"/><path d="m55130 33780h228"/><path d="m55244 34180v-400"/><path d="m55396 34219h305"/><path d="m56025 34180-134-190"/><path d="m55796 34180v-400h153l38 20 19 19 19 38v57l-19 38-19 19-38 19h-153"/><path d="m56158 33780 267 400"/><path d="m56425 33780-267 400"/></g><g fill="#a90000" fill-opacity="0" stroke="#a90000"><text font-size="533.307087" lengthAdjust="spacingAndGlyphs" opacity="0" text-anchor="middle" textLength="440.944882" x="52500" y="33900">7</text><path d="m52366 33480h267l-172 400"/></g><path d="m65500 51000h2000" fill="none" stroke="#840000"/><g fill="#006464" fill-opacity="0" stroke="#006464"><text font-size="533.307087" lengthAdjust="spacingAndGlyphs" opacity="0" text-anchor="end" textLength="1279.055118" x="65100" y="51200">GND</text><path d="m64155 50800-38-20h-57l-57 20-38 38-19 38-19 76v57l19 76 19 38 38 38 57 19h38l57-19 19-19v-133h-76"/><path d="m64346 51180v-400l228 400v-400"/><path d="m64765 51180v-400h95l57 20 38 38 19 38 19 76v57l-19 76-19 38-38 38-57 19z"/></g><g fill="#a90000" fill-opacity="0" stroke="#a90000"><text font-size="533.307087" lengthAdjust="spacingAndGlyphs" opacity="0" text-anchor="middle" textLength="440.944882" x="66500" y="50900">8</text><path d="m66461 50652-38-19-19-19-19-38v-19l19-38 19-19 38-20h77l38 20 19 19 19 38v19l-19 38-19 19-38 19h-77l-38 19-19 19-19 38v76l19 38 19 19 38 19h77l38-19 19-19 19-38v-76l-19-38-19-19-38-19"/></g><path d="m53500 50000h-2000" fill="none" stroke="#840000"/><g fill="#006464" fill-opacity="0" stroke="#006464"><text font-size="533.307087" lengthAdjust="spacingAndGlyphs" opacity="0" textLength="2231.417323" x="53900" y="50200">GPIO13</text><path d="m54234 49800-38-20h-57l-57 20-38 38-19 38-19 76v57l19 76 19 38 38 38 57 19h38l57-19 19-19v-133h-76"/><path d="m54425 50180v-400h152l38 20 19 19 19 38v57l-19 38-19 19-38 19h-152"/><path d="m54825 50180v-400"/><path d="m55091 49780h77l38 20 38 38 19 76v133l-19 76-38 38-38 19h-77l-38-19-38-38-19-76v-133l19-76 38-38z"/><path d="m55644 50180h-229"/><path d="m55530 50180v-400l-39 58-38 38-38 19"/><path d="m55777 49780h248l-134 153h58l38 19 19 19 19 38v95l-19 38-19 19-38 19h-115l-38-19-19-19"/></g><g fill="#a90000" fill-opacity="0" stroke="#a90000"><text font-size="533.307087" lengthAdjust="spacingAndGlyphs" opacity="0" text-anchor="middle" textLength="440.944882" x="52500" y="49900">9</text><path d="m52423 49880h77l38-19 19-19 38-57 19-76v-152l-19-38-19-19-38-20h-77l-38 20-19 19-19 38v95l19 38 19 19 38 19h77l38-19 19-19 19-38"/></g><g fill="#006464" fill-opacity="0" stroke="#006464"><text font-size="666.653543" lengthAdjust="spacingAndGlyphs" opacity="0" text-anchor="middle" textLength="3512.362205" x="59500" y="24250">MODULE1</text><path d="m57892 24226v-500l167 357 167-357v500"/><path d="m58559 23726h95l48 24 48 47 23 95v167l-23 95-48 48-48 24h-95l-48-24-47-48-24-95v-167l24-95 47-47z"/><path d="m58988 24226v-500h119l71 24 48 47 24 48 23 95v71l-23 96-24 47-48 48-71 24z"/><path d="m59488 23726v404l23 48 24 24 48 24h95l48-24 24-24 23-48v-404"/><path d="m60250 24226h-239v-500"/><path d="m60416 23964h167"/><path d="m60654 24226h-238v-500h238"/><path d="m61130 24226h-285"/><path d="m60988 24226v-500l-48 71-48 48-47 24"/><text font-size="666.653543" lengthAdjust="spacingAndGlyphs" opacity="0" text-anchor="middle" textLength="14012.362205" x="59500" y="25250">RN2483-I_RM095-RN2483-I_RM095</text><path d="m52928 25226-167-238"/><path d="m52642 25226v-500h191l47 24 24 23 24 48v71l-24 48-24 24-47 24h-191"/><path d="m53142 25226v-500l286 500v-500"/><path d="m53642 24773 24-23 48-24h119l47 24 24 23 24 48v48l-24 71-285 286h309"/><path d="m54357 24892v334"/><path d="m54238 24702-119 357h309"/><path d="m54690 24940-48-24-23-24-24-47v-24l24-48 23-23 48-24h95l48 24 24 23 23 48v24l-23 47-24 24-48 24h-95l-48 24-23 24-24 47v95l24 48 23 24 48 24h95l48-24 24-24 23-48v-95l-23-47-24-24-48-24"/><path d="m55047 24726h310l-167 190h71l48 24 24 24 24 47v119l-24 48-24 24-48 24h-142l-48-24-24-24"/><path d="m55571 25035h381"/><path d="m56190 25226v-500"/><path d="m56309 25273h381"/><path d="m57095 25226-167-238"/><path d="m56809 25226v-500h191l47 24 24 23 24 48v71l-24 48-24 24-47 24h-191"/><path d="m57309 25226v-500l167 357 166-357v500"/><path d="m57976 24726h47l48 24 24 23 24 48 23 95v119l-23 95-24 48-24 24-48 24h-47l-48-24-24-24-24-48-23-95v-119l23-95 24-48 24-23z"/><path d="m58380 25226h96l47-24 24-24 48-71 24-96v-190l-24-48-24-23-48-24h-95l-48 24-23 23-24 48v119l24 48 23 23 48 24h95l48-24 24-23 24-48"/><path d="m59071 24726h-238l-24 238 24-24 47-24h120l47 24 24 24 24 47v119l-24 48-24 24-47 24h-120l-47-24-24-24"/><path d="m59309 25035h381"/><path d="m60214 25226-167-238"/><path d="m59928 25226v-500h191l47 24 24 23 24 48v71l-24 48-24 24-47 24h-191"/><path d="m60428 25226v-500l286 500v-500"/><path d="m60928 24773 24-23 48-24h119l47 24 24 23 24 48v48l-24 71-286 286h310"/><path d="m61642 24892v334"/><path d="m61523 24702-119 357h310"/><path d="m61976 24940-48-24-24-24-24-47v-24l24-48 24-23 48-24h95l48 24 23 23 24 48v24l-24 47-23 24-48 24h-95l-48 24-24 24-24 47v95l24 48 24 24 48 24h95l48-24 23-24 24-48v-95l-24-47-23-24-48-24"/><path d="m62333 24726h309l-166 190h71l48 24 24 24 23 47v119l-23 48-24 24-48 24h-143l-47-24-24-24"/><path d="m62857 25035h381"/><path d="m63476 25226v-500"/><path d="m63595 25273h381"/><path d="m64380 25226-166-238"/><path d="m64095 25226v-500h190l48 24 24 23 23 48v71l-23 48-24 24-48 24h-190"/><path d="m64595 25226v-500l166 357 167-357v500"/><path d="m65261 24726h48l48 24 23 23 24 48 24 95v119l-24 95-24 48-23 24-48 24h-48l-47-24-24-24-24-48-24-95v-119l24-95 24-48 24-23z"/><path d="m65666 25226h95l48-24 24-24 47-71 24-96v-190l-24-48-23-23-48-24h-95l-48 24-24 23-23 48v119l23 48 24 23 48 24h95l48-24 23-23 24-48"/><path d="m66357 24726h-238l-24 238 24-24 47-24h119l48 24 24 24 23 47v119l-23 48-24 24-48 24h-119l-47-24-24-24"/></g></g></g><g fill="#006464" fill-opacity="0" stroke="#006464"><path d="m68000 31000v500h500l-500 500-500-500h500" fill="none" stroke="#840000"/><g fill="#006464" fill-opacity="0" stroke="#006464"><text font-size="666.653543" lengthAdjust="spacingAndGlyphs" opacity="0" text-anchor="middle" textLength="1583.818898" x="69500" y="31750">GND</text><path d="m69119 31250-48-24h-71l-72 24-48 47-23 48-24 95v71l24 96 23 47 48 48 72 24h47l72-24 23-24v-167h-95"/><path d="m69357 31726v-500l285 500v-500"/><path d="m69880 31726v-500h120l71 24 48 47 23 48 24 95v71l-24 96-23 47-48 48-71 24z"/></g></g><g fill="#006464" fill-opacity="0" stroke="#006464"><g stroke="#840000"><path d="m67400 29700h1200" fill="none" stroke-width="130"/><path d="m67400 29300h1200" fill="none" stroke-width="120"/><g fill="#840000" fill-opacity="0" stroke-width="60"><path d="m68000 29300v-800"/><path d="m68000 29700v800"/></g></g><g fill="#006464" fill-opacity="0" stroke="#006464" stroke-width="60"><text font-size="666.653543" lengthAdjust="spacingAndGlyphs" opacity="0" text-anchor="middle" textLength="1512.362205" x="69757.440945" y="29252.440945">C10</text><path d="m69435 29180-23 24-72 24h-47l-72-24-47-47-24-48-24-95v-72l24-95 24-47 47-48 72-24h47l72 24 23 24"/><path d="m69912 29228h-286"/><path d="m69769 29228v-500l-48 72-47 47-48 24"/><path d="m70221 28728h48l47 24 24 24 24 47 24 96v119l-24 95-24 47-24 24-47 24h-48l-47-24-24-24-24-47-24-95v-119l24-96 24-47 24-24z"/><text font-size="666.653543" lengthAdjust="spacingAndGlyphs" opacity="0" text-anchor="middle" textLength="1488.582677" x="69745.551181" y="30252.440945">1µF</text><path d="m69412 30228h-286"/><path d="m69269 30228v-500l-48 72-47 47-48 24"/><path d="m69626 29895v500"/><path d="m69864 30157 24 47 48 24"/><path d="m69626 30157 24 47 47 24h96l47-24 24-47v-262"/><path d="m70316 29966h-166"/><path d="m70150 30228v-500h238"/></g></g><g fill="#006464" fill-opacity="0" stroke="#006464"><path d="m45000 27000v500h500l-500 500-500-500h500" fill="none" stroke="#840000"/><g fill="#006464" fill-opacity="0" stroke="#006464"><text font-size="666.653543" lengthAdjust="spacingAndGlyphs" opacity="0" text-anchor="middle" textLength="1583.818898" x="46000" y="27250">GND</text><path d="m45619 26750-48-24h-71l-72 24-48 47-23 48-24 95v71l24 96 23 47 48 48 72 24h47l72-24 23-24v-167h-95"/><path d="m45857 27226v-500l285 500v-500"/><path d="m46380 27226v-500h120l71 24 48 47 23 48 24 95v71l-24 96-23 47-48 48-71 24z"/></g></g><g fill="#006464" fill-opacity="0" stroke="#006464"><path d="m68000 51500v500h500l-500 500-500-500h500" fill="none" stroke="#840000"/><g fill="#006464" fill-opacity="0" stroke="#006464"><text font-size="666.653543" lengthAdjust="spacingAndGlyphs" opacity="0" text-anchor="middle" textLength="1583.818898" x="68000" y="53750">GND</text><path d="m67619 53250-48-24h-71l-72 24-48 47-23 48-24 95v71l24 96 23 47 48 48 72 24h47l72-24 23-24v-167h-95"/><path d="m67857 53726v-500l285 500v-500"/><path d="m68380 53726v-500h120l71 24 48 47 23 48 24 95v71l-24 96-23 47-48 48-71 24z"/></g></g><g fill="#725600" fill-opacity="0" stroke="#725600"><text font-size="666.653543" lengthAdjust="spacingAndGlyphs" opacity="0" text-anchor="end" textLength="5631.417323" x="49925" y="29250">RN2483_RESET</text><path d="m44728 29226-167-238"/><path d="m44442 29226v-500h191l47 24 24 23 24 48v71l-24 48-24 24-47 24h-191"/><path d="m44942 29226v-500l286 500v-500"/><path d="m45442 28773 24-23 48-24h119l47 24 24 23 24 48v48l-24 71-286 286h310"/><path d="m46156 28892v334"/><path d="m46037 28702-119 357h310"/><path d="m46490 28940-48-24-24-24-23-47v-24l23-48 24-23 48-24h95l48 24 23 23 24 48v24l-24 47-23 24-48 24h-95l-48 24-24 24-23 47v95l23 48 24 24 48 24h95l48-24 23-24 24-48v-95l-24-47-23-24-48-24"/><path d="m46847 28726h309l-166 190h71l48 24 24 24 23 47v119l-23 48-24 24-48 24h-143l-47-24-24-24"/><path d="m47252 29273h381"/><path d="m48037 29226-166-238"/><path d="m47752 29226v-500h190l48 24 24 23 23 48v71l-23 48-24 24-48 24h-190"/><path d="m48252 28964h166"/><path d="m48490 29226h-238v-500h238"/><path d="m48680 29202 72 24h119l47-24 24-24 24-48v-47l-24-48-24-24-47-23-96-24-47-24-24-24-24-47v-48l24-48 24-23 47-24h120l71 24"/><path d="m49180 28964h167"/><path d="m49418 29226h-238v-500h238"/><path d="m49561 28726h286"/><path d="m49704 29226v-500"/><path d="m50500 29000-250-250h-250v500h250z" fill="none" stroke="#725600" stroke-linecap="round" stroke-linejoin="round" stroke-width="60"/></g><g fill="#725600" fill-opacity="0" stroke="#725600"><text font-size="666.653543" lengthAdjust="spacingAndGlyphs" opacity="0" textLength="4226.653543" x="69075" y="34250">RN2483_TX</text><path d="m69509 34226-166-238"/><path d="m69224 34226v-500h190l48 24 23 23 24 48v71l-24 48-23 24-48 24h-190"/><path d="m69724 34226v-500l285 500v-500"/><path d="m70224 33773 23-23 48-24h119l48 24 23 23 24 48v48l-24 71-285 286h309"/><path d="m70938 33892v334"/><path d="m70819 33702-119 357h309"/><path d="m71271 33940-47-24-24-24-24-47v-24l24-48 24-23 47-24h95l48 24 24 23 24 48v24l-24 47-24 24-48 24h-95l-47 24-24 24-24 47v95l24 48 24 24 47 24h95l48-24 24-24 24-48v-95l-24-47-24-24-48-24"/><path d="m71628 33726h310l-167 190h72l47 24 24 24 24 47v119l-24 48-24 24-47 24h-143l-48-24-24-24"/><path d="m72033 34273h381"/><path d="m72462 33726h285"/><path d="m72605 34226v-500"/><path d="m72866 33726 334 500"/><path d="m73200 33726-334 500"/><path d="m68500 34000 250 250h250v-500h-250z" fill="none" stroke="#725600" stroke-linecap="round" stroke-linejoin="round" stroke-width="60"/></g><g fill="#725600" fill-opacity="0" stroke="#725600"><text font-size="666.653543" lengthAdjust="spacingAndGlyphs" opacity="0" text-anchor="end" textLength="4345.708661" x="49925" y="34250">RN2483_RX</text><path d="m46014 34226-167-238"/><path d="m45728 34226v-500h190l48 24 24 23 24 48v71l-24 48-24 24-48 24h-190"/><path d="m46228 34226v-500l286 500v-500"/><path d="m46728 33773 24-23 47-24h119l48 24 24 23 24 48v48l-24 71-286 286h310"/><path d="m47442 33892v334"/><path d="m47323 33702-119 357h310"/><path d="m47775 33940-47-24-24-24-24-47v-24l24-48 24-23 47-24h96l47 24 24 23 24 48v24l-24 47-24 24-47 24h-96l-47 24-24 24-24 47v95l24 48 24 24 47 24h96l47-24 24-24 24-48v-95l-24-47-24-24-47-24"/><path d="m48133 33726h309l-167 190h72l48 24 23 24 24 47v119l-24 48-23 24-48 24h-143l-48-24-23-24"/><path d="m48537 34273h381"/><path d="m49323 34226-167-238"/><path d="m49037 34226v-500h191l47 24 24 23 24 48v71l-24 48-24 24-47 24h-191"/><path d="m49490 33726 333 500"/><path d="m49823 33726-333 500"/><path d="m50500 34000-250-250h-250v500h250z" fill="none" stroke="#725600" stroke-linecap="round" stroke-linejoin="round" stroke-width="60"/></g><g fill="#009600" fill-opacity="0" stroke="#009600"><path d="m68000 27000v1000"/><path d="m68000 26500v500"/><path d="m42500 30000h9000"/><path d="m50500 29000h1000"/><path d="m68000 28000v500"/><path d="m68000 28000h-500"/><path d="m50500 34000h1000"/><path d="m68000 30500v500"/><path d="m45000 27000v-500"/><path d="m45000 26500h-500"/><path d="m42500 30000v-1500"/><path d="m67500 51000h500"/><path d="m68000 51000v500"/><path d="m67500 27000h500"/><path d="m67500 34000h1000"/></g><g fill="#000084" fill-opacity="0" stroke="#000084"><path d="m51260 36760 480 480"/><path d="m51740 36760-480 480"/><path d="m51260 37760 480 480"/><path d="m51740 37760-480 480"/><path d="m51260 38760 480 480"/><path d="m51740 38760-480 480"/><path d="m51260 39760 480 480"/><path d="m51740 39760-480 480"/><path d="m51260 40760 480 480"/><path d="m51740 40760-480 480"/><path d="m51260 41760 480 480"/><path d="m51740 41760-480 480"/><path d="m51260 43760 480 480"/><path d="m51740 43760-480 480"/><path d="m51260 44760 480 480"/><path d="m51740 44760-480 480"/><path d="m67260 39760 480 480"/><path d="m67740 39760-480 480"/><path d="m51260 47760 480 480"/><path d="m51740 47760-480 480"/><path d="m51260 45760 480 480"/><path d="m51740 45760-480 480"/><path d="m51260 30760 480 480"/><path d="m51740 30760-480 480"/><path d="m67260 37760 480 480"/><path d="m67740 37760-480 480"/><path d="m67260 36760 480 480"/><path d="m67740 36760-480 480"/><path d="m67260 32760 480 480"/><path d="m67740 32760-480 480"/><path d="m51260 46760 480 480"/><path d="m51740 46760-480 480"/><path d="m51260 48760 480 480"/><path d="m51740 48760-480 480"/><path d="m51260 32760 480 480"/><path d="m51740 32760-480 480"/><path d="m67260 40760 480 480"/><path d="m67740 40760-480 480"/><path d="m51260 49760 480 480"/><path d="m51740 49760-480 480"/><path d="m51260 42760 480 480"/><path d="m51740 42760-480 480"/></g><g fill="#009600" stroke="#009600"><circle cx="68000" cy="28000" r="180"/><circle cx="68000" cy="27000" r="180"/></g></g></g></svg>