M48
; DRILL file {KiCad (6.0.1)} date Thu Mar 10 11:50:32 2022
; FORMAT={-:-/ absolute / metric / decimal}
; #@! TF.CreationDate,2022-03-10T11:50:32+01:00
; #@! TF.GenerationSoftware,Kicad,Pcbnew,(6.0.1)
; #@! TF.FileFunction,Plated,1,4,PTH
FMAT,2
METRIC
; #@! TA.AperFunction,Plated,PTH,ViaDrill
T1C0.400
; #@! TA.AperFunction,Plated,PTH,ComponentDrill
T2C0.750
; #@! TA.AperFunction,Plated,PTH,ComponentDrill
T3C0.950
; #@! TA.AperFunction,Plated,PTH,ComponentDrill
T4C1.000
; #@! TA.AperFunction,Plated,PTH,ComponentDrill
T5C3.200
%
G90
G05
T1
X71.755Y-51.435
X73.025Y-51.308
X74.168Y-51.435
X74.168Y-65.532
X75.692Y-56.896
X76.2Y-52.832
X79.121Y-70.104
X80.555Y-71.12
X80.772Y-72.644
X81.28Y-73.66
X82.804Y-51.435
X84.074Y-51.308
X85.344Y-51.435
X86.36Y-76.708
X88.9Y-52.832
X91.4Y-69.119
X91.44Y-65.024
X91.948Y-71.628
X92.456Y-69.088
X93.472Y-72.136
X93.98Y-69.088
X94.996Y-73.152
X94.996Y-80.772
X95.504Y-69.088
X106.68Y-61.722
X115.824Y-74.168
X117.348Y-74.676
X123.571Y-74.168
X126.111Y-53.34
X128.651Y-53.213
T2
X63.5Y-59.452
X63.5Y-61.452
T3
X71.12Y-83.312
X73.62Y-83.312
X76.12Y-83.312
X78.62Y-83.312
X81.12Y-83.312
X88.9Y-83.312
X91.4Y-83.312
X93.9Y-83.312
X96.4Y-83.312
X98.9Y-83.312
X106.68Y-83.312
X109.18Y-83.312
X111.68Y-83.312
X114.18Y-83.312
X116.68Y-83.312
X124.46Y-83.312
X126.96Y-83.312
X129.46Y-83.312
X131.96Y-83.312
X134.46Y-83.312
T4
X62.225Y-72.903
X62.225Y-75.443
X64.765Y-72.903
X64.765Y-75.443
X67.305Y-72.903
X67.305Y-75.443
X69.845Y-72.903
X69.845Y-75.443
X72.385Y-72.903
X72.385Y-75.443
T5
X63.5Y-53.34
X63.5Y-83.82
X141.957Y-83.82
X142.24Y-53.34
T0
M30
