%TF.GenerationSoftware,KiCad,Pcbnew,(6.0.1)*%
%TF.CreationDate,2022-03-10T11:46:56+01:00*%
%TF.ProjectId,ci-poc-board,63692d70-6f63-42d6-926f-6172642e6b69,rev?*%
%TF.SameCoordinates,Original*%
%TF.FileFunction,Paste,Top*%
%TF.FilePolarity,Positive*%
%FSLAX46Y46*%
G04 Gerber Fmt 4.6, Leading zero omitted, Abs format (unit mm)*
G04 Created by KiCad (PCBNEW (6.0.1)) date 2022-03-10 11:46:56*
%MOMM*%
%LPD*%
G01*
G04 APERTURE LIST*
G04 Aperture macros list*
%AMRoundRect*
0 Rectangle with rounded corners*
0 $1 Rounding radius*
0 $2 $3 $4 $5 $6 $7 $8 $9 X,Y pos of 4 corners*
0 Add a 4 corners polygon primitive as box body*
4,1,4,$2,$3,$4,$5,$6,$7,$8,$9,$2,$3,0*
0 Add four circle primitives for the rounded corners*
1,1,$1+$1,$2,$3*
1,1,$1+$1,$4,$5*
1,1,$1+$1,$6,$7*
1,1,$1+$1,$8,$9*
0 Add four rect primitives between the rounded corners*
20,1,$1+$1,$2,$3,$4,$5,0*
20,1,$1+$1,$4,$5,$6,$7,0*
20,1,$1+$1,$6,$7,$8,$9,0*
20,1,$1+$1,$8,$9,$2,$3,0*%
G04 Aperture macros list end*
%ADD10RoundRect,0.250000X0.337500X0.475000X-0.337500X0.475000X-0.337500X-0.475000X0.337500X-0.475000X0*%
%ADD11R,1.500000X2.000000*%
%ADD12R,3.800000X2.000000*%
%ADD13RoundRect,0.250000X-0.475000X0.337500X-0.475000X-0.337500X0.475000X-0.337500X0.475000X0.337500X0*%
%ADD14R,1.016000X1.524000*%
%ADD15R,1.524000X1.016000*%
%ADD16RoundRect,0.250000X-0.450000X0.350000X-0.450000X-0.350000X0.450000X-0.350000X0.450000X0.350000X0*%
%ADD17RoundRect,0.250000X0.475000X-0.337500X0.475000X0.337500X-0.475000X0.337500X-0.475000X-0.337500X0*%
%ADD18R,5.080000X1.500000*%
%ADD19RoundRect,0.250000X0.450000X-0.350000X0.450000X0.350000X-0.450000X0.350000X-0.450000X-0.350000X0*%
%ADD20RoundRect,0.250000X-0.350000X-0.450000X0.350000X-0.450000X0.350000X0.450000X-0.350000X0.450000X0*%
%ADD21R,1.000000X0.900000*%
%ADD22R,1.550000X1.300000*%
%ADD23RoundRect,0.075000X-0.662500X-0.075000X0.662500X-0.075000X0.662500X0.075000X-0.662500X0.075000X0*%
%ADD24RoundRect,0.075000X-0.075000X-0.662500X0.075000X-0.662500X0.075000X0.662500X-0.075000X0.662500X0*%
%ADD25RoundRect,0.250000X0.350000X0.450000X-0.350000X0.450000X-0.350000X-0.450000X0.350000X-0.450000X0*%
%ADD26R,1.800000X1.000000*%
G04 APERTURE END LIST*
D10*
X74697500Y-61997500D03*
X72622500Y-61997500D03*
D11*
X70740000Y-59457500D03*
X73040000Y-59457500D03*
D12*
X73040000Y-53157500D03*
D11*
X75340000Y-59457500D03*
D13*
X91440000Y-61425000D03*
X91440000Y-63500000D03*
D14*
X109572500Y-72390000D03*
X110842500Y-72390000D03*
X112112500Y-72390000D03*
X113382500Y-72390000D03*
X114652500Y-72390000D03*
X115922500Y-72390000D03*
X117192500Y-72390000D03*
X118462500Y-72390000D03*
X119732500Y-72390000D03*
X121002500Y-72390000D03*
X122272500Y-72390000D03*
X123542500Y-72390000D03*
X124812500Y-72390000D03*
X126082500Y-72390000D03*
X127352500Y-72390000D03*
X128622500Y-72390000D03*
X129892500Y-72390000D03*
X131162500Y-72390000D03*
X132432500Y-72390000D03*
X133702500Y-72390000D03*
D15*
X134972500Y-67310000D03*
X134972500Y-66040000D03*
X134972500Y-64770000D03*
X134972500Y-63500000D03*
X134972500Y-62230000D03*
X134972500Y-60960000D03*
X134972500Y-59690000D03*
D14*
X133702500Y-54610000D03*
X132432500Y-54610000D03*
X131162500Y-54610000D03*
X129892500Y-54610000D03*
X128622500Y-54610000D03*
X127352500Y-54610000D03*
X126082500Y-54610000D03*
X124812500Y-54610000D03*
X123542500Y-54610000D03*
X122272500Y-54610000D03*
X121002500Y-54610000D03*
X119732500Y-54610000D03*
X118462500Y-54610000D03*
X117192500Y-54610000D03*
X115922500Y-54610000D03*
X114652500Y-54610000D03*
X113382500Y-54610000D03*
X112112500Y-54610000D03*
X110842500Y-54610000D03*
X109572500Y-54610000D03*
D16*
X71628000Y-67580000D03*
X71628000Y-69580000D03*
D17*
X86995000Y-74719000D03*
X86995000Y-72644000D03*
D13*
X88900000Y-55880000D03*
X88900000Y-57955000D03*
D11*
X81760000Y-59457500D03*
D12*
X84060000Y-53157500D03*
D11*
X84060000Y-59457500D03*
X86360000Y-59457500D03*
D18*
X144272000Y-63500000D03*
X144272000Y-59250000D03*
X144272000Y-67750000D03*
D19*
X76708000Y-63992000D03*
X76708000Y-61992000D03*
D20*
X94012000Y-78740000D03*
X96012000Y-78740000D03*
D16*
X78740000Y-61992000D03*
X78740000Y-63992000D03*
D13*
X84455000Y-70082500D03*
X84455000Y-72157500D03*
D17*
X78120000Y-54805000D03*
X78120000Y-52730000D03*
D21*
X81915000Y-76415000D03*
X81915000Y-74715000D03*
D13*
X106680000Y-63500000D03*
X106680000Y-65575000D03*
X78232000Y-57404000D03*
X78232000Y-59479000D03*
D22*
X68999000Y-69814000D03*
X61049000Y-69814000D03*
X61049000Y-65314000D03*
X68999000Y-65314000D03*
D23*
X89817500Y-68370000D03*
X89817500Y-68870000D03*
X89817500Y-69370000D03*
X89817500Y-69870000D03*
X89817500Y-70370000D03*
X89817500Y-70870000D03*
X89817500Y-71370000D03*
X89817500Y-71870000D03*
X89817500Y-72370000D03*
X89817500Y-72870000D03*
X89817500Y-73370000D03*
X89817500Y-73870000D03*
D24*
X91230000Y-75282500D03*
X91730000Y-75282500D03*
X92230000Y-75282500D03*
X92730000Y-75282500D03*
X93230000Y-75282500D03*
X93730000Y-75282500D03*
X94230000Y-75282500D03*
X94730000Y-75282500D03*
X95230000Y-75282500D03*
X95730000Y-75282500D03*
X96230000Y-75282500D03*
X96730000Y-75282500D03*
D23*
X98142500Y-73870000D03*
X98142500Y-73370000D03*
X98142500Y-72870000D03*
X98142500Y-72370000D03*
X98142500Y-71870000D03*
X98142500Y-71370000D03*
X98142500Y-70870000D03*
X98142500Y-70370000D03*
X98142500Y-69870000D03*
X98142500Y-69370000D03*
X98142500Y-68870000D03*
X98142500Y-68370000D03*
D24*
X96730000Y-66957500D03*
X96230000Y-66957500D03*
X95730000Y-66957500D03*
X95230000Y-66957500D03*
X94730000Y-66957500D03*
X94230000Y-66957500D03*
X93730000Y-66957500D03*
X93230000Y-66957500D03*
X92730000Y-66957500D03*
X92230000Y-66957500D03*
X91730000Y-66957500D03*
X91230000Y-66957500D03*
D17*
X93980000Y-63500000D03*
X93980000Y-61425000D03*
D25*
X63992000Y-78232000D03*
X61992000Y-78232000D03*
D26*
X86995000Y-69830000D03*
X86995000Y-67330000D03*
D17*
X84455000Y-67077500D03*
X84455000Y-65002500D03*
D20*
X89948000Y-78740000D03*
X91948000Y-78740000D03*
D17*
X67056000Y-61489500D03*
X67056000Y-59414500D03*
X84455000Y-76602500D03*
X84455000Y-74527500D03*
X88900000Y-63500000D03*
X88900000Y-61425000D03*
X75692000Y-74189500D03*
X75692000Y-72114500D03*
D16*
X74168000Y-67580000D03*
X74168000Y-69580000D03*
M02*
