%FSLAX45Y45*%
G04 Gerber Fmt 4.5, Leading zero omitted, Abs format (unit mm)*
G04 Created by KiCad (PCBNEW (6.0.1)) date 2022-03-10 11:50:34*
%MOMM*%
%LPD*%
G01*
G04 APERTURE LIST*
%TA.AperFunction,Profile*%
%ADD10C,0.100000*%
%TD*%
%ADD11C,0.200000*%
G04 APERTURE END LIST*
D10*
X5842000Y-4826000D02*
X14732000Y-4826000D01*
X14732000Y-4826000D02*
X14732000Y-8890000D01*
X14732000Y-8890000D02*
X5842000Y-8890000D01*
X5842000Y-8890000D02*
X5842000Y-4826000D01*
D11*
X6094619Y-9205476D02*
X6094619Y-9005476D01*
X6142238Y-9005476D01*
X6170809Y-9015000D01*
X6189857Y-9034048D01*
X6199381Y-9053095D01*
X6208905Y-9091190D01*
X6208905Y-9119762D01*
X6199381Y-9157857D01*
X6189857Y-9176905D01*
X6170809Y-9195952D01*
X6142238Y-9205476D01*
X6094619Y-9205476D01*
X6294619Y-9205476D02*
X6294619Y-9072143D01*
X6294619Y-9110238D02*
X6304143Y-9091190D01*
X6313667Y-9081667D01*
X6332714Y-9072143D01*
X6351762Y-9072143D01*
X6418428Y-9205476D02*
X6418428Y-9072143D01*
X6418428Y-9005476D02*
X6408905Y-9015000D01*
X6418428Y-9024524D01*
X6427952Y-9015000D01*
X6418428Y-9005476D01*
X6418428Y-9024524D01*
X6542238Y-9205476D02*
X6523190Y-9195952D01*
X6513667Y-9176905D01*
X6513667Y-9005476D01*
X6647000Y-9205476D02*
X6627952Y-9195952D01*
X6618428Y-9176905D01*
X6618428Y-9005476D01*
X6875571Y-9205476D02*
X6875571Y-9005476D01*
X6942238Y-9148333D01*
X7008905Y-9005476D01*
X7008905Y-9205476D01*
X7189857Y-9205476D02*
X7189857Y-9100714D01*
X7180333Y-9081667D01*
X7161286Y-9072143D01*
X7123190Y-9072143D01*
X7104143Y-9081667D01*
X7189857Y-9195952D02*
X7170809Y-9205476D01*
X7123190Y-9205476D01*
X7104143Y-9195952D01*
X7094619Y-9176905D01*
X7094619Y-9157857D01*
X7104143Y-9138810D01*
X7123190Y-9129286D01*
X7170809Y-9129286D01*
X7189857Y-9119762D01*
X7285095Y-9072143D02*
X7285095Y-9272143D01*
X7285095Y-9081667D02*
X7304143Y-9072143D01*
X7342238Y-9072143D01*
X7361286Y-9081667D01*
X7370809Y-9091190D01*
X7380333Y-9110238D01*
X7380333Y-9167381D01*
X7370809Y-9186429D01*
X7361286Y-9195952D01*
X7342238Y-9205476D01*
X7304143Y-9205476D01*
X7285095Y-9195952D01*
X7466048Y-9186429D02*
X7475571Y-9195952D01*
X7466048Y-9205476D01*
X7456524Y-9195952D01*
X7466048Y-9186429D01*
X7466048Y-9205476D01*
X7466048Y-9081667D02*
X7475571Y-9091190D01*
X7466048Y-9100714D01*
X7456524Y-9091190D01*
X7466048Y-9081667D01*
X7466048Y-9100714D01*
M02*
