%TF.GenerationSoftware,KiCad,Pcbnew,(6.0.1)*%
%TF.CreationDate,2022-03-10T11:46:56+01:00*%
%TF.ProjectId,ci-poc-board,63692d70-6f63-42d6-926f-6172642e6b69,rev?*%
%TF.SameCoordinates,Original*%
%TF.FileFunction,Copper,L4,Bot*%
%TF.FilePolarity,Positive*%
%FSLAX46Y46*%
G04 Gerber Fmt 4.6, Leading zero omitted, Abs format (unit mm)*
G04 Created by KiCad (PCBNEW (6.0.1)) date 2022-03-10 11:46:56*
%MOMM*%
%LPD*%
G01*
G04 APERTURE LIST*
G04 Aperture macros list*
%AMRoundRect*
0 Rectangle with rounded corners*
0 $1 Rounding radius*
0 $2 $3 $4 $5 $6 $7 $8 $9 X,Y pos of 4 corners*
0 Add a 4 corners polygon primitive as box body*
4,1,4,$2,$3,$4,$5,$6,$7,$8,$9,$2,$3,0*
0 Add four circle primitives for the rounded corners*
1,1,$1+$1,$2,$3*
1,1,$1+$1,$4,$5*
1,1,$1+$1,$6,$7*
1,1,$1+$1,$8,$9*
0 Add four rect primitives between the rounded corners*
20,1,$1+$1,$2,$3,$4,$5,0*
20,1,$1+$1,$4,$5,$6,$7,0*
20,1,$1+$1,$6,$7,$8,$9,0*
20,1,$1+$1,$8,$9,$2,$3,0*%
G04 Aperture macros list end*
%TA.AperFunction,ComponentPad*%
%ADD10RoundRect,0.250000X-0.600000X-0.725000X0.600000X-0.725000X0.600000X0.725000X-0.600000X0.725000X0*%
%TD*%
%TA.AperFunction,ComponentPad*%
%ADD11O,1.700000X1.950000*%
%TD*%
%TA.AperFunction,SMDPad,CuDef*%
%ADD12R,5.080000X1.500000*%
%TD*%
%TA.AperFunction,ComponentPad*%
%ADD13C,5.600000*%
%TD*%
%TA.AperFunction,ComponentPad*%
%ADD14R,1.700000X1.700000*%
%TD*%
%TA.AperFunction,ComponentPad*%
%ADD15O,1.700000X1.700000*%
%TD*%
%TA.AperFunction,ComponentPad*%
%ADD16RoundRect,0.250000X-0.625000X0.350000X-0.625000X-0.350000X0.625000X-0.350000X0.625000X0.350000X0*%
%TD*%
%TA.AperFunction,ComponentPad*%
%ADD17O,1.750000X1.200000*%
%TD*%
%TA.AperFunction,ViaPad*%
%ADD18C,0.800000*%
%TD*%
%TA.AperFunction,Conductor*%
%ADD19C,0.250000*%
%TD*%
G04 APERTURE END LIST*
D10*
X88900000Y-83312000D03*
D11*
X91400000Y-83312000D03*
X93900000Y-83312000D03*
X96400000Y-83312000D03*
X98900000Y-83312000D03*
D10*
X71120000Y-83312000D03*
D11*
X73620000Y-83312000D03*
X76120000Y-83312000D03*
X78620000Y-83312000D03*
X81120000Y-83312000D03*
D12*
X144272000Y-67750000D03*
X144272000Y-59250000D03*
D13*
X63500000Y-83820000D03*
X142240000Y-53340000D03*
X63500000Y-53340000D03*
D10*
X106680000Y-83312000D03*
D11*
X109180000Y-83312000D03*
X111680000Y-83312000D03*
X114180000Y-83312000D03*
X116680000Y-83312000D03*
D13*
X141957500Y-83820000D03*
D14*
X62225000Y-75443000D03*
D15*
X62225000Y-72903000D03*
X64765000Y-75443000D03*
X64765000Y-72903000D03*
X67305000Y-75443000D03*
X67305000Y-72903000D03*
X69845000Y-75443000D03*
X69845000Y-72903000D03*
X72385000Y-75443000D03*
X72385000Y-72903000D03*
D16*
X63500000Y-59452000D03*
D17*
X63500000Y-61452000D03*
D10*
X124460000Y-83312000D03*
D11*
X126960000Y-83312000D03*
X129460000Y-83312000D03*
X131960000Y-83312000D03*
X134460000Y-83312000D03*
D18*
X86360000Y-76708000D03*
X106680000Y-61722000D03*
X71755000Y-51435000D03*
X126111000Y-53340000D03*
X74168000Y-51435000D03*
X74168000Y-65532000D03*
X94996000Y-80772000D03*
X76200000Y-52832000D03*
X73025000Y-51308000D03*
X91440000Y-65024000D03*
X75692000Y-56896000D03*
X123571000Y-74168000D03*
X80555500Y-71120000D03*
X95504000Y-69088000D03*
X88900000Y-52832000D03*
X84074000Y-51308000D03*
X85344000Y-51435000D03*
X82804000Y-51435000D03*
X93980000Y-69088000D03*
X81280000Y-73660000D03*
X80772000Y-72644000D03*
X92456000Y-69088000D03*
X93472000Y-72136000D03*
X115824000Y-74168000D03*
X91948000Y-71628000D03*
X117348000Y-74676000D03*
X94996000Y-73152000D03*
X128651000Y-53213000D03*
X79121000Y-70104000D03*
X91400069Y-69119332D03*
D19*
X94779489Y-68363489D02*
X95504000Y-69088000D01*
X82296000Y-71120000D02*
X85052511Y-68363489D01*
X85052511Y-68363489D02*
X94779489Y-68363489D01*
X80555500Y-71120000D02*
X82296000Y-71120000D01*
X90424000Y-72127386D02*
X92738875Y-69812511D01*
X81280000Y-73660000D02*
X89408000Y-73660000D01*
X89408000Y-73660000D02*
X90424000Y-72644000D01*
X92738875Y-69812511D02*
X93255489Y-69812511D01*
X90424000Y-72644000D02*
X90424000Y-72127386D01*
X93255489Y-69812511D02*
X93980000Y-69088000D01*
X88900000Y-72644000D02*
X92456000Y-69088000D01*
X80772000Y-72644000D02*
X88900000Y-72644000D01*
X94987386Y-74168000D02*
X115824000Y-74168000D01*
X93472000Y-72652614D02*
X94987386Y-74168000D01*
X93472000Y-72136000D02*
X93472000Y-72652614D01*
X117131489Y-74892511D02*
X117348000Y-74676000D01*
X95076179Y-74892511D02*
X117131489Y-74892511D01*
X91948000Y-71628000D02*
X91948000Y-71764332D01*
X91948000Y-71764332D02*
X95076179Y-74892511D01*
X128524000Y-57404000D02*
X128524000Y-53340000D01*
X112776000Y-73152000D02*
X94996000Y-73152000D01*
X128524000Y-53340000D02*
X128651000Y-53213000D01*
X112776000Y-73152000D02*
X128524000Y-57404000D01*
X79121000Y-70993000D02*
X79121000Y-70104000D01*
X79972511Y-71844511D02*
X79121000Y-70993000D01*
X91400069Y-69119332D02*
X88674890Y-71844511D01*
X88674890Y-71844511D02*
X79972511Y-71844511D01*
%TA.AperFunction,Conductor*%
G36*
X146754121Y-48788002D02*
G01*
X146800614Y-48841658D01*
X146812000Y-48894000D01*
X146812000Y-57866000D01*
X146791998Y-57934121D01*
X146738342Y-57980614D01*
X146686000Y-57992000D01*
X144544115Y-57992000D01*
X144528876Y-57996475D01*
X144527671Y-57997865D01*
X144526000Y-58005548D01*
X144526000Y-60489884D01*
X144530475Y-60505123D01*
X144531865Y-60506328D01*
X144539548Y-60507999D01*
X146686000Y-60507999D01*
X146754121Y-60528001D01*
X146800614Y-60581657D01*
X146812000Y-60633999D01*
X146812000Y-66366000D01*
X146791998Y-66434121D01*
X146738342Y-66480614D01*
X146686000Y-66492000D01*
X144544115Y-66492000D01*
X144528876Y-66496475D01*
X144527671Y-66497865D01*
X144526000Y-66505548D01*
X144526000Y-68989884D01*
X144530475Y-69005123D01*
X144531865Y-69006328D01*
X144539548Y-69007999D01*
X146686000Y-69007999D01*
X146754121Y-69028001D01*
X146800614Y-69081657D01*
X146812000Y-69133999D01*
X146812000Y-88266000D01*
X146791998Y-88334121D01*
X146738342Y-88380614D01*
X146686000Y-88392000D01*
X59054000Y-88392000D01*
X58985879Y-88371998D01*
X58939386Y-88318342D01*
X58928000Y-88266000D01*
X58928000Y-86336381D01*
X61349160Y-86336381D01*
X61349237Y-86337470D01*
X61351698Y-86341206D01*
X61625632Y-86551404D01*
X61631262Y-86555259D01*
X61931591Y-86737862D01*
X61937593Y-86741080D01*
X62255897Y-86890184D01*
X62262202Y-86892732D01*
X62594743Y-87006587D01*
X62601313Y-87008446D01*
X62944183Y-87085714D01*
X62950912Y-87086853D01*
X63300143Y-87126643D01*
X63306933Y-87127046D01*
X63658419Y-87128886D01*
X63665220Y-87128554D01*
X64014853Y-87092423D01*
X64021581Y-87091357D01*
X64365274Y-87017676D01*
X64371822Y-87015897D01*
X64705549Y-86905527D01*
X64711891Y-86903041D01*
X65031718Y-86757288D01*
X65037777Y-86754121D01*
X65339995Y-86574676D01*
X65345659Y-86570884D01*
X65626732Y-86359849D01*
X65631958Y-86355464D01*
X65641613Y-86346428D01*
X65647540Y-86336381D01*
X139806660Y-86336381D01*
X139806737Y-86337470D01*
X139809198Y-86341206D01*
X140083132Y-86551404D01*
X140088762Y-86555259D01*
X140389091Y-86737862D01*
X140395093Y-86741080D01*
X140713397Y-86890184D01*
X140719702Y-86892732D01*
X141052243Y-87006587D01*
X141058813Y-87008446D01*
X141401683Y-87085714D01*
X141408412Y-87086853D01*
X141757643Y-87126643D01*
X141764433Y-87127046D01*
X142115919Y-87128886D01*
X142122720Y-87128554D01*
X142472353Y-87092423D01*
X142479081Y-87091357D01*
X142822774Y-87017676D01*
X142829322Y-87015897D01*
X143163049Y-86905527D01*
X143169391Y-86903041D01*
X143489218Y-86757288D01*
X143495277Y-86754121D01*
X143797495Y-86574676D01*
X143803159Y-86570884D01*
X144084232Y-86359849D01*
X144089458Y-86355464D01*
X144099113Y-86346428D01*
X144107182Y-86332750D01*
X144107154Y-86332024D01*
X144102012Y-86323723D01*
X141970310Y-84192020D01*
X141956369Y-84184408D01*
X141954534Y-84184539D01*
X141947920Y-84188790D01*
X139814274Y-86322437D01*
X139806660Y-86336381D01*
X65647540Y-86336381D01*
X65649682Y-86332750D01*
X65649654Y-86332024D01*
X65644512Y-86323723D01*
X63512810Y-84192020D01*
X63498869Y-84184408D01*
X63497034Y-84184539D01*
X63490420Y-84188790D01*
X61356774Y-86322437D01*
X61349160Y-86336381D01*
X58928000Y-86336381D01*
X58928000Y-83811832D01*
X60187333Y-83811832D01*
X60205117Y-84162893D01*
X60205827Y-84169649D01*
X60261420Y-84516723D01*
X60262859Y-84523378D01*
X60355608Y-84862410D01*
X60357757Y-84868871D01*
X60486581Y-85195912D01*
X60489412Y-85202095D01*
X60652803Y-85513310D01*
X60656286Y-85519152D01*
X60852330Y-85810896D01*
X60856433Y-85816340D01*
X60976425Y-85958836D01*
X60989164Y-85967279D01*
X60999608Y-85961181D01*
X63127980Y-83832810D01*
X63134357Y-83821131D01*
X63864408Y-83821131D01*
X63864539Y-83822966D01*
X63868790Y-83829580D01*
X65999009Y-85959798D01*
X66012605Y-85967223D01*
X66022218Y-85960522D01*
X66122518Y-85843912D01*
X66126676Y-85838514D01*
X66325762Y-85548840D01*
X66329310Y-85543029D01*
X66495942Y-85233559D01*
X66498849Y-85227381D01*
X66631090Y-84901713D01*
X66633304Y-84895283D01*
X66729598Y-84557237D01*
X66731105Y-84550607D01*
X66790332Y-84204118D01*
X66791112Y-84197378D01*
X66797838Y-84087400D01*
X69761500Y-84087400D01*
X69761837Y-84090646D01*
X69761837Y-84090650D01*
X69771579Y-84184539D01*
X69772474Y-84193166D01*
X69774655Y-84199702D01*
X69774655Y-84199704D01*
X69806405Y-84294870D01*
X69828450Y-84360946D01*
X69921522Y-84511348D01*
X70046697Y-84636305D01*
X70052927Y-84640145D01*
X70052928Y-84640146D01*
X70190090Y-84724694D01*
X70197262Y-84729115D01*
X70232938Y-84740948D01*
X70358611Y-84782632D01*
X70358613Y-84782632D01*
X70365139Y-84784797D01*
X70371975Y-84785497D01*
X70371978Y-84785498D01*
X70407663Y-84789154D01*
X70469600Y-84795500D01*
X71770400Y-84795500D01*
X71773646Y-84795163D01*
X71773650Y-84795163D01*
X71869308Y-84785238D01*
X71869312Y-84785237D01*
X71876166Y-84784526D01*
X71882702Y-84782345D01*
X71882704Y-84782345D01*
X72014806Y-84738272D01*
X72043946Y-84728550D01*
X72194348Y-84635478D01*
X72319305Y-84510303D01*
X72409081Y-84364660D01*
X72461852Y-84317168D01*
X72531924Y-84305744D01*
X72597048Y-84334018D01*
X72607510Y-84343805D01*
X72649215Y-84387523D01*
X72716576Y-84458135D01*
X72901542Y-84595754D01*
X72906293Y-84598170D01*
X72906297Y-84598172D01*
X72969481Y-84630296D01*
X73107051Y-84700240D01*
X73112145Y-84701822D01*
X73112148Y-84701823D01*
X73277583Y-84753192D01*
X73327227Y-84768607D01*
X73332516Y-84769308D01*
X73550489Y-84798198D01*
X73550494Y-84798198D01*
X73555774Y-84798898D01*
X73561103Y-84798698D01*
X73561105Y-84798698D01*
X73670966Y-84794573D01*
X73786158Y-84790249D01*
X73808802Y-84785498D01*
X74006572Y-84744002D01*
X74011791Y-84742907D01*
X74016750Y-84740949D01*
X74016752Y-84740948D01*
X74221256Y-84660185D01*
X74221258Y-84660184D01*
X74226221Y-84658224D01*
X74231525Y-84655006D01*
X74418757Y-84541390D01*
X74418756Y-84541390D01*
X74423317Y-84538623D01*
X74463134Y-84504072D01*
X74593412Y-84391023D01*
X74593414Y-84391021D01*
X74597445Y-84387523D01*
X74664500Y-84305744D01*
X74740240Y-84213373D01*
X74740244Y-84213367D01*
X74743624Y-84209245D01*
X74761552Y-84177750D01*
X74812632Y-84128445D01*
X74882262Y-84114583D01*
X74948333Y-84140566D01*
X74975573Y-84169716D01*
X75057441Y-84291319D01*
X75216576Y-84458135D01*
X75401542Y-84595754D01*
X75406293Y-84598170D01*
X75406297Y-84598172D01*
X75469481Y-84630296D01*
X75607051Y-84700240D01*
X75612145Y-84701822D01*
X75612148Y-84701823D01*
X75777583Y-84753192D01*
X75827227Y-84768607D01*
X75832516Y-84769308D01*
X76050489Y-84798198D01*
X76050494Y-84798198D01*
X76055774Y-84798898D01*
X76061103Y-84798698D01*
X76061105Y-84798698D01*
X76170966Y-84794573D01*
X76286158Y-84790249D01*
X76308802Y-84785498D01*
X76506572Y-84744002D01*
X76511791Y-84742907D01*
X76516750Y-84740949D01*
X76516752Y-84740948D01*
X76721256Y-84660185D01*
X76721258Y-84660184D01*
X76726221Y-84658224D01*
X76731525Y-84655006D01*
X76918757Y-84541390D01*
X76918756Y-84541390D01*
X76923317Y-84538623D01*
X76963134Y-84504072D01*
X77093412Y-84391023D01*
X77093414Y-84391021D01*
X77097445Y-84387523D01*
X77164500Y-84305744D01*
X77240240Y-84213373D01*
X77240244Y-84213367D01*
X77243624Y-84209245D01*
X77261552Y-84177750D01*
X77312632Y-84128445D01*
X77382262Y-84114583D01*
X77448333Y-84140566D01*
X77475573Y-84169716D01*
X77557441Y-84291319D01*
X77716576Y-84458135D01*
X77901542Y-84595754D01*
X77906293Y-84598170D01*
X77906297Y-84598172D01*
X77969481Y-84630296D01*
X78107051Y-84700240D01*
X78112145Y-84701822D01*
X78112148Y-84701823D01*
X78277583Y-84753192D01*
X78327227Y-84768607D01*
X78332516Y-84769308D01*
X78550489Y-84798198D01*
X78550494Y-84798198D01*
X78555774Y-84798898D01*
X78561103Y-84798698D01*
X78561105Y-84798698D01*
X78670966Y-84794573D01*
X78786158Y-84790249D01*
X78808802Y-84785498D01*
X79006572Y-84744002D01*
X79011791Y-84742907D01*
X79016750Y-84740949D01*
X79016752Y-84740948D01*
X79221256Y-84660185D01*
X79221258Y-84660184D01*
X79226221Y-84658224D01*
X79231525Y-84655006D01*
X79418757Y-84541390D01*
X79418756Y-84541390D01*
X79423317Y-84538623D01*
X79463134Y-84504072D01*
X79593412Y-84391023D01*
X79593414Y-84391021D01*
X79597445Y-84387523D01*
X79664500Y-84305744D01*
X79740240Y-84213373D01*
X79740244Y-84213367D01*
X79743624Y-84209245D01*
X79746426Y-84204322D01*
X79761829Y-84177265D01*
X79812912Y-84127959D01*
X79882542Y-84114098D01*
X79948613Y-84140082D01*
X79975851Y-84169232D01*
X80054852Y-84286578D01*
X80061519Y-84294870D01*
X80213228Y-84453900D01*
X80221186Y-84460941D01*
X80397525Y-84592141D01*
X80406562Y-84597745D01*
X80602484Y-84697357D01*
X80612335Y-84701357D01*
X80822240Y-84766534D01*
X80832624Y-84768817D01*
X80848043Y-84770861D01*
X80862207Y-84768665D01*
X80866000Y-84755478D01*
X80866000Y-84753192D01*
X81374000Y-84753192D01*
X81377973Y-84766723D01*
X81388580Y-84768248D01*
X81506421Y-84743523D01*
X81516617Y-84740463D01*
X81721029Y-84659737D01*
X81730561Y-84655006D01*
X81918462Y-84540984D01*
X81927052Y-84534720D01*
X82093052Y-84390673D01*
X82100472Y-84383042D01*
X82239826Y-84213089D01*
X82245850Y-84204322D01*
X82312406Y-84087400D01*
X87541500Y-84087400D01*
X87541837Y-84090646D01*
X87541837Y-84090650D01*
X87551579Y-84184539D01*
X87552474Y-84193166D01*
X87554655Y-84199702D01*
X87554655Y-84199704D01*
X87586405Y-84294870D01*
X87608450Y-84360946D01*
X87701522Y-84511348D01*
X87826697Y-84636305D01*
X87832927Y-84640145D01*
X87832928Y-84640146D01*
X87970090Y-84724694D01*
X87977262Y-84729115D01*
X88012938Y-84740948D01*
X88138611Y-84782632D01*
X88138613Y-84782632D01*
X88145139Y-84784797D01*
X88151975Y-84785497D01*
X88151978Y-84785498D01*
X88187663Y-84789154D01*
X88249600Y-84795500D01*
X89550400Y-84795500D01*
X89553646Y-84795163D01*
X89553650Y-84795163D01*
X89649308Y-84785238D01*
X89649312Y-84785237D01*
X89656166Y-84784526D01*
X89662702Y-84782345D01*
X89662704Y-84782345D01*
X89794806Y-84738272D01*
X89823946Y-84728550D01*
X89974348Y-84635478D01*
X90099305Y-84510303D01*
X90189081Y-84364660D01*
X90241852Y-84317168D01*
X90311924Y-84305744D01*
X90377048Y-84334018D01*
X90387510Y-84343805D01*
X90429215Y-84387523D01*
X90496576Y-84458135D01*
X90681542Y-84595754D01*
X90686293Y-84598170D01*
X90686297Y-84598172D01*
X90749481Y-84630296D01*
X90887051Y-84700240D01*
X90892145Y-84701822D01*
X90892148Y-84701823D01*
X91057583Y-84753192D01*
X91107227Y-84768607D01*
X91112516Y-84769308D01*
X91330489Y-84798198D01*
X91330494Y-84798198D01*
X91335774Y-84798898D01*
X91341103Y-84798698D01*
X91341105Y-84798698D01*
X91450966Y-84794573D01*
X91566158Y-84790249D01*
X91588802Y-84785498D01*
X91786572Y-84744002D01*
X91791791Y-84742907D01*
X91796750Y-84740949D01*
X91796752Y-84740948D01*
X92001256Y-84660185D01*
X92001258Y-84660184D01*
X92006221Y-84658224D01*
X92011525Y-84655006D01*
X92198757Y-84541390D01*
X92198756Y-84541390D01*
X92203317Y-84538623D01*
X92243134Y-84504072D01*
X92373412Y-84391023D01*
X92373414Y-84391021D01*
X92377445Y-84387523D01*
X92444500Y-84305744D01*
X92520240Y-84213373D01*
X92520244Y-84213367D01*
X92523624Y-84209245D01*
X92541552Y-84177750D01*
X92592632Y-84128445D01*
X92662262Y-84114583D01*
X92728333Y-84140566D01*
X92755573Y-84169716D01*
X92837441Y-84291319D01*
X92996576Y-84458135D01*
X93181542Y-84595754D01*
X93186293Y-84598170D01*
X93186297Y-84598172D01*
X93249481Y-84630296D01*
X93387051Y-84700240D01*
X93392145Y-84701822D01*
X93392148Y-84701823D01*
X93557583Y-84753192D01*
X93607227Y-84768607D01*
X93612516Y-84769308D01*
X93830489Y-84798198D01*
X93830494Y-84798198D01*
X93835774Y-84798898D01*
X93841103Y-84798698D01*
X93841105Y-84798698D01*
X93950966Y-84794573D01*
X94066158Y-84790249D01*
X94088802Y-84785498D01*
X94286572Y-84744002D01*
X94291791Y-84742907D01*
X94296750Y-84740949D01*
X94296752Y-84740948D01*
X94501256Y-84660185D01*
X94501258Y-84660184D01*
X94506221Y-84658224D01*
X94511525Y-84655006D01*
X94698757Y-84541390D01*
X94698756Y-84541390D01*
X94703317Y-84538623D01*
X94743134Y-84504072D01*
X94873412Y-84391023D01*
X94873414Y-84391021D01*
X94877445Y-84387523D01*
X94944500Y-84305744D01*
X95020240Y-84213373D01*
X95020244Y-84213367D01*
X95023624Y-84209245D01*
X95041552Y-84177750D01*
X95092632Y-84128445D01*
X95162262Y-84114583D01*
X95228333Y-84140566D01*
X95255573Y-84169716D01*
X95337441Y-84291319D01*
X95496576Y-84458135D01*
X95681542Y-84595754D01*
X95686293Y-84598170D01*
X95686297Y-84598172D01*
X95749481Y-84630296D01*
X95887051Y-84700240D01*
X95892145Y-84701822D01*
X95892148Y-84701823D01*
X96057583Y-84753192D01*
X96107227Y-84768607D01*
X96112516Y-84769308D01*
X96330489Y-84798198D01*
X96330494Y-84798198D01*
X96335774Y-84798898D01*
X96341103Y-84798698D01*
X96341105Y-84798698D01*
X96450966Y-84794573D01*
X96566158Y-84790249D01*
X96588802Y-84785498D01*
X96786572Y-84744002D01*
X96791791Y-84742907D01*
X96796750Y-84740949D01*
X96796752Y-84740948D01*
X97001256Y-84660185D01*
X97001258Y-84660184D01*
X97006221Y-84658224D01*
X97011525Y-84655006D01*
X97198757Y-84541390D01*
X97198756Y-84541390D01*
X97203317Y-84538623D01*
X97243134Y-84504072D01*
X97373412Y-84391023D01*
X97373414Y-84391021D01*
X97377445Y-84387523D01*
X97444500Y-84305744D01*
X97520240Y-84213373D01*
X97520244Y-84213367D01*
X97523624Y-84209245D01*
X97526426Y-84204322D01*
X97541829Y-84177265D01*
X97592912Y-84127959D01*
X97662542Y-84114098D01*
X97728613Y-84140082D01*
X97755851Y-84169232D01*
X97834852Y-84286578D01*
X97841519Y-84294870D01*
X97993228Y-84453900D01*
X98001186Y-84460941D01*
X98177525Y-84592141D01*
X98186562Y-84597745D01*
X98382484Y-84697357D01*
X98392335Y-84701357D01*
X98602240Y-84766534D01*
X98612624Y-84768817D01*
X98628043Y-84770861D01*
X98642207Y-84768665D01*
X98646000Y-84755478D01*
X98646000Y-84753192D01*
X99154000Y-84753192D01*
X99157973Y-84766723D01*
X99168580Y-84768248D01*
X99286421Y-84743523D01*
X99296617Y-84740463D01*
X99501029Y-84659737D01*
X99510561Y-84655006D01*
X99698462Y-84540984D01*
X99707052Y-84534720D01*
X99873052Y-84390673D01*
X99880472Y-84383042D01*
X100019826Y-84213089D01*
X100025850Y-84204322D01*
X100092406Y-84087400D01*
X105321500Y-84087400D01*
X105321837Y-84090646D01*
X105321837Y-84090650D01*
X105331579Y-84184539D01*
X105332474Y-84193166D01*
X105334655Y-84199702D01*
X105334655Y-84199704D01*
X105366405Y-84294870D01*
X105388450Y-84360946D01*
X105481522Y-84511348D01*
X105606697Y-84636305D01*
X105612927Y-84640145D01*
X105612928Y-84640146D01*
X105750090Y-84724694D01*
X105757262Y-84729115D01*
X105792938Y-84740948D01*
X105918611Y-84782632D01*
X105918613Y-84782632D01*
X105925139Y-84784797D01*
X105931975Y-84785497D01*
X105931978Y-84785498D01*
X105967663Y-84789154D01*
X106029600Y-84795500D01*
X107330400Y-84795500D01*
X107333646Y-84795163D01*
X107333650Y-84795163D01*
X107429308Y-84785238D01*
X107429312Y-84785237D01*
X107436166Y-84784526D01*
X107442702Y-84782345D01*
X107442704Y-84782345D01*
X107574806Y-84738272D01*
X107603946Y-84728550D01*
X107754348Y-84635478D01*
X107879305Y-84510303D01*
X107969081Y-84364660D01*
X108021852Y-84317168D01*
X108091924Y-84305744D01*
X108157048Y-84334018D01*
X108167510Y-84343805D01*
X108209215Y-84387523D01*
X108276576Y-84458135D01*
X108461542Y-84595754D01*
X108466293Y-84598170D01*
X108466297Y-84598172D01*
X108529481Y-84630296D01*
X108667051Y-84700240D01*
X108672145Y-84701822D01*
X108672148Y-84701823D01*
X108837583Y-84753192D01*
X108887227Y-84768607D01*
X108892516Y-84769308D01*
X109110489Y-84798198D01*
X109110494Y-84798198D01*
X109115774Y-84798898D01*
X109121103Y-84798698D01*
X109121105Y-84798698D01*
X109230966Y-84794573D01*
X109346158Y-84790249D01*
X109368802Y-84785498D01*
X109566572Y-84744002D01*
X109571791Y-84742907D01*
X109576750Y-84740949D01*
X109576752Y-84740948D01*
X109781256Y-84660185D01*
X109781258Y-84660184D01*
X109786221Y-84658224D01*
X109791525Y-84655006D01*
X109978757Y-84541390D01*
X109978756Y-84541390D01*
X109983317Y-84538623D01*
X110023134Y-84504072D01*
X110153412Y-84391023D01*
X110153414Y-84391021D01*
X110157445Y-84387523D01*
X110224500Y-84305744D01*
X110300240Y-84213373D01*
X110300244Y-84213367D01*
X110303624Y-84209245D01*
X110321552Y-84177750D01*
X110372632Y-84128445D01*
X110442262Y-84114583D01*
X110508333Y-84140566D01*
X110535573Y-84169716D01*
X110617441Y-84291319D01*
X110776576Y-84458135D01*
X110961542Y-84595754D01*
X110966293Y-84598170D01*
X110966297Y-84598172D01*
X111029481Y-84630296D01*
X111167051Y-84700240D01*
X111172145Y-84701822D01*
X111172148Y-84701823D01*
X111337583Y-84753192D01*
X111387227Y-84768607D01*
X111392516Y-84769308D01*
X111610489Y-84798198D01*
X111610494Y-84798198D01*
X111615774Y-84798898D01*
X111621103Y-84798698D01*
X111621105Y-84798698D01*
X111730966Y-84794573D01*
X111846158Y-84790249D01*
X111868802Y-84785498D01*
X112066572Y-84744002D01*
X112071791Y-84742907D01*
X112076750Y-84740949D01*
X112076752Y-84740948D01*
X112281256Y-84660185D01*
X112281258Y-84660184D01*
X112286221Y-84658224D01*
X112291525Y-84655006D01*
X112478757Y-84541390D01*
X112478756Y-84541390D01*
X112483317Y-84538623D01*
X112523134Y-84504072D01*
X112653412Y-84391023D01*
X112653414Y-84391021D01*
X112657445Y-84387523D01*
X112724500Y-84305744D01*
X112800240Y-84213373D01*
X112800244Y-84213367D01*
X112803624Y-84209245D01*
X112821552Y-84177750D01*
X112872632Y-84128445D01*
X112942262Y-84114583D01*
X113008333Y-84140566D01*
X113035573Y-84169716D01*
X113117441Y-84291319D01*
X113276576Y-84458135D01*
X113461542Y-84595754D01*
X113466293Y-84598170D01*
X113466297Y-84598172D01*
X113529481Y-84630296D01*
X113667051Y-84700240D01*
X113672145Y-84701822D01*
X113672148Y-84701823D01*
X113837583Y-84753192D01*
X113887227Y-84768607D01*
X113892516Y-84769308D01*
X114110489Y-84798198D01*
X114110494Y-84798198D01*
X114115774Y-84798898D01*
X114121103Y-84798698D01*
X114121105Y-84798698D01*
X114230966Y-84794573D01*
X114346158Y-84790249D01*
X114368802Y-84785498D01*
X114566572Y-84744002D01*
X114571791Y-84742907D01*
X114576750Y-84740949D01*
X114576752Y-84740948D01*
X114781256Y-84660185D01*
X114781258Y-84660184D01*
X114786221Y-84658224D01*
X114791525Y-84655006D01*
X114978757Y-84541390D01*
X114978756Y-84541390D01*
X114983317Y-84538623D01*
X115023134Y-84504072D01*
X115153412Y-84391023D01*
X115153414Y-84391021D01*
X115157445Y-84387523D01*
X115224500Y-84305744D01*
X115300240Y-84213373D01*
X115300244Y-84213367D01*
X115303624Y-84209245D01*
X115306426Y-84204322D01*
X115321829Y-84177265D01*
X115372912Y-84127959D01*
X115442542Y-84114098D01*
X115508613Y-84140082D01*
X115535851Y-84169232D01*
X115614852Y-84286578D01*
X115621519Y-84294870D01*
X115773228Y-84453900D01*
X115781186Y-84460941D01*
X115957525Y-84592141D01*
X115966562Y-84597745D01*
X116162484Y-84697357D01*
X116172335Y-84701357D01*
X116382240Y-84766534D01*
X116392624Y-84768817D01*
X116408043Y-84770861D01*
X116422207Y-84768665D01*
X116426000Y-84755478D01*
X116426000Y-84753192D01*
X116934000Y-84753192D01*
X116937973Y-84766723D01*
X116948580Y-84768248D01*
X117066421Y-84743523D01*
X117076617Y-84740463D01*
X117281029Y-84659737D01*
X117290561Y-84655006D01*
X117478462Y-84540984D01*
X117487052Y-84534720D01*
X117653052Y-84390673D01*
X117660472Y-84383042D01*
X117799826Y-84213089D01*
X117805850Y-84204322D01*
X117872406Y-84087400D01*
X123101500Y-84087400D01*
X123101837Y-84090646D01*
X123101837Y-84090650D01*
X123111579Y-84184539D01*
X123112474Y-84193166D01*
X123114655Y-84199702D01*
X123114655Y-84199704D01*
X123146405Y-84294870D01*
X123168450Y-84360946D01*
X123261522Y-84511348D01*
X123386697Y-84636305D01*
X123392927Y-84640145D01*
X123392928Y-84640146D01*
X123530090Y-84724694D01*
X123537262Y-84729115D01*
X123572938Y-84740948D01*
X123698611Y-84782632D01*
X123698613Y-84782632D01*
X123705139Y-84784797D01*
X123711975Y-84785497D01*
X123711978Y-84785498D01*
X123747663Y-84789154D01*
X123809600Y-84795500D01*
X125110400Y-84795500D01*
X125113646Y-84795163D01*
X125113650Y-84795163D01*
X125209308Y-84785238D01*
X125209312Y-84785237D01*
X125216166Y-84784526D01*
X125222702Y-84782345D01*
X125222704Y-84782345D01*
X125354806Y-84738272D01*
X125383946Y-84728550D01*
X125534348Y-84635478D01*
X125659305Y-84510303D01*
X125749081Y-84364660D01*
X125801852Y-84317168D01*
X125871924Y-84305744D01*
X125937048Y-84334018D01*
X125947510Y-84343805D01*
X125989215Y-84387523D01*
X126056576Y-84458135D01*
X126241542Y-84595754D01*
X126246293Y-84598170D01*
X126246297Y-84598172D01*
X126309481Y-84630296D01*
X126447051Y-84700240D01*
X126452145Y-84701822D01*
X126452148Y-84701823D01*
X126617583Y-84753192D01*
X126667227Y-84768607D01*
X126672516Y-84769308D01*
X126890489Y-84798198D01*
X126890494Y-84798198D01*
X126895774Y-84798898D01*
X126901103Y-84798698D01*
X126901105Y-84798698D01*
X127010966Y-84794573D01*
X127126158Y-84790249D01*
X127148802Y-84785498D01*
X127346572Y-84744002D01*
X127351791Y-84742907D01*
X127356750Y-84740949D01*
X127356752Y-84740948D01*
X127561256Y-84660185D01*
X127561258Y-84660184D01*
X127566221Y-84658224D01*
X127571525Y-84655006D01*
X127758757Y-84541390D01*
X127758756Y-84541390D01*
X127763317Y-84538623D01*
X127803134Y-84504072D01*
X127933412Y-84391023D01*
X127933414Y-84391021D01*
X127937445Y-84387523D01*
X128004500Y-84305744D01*
X128080240Y-84213373D01*
X128080244Y-84213367D01*
X128083624Y-84209245D01*
X128101552Y-84177750D01*
X128152632Y-84128445D01*
X128222262Y-84114583D01*
X128288333Y-84140566D01*
X128315573Y-84169716D01*
X128397441Y-84291319D01*
X128556576Y-84458135D01*
X128741542Y-84595754D01*
X128746293Y-84598170D01*
X128746297Y-84598172D01*
X128809481Y-84630296D01*
X128947051Y-84700240D01*
X128952145Y-84701822D01*
X128952148Y-84701823D01*
X129117583Y-84753192D01*
X129167227Y-84768607D01*
X129172516Y-84769308D01*
X129390489Y-84798198D01*
X129390494Y-84798198D01*
X129395774Y-84798898D01*
X129401103Y-84798698D01*
X129401105Y-84798698D01*
X129510966Y-84794573D01*
X129626158Y-84790249D01*
X129648802Y-84785498D01*
X129846572Y-84744002D01*
X129851791Y-84742907D01*
X129856750Y-84740949D01*
X129856752Y-84740948D01*
X130061256Y-84660185D01*
X130061258Y-84660184D01*
X130066221Y-84658224D01*
X130071525Y-84655006D01*
X130258757Y-84541390D01*
X130258756Y-84541390D01*
X130263317Y-84538623D01*
X130303134Y-84504072D01*
X130433412Y-84391023D01*
X130433414Y-84391021D01*
X130437445Y-84387523D01*
X130504500Y-84305744D01*
X130580240Y-84213373D01*
X130580244Y-84213367D01*
X130583624Y-84209245D01*
X130601552Y-84177750D01*
X130652632Y-84128445D01*
X130722262Y-84114583D01*
X130788333Y-84140566D01*
X130815573Y-84169716D01*
X130897441Y-84291319D01*
X131056576Y-84458135D01*
X131241542Y-84595754D01*
X131246293Y-84598170D01*
X131246297Y-84598172D01*
X131309481Y-84630296D01*
X131447051Y-84700240D01*
X131452145Y-84701822D01*
X131452148Y-84701823D01*
X131617583Y-84753192D01*
X131667227Y-84768607D01*
X131672516Y-84769308D01*
X131890489Y-84798198D01*
X131890494Y-84798198D01*
X131895774Y-84798898D01*
X131901103Y-84798698D01*
X131901105Y-84798698D01*
X132010966Y-84794573D01*
X132126158Y-84790249D01*
X132148802Y-84785498D01*
X132346572Y-84744002D01*
X132351791Y-84742907D01*
X132356750Y-84740949D01*
X132356752Y-84740948D01*
X132561256Y-84660185D01*
X132561258Y-84660184D01*
X132566221Y-84658224D01*
X132571525Y-84655006D01*
X132758757Y-84541390D01*
X132758756Y-84541390D01*
X132763317Y-84538623D01*
X132803134Y-84504072D01*
X132933412Y-84391023D01*
X132933414Y-84391021D01*
X132937445Y-84387523D01*
X133004500Y-84305744D01*
X133080240Y-84213373D01*
X133080244Y-84213367D01*
X133083624Y-84209245D01*
X133086426Y-84204322D01*
X133101829Y-84177265D01*
X133152912Y-84127959D01*
X133222542Y-84114098D01*
X133288613Y-84140082D01*
X133315851Y-84169232D01*
X133394852Y-84286578D01*
X133401519Y-84294870D01*
X133553228Y-84453900D01*
X133561186Y-84460941D01*
X133737525Y-84592141D01*
X133746562Y-84597745D01*
X133942484Y-84697357D01*
X133952335Y-84701357D01*
X134162240Y-84766534D01*
X134172624Y-84768817D01*
X134188043Y-84770861D01*
X134202207Y-84768665D01*
X134206000Y-84755478D01*
X134206000Y-84753192D01*
X134714000Y-84753192D01*
X134717973Y-84766723D01*
X134728580Y-84768248D01*
X134846421Y-84743523D01*
X134856617Y-84740463D01*
X135061029Y-84659737D01*
X135070561Y-84655006D01*
X135258462Y-84540984D01*
X135267052Y-84534720D01*
X135433052Y-84390673D01*
X135440472Y-84383042D01*
X135579826Y-84213089D01*
X135585850Y-84204322D01*
X135694576Y-84013318D01*
X135699041Y-84003654D01*
X135768669Y-83811832D01*
X138644833Y-83811832D01*
X138662617Y-84162893D01*
X138663327Y-84169649D01*
X138718920Y-84516723D01*
X138720359Y-84523378D01*
X138813108Y-84862410D01*
X138815257Y-84868871D01*
X138944081Y-85195912D01*
X138946912Y-85202095D01*
X139110303Y-85513310D01*
X139113786Y-85519152D01*
X139309830Y-85810896D01*
X139313933Y-85816340D01*
X139433925Y-85958836D01*
X139446664Y-85967279D01*
X139457108Y-85961181D01*
X141585480Y-83832810D01*
X141591857Y-83821131D01*
X142321908Y-83821131D01*
X142322039Y-83822966D01*
X142326290Y-83829580D01*
X144456509Y-85959798D01*
X144470105Y-85967223D01*
X144479718Y-85960522D01*
X144580018Y-85843912D01*
X144584176Y-85838514D01*
X144783262Y-85548840D01*
X144786810Y-85543029D01*
X144953442Y-85233559D01*
X144956349Y-85227381D01*
X145088590Y-84901713D01*
X145090804Y-84895283D01*
X145187098Y-84557237D01*
X145188605Y-84550607D01*
X145247832Y-84204118D01*
X145248612Y-84197378D01*
X145270168Y-83844925D01*
X145270284Y-83841323D01*
X145270353Y-83821819D01*
X145270261Y-83818194D01*
X145251166Y-83465615D01*
X145250431Y-83458849D01*
X145193630Y-83111985D01*
X145192163Y-83105313D01*
X145098236Y-82766627D01*
X145096062Y-82760163D01*
X144966098Y-82433578D01*
X144963242Y-82427398D01*
X144798769Y-82116763D01*
X144795269Y-82110937D01*
X144598197Y-81819862D01*
X144594090Y-81814453D01*
X144481065Y-81681179D01*
X144468240Y-81672743D01*
X144457916Y-81678795D01*
X142329520Y-83807190D01*
X142321908Y-83821131D01*
X141591857Y-83821131D01*
X141593092Y-83818869D01*
X141592961Y-83817034D01*
X141588710Y-83810420D01*
X139458492Y-81680203D01*
X139444955Y-81672811D01*
X139435253Y-81679599D01*
X139327930Y-81805257D01*
X139323796Y-81810664D01*
X139125715Y-82101041D01*
X139122197Y-82106851D01*
X138956634Y-82416922D01*
X138953759Y-82423087D01*
X138822655Y-82749218D01*
X138820462Y-82755658D01*
X138725346Y-83094044D01*
X138723863Y-83100679D01*
X138665850Y-83447354D01*
X138665091Y-83454126D01*
X138644857Y-83805037D01*
X138644833Y-83811832D01*
X135768669Y-83811832D01*
X135774031Y-83797059D01*
X135776802Y-83786792D01*
X135813504Y-83583826D01*
X135812085Y-83570586D01*
X135797450Y-83566000D01*
X134732115Y-83566000D01*
X134716876Y-83570475D01*
X134715671Y-83571865D01*
X134714000Y-83579548D01*
X134714000Y-84753192D01*
X134206000Y-84753192D01*
X134206000Y-83039885D01*
X134714000Y-83039885D01*
X134718475Y-83055124D01*
X134719865Y-83056329D01*
X134727548Y-83058000D01*
X135793849Y-83058000D01*
X135808527Y-83053690D01*
X135810590Y-83041807D01*
X135803876Y-82962675D01*
X135802086Y-82952203D01*
X135746870Y-82739465D01*
X135743335Y-82729425D01*
X135653063Y-82529030D01*
X135647894Y-82519744D01*
X135525150Y-82337425D01*
X135518481Y-82329130D01*
X135366772Y-82170100D01*
X135358814Y-82163059D01*
X135182475Y-82031859D01*
X135173438Y-82026255D01*
X134977516Y-81926643D01*
X134967665Y-81922643D01*
X134757760Y-81857466D01*
X134747376Y-81855183D01*
X134731957Y-81853139D01*
X134717793Y-81855335D01*
X134714000Y-81868522D01*
X134714000Y-83039885D01*
X134206000Y-83039885D01*
X134206000Y-81870808D01*
X134202027Y-81857277D01*
X134191420Y-81855752D01*
X134073579Y-81880477D01*
X134063383Y-81883537D01*
X133858971Y-81964263D01*
X133849439Y-81968994D01*
X133661538Y-82083016D01*
X133652948Y-82089280D01*
X133486948Y-82233327D01*
X133479528Y-82240958D01*
X133340174Y-82410911D01*
X133334152Y-82419674D01*
X133318762Y-82446711D01*
X133267680Y-82496018D01*
X133198049Y-82509880D01*
X133131978Y-82483897D01*
X133104739Y-82454747D01*
X133068869Y-82401468D01*
X133022559Y-82332681D01*
X132963918Y-82271209D01*
X132934725Y-82240608D01*
X132863424Y-82165865D01*
X132678458Y-82028246D01*
X132673707Y-82025830D01*
X132673703Y-82025828D01*
X132555588Y-81965776D01*
X132472949Y-81923760D01*
X132467855Y-81922178D01*
X132467852Y-81922177D01*
X132257871Y-81856976D01*
X132252773Y-81855393D01*
X132247484Y-81854692D01*
X132029511Y-81825802D01*
X132029506Y-81825802D01*
X132024226Y-81825102D01*
X132018897Y-81825302D01*
X132018895Y-81825302D01*
X131909034Y-81829426D01*
X131793842Y-81833751D01*
X131788623Y-81834846D01*
X131766566Y-81839474D01*
X131568209Y-81881093D01*
X131563250Y-81883051D01*
X131563248Y-81883052D01*
X131358744Y-81963815D01*
X131358742Y-81963816D01*
X131353779Y-81965776D01*
X131349220Y-81968543D01*
X131349217Y-81968544D01*
X131254113Y-82026255D01*
X131156683Y-82085377D01*
X131152653Y-82088874D01*
X131059484Y-82169722D01*
X130982555Y-82236477D01*
X130979168Y-82240608D01*
X130839760Y-82410627D01*
X130839756Y-82410633D01*
X130836376Y-82414755D01*
X130818448Y-82446250D01*
X130767368Y-82495555D01*
X130697738Y-82509417D01*
X130631667Y-82483434D01*
X130604427Y-82454284D01*
X130577814Y-82414755D01*
X130522559Y-82332681D01*
X130463918Y-82271209D01*
X130434725Y-82240608D01*
X130363424Y-82165865D01*
X130178458Y-82028246D01*
X130173707Y-82025830D01*
X130173703Y-82025828D01*
X130055588Y-81965776D01*
X129972949Y-81923760D01*
X129967855Y-81922178D01*
X129967852Y-81922177D01*
X129757871Y-81856976D01*
X129752773Y-81855393D01*
X129747484Y-81854692D01*
X129529511Y-81825802D01*
X129529506Y-81825802D01*
X129524226Y-81825102D01*
X129518897Y-81825302D01*
X129518895Y-81825302D01*
X129409034Y-81829426D01*
X129293842Y-81833751D01*
X129288623Y-81834846D01*
X129266566Y-81839474D01*
X129068209Y-81881093D01*
X129063250Y-81883051D01*
X129063248Y-81883052D01*
X128858744Y-81963815D01*
X128858742Y-81963816D01*
X128853779Y-81965776D01*
X128849220Y-81968543D01*
X128849217Y-81968544D01*
X128754113Y-82026255D01*
X128656683Y-82085377D01*
X128652653Y-82088874D01*
X128559484Y-82169722D01*
X128482555Y-82236477D01*
X128479168Y-82240608D01*
X128339760Y-82410627D01*
X128339756Y-82410633D01*
X128336376Y-82414755D01*
X128318448Y-82446250D01*
X128267368Y-82495555D01*
X128197738Y-82509417D01*
X128131667Y-82483434D01*
X128104427Y-82454284D01*
X128077814Y-82414755D01*
X128022559Y-82332681D01*
X127963918Y-82271209D01*
X127934725Y-82240608D01*
X127863424Y-82165865D01*
X127678458Y-82028246D01*
X127673707Y-82025830D01*
X127673703Y-82025828D01*
X127555588Y-81965776D01*
X127472949Y-81923760D01*
X127467855Y-81922178D01*
X127467852Y-81922177D01*
X127257871Y-81856976D01*
X127252773Y-81855393D01*
X127247484Y-81854692D01*
X127029511Y-81825802D01*
X127029506Y-81825802D01*
X127024226Y-81825102D01*
X127018897Y-81825302D01*
X127018895Y-81825302D01*
X126909034Y-81829426D01*
X126793842Y-81833751D01*
X126788623Y-81834846D01*
X126766566Y-81839474D01*
X126568209Y-81881093D01*
X126563250Y-81883051D01*
X126563248Y-81883052D01*
X126358744Y-81963815D01*
X126358742Y-81963816D01*
X126353779Y-81965776D01*
X126349220Y-81968543D01*
X126349217Y-81968544D01*
X126254113Y-82026255D01*
X126156683Y-82085377D01*
X126152653Y-82088874D01*
X126059484Y-82169722D01*
X125982555Y-82236477D01*
X125953330Y-82272120D01*
X125894671Y-82312114D01*
X125823701Y-82314046D01*
X125762952Y-82277302D01*
X125748752Y-82258532D01*
X125662332Y-82118880D01*
X125658478Y-82112652D01*
X125533303Y-81987695D01*
X125502965Y-81968994D01*
X125388968Y-81898725D01*
X125388966Y-81898724D01*
X125382738Y-81894885D01*
X125269353Y-81857277D01*
X125221389Y-81841368D01*
X125221387Y-81841368D01*
X125214861Y-81839203D01*
X125208025Y-81838503D01*
X125208022Y-81838502D01*
X125164969Y-81834091D01*
X125110400Y-81828500D01*
X123809600Y-81828500D01*
X123806354Y-81828837D01*
X123806350Y-81828837D01*
X123710692Y-81838762D01*
X123710688Y-81838763D01*
X123703834Y-81839474D01*
X123697298Y-81841655D01*
X123697296Y-81841655D01*
X123565194Y-81885728D01*
X123536054Y-81895450D01*
X123385652Y-81988522D01*
X123260695Y-82113697D01*
X123256855Y-82119927D01*
X123256854Y-82119928D01*
X123182466Y-82240608D01*
X123167885Y-82264262D01*
X123146472Y-82328822D01*
X123116432Y-82419390D01*
X123112203Y-82432139D01*
X123111503Y-82438975D01*
X123111502Y-82438978D01*
X123109338Y-82460102D01*
X123101500Y-82536600D01*
X123101500Y-84087400D01*
X117872406Y-84087400D01*
X117914576Y-84013318D01*
X117919041Y-84003654D01*
X117994031Y-83797059D01*
X117996802Y-83786792D01*
X118033504Y-83583826D01*
X118032085Y-83570586D01*
X118017450Y-83566000D01*
X116952115Y-83566000D01*
X116936876Y-83570475D01*
X116935671Y-83571865D01*
X116934000Y-83579548D01*
X116934000Y-84753192D01*
X116426000Y-84753192D01*
X116426000Y-83039885D01*
X116934000Y-83039885D01*
X116938475Y-83055124D01*
X116939865Y-83056329D01*
X116947548Y-83058000D01*
X118013849Y-83058000D01*
X118028527Y-83053690D01*
X118030590Y-83041807D01*
X118023876Y-82962675D01*
X118022086Y-82952203D01*
X117966870Y-82739465D01*
X117963335Y-82729425D01*
X117873063Y-82529030D01*
X117867894Y-82519744D01*
X117745150Y-82337425D01*
X117738481Y-82329130D01*
X117586772Y-82170100D01*
X117578814Y-82163059D01*
X117402475Y-82031859D01*
X117393438Y-82026255D01*
X117197516Y-81926643D01*
X117187665Y-81922643D01*
X116977760Y-81857466D01*
X116967376Y-81855183D01*
X116951957Y-81853139D01*
X116937793Y-81855335D01*
X116934000Y-81868522D01*
X116934000Y-83039885D01*
X116426000Y-83039885D01*
X116426000Y-81870808D01*
X116422027Y-81857277D01*
X116411420Y-81855752D01*
X116293579Y-81880477D01*
X116283383Y-81883537D01*
X116078971Y-81964263D01*
X116069439Y-81968994D01*
X115881538Y-82083016D01*
X115872948Y-82089280D01*
X115706948Y-82233327D01*
X115699528Y-82240958D01*
X115560174Y-82410911D01*
X115554152Y-82419674D01*
X115538762Y-82446711D01*
X115487680Y-82496018D01*
X115418049Y-82509880D01*
X115351978Y-82483897D01*
X115324739Y-82454747D01*
X115288869Y-82401468D01*
X115242559Y-82332681D01*
X115183918Y-82271209D01*
X115154725Y-82240608D01*
X115083424Y-82165865D01*
X114898458Y-82028246D01*
X114893707Y-82025830D01*
X114893703Y-82025828D01*
X114775588Y-81965776D01*
X114692949Y-81923760D01*
X114687855Y-81922178D01*
X114687852Y-81922177D01*
X114477871Y-81856976D01*
X114472773Y-81855393D01*
X114467484Y-81854692D01*
X114249511Y-81825802D01*
X114249506Y-81825802D01*
X114244226Y-81825102D01*
X114238897Y-81825302D01*
X114238895Y-81825302D01*
X114129034Y-81829426D01*
X114013842Y-81833751D01*
X114008623Y-81834846D01*
X113986566Y-81839474D01*
X113788209Y-81881093D01*
X113783250Y-81883051D01*
X113783248Y-81883052D01*
X113578744Y-81963815D01*
X113578742Y-81963816D01*
X113573779Y-81965776D01*
X113569220Y-81968543D01*
X113569217Y-81968544D01*
X113474113Y-82026255D01*
X113376683Y-82085377D01*
X113372653Y-82088874D01*
X113279484Y-82169722D01*
X113202555Y-82236477D01*
X113199168Y-82240608D01*
X113059760Y-82410627D01*
X113059756Y-82410633D01*
X113056376Y-82414755D01*
X113038448Y-82446250D01*
X112987368Y-82495555D01*
X112917738Y-82509417D01*
X112851667Y-82483434D01*
X112824427Y-82454284D01*
X112797814Y-82414755D01*
X112742559Y-82332681D01*
X112683918Y-82271209D01*
X112654725Y-82240608D01*
X112583424Y-82165865D01*
X112398458Y-82028246D01*
X112393707Y-82025830D01*
X112393703Y-82025828D01*
X112275588Y-81965776D01*
X112192949Y-81923760D01*
X112187855Y-81922178D01*
X112187852Y-81922177D01*
X111977871Y-81856976D01*
X111972773Y-81855393D01*
X111967484Y-81854692D01*
X111749511Y-81825802D01*
X111749506Y-81825802D01*
X111744226Y-81825102D01*
X111738897Y-81825302D01*
X111738895Y-81825302D01*
X111629034Y-81829426D01*
X111513842Y-81833751D01*
X111508623Y-81834846D01*
X111486566Y-81839474D01*
X111288209Y-81881093D01*
X111283250Y-81883051D01*
X111283248Y-81883052D01*
X111078744Y-81963815D01*
X111078742Y-81963816D01*
X111073779Y-81965776D01*
X111069220Y-81968543D01*
X111069217Y-81968544D01*
X110974113Y-82026255D01*
X110876683Y-82085377D01*
X110872653Y-82088874D01*
X110779484Y-82169722D01*
X110702555Y-82236477D01*
X110699168Y-82240608D01*
X110559760Y-82410627D01*
X110559756Y-82410633D01*
X110556376Y-82414755D01*
X110538448Y-82446250D01*
X110487368Y-82495555D01*
X110417738Y-82509417D01*
X110351667Y-82483434D01*
X110324427Y-82454284D01*
X110297814Y-82414755D01*
X110242559Y-82332681D01*
X110183918Y-82271209D01*
X110154725Y-82240608D01*
X110083424Y-82165865D01*
X109898458Y-82028246D01*
X109893707Y-82025830D01*
X109893703Y-82025828D01*
X109775588Y-81965776D01*
X109692949Y-81923760D01*
X109687855Y-81922178D01*
X109687852Y-81922177D01*
X109477871Y-81856976D01*
X109472773Y-81855393D01*
X109467484Y-81854692D01*
X109249511Y-81825802D01*
X109249506Y-81825802D01*
X109244226Y-81825102D01*
X109238897Y-81825302D01*
X109238895Y-81825302D01*
X109129034Y-81829426D01*
X109013842Y-81833751D01*
X109008623Y-81834846D01*
X108986566Y-81839474D01*
X108788209Y-81881093D01*
X108783250Y-81883051D01*
X108783248Y-81883052D01*
X108578744Y-81963815D01*
X108578742Y-81963816D01*
X108573779Y-81965776D01*
X108569220Y-81968543D01*
X108569217Y-81968544D01*
X108474113Y-82026255D01*
X108376683Y-82085377D01*
X108372653Y-82088874D01*
X108279484Y-82169722D01*
X108202555Y-82236477D01*
X108173330Y-82272120D01*
X108114671Y-82312114D01*
X108043701Y-82314046D01*
X107982952Y-82277302D01*
X107968752Y-82258532D01*
X107882332Y-82118880D01*
X107878478Y-82112652D01*
X107753303Y-81987695D01*
X107722965Y-81968994D01*
X107608968Y-81898725D01*
X107608966Y-81898724D01*
X107602738Y-81894885D01*
X107489353Y-81857277D01*
X107441389Y-81841368D01*
X107441387Y-81841368D01*
X107434861Y-81839203D01*
X107428025Y-81838503D01*
X107428022Y-81838502D01*
X107384969Y-81834091D01*
X107330400Y-81828500D01*
X106029600Y-81828500D01*
X106026354Y-81828837D01*
X106026350Y-81828837D01*
X105930692Y-81838762D01*
X105930688Y-81838763D01*
X105923834Y-81839474D01*
X105917298Y-81841655D01*
X105917296Y-81841655D01*
X105785194Y-81885728D01*
X105756054Y-81895450D01*
X105605652Y-81988522D01*
X105480695Y-82113697D01*
X105476855Y-82119927D01*
X105476854Y-82119928D01*
X105402466Y-82240608D01*
X105387885Y-82264262D01*
X105366472Y-82328822D01*
X105336432Y-82419390D01*
X105332203Y-82432139D01*
X105331503Y-82438975D01*
X105331502Y-82438978D01*
X105329338Y-82460102D01*
X105321500Y-82536600D01*
X105321500Y-84087400D01*
X100092406Y-84087400D01*
X100134576Y-84013318D01*
X100139041Y-84003654D01*
X100214031Y-83797059D01*
X100216802Y-83786792D01*
X100253504Y-83583826D01*
X100252085Y-83570586D01*
X100237450Y-83566000D01*
X99172115Y-83566000D01*
X99156876Y-83570475D01*
X99155671Y-83571865D01*
X99154000Y-83579548D01*
X99154000Y-84753192D01*
X98646000Y-84753192D01*
X98646000Y-83039885D01*
X99154000Y-83039885D01*
X99158475Y-83055124D01*
X99159865Y-83056329D01*
X99167548Y-83058000D01*
X100233849Y-83058000D01*
X100248527Y-83053690D01*
X100250590Y-83041807D01*
X100243876Y-82962675D01*
X100242086Y-82952203D01*
X100186870Y-82739465D01*
X100183335Y-82729425D01*
X100093063Y-82529030D01*
X100087894Y-82519744D01*
X99965150Y-82337425D01*
X99958481Y-82329130D01*
X99806772Y-82170100D01*
X99798814Y-82163059D01*
X99622475Y-82031859D01*
X99613438Y-82026255D01*
X99417516Y-81926643D01*
X99407665Y-81922643D01*
X99197760Y-81857466D01*
X99187376Y-81855183D01*
X99171957Y-81853139D01*
X99157793Y-81855335D01*
X99154000Y-81868522D01*
X99154000Y-83039885D01*
X98646000Y-83039885D01*
X98646000Y-81870808D01*
X98642027Y-81857277D01*
X98631420Y-81855752D01*
X98513579Y-81880477D01*
X98503383Y-81883537D01*
X98298971Y-81964263D01*
X98289439Y-81968994D01*
X98101538Y-82083016D01*
X98092948Y-82089280D01*
X97926948Y-82233327D01*
X97919528Y-82240958D01*
X97780174Y-82410911D01*
X97774152Y-82419674D01*
X97758762Y-82446711D01*
X97707680Y-82496018D01*
X97638049Y-82509880D01*
X97571978Y-82483897D01*
X97544739Y-82454747D01*
X97508869Y-82401468D01*
X97462559Y-82332681D01*
X97403918Y-82271209D01*
X97374725Y-82240608D01*
X97303424Y-82165865D01*
X97118458Y-82028246D01*
X97113707Y-82025830D01*
X97113703Y-82025828D01*
X96995588Y-81965776D01*
X96912949Y-81923760D01*
X96907855Y-81922178D01*
X96907852Y-81922177D01*
X96697871Y-81856976D01*
X96692773Y-81855393D01*
X96687484Y-81854692D01*
X96469511Y-81825802D01*
X96469506Y-81825802D01*
X96464226Y-81825102D01*
X96458897Y-81825302D01*
X96458895Y-81825302D01*
X96349034Y-81829426D01*
X96233842Y-81833751D01*
X96228623Y-81834846D01*
X96206566Y-81839474D01*
X96008209Y-81881093D01*
X96003250Y-81883051D01*
X96003248Y-81883052D01*
X95798744Y-81963815D01*
X95798742Y-81963816D01*
X95793779Y-81965776D01*
X95789220Y-81968543D01*
X95789217Y-81968544D01*
X95694113Y-82026255D01*
X95596683Y-82085377D01*
X95592653Y-82088874D01*
X95499484Y-82169722D01*
X95422555Y-82236477D01*
X95419168Y-82240608D01*
X95279760Y-82410627D01*
X95279756Y-82410633D01*
X95276376Y-82414755D01*
X95258448Y-82446250D01*
X95207368Y-82495555D01*
X95137738Y-82509417D01*
X95071667Y-82483434D01*
X95044427Y-82454284D01*
X95017814Y-82414755D01*
X94962559Y-82332681D01*
X94903918Y-82271209D01*
X94874725Y-82240608D01*
X94803424Y-82165865D01*
X94618458Y-82028246D01*
X94613707Y-82025830D01*
X94613703Y-82025828D01*
X94495588Y-81965776D01*
X94412949Y-81923760D01*
X94407855Y-81922178D01*
X94407852Y-81922177D01*
X94197871Y-81856976D01*
X94192773Y-81855393D01*
X94187484Y-81854692D01*
X93969511Y-81825802D01*
X93969506Y-81825802D01*
X93964226Y-81825102D01*
X93958897Y-81825302D01*
X93958895Y-81825302D01*
X93849034Y-81829426D01*
X93733842Y-81833751D01*
X93728623Y-81834846D01*
X93706566Y-81839474D01*
X93508209Y-81881093D01*
X93503250Y-81883051D01*
X93503248Y-81883052D01*
X93298744Y-81963815D01*
X93298742Y-81963816D01*
X93293779Y-81965776D01*
X93289220Y-81968543D01*
X93289217Y-81968544D01*
X93194113Y-82026255D01*
X93096683Y-82085377D01*
X93092653Y-82088874D01*
X92999484Y-82169722D01*
X92922555Y-82236477D01*
X92919168Y-82240608D01*
X92779760Y-82410627D01*
X92779756Y-82410633D01*
X92776376Y-82414755D01*
X92758448Y-82446250D01*
X92707368Y-82495555D01*
X92637738Y-82509417D01*
X92571667Y-82483434D01*
X92544427Y-82454284D01*
X92517814Y-82414755D01*
X92462559Y-82332681D01*
X92403918Y-82271209D01*
X92374725Y-82240608D01*
X92303424Y-82165865D01*
X92118458Y-82028246D01*
X92113707Y-82025830D01*
X92113703Y-82025828D01*
X91995588Y-81965776D01*
X91912949Y-81923760D01*
X91907855Y-81922178D01*
X91907852Y-81922177D01*
X91697871Y-81856976D01*
X91692773Y-81855393D01*
X91687484Y-81854692D01*
X91469511Y-81825802D01*
X91469506Y-81825802D01*
X91464226Y-81825102D01*
X91458897Y-81825302D01*
X91458895Y-81825302D01*
X91349034Y-81829426D01*
X91233842Y-81833751D01*
X91228623Y-81834846D01*
X91206566Y-81839474D01*
X91008209Y-81881093D01*
X91003250Y-81883051D01*
X91003248Y-81883052D01*
X90798744Y-81963815D01*
X90798742Y-81963816D01*
X90793779Y-81965776D01*
X90789220Y-81968543D01*
X90789217Y-81968544D01*
X90694113Y-82026255D01*
X90596683Y-82085377D01*
X90592653Y-82088874D01*
X90499484Y-82169722D01*
X90422555Y-82236477D01*
X90393330Y-82272120D01*
X90334671Y-82312114D01*
X90263701Y-82314046D01*
X90202952Y-82277302D01*
X90188752Y-82258532D01*
X90102332Y-82118880D01*
X90098478Y-82112652D01*
X89973303Y-81987695D01*
X89942965Y-81968994D01*
X89828968Y-81898725D01*
X89828966Y-81898724D01*
X89822738Y-81894885D01*
X89709353Y-81857277D01*
X89661389Y-81841368D01*
X89661387Y-81841368D01*
X89654861Y-81839203D01*
X89648025Y-81838503D01*
X89648022Y-81838502D01*
X89604969Y-81834091D01*
X89550400Y-81828500D01*
X88249600Y-81828500D01*
X88246354Y-81828837D01*
X88246350Y-81828837D01*
X88150692Y-81838762D01*
X88150688Y-81838763D01*
X88143834Y-81839474D01*
X88137298Y-81841655D01*
X88137296Y-81841655D01*
X88005194Y-81885728D01*
X87976054Y-81895450D01*
X87825652Y-81988522D01*
X87700695Y-82113697D01*
X87696855Y-82119927D01*
X87696854Y-82119928D01*
X87622466Y-82240608D01*
X87607885Y-82264262D01*
X87586472Y-82328822D01*
X87556432Y-82419390D01*
X87552203Y-82432139D01*
X87551503Y-82438975D01*
X87551502Y-82438978D01*
X87549338Y-82460102D01*
X87541500Y-82536600D01*
X87541500Y-84087400D01*
X82312406Y-84087400D01*
X82354576Y-84013318D01*
X82359041Y-84003654D01*
X82434031Y-83797059D01*
X82436802Y-83786792D01*
X82473504Y-83583826D01*
X82472085Y-83570586D01*
X82457450Y-83566000D01*
X81392115Y-83566000D01*
X81376876Y-83570475D01*
X81375671Y-83571865D01*
X81374000Y-83579548D01*
X81374000Y-84753192D01*
X80866000Y-84753192D01*
X80866000Y-83039885D01*
X81374000Y-83039885D01*
X81378475Y-83055124D01*
X81379865Y-83056329D01*
X81387548Y-83058000D01*
X82453849Y-83058000D01*
X82468527Y-83053690D01*
X82470590Y-83041807D01*
X82463876Y-82962675D01*
X82462086Y-82952203D01*
X82406870Y-82739465D01*
X82403335Y-82729425D01*
X82313063Y-82529030D01*
X82307894Y-82519744D01*
X82185150Y-82337425D01*
X82178481Y-82329130D01*
X82026772Y-82170100D01*
X82018814Y-82163059D01*
X81842475Y-82031859D01*
X81833438Y-82026255D01*
X81637516Y-81926643D01*
X81627665Y-81922643D01*
X81417760Y-81857466D01*
X81407376Y-81855183D01*
X81391957Y-81853139D01*
X81377793Y-81855335D01*
X81374000Y-81868522D01*
X81374000Y-83039885D01*
X80866000Y-83039885D01*
X80866000Y-81870808D01*
X80862027Y-81857277D01*
X80851420Y-81855752D01*
X80733579Y-81880477D01*
X80723383Y-81883537D01*
X80518971Y-81964263D01*
X80509439Y-81968994D01*
X80321538Y-82083016D01*
X80312948Y-82089280D01*
X80146948Y-82233327D01*
X80139528Y-82240958D01*
X80000174Y-82410911D01*
X79994152Y-82419674D01*
X79978762Y-82446711D01*
X79927680Y-82496018D01*
X79858049Y-82509880D01*
X79791978Y-82483897D01*
X79764739Y-82454747D01*
X79728869Y-82401468D01*
X79682559Y-82332681D01*
X79623918Y-82271209D01*
X79594725Y-82240608D01*
X79523424Y-82165865D01*
X79338458Y-82028246D01*
X79333707Y-82025830D01*
X79333703Y-82025828D01*
X79215588Y-81965776D01*
X79132949Y-81923760D01*
X79127855Y-81922178D01*
X79127852Y-81922177D01*
X78917871Y-81856976D01*
X78912773Y-81855393D01*
X78907484Y-81854692D01*
X78689511Y-81825802D01*
X78689506Y-81825802D01*
X78684226Y-81825102D01*
X78678897Y-81825302D01*
X78678895Y-81825302D01*
X78569034Y-81829426D01*
X78453842Y-81833751D01*
X78448623Y-81834846D01*
X78426566Y-81839474D01*
X78228209Y-81881093D01*
X78223250Y-81883051D01*
X78223248Y-81883052D01*
X78018744Y-81963815D01*
X78018742Y-81963816D01*
X78013779Y-81965776D01*
X78009220Y-81968543D01*
X78009217Y-81968544D01*
X77914113Y-82026255D01*
X77816683Y-82085377D01*
X77812653Y-82088874D01*
X77719484Y-82169722D01*
X77642555Y-82236477D01*
X77639168Y-82240608D01*
X77499760Y-82410627D01*
X77499756Y-82410633D01*
X77496376Y-82414755D01*
X77478448Y-82446250D01*
X77427368Y-82495555D01*
X77357738Y-82509417D01*
X77291667Y-82483434D01*
X77264427Y-82454284D01*
X77237814Y-82414755D01*
X77182559Y-82332681D01*
X77123918Y-82271209D01*
X77094725Y-82240608D01*
X77023424Y-82165865D01*
X76838458Y-82028246D01*
X76833707Y-82025830D01*
X76833703Y-82025828D01*
X76715588Y-81965776D01*
X76632949Y-81923760D01*
X76627855Y-81922178D01*
X76627852Y-81922177D01*
X76417871Y-81856976D01*
X76412773Y-81855393D01*
X76407484Y-81854692D01*
X76189511Y-81825802D01*
X76189506Y-81825802D01*
X76184226Y-81825102D01*
X76178897Y-81825302D01*
X76178895Y-81825302D01*
X76069034Y-81829426D01*
X75953842Y-81833751D01*
X75948623Y-81834846D01*
X75926566Y-81839474D01*
X75728209Y-81881093D01*
X75723250Y-81883051D01*
X75723248Y-81883052D01*
X75518744Y-81963815D01*
X75518742Y-81963816D01*
X75513779Y-81965776D01*
X75509220Y-81968543D01*
X75509217Y-81968544D01*
X75414113Y-82026255D01*
X75316683Y-82085377D01*
X75312653Y-82088874D01*
X75219484Y-82169722D01*
X75142555Y-82236477D01*
X75139168Y-82240608D01*
X74999760Y-82410627D01*
X74999756Y-82410633D01*
X74996376Y-82414755D01*
X74978448Y-82446250D01*
X74927368Y-82495555D01*
X74857738Y-82509417D01*
X74791667Y-82483434D01*
X74764427Y-82454284D01*
X74737814Y-82414755D01*
X74682559Y-82332681D01*
X74623918Y-82271209D01*
X74594725Y-82240608D01*
X74523424Y-82165865D01*
X74338458Y-82028246D01*
X74333707Y-82025830D01*
X74333703Y-82025828D01*
X74215588Y-81965776D01*
X74132949Y-81923760D01*
X74127855Y-81922178D01*
X74127852Y-81922177D01*
X73917871Y-81856976D01*
X73912773Y-81855393D01*
X73907484Y-81854692D01*
X73689511Y-81825802D01*
X73689506Y-81825802D01*
X73684226Y-81825102D01*
X73678897Y-81825302D01*
X73678895Y-81825302D01*
X73569034Y-81829426D01*
X73453842Y-81833751D01*
X73448623Y-81834846D01*
X73426566Y-81839474D01*
X73228209Y-81881093D01*
X73223250Y-81883051D01*
X73223248Y-81883052D01*
X73018744Y-81963815D01*
X73018742Y-81963816D01*
X73013779Y-81965776D01*
X73009220Y-81968543D01*
X73009217Y-81968544D01*
X72914113Y-82026255D01*
X72816683Y-82085377D01*
X72812653Y-82088874D01*
X72719484Y-82169722D01*
X72642555Y-82236477D01*
X72613330Y-82272120D01*
X72554671Y-82312114D01*
X72483701Y-82314046D01*
X72422952Y-82277302D01*
X72408752Y-82258532D01*
X72322332Y-82118880D01*
X72318478Y-82112652D01*
X72193303Y-81987695D01*
X72162965Y-81968994D01*
X72048968Y-81898725D01*
X72048966Y-81898724D01*
X72042738Y-81894885D01*
X71929353Y-81857277D01*
X71881389Y-81841368D01*
X71881387Y-81841368D01*
X71874861Y-81839203D01*
X71868025Y-81838503D01*
X71868022Y-81838502D01*
X71824969Y-81834091D01*
X71770400Y-81828500D01*
X70469600Y-81828500D01*
X70466354Y-81828837D01*
X70466350Y-81828837D01*
X70370692Y-81838762D01*
X70370688Y-81838763D01*
X70363834Y-81839474D01*
X70357298Y-81841655D01*
X70357296Y-81841655D01*
X70225194Y-81885728D01*
X70196054Y-81895450D01*
X70045652Y-81988522D01*
X69920695Y-82113697D01*
X69916855Y-82119927D01*
X69916854Y-82119928D01*
X69842466Y-82240608D01*
X69827885Y-82264262D01*
X69806472Y-82328822D01*
X69776432Y-82419390D01*
X69772203Y-82432139D01*
X69771503Y-82438975D01*
X69771502Y-82438978D01*
X69769338Y-82460102D01*
X69761500Y-82536600D01*
X69761500Y-84087400D01*
X66797838Y-84087400D01*
X66812668Y-83844925D01*
X66812784Y-83841323D01*
X66812853Y-83821819D01*
X66812761Y-83818194D01*
X66793666Y-83465615D01*
X66792931Y-83458849D01*
X66736130Y-83111985D01*
X66734663Y-83105313D01*
X66640736Y-82766627D01*
X66638562Y-82760163D01*
X66508598Y-82433578D01*
X66505742Y-82427398D01*
X66341269Y-82116763D01*
X66337769Y-82110937D01*
X66140697Y-81819862D01*
X66136590Y-81814453D01*
X66023565Y-81681179D01*
X66010740Y-81672743D01*
X66000416Y-81678795D01*
X63872020Y-83807190D01*
X63864408Y-83821131D01*
X63134357Y-83821131D01*
X63135592Y-83818869D01*
X63135461Y-83817034D01*
X63131210Y-83810420D01*
X61000992Y-81680203D01*
X60987455Y-81672811D01*
X60977753Y-81679599D01*
X60870430Y-81805257D01*
X60866296Y-81810664D01*
X60668215Y-82101041D01*
X60664697Y-82106851D01*
X60499134Y-82416922D01*
X60496259Y-82423087D01*
X60365155Y-82749218D01*
X60362962Y-82755658D01*
X60267846Y-83094044D01*
X60266363Y-83100679D01*
X60208350Y-83447354D01*
X60207591Y-83454126D01*
X60187357Y-83805037D01*
X60187333Y-83811832D01*
X58928000Y-83811832D01*
X58928000Y-81306862D01*
X61349950Y-81306862D01*
X61349986Y-81307704D01*
X61355037Y-81315826D01*
X63487190Y-83447980D01*
X63501131Y-83455592D01*
X63502966Y-83455461D01*
X63509580Y-83451210D01*
X65642798Y-81317991D01*
X65650412Y-81304047D01*
X65650344Y-81303089D01*
X65645836Y-81296272D01*
X65644418Y-81295065D01*
X65364813Y-81082064D01*
X65359187Y-81078240D01*
X65058214Y-80896681D01*
X65052202Y-80893484D01*
X64790487Y-80772000D01*
X94082496Y-80772000D01*
X94102458Y-80961928D01*
X94161473Y-81143556D01*
X94256960Y-81308944D01*
X94261378Y-81313851D01*
X94261379Y-81313852D01*
X94265106Y-81317991D01*
X94384747Y-81450866D01*
X94539248Y-81563118D01*
X94545276Y-81565802D01*
X94545278Y-81565803D01*
X94707681Y-81638109D01*
X94713712Y-81640794D01*
X94807112Y-81660647D01*
X94894056Y-81679128D01*
X94894061Y-81679128D01*
X94900513Y-81680500D01*
X95091487Y-81680500D01*
X95097939Y-81679128D01*
X95097944Y-81679128D01*
X95184888Y-81660647D01*
X95278288Y-81640794D01*
X95284319Y-81638109D01*
X95446722Y-81565803D01*
X95446724Y-81565802D01*
X95452752Y-81563118D01*
X95607253Y-81450866D01*
X95726894Y-81317991D01*
X95730621Y-81313852D01*
X95730622Y-81313851D01*
X95735040Y-81308944D01*
X95736242Y-81306862D01*
X139807450Y-81306862D01*
X139807486Y-81307704D01*
X139812537Y-81315826D01*
X141944690Y-83447980D01*
X141958631Y-83455592D01*
X141960466Y-83455461D01*
X141967080Y-83451210D01*
X144100298Y-81317991D01*
X144107912Y-81304047D01*
X144107844Y-81303089D01*
X144103336Y-81296272D01*
X144101918Y-81295065D01*
X143822313Y-81082064D01*
X143816687Y-81078240D01*
X143515714Y-80896681D01*
X143509702Y-80893484D01*
X143190870Y-80745487D01*
X143184570Y-80742967D01*
X142851629Y-80630273D01*
X142845051Y-80628437D01*
X142501917Y-80552367D01*
X142495178Y-80551251D01*
X142145810Y-80512680D01*
X142139029Y-80512301D01*
X141787515Y-80511687D01*
X141780742Y-80512042D01*
X141431220Y-80549395D01*
X141424510Y-80550482D01*
X141081086Y-80625361D01*
X141074511Y-80627172D01*
X140741183Y-80738702D01*
X140734861Y-80741205D01*
X140415534Y-80888079D01*
X140409491Y-80891265D01*
X140107901Y-81071763D01*
X140102255Y-81075571D01*
X139821908Y-81287596D01*
X139816711Y-81291987D01*
X139815472Y-81293155D01*
X139807450Y-81306862D01*
X95736242Y-81306862D01*
X95830527Y-81143556D01*
X95889542Y-80961928D01*
X95909504Y-80772000D01*
X95889542Y-80582072D01*
X95830527Y-80400444D01*
X95735040Y-80235056D01*
X95607253Y-80093134D01*
X95452752Y-79980882D01*
X95446724Y-79978198D01*
X95446722Y-79978197D01*
X95284319Y-79905891D01*
X95284318Y-79905891D01*
X95278288Y-79903206D01*
X95184888Y-79883353D01*
X95097944Y-79864872D01*
X95097939Y-79864872D01*
X95091487Y-79863500D01*
X94900513Y-79863500D01*
X94894061Y-79864872D01*
X94894056Y-79864872D01*
X94807112Y-79883353D01*
X94713712Y-79903206D01*
X94707682Y-79905891D01*
X94707681Y-79905891D01*
X94545278Y-79978197D01*
X94545276Y-79978198D01*
X94539248Y-79980882D01*
X94384747Y-80093134D01*
X94256960Y-80235056D01*
X94161473Y-80400444D01*
X94102458Y-80582072D01*
X94082496Y-80772000D01*
X64790487Y-80772000D01*
X64733370Y-80745487D01*
X64727070Y-80742967D01*
X64394129Y-80630273D01*
X64387551Y-80628437D01*
X64044417Y-80552367D01*
X64037678Y-80551251D01*
X63688310Y-80512680D01*
X63681529Y-80512301D01*
X63330015Y-80511687D01*
X63323242Y-80512042D01*
X62973720Y-80549395D01*
X62967010Y-80550482D01*
X62623586Y-80625361D01*
X62617011Y-80627172D01*
X62283683Y-80738702D01*
X62277361Y-80741205D01*
X61958034Y-80888079D01*
X61951991Y-80891265D01*
X61650401Y-81071763D01*
X61644755Y-81075571D01*
X61364408Y-81287596D01*
X61359211Y-81291987D01*
X61357972Y-81293155D01*
X61349950Y-81306862D01*
X58928000Y-81306862D01*
X58928000Y-72869695D01*
X60862251Y-72869695D01*
X60862548Y-72874848D01*
X60862548Y-72874851D01*
X60872986Y-73055880D01*
X60875110Y-73092715D01*
X60876247Y-73097761D01*
X60876248Y-73097767D01*
X60896096Y-73185837D01*
X60924222Y-73310639D01*
X60973191Y-73431235D01*
X61000488Y-73498460D01*
X61008266Y-73517616D01*
X61058863Y-73600183D01*
X61122291Y-73703688D01*
X61124987Y-73708088D01*
X61271250Y-73876938D01*
X61275230Y-73880242D01*
X61279981Y-73884187D01*
X61319616Y-73943090D01*
X61321113Y-74014071D01*
X61283997Y-74074593D01*
X61243725Y-74099112D01*
X61196129Y-74116955D01*
X61128295Y-74142385D01*
X61011739Y-74229739D01*
X60924385Y-74346295D01*
X60873255Y-74482684D01*
X60866500Y-74544866D01*
X60866500Y-76341134D01*
X60873255Y-76403316D01*
X60924385Y-76539705D01*
X61011739Y-76656261D01*
X61128295Y-76743615D01*
X61264684Y-76794745D01*
X61326866Y-76801500D01*
X63123134Y-76801500D01*
X63185316Y-76794745D01*
X63321705Y-76743615D01*
X63438261Y-76656261D01*
X63525615Y-76539705D01*
X63547799Y-76480529D01*
X63569598Y-76422382D01*
X63612240Y-76365618D01*
X63678802Y-76340918D01*
X63748150Y-76356126D01*
X63782817Y-76384114D01*
X63811250Y-76416938D01*
X63983126Y-76559632D01*
X64176000Y-76672338D01*
X64384692Y-76752030D01*
X64389760Y-76753061D01*
X64389763Y-76753062D01*
X64497017Y-76774883D01*
X64603597Y-76796567D01*
X64608772Y-76796757D01*
X64608774Y-76796757D01*
X64821673Y-76804564D01*
X64821677Y-76804564D01*
X64826837Y-76804753D01*
X64831957Y-76804097D01*
X64831959Y-76804097D01*
X65043288Y-76777025D01*
X65043289Y-76777025D01*
X65048416Y-76776368D01*
X65053366Y-76774883D01*
X65257429Y-76713661D01*
X65257434Y-76713659D01*
X65262384Y-76712174D01*
X65462994Y-76613896D01*
X65644860Y-76484173D01*
X65803096Y-76326489D01*
X65933453Y-76145077D01*
X65934776Y-76146028D01*
X65981645Y-76102857D01*
X66051580Y-76090625D01*
X66117026Y-76118144D01*
X66144875Y-76149994D01*
X66204987Y-76248088D01*
X66351250Y-76416938D01*
X66523126Y-76559632D01*
X66716000Y-76672338D01*
X66924692Y-76752030D01*
X66929760Y-76753061D01*
X66929763Y-76753062D01*
X67037017Y-76774883D01*
X67143597Y-76796567D01*
X67148772Y-76796757D01*
X67148774Y-76796757D01*
X67361673Y-76804564D01*
X67361677Y-76804564D01*
X67366837Y-76804753D01*
X67371957Y-76804097D01*
X67371959Y-76804097D01*
X67583288Y-76777025D01*
X67583289Y-76777025D01*
X67588416Y-76776368D01*
X67593366Y-76774883D01*
X67797429Y-76713661D01*
X67797434Y-76713659D01*
X67802384Y-76712174D01*
X68002994Y-76613896D01*
X68184860Y-76484173D01*
X68343096Y-76326489D01*
X68473453Y-76145077D01*
X68474776Y-76146028D01*
X68521645Y-76102857D01*
X68591580Y-76090625D01*
X68657026Y-76118144D01*
X68684875Y-76149994D01*
X68744987Y-76248088D01*
X68891250Y-76416938D01*
X69063126Y-76559632D01*
X69256000Y-76672338D01*
X69464692Y-76752030D01*
X69469760Y-76753061D01*
X69469763Y-76753062D01*
X69577017Y-76774883D01*
X69683597Y-76796567D01*
X69688772Y-76796757D01*
X69688774Y-76796757D01*
X69901673Y-76804564D01*
X69901677Y-76804564D01*
X69906837Y-76804753D01*
X69911957Y-76804097D01*
X69911959Y-76804097D01*
X70123288Y-76777025D01*
X70123289Y-76777025D01*
X70128416Y-76776368D01*
X70133366Y-76774883D01*
X70337429Y-76713661D01*
X70337434Y-76713659D01*
X70342384Y-76712174D01*
X70542994Y-76613896D01*
X70724860Y-76484173D01*
X70883096Y-76326489D01*
X71013453Y-76145077D01*
X71014776Y-76146028D01*
X71061645Y-76102857D01*
X71131580Y-76090625D01*
X71197026Y-76118144D01*
X71224875Y-76149994D01*
X71284987Y-76248088D01*
X71431250Y-76416938D01*
X71603126Y-76559632D01*
X71796000Y-76672338D01*
X72004692Y-76752030D01*
X72009760Y-76753061D01*
X72009763Y-76753062D01*
X72117017Y-76774883D01*
X72223597Y-76796567D01*
X72228772Y-76796757D01*
X72228774Y-76796757D01*
X72441673Y-76804564D01*
X72441677Y-76804564D01*
X72446837Y-76804753D01*
X72451957Y-76804097D01*
X72451959Y-76804097D01*
X72663288Y-76777025D01*
X72663289Y-76777025D01*
X72668416Y-76776368D01*
X72673366Y-76774883D01*
X72877429Y-76713661D01*
X72877434Y-76713659D01*
X72882384Y-76712174D01*
X73082994Y-76613896D01*
X73264860Y-76484173D01*
X73423096Y-76326489D01*
X73553453Y-76145077D01*
X73574320Y-76102857D01*
X73650136Y-75949453D01*
X73650137Y-75949451D01*
X73652430Y-75944811D01*
X73717370Y-75731069D01*
X73746529Y-75509590D01*
X73747052Y-75488179D01*
X73748074Y-75446365D01*
X73748074Y-75446361D01*
X73748156Y-75443000D01*
X73729852Y-75220361D01*
X73675431Y-75003702D01*
X73586354Y-74798840D01*
X73465014Y-74611277D01*
X73314670Y-74446051D01*
X73310619Y-74442852D01*
X73310615Y-74442848D01*
X73143414Y-74310800D01*
X73143410Y-74310798D01*
X73139359Y-74307598D01*
X73097569Y-74284529D01*
X73047598Y-74234097D01*
X73032826Y-74164654D01*
X73057942Y-74098248D01*
X73085294Y-74071641D01*
X73260328Y-73946792D01*
X73268200Y-73940139D01*
X73419052Y-73789812D01*
X73425730Y-73781965D01*
X73550003Y-73609020D01*
X73555313Y-73600183D01*
X73649670Y-73409267D01*
X73653469Y-73399672D01*
X73715377Y-73195910D01*
X73717555Y-73185837D01*
X73718986Y-73174962D01*
X73716775Y-73160778D01*
X73703617Y-73157000D01*
X72257000Y-73157000D01*
X72188879Y-73136998D01*
X72142386Y-73083342D01*
X72131000Y-73031000D01*
X72131000Y-72630885D01*
X72639000Y-72630885D01*
X72643475Y-72646124D01*
X72644865Y-72647329D01*
X72652548Y-72649000D01*
X73703344Y-72649000D01*
X73716875Y-72645027D01*
X73718180Y-72635947D01*
X73676214Y-72468875D01*
X73672894Y-72459124D01*
X73587972Y-72263814D01*
X73583105Y-72254739D01*
X73467426Y-72075926D01*
X73461136Y-72067757D01*
X73317806Y-71910240D01*
X73310273Y-71903215D01*
X73143139Y-71771222D01*
X73134552Y-71765517D01*
X72948117Y-71662599D01*
X72938705Y-71658369D01*
X72737959Y-71587280D01*
X72727988Y-71584646D01*
X72656837Y-71571972D01*
X72643540Y-71573432D01*
X72639000Y-71587989D01*
X72639000Y-72630885D01*
X72131000Y-72630885D01*
X72131000Y-71586102D01*
X72127082Y-71572758D01*
X72112806Y-71570771D01*
X72074324Y-71576660D01*
X72064288Y-71579051D01*
X71861868Y-71645212D01*
X71852359Y-71649209D01*
X71663463Y-71747542D01*
X71654738Y-71753036D01*
X71484433Y-71880905D01*
X71476726Y-71887748D01*
X71329590Y-72041717D01*
X71323109Y-72049722D01*
X71218498Y-72203074D01*
X71163587Y-72248076D01*
X71093062Y-72256247D01*
X71029315Y-72224993D01*
X71008618Y-72200509D01*
X70927822Y-72075617D01*
X70927820Y-72075614D01*
X70925014Y-72071277D01*
X70774670Y-71906051D01*
X70770619Y-71902852D01*
X70770615Y-71902848D01*
X70603414Y-71770800D01*
X70603410Y-71770798D01*
X70599359Y-71767598D01*
X70583279Y-71758721D01*
X70547136Y-71738769D01*
X70403789Y-71659638D01*
X70398920Y-71657914D01*
X70398916Y-71657912D01*
X70198087Y-71586795D01*
X70198083Y-71586794D01*
X70193212Y-71585069D01*
X70188119Y-71584162D01*
X70188116Y-71584161D01*
X69978373Y-71546800D01*
X69978367Y-71546799D01*
X69973284Y-71545894D01*
X69899452Y-71544992D01*
X69755081Y-71543228D01*
X69755079Y-71543228D01*
X69749911Y-71543165D01*
X69529091Y-71576955D01*
X69316756Y-71646357D01*
X69118607Y-71749507D01*
X69114474Y-71752610D01*
X69114471Y-71752612D01*
X69090247Y-71770800D01*
X68939965Y-71883635D01*
X68785629Y-72045138D01*
X68678201Y-72202621D01*
X68623293Y-72247621D01*
X68552768Y-72255792D01*
X68489021Y-72224538D01*
X68468324Y-72200054D01*
X68387822Y-72075617D01*
X68387820Y-72075614D01*
X68385014Y-72071277D01*
X68234670Y-71906051D01*
X68230619Y-71902852D01*
X68230615Y-71902848D01*
X68063414Y-71770800D01*
X68063410Y-71770798D01*
X68059359Y-71767598D01*
X68043279Y-71758721D01*
X68007136Y-71738769D01*
X67863789Y-71659638D01*
X67858920Y-71657914D01*
X67858916Y-71657912D01*
X67658087Y-71586795D01*
X67658083Y-71586794D01*
X67653212Y-71585069D01*
X67648119Y-71584162D01*
X67648116Y-71584161D01*
X67438373Y-71546800D01*
X67438367Y-71546799D01*
X67433284Y-71545894D01*
X67359452Y-71544992D01*
X67215081Y-71543228D01*
X67215079Y-71543228D01*
X67209911Y-71543165D01*
X66989091Y-71576955D01*
X66776756Y-71646357D01*
X66578607Y-71749507D01*
X66574474Y-71752610D01*
X66574471Y-71752612D01*
X66550247Y-71770800D01*
X66399965Y-71883635D01*
X66245629Y-72045138D01*
X66138201Y-72202621D01*
X66083293Y-72247621D01*
X66012768Y-72255792D01*
X65949021Y-72224538D01*
X65928324Y-72200054D01*
X65847822Y-72075617D01*
X65847820Y-72075614D01*
X65845014Y-72071277D01*
X65694670Y-71906051D01*
X65690619Y-71902852D01*
X65690615Y-71902848D01*
X65523414Y-71770800D01*
X65523410Y-71770798D01*
X65519359Y-71767598D01*
X65503279Y-71758721D01*
X65467136Y-71738769D01*
X65323789Y-71659638D01*
X65318920Y-71657914D01*
X65318916Y-71657912D01*
X65118087Y-71586795D01*
X65118083Y-71586794D01*
X65113212Y-71585069D01*
X65108119Y-71584162D01*
X65108116Y-71584161D01*
X64898373Y-71546800D01*
X64898367Y-71546799D01*
X64893284Y-71545894D01*
X64819452Y-71544992D01*
X64675081Y-71543228D01*
X64675079Y-71543228D01*
X64669911Y-71543165D01*
X64449091Y-71576955D01*
X64236756Y-71646357D01*
X64038607Y-71749507D01*
X64034474Y-71752610D01*
X64034471Y-71752612D01*
X64010247Y-71770800D01*
X63859965Y-71883635D01*
X63705629Y-72045138D01*
X63598201Y-72202621D01*
X63543293Y-72247621D01*
X63472768Y-72255792D01*
X63409021Y-72224538D01*
X63388324Y-72200054D01*
X63307822Y-72075617D01*
X63307820Y-72075614D01*
X63305014Y-72071277D01*
X63154670Y-71906051D01*
X63150619Y-71902852D01*
X63150615Y-71902848D01*
X62983414Y-71770800D01*
X62983410Y-71770798D01*
X62979359Y-71767598D01*
X62963279Y-71758721D01*
X62927136Y-71738769D01*
X62783789Y-71659638D01*
X62778920Y-71657914D01*
X62778916Y-71657912D01*
X62578087Y-71586795D01*
X62578083Y-71586794D01*
X62573212Y-71585069D01*
X62568119Y-71584162D01*
X62568116Y-71584161D01*
X62358373Y-71546800D01*
X62358367Y-71546799D01*
X62353284Y-71545894D01*
X62279452Y-71544992D01*
X62135081Y-71543228D01*
X62135079Y-71543228D01*
X62129911Y-71543165D01*
X61909091Y-71576955D01*
X61696756Y-71646357D01*
X61498607Y-71749507D01*
X61494474Y-71752610D01*
X61494471Y-71752612D01*
X61470247Y-71770800D01*
X61319965Y-71883635D01*
X61165629Y-72045138D01*
X61039743Y-72229680D01*
X61015534Y-72281834D01*
X60953611Y-72415237D01*
X60945688Y-72432305D01*
X60885989Y-72647570D01*
X60862251Y-72869695D01*
X58928000Y-72869695D01*
X58928000Y-70104000D01*
X78207496Y-70104000D01*
X78208186Y-70110565D01*
X78222824Y-70249834D01*
X78227458Y-70293928D01*
X78286473Y-70475556D01*
X78289776Y-70481278D01*
X78289777Y-70481279D01*
X78323686Y-70540010D01*
X78381960Y-70640944D01*
X78455137Y-70722215D01*
X78485853Y-70786221D01*
X78487500Y-70806524D01*
X78487500Y-70914233D01*
X78486973Y-70925416D01*
X78485298Y-70932909D01*
X78485547Y-70940835D01*
X78485547Y-70940836D01*
X78487438Y-71000986D01*
X78487500Y-71004945D01*
X78487500Y-71032856D01*
X78487997Y-71036790D01*
X78487997Y-71036791D01*
X78488005Y-71036856D01*
X78488938Y-71048693D01*
X78490327Y-71092889D01*
X78495978Y-71112339D01*
X78499987Y-71131700D01*
X78502526Y-71151797D01*
X78505445Y-71159168D01*
X78505445Y-71159170D01*
X78518804Y-71192912D01*
X78522649Y-71204142D01*
X78534982Y-71246593D01*
X78539015Y-71253412D01*
X78539017Y-71253417D01*
X78545293Y-71264028D01*
X78553988Y-71281776D01*
X78561448Y-71300617D01*
X78566110Y-71307033D01*
X78566110Y-71307034D01*
X78587436Y-71336387D01*
X78593952Y-71346307D01*
X78595405Y-71348763D01*
X78616458Y-71384362D01*
X78630779Y-71398683D01*
X78643619Y-71413716D01*
X78655528Y-71430107D01*
X78661634Y-71435158D01*
X78689605Y-71458298D01*
X78698384Y-71466288D01*
X79468854Y-72236758D01*
X79476398Y-72245048D01*
X79480511Y-72251529D01*
X79486288Y-72256954D01*
X79530178Y-72298169D01*
X79533020Y-72300924D01*
X79552741Y-72320645D01*
X79555936Y-72323123D01*
X79564958Y-72330829D01*
X79597190Y-72361097D01*
X79604139Y-72364917D01*
X79614943Y-72370857D01*
X79631467Y-72381710D01*
X79647470Y-72394124D01*
X79688054Y-72411687D01*
X79698684Y-72416894D01*
X79737451Y-72438206D01*
X79745128Y-72440177D01*
X79745133Y-72440179D01*
X79757069Y-72443243D01*
X79775777Y-72449648D01*
X79789495Y-72455584D01*
X79844068Y-72500997D01*
X79865426Y-72568704D01*
X79864761Y-72584390D01*
X79858496Y-72644000D01*
X79859186Y-72650565D01*
X79877220Y-72822145D01*
X79878458Y-72833928D01*
X79937473Y-73015556D01*
X79940776Y-73021278D01*
X79940777Y-73021279D01*
X79958255Y-73051551D01*
X80032960Y-73180944D01*
X80037378Y-73185851D01*
X80037379Y-73185852D01*
X80046435Y-73195910D01*
X80160747Y-73322866D01*
X80231398Y-73374197D01*
X80309903Y-73431235D01*
X80309906Y-73431236D01*
X80315248Y-73435118D01*
X80316426Y-73435643D01*
X80364058Y-73485599D01*
X80377374Y-73556504D01*
X80366496Y-73660000D01*
X80367186Y-73666565D01*
X80381824Y-73805834D01*
X80386458Y-73849928D01*
X80445473Y-74031556D01*
X80448776Y-74037278D01*
X80448777Y-74037279D01*
X80476040Y-74084500D01*
X80540960Y-74196944D01*
X80545378Y-74201851D01*
X80545379Y-74201852D01*
X80640593Y-74307598D01*
X80668747Y-74338866D01*
X80823248Y-74451118D01*
X80829276Y-74453802D01*
X80829278Y-74453803D01*
X80951151Y-74508064D01*
X80997712Y-74528794D01*
X81089400Y-74548283D01*
X81178056Y-74567128D01*
X81178061Y-74567128D01*
X81184513Y-74568500D01*
X81375487Y-74568500D01*
X81381939Y-74567128D01*
X81381944Y-74567128D01*
X81470600Y-74548283D01*
X81562288Y-74528794D01*
X81608849Y-74508064D01*
X81730722Y-74453803D01*
X81730724Y-74453802D01*
X81736752Y-74451118D01*
X81891253Y-74338866D01*
X81895668Y-74333963D01*
X81900580Y-74329540D01*
X81901705Y-74330789D01*
X81955014Y-74297949D01*
X81988200Y-74293500D01*
X89329233Y-74293500D01*
X89340416Y-74294027D01*
X89347909Y-74295702D01*
X89355835Y-74295453D01*
X89355836Y-74295453D01*
X89415986Y-74293562D01*
X89419945Y-74293500D01*
X89447856Y-74293500D01*
X89451791Y-74293003D01*
X89451856Y-74292995D01*
X89463693Y-74292062D01*
X89495951Y-74291048D01*
X89499970Y-74290922D01*
X89507889Y-74290673D01*
X89527343Y-74285021D01*
X89546700Y-74281013D01*
X89558930Y-74279468D01*
X89558931Y-74279468D01*
X89566797Y-74278474D01*
X89574168Y-74275555D01*
X89574170Y-74275555D01*
X89607912Y-74262196D01*
X89619142Y-74258351D01*
X89653983Y-74248229D01*
X89653984Y-74248229D01*
X89661593Y-74246018D01*
X89668412Y-74241985D01*
X89668417Y-74241983D01*
X89679028Y-74235707D01*
X89696776Y-74227012D01*
X89715617Y-74219552D01*
X89751387Y-74193564D01*
X89761307Y-74187048D01*
X89792535Y-74168580D01*
X89792538Y-74168578D01*
X89799362Y-74164542D01*
X89813683Y-74150221D01*
X89828717Y-74137380D01*
X89845107Y-74125472D01*
X89850157Y-74119368D01*
X89850162Y-74119363D01*
X89873293Y-74091402D01*
X89881283Y-74082621D01*
X90816258Y-73147647D01*
X90824537Y-73140113D01*
X90831018Y-73136000D01*
X90877644Y-73086348D01*
X90880398Y-73083507D01*
X90900135Y-73063770D01*
X90902615Y-73060573D01*
X90910320Y-73051551D01*
X90935159Y-73025100D01*
X90940586Y-73019321D01*
X90944405Y-73012375D01*
X90944407Y-73012372D01*
X90950348Y-73001566D01*
X90961199Y-72985047D01*
X90968758Y-72975301D01*
X90973614Y-72969041D01*
X90976759Y-72961772D01*
X90976762Y-72961768D01*
X90991174Y-72928463D01*
X90996391Y-72917813D01*
X91017695Y-72879060D01*
X91022733Y-72859437D01*
X91029137Y-72840734D01*
X91034033Y-72829420D01*
X91034033Y-72829419D01*
X91037181Y-72822145D01*
X91038420Y-72814322D01*
X91038423Y-72814312D01*
X91044099Y-72778476D01*
X91046505Y-72766856D01*
X91055528Y-72731711D01*
X91055528Y-72731710D01*
X91057500Y-72724030D01*
X91057500Y-72703776D01*
X91059051Y-72684065D01*
X91060980Y-72671886D01*
X91062220Y-72664057D01*
X91058059Y-72620038D01*
X91057500Y-72608181D01*
X91057500Y-72441980D01*
X91077502Y-72373859D01*
X91094405Y-72352885D01*
X91149843Y-72297447D01*
X91212155Y-72263421D01*
X91282970Y-72268486D01*
X91326762Y-72298276D01*
X91327423Y-72297541D01*
X91332325Y-72301954D01*
X91336747Y-72306866D01*
X91403918Y-72355669D01*
X91484763Y-72414406D01*
X91491248Y-72419118D01*
X91497276Y-72421802D01*
X91497278Y-72421803D01*
X91633517Y-72482460D01*
X91665712Y-72496794D01*
X91780134Y-72521115D01*
X91843031Y-72555267D01*
X94572522Y-75284758D01*
X94580066Y-75293048D01*
X94584179Y-75299529D01*
X94589956Y-75304954D01*
X94633846Y-75346169D01*
X94636688Y-75348924D01*
X94656409Y-75368645D01*
X94659604Y-75371123D01*
X94668626Y-75378829D01*
X94700858Y-75409097D01*
X94707807Y-75412917D01*
X94718611Y-75418857D01*
X94735135Y-75429710D01*
X94751138Y-75442124D01*
X94791722Y-75459687D01*
X94802352Y-75464894D01*
X94841119Y-75486206D01*
X94848796Y-75488177D01*
X94848801Y-75488179D01*
X94860737Y-75491243D01*
X94879445Y-75497648D01*
X94898034Y-75505692D01*
X94905862Y-75506932D01*
X94905869Y-75506934D01*
X94941703Y-75512610D01*
X94953323Y-75515016D01*
X94988468Y-75524039D01*
X94996149Y-75526011D01*
X95016403Y-75526011D01*
X95036113Y-75527562D01*
X95056122Y-75530731D01*
X95064014Y-75529985D01*
X95100140Y-75526570D01*
X95111998Y-75526011D01*
X116996742Y-75526011D01*
X117047988Y-75536903D01*
X117065712Y-75544794D01*
X117107340Y-75553642D01*
X117246056Y-75583128D01*
X117246061Y-75583128D01*
X117252513Y-75584500D01*
X117443487Y-75584500D01*
X117449939Y-75583128D01*
X117449944Y-75583128D01*
X117536887Y-75564647D01*
X117630288Y-75544794D01*
X117648012Y-75536903D01*
X117798722Y-75469803D01*
X117798724Y-75469802D01*
X117804752Y-75467118D01*
X117837948Y-75443000D01*
X117936954Y-75371067D01*
X117959253Y-75354866D01*
X118016753Y-75291006D01*
X118082621Y-75217852D01*
X118082622Y-75217851D01*
X118087040Y-75212944D01*
X118182527Y-75047556D01*
X118241542Y-74865928D01*
X118243138Y-74850749D01*
X118260814Y-74682565D01*
X118261504Y-74676000D01*
X118251561Y-74581401D01*
X118242232Y-74492635D01*
X118242232Y-74492633D01*
X118241542Y-74486072D01*
X118182527Y-74304444D01*
X118176209Y-74293500D01*
X118103751Y-74168000D01*
X122657496Y-74168000D01*
X122658186Y-74174565D01*
X122675863Y-74342749D01*
X122677458Y-74357928D01*
X122736473Y-74539556D01*
X122739776Y-74545278D01*
X122739777Y-74545279D01*
X122752392Y-74567128D01*
X122831960Y-74704944D01*
X122836378Y-74709851D01*
X122836379Y-74709852D01*
X122912589Y-74794492D01*
X122959747Y-74846866D01*
X123058843Y-74918864D01*
X123107763Y-74954406D01*
X123114248Y-74959118D01*
X123120276Y-74961802D01*
X123120278Y-74961803D01*
X123225656Y-75008720D01*
X123288712Y-75036794D01*
X123382113Y-75056647D01*
X123469056Y-75075128D01*
X123469061Y-75075128D01*
X123475513Y-75076500D01*
X123666487Y-75076500D01*
X123672939Y-75075128D01*
X123672944Y-75075128D01*
X123759887Y-75056647D01*
X123853288Y-75036794D01*
X123916344Y-75008720D01*
X124021722Y-74961803D01*
X124021724Y-74961802D01*
X124027752Y-74959118D01*
X124034238Y-74954406D01*
X124083157Y-74918864D01*
X124182253Y-74846866D01*
X124229411Y-74794492D01*
X124305621Y-74709852D01*
X124305622Y-74709851D01*
X124310040Y-74704944D01*
X124389608Y-74567128D01*
X124402223Y-74545279D01*
X124402224Y-74545278D01*
X124405527Y-74539556D01*
X124464542Y-74357928D01*
X124466138Y-74342749D01*
X124483814Y-74174565D01*
X124484504Y-74168000D01*
X124476438Y-74091255D01*
X124465232Y-73984635D01*
X124465232Y-73984633D01*
X124464542Y-73978072D01*
X124405527Y-73796444D01*
X124399780Y-73786489D01*
X124356599Y-73711699D01*
X124310040Y-73631056D01*
X124287417Y-73605930D01*
X124186675Y-73494045D01*
X124186674Y-73494044D01*
X124182253Y-73489134D01*
X124027752Y-73376882D01*
X124021724Y-73374198D01*
X124021722Y-73374197D01*
X123859319Y-73301891D01*
X123859318Y-73301891D01*
X123853288Y-73299206D01*
X123759887Y-73279353D01*
X123672944Y-73260872D01*
X123672939Y-73260872D01*
X123666487Y-73259500D01*
X123475513Y-73259500D01*
X123469061Y-73260872D01*
X123469056Y-73260872D01*
X123382113Y-73279353D01*
X123288712Y-73299206D01*
X123282682Y-73301891D01*
X123282681Y-73301891D01*
X123120278Y-73374197D01*
X123120276Y-73374198D01*
X123114248Y-73376882D01*
X122959747Y-73489134D01*
X122955326Y-73494044D01*
X122955325Y-73494045D01*
X122854584Y-73605930D01*
X122831960Y-73631056D01*
X122785401Y-73711699D01*
X122742221Y-73786489D01*
X122736473Y-73796444D01*
X122677458Y-73978072D01*
X122676768Y-73984633D01*
X122676768Y-73984635D01*
X122665562Y-74091255D01*
X122657496Y-74168000D01*
X118103751Y-74168000D01*
X118101754Y-74164542D01*
X118087040Y-74139056D01*
X118069309Y-74119363D01*
X117963675Y-74002045D01*
X117963674Y-74002044D01*
X117959253Y-73997134D01*
X117804752Y-73884882D01*
X117798724Y-73882198D01*
X117798722Y-73882197D01*
X117636319Y-73809891D01*
X117636318Y-73809891D01*
X117630288Y-73807206D01*
X117532823Y-73786489D01*
X117449944Y-73768872D01*
X117449939Y-73768872D01*
X117443487Y-73767500D01*
X117252513Y-73767500D01*
X117246061Y-73768872D01*
X117246056Y-73768872D01*
X117163177Y-73786489D01*
X117065712Y-73807206D01*
X117059682Y-73809891D01*
X117059681Y-73809891D01*
X116897278Y-73882197D01*
X116897276Y-73882198D01*
X116891248Y-73884882D01*
X116866522Y-73902847D01*
X116799656Y-73926704D01*
X116730504Y-73910624D01*
X116681024Y-73859711D01*
X116672629Y-73839846D01*
X116660569Y-73802728D01*
X116660568Y-73802726D01*
X116658527Y-73796444D01*
X116652780Y-73786489D01*
X116609599Y-73711699D01*
X116563040Y-73631056D01*
X116540417Y-73605930D01*
X116439675Y-73494045D01*
X116439674Y-73494044D01*
X116435253Y-73489134D01*
X116280752Y-73376882D01*
X116274724Y-73374198D01*
X116274722Y-73374197D01*
X116112319Y-73301891D01*
X116112318Y-73301891D01*
X116106288Y-73299206D01*
X116012887Y-73279353D01*
X115925944Y-73260872D01*
X115925939Y-73260872D01*
X115919487Y-73259500D01*
X115728513Y-73259500D01*
X115722061Y-73260872D01*
X115722056Y-73260872D01*
X115635113Y-73279353D01*
X115541712Y-73299206D01*
X115535682Y-73301891D01*
X115535681Y-73301891D01*
X115373278Y-73374197D01*
X115373276Y-73374198D01*
X115367248Y-73376882D01*
X115212747Y-73489134D01*
X115208332Y-73494037D01*
X115203420Y-73498460D01*
X115202295Y-73497211D01*
X115148986Y-73530051D01*
X115115800Y-73534500D01*
X113593594Y-73534500D01*
X113525473Y-73514498D01*
X113478980Y-73460842D01*
X113468876Y-73390568D01*
X113498370Y-73325988D01*
X113504499Y-73319405D01*
X118279235Y-68544669D01*
X141224001Y-68544669D01*
X141224371Y-68551490D01*
X141229895Y-68602352D01*
X141233521Y-68617604D01*
X141278676Y-68738054D01*
X141287214Y-68753649D01*
X141363715Y-68855724D01*
X141376276Y-68868285D01*
X141478351Y-68944786D01*
X141493946Y-68953324D01*
X141614394Y-68998478D01*
X141629649Y-69002105D01*
X141680514Y-69007631D01*
X141687328Y-69008000D01*
X143999885Y-69008000D01*
X144015124Y-69003525D01*
X144016329Y-69002135D01*
X144018000Y-68994452D01*
X144018000Y-68022115D01*
X144013525Y-68006876D01*
X144012135Y-68005671D01*
X144004452Y-68004000D01*
X141242116Y-68004000D01*
X141226877Y-68008475D01*
X141225672Y-68009865D01*
X141224001Y-68017548D01*
X141224001Y-68544669D01*
X118279235Y-68544669D01*
X119346019Y-67477885D01*
X141224000Y-67477885D01*
X141228475Y-67493124D01*
X141229865Y-67494329D01*
X141237548Y-67496000D01*
X143999885Y-67496000D01*
X144015124Y-67491525D01*
X144016329Y-67490135D01*
X144018000Y-67482452D01*
X144018000Y-66510116D01*
X144013525Y-66494877D01*
X144012135Y-66493672D01*
X144004452Y-66492001D01*
X141687331Y-66492001D01*
X141680510Y-66492371D01*
X141629648Y-66497895D01*
X141614396Y-66501521D01*
X141493946Y-66546676D01*
X141478351Y-66555214D01*
X141376276Y-66631715D01*
X141363715Y-66644276D01*
X141287214Y-66746351D01*
X141278676Y-66761946D01*
X141233522Y-66882394D01*
X141229895Y-66897649D01*
X141224369Y-66948514D01*
X141224000Y-66955328D01*
X141224000Y-67477885D01*
X119346019Y-67477885D01*
X126779235Y-60044669D01*
X141224001Y-60044669D01*
X141224371Y-60051490D01*
X141229895Y-60102352D01*
X141233521Y-60117604D01*
X141278676Y-60238054D01*
X141287214Y-60253649D01*
X141363715Y-60355724D01*
X141376276Y-60368285D01*
X141478351Y-60444786D01*
X141493946Y-60453324D01*
X141614394Y-60498478D01*
X141629649Y-60502105D01*
X141680514Y-60507631D01*
X141687328Y-60508000D01*
X143999885Y-60508000D01*
X144015124Y-60503525D01*
X144016329Y-60502135D01*
X144018000Y-60494452D01*
X144018000Y-59522115D01*
X144013525Y-59506876D01*
X144012135Y-59505671D01*
X144004452Y-59504000D01*
X141242116Y-59504000D01*
X141226877Y-59508475D01*
X141225672Y-59509865D01*
X141224001Y-59517548D01*
X141224001Y-60044669D01*
X126779235Y-60044669D01*
X127846019Y-58977885D01*
X141224000Y-58977885D01*
X141228475Y-58993124D01*
X141229865Y-58994329D01*
X141237548Y-58996000D01*
X143999885Y-58996000D01*
X144015124Y-58991525D01*
X144016329Y-58990135D01*
X144018000Y-58982452D01*
X144018000Y-58010116D01*
X144013525Y-57994877D01*
X144012135Y-57993672D01*
X144004452Y-57992001D01*
X141687331Y-57992001D01*
X141680510Y-57992371D01*
X141629648Y-57997895D01*
X141614396Y-58001521D01*
X141493946Y-58046676D01*
X141478351Y-58055214D01*
X141376276Y-58131715D01*
X141363715Y-58144276D01*
X141287214Y-58246351D01*
X141278676Y-58261946D01*
X141233522Y-58382394D01*
X141229895Y-58397649D01*
X141224369Y-58448514D01*
X141224000Y-58455328D01*
X141224000Y-58977885D01*
X127846019Y-58977885D01*
X128916247Y-57907657D01*
X128924537Y-57900113D01*
X128931018Y-57896000D01*
X128977659Y-57846332D01*
X128980413Y-57843491D01*
X129000134Y-57823770D01*
X129002612Y-57820575D01*
X129010318Y-57811553D01*
X129035158Y-57785101D01*
X129040586Y-57779321D01*
X129048572Y-57764794D01*
X129050346Y-57761568D01*
X129061199Y-57745045D01*
X129068753Y-57735306D01*
X129073613Y-57729041D01*
X129091176Y-57688457D01*
X129096383Y-57677827D01*
X129117695Y-57639060D01*
X129119666Y-57631383D01*
X129119668Y-57631378D01*
X129122732Y-57619442D01*
X129129138Y-57600730D01*
X129134033Y-57589419D01*
X129137181Y-57582145D01*
X129138421Y-57574317D01*
X129138423Y-57574310D01*
X129144099Y-57538476D01*
X129146505Y-57526856D01*
X129155528Y-57491711D01*
X129155528Y-57491710D01*
X129157500Y-57484030D01*
X129157500Y-57463776D01*
X129159051Y-57444065D01*
X129160980Y-57431886D01*
X129162220Y-57424057D01*
X129158059Y-57380038D01*
X129157500Y-57368181D01*
X129157500Y-55856381D01*
X140089160Y-55856381D01*
X140089237Y-55857470D01*
X140091698Y-55861206D01*
X140365632Y-56071404D01*
X140371262Y-56075259D01*
X140671591Y-56257862D01*
X140677593Y-56261080D01*
X140995897Y-56410184D01*
X141002202Y-56412732D01*
X141334743Y-56526587D01*
X141341313Y-56528446D01*
X141684183Y-56605714D01*
X141690912Y-56606853D01*
X142040143Y-56646643D01*
X142046933Y-56647046D01*
X142398419Y-56648886D01*
X142405220Y-56648554D01*
X142754853Y-56612423D01*
X142761581Y-56611357D01*
X143105274Y-56537676D01*
X143111822Y-56535897D01*
X143445549Y-56425527D01*
X143451891Y-56423041D01*
X143771718Y-56277288D01*
X143777777Y-56274121D01*
X144079995Y-56094676D01*
X144085659Y-56090884D01*
X144366732Y-55879849D01*
X144371958Y-55875464D01*
X144381613Y-55866428D01*
X144389682Y-55852750D01*
X144389654Y-55852024D01*
X144384512Y-55843723D01*
X142252810Y-53712020D01*
X142238869Y-53704408D01*
X142237034Y-53704539D01*
X142230420Y-53708790D01*
X140096774Y-55842437D01*
X140089160Y-55856381D01*
X129157500Y-55856381D01*
X129157500Y-54032174D01*
X129177502Y-53964053D01*
X129209439Y-53930238D01*
X129221573Y-53921422D01*
X129262253Y-53891866D01*
X129390040Y-53749944D01*
X129485527Y-53584556D01*
X129544542Y-53402928D01*
X129552015Y-53331832D01*
X138927333Y-53331832D01*
X138945117Y-53682893D01*
X138945827Y-53689649D01*
X139001420Y-54036723D01*
X139002859Y-54043378D01*
X139095608Y-54382410D01*
X139097757Y-54388871D01*
X139226581Y-54715912D01*
X139229412Y-54722095D01*
X139392803Y-55033310D01*
X139396286Y-55039152D01*
X139592330Y-55330896D01*
X139596433Y-55336340D01*
X139716425Y-55478836D01*
X139729164Y-55487279D01*
X139739608Y-55481181D01*
X141867980Y-53352810D01*
X141874357Y-53341131D01*
X142604408Y-53341131D01*
X142604539Y-53342966D01*
X142608790Y-53349580D01*
X144739009Y-55479798D01*
X144752605Y-55487223D01*
X144762218Y-55480522D01*
X144862518Y-55363912D01*
X144866676Y-55358514D01*
X145065762Y-55068840D01*
X145069310Y-55063029D01*
X145235942Y-54753559D01*
X145238849Y-54747381D01*
X145371090Y-54421713D01*
X145373304Y-54415283D01*
X145469598Y-54077237D01*
X145471105Y-54070607D01*
X145530332Y-53724118D01*
X145531112Y-53717378D01*
X145552668Y-53364925D01*
X145552784Y-53361323D01*
X145552853Y-53341819D01*
X145552761Y-53338194D01*
X145533666Y-52985615D01*
X145532931Y-52978849D01*
X145476130Y-52631985D01*
X145474663Y-52625313D01*
X145380736Y-52286627D01*
X145378562Y-52280163D01*
X145248598Y-51953578D01*
X145245742Y-51947398D01*
X145081269Y-51636763D01*
X145077769Y-51630937D01*
X144880697Y-51339862D01*
X144876590Y-51334453D01*
X144763565Y-51201179D01*
X144750740Y-51192743D01*
X144740416Y-51198795D01*
X142612020Y-53327190D01*
X142604408Y-53341131D01*
X141874357Y-53341131D01*
X141875592Y-53338869D01*
X141875461Y-53337034D01*
X141871210Y-53330420D01*
X139740992Y-51200203D01*
X139727455Y-51192811D01*
X139717753Y-51199599D01*
X139610430Y-51325257D01*
X139606296Y-51330664D01*
X139408215Y-51621041D01*
X139404697Y-51626851D01*
X139239134Y-51936922D01*
X139236259Y-51943087D01*
X139105155Y-52269218D01*
X139102962Y-52275658D01*
X139007846Y-52614044D01*
X139006363Y-52620679D01*
X138948350Y-52967354D01*
X138947591Y-52974126D01*
X138927357Y-53325037D01*
X138927333Y-53331832D01*
X129552015Y-53331832D01*
X129563814Y-53219565D01*
X129564504Y-53213000D01*
X129544542Y-53023072D01*
X129485527Y-52841444D01*
X129480075Y-52832000D01*
X129393341Y-52681774D01*
X129390040Y-52676056D01*
X129340179Y-52620679D01*
X129266675Y-52539045D01*
X129266674Y-52539044D01*
X129262253Y-52534134D01*
X129152951Y-52454721D01*
X129113094Y-52425763D01*
X129113093Y-52425762D01*
X129107752Y-52421882D01*
X129101724Y-52419198D01*
X129101722Y-52419197D01*
X128939319Y-52346891D01*
X128939318Y-52346891D01*
X128933288Y-52344206D01*
X128839887Y-52324353D01*
X128752944Y-52305872D01*
X128752939Y-52305872D01*
X128746487Y-52304500D01*
X128555513Y-52304500D01*
X128549061Y-52305872D01*
X128549056Y-52305872D01*
X128462112Y-52324353D01*
X128368712Y-52344206D01*
X128362682Y-52346891D01*
X128362681Y-52346891D01*
X128200278Y-52419197D01*
X128200276Y-52419198D01*
X128194248Y-52421882D01*
X128188907Y-52425762D01*
X128188906Y-52425763D01*
X128149049Y-52454721D01*
X128039747Y-52534134D01*
X128035326Y-52539044D01*
X128035325Y-52539045D01*
X127961822Y-52620679D01*
X127911960Y-52676056D01*
X127908659Y-52681774D01*
X127821926Y-52832000D01*
X127816473Y-52841444D01*
X127757458Y-53023072D01*
X127737496Y-53213000D01*
X127738186Y-53219565D01*
X127749986Y-53331832D01*
X127757458Y-53402928D01*
X127816473Y-53584556D01*
X127819776Y-53590278D01*
X127819777Y-53590279D01*
X127873619Y-53683535D01*
X127890500Y-53746535D01*
X127890500Y-57089405D01*
X127870498Y-57157526D01*
X127853595Y-57178500D01*
X112550500Y-72481595D01*
X112488188Y-72515621D01*
X112461405Y-72518500D01*
X95704200Y-72518500D01*
X95636079Y-72498498D01*
X95616853Y-72482157D01*
X95616580Y-72482460D01*
X95611668Y-72478037D01*
X95607253Y-72473134D01*
X95522668Y-72411679D01*
X95458094Y-72364763D01*
X95458093Y-72364762D01*
X95452752Y-72360882D01*
X95446724Y-72358198D01*
X95446722Y-72358197D01*
X95284319Y-72285891D01*
X95284318Y-72285891D01*
X95278288Y-72283206D01*
X95163656Y-72258840D01*
X95097944Y-72244872D01*
X95097939Y-72244872D01*
X95091487Y-72243500D01*
X94900513Y-72243500D01*
X94894061Y-72244872D01*
X94894056Y-72244872D01*
X94828344Y-72258840D01*
X94713712Y-72283206D01*
X94707682Y-72285891D01*
X94707681Y-72285891D01*
X94552531Y-72354968D01*
X94482164Y-72364402D01*
X94417867Y-72334295D01*
X94380053Y-72274207D01*
X94375972Y-72226690D01*
X94376108Y-72225401D01*
X94385504Y-72136000D01*
X94378701Y-72071277D01*
X94366232Y-71952635D01*
X94366232Y-71952633D01*
X94365542Y-71946072D01*
X94306527Y-71764444D01*
X94211040Y-71599056D01*
X94197629Y-71584161D01*
X94087675Y-71462045D01*
X94087674Y-71462044D01*
X94083253Y-71457134D01*
X93928752Y-71344882D01*
X93922724Y-71342198D01*
X93922722Y-71342197D01*
X93760319Y-71269891D01*
X93760318Y-71269891D01*
X93754288Y-71267206D01*
X93657312Y-71246593D01*
X93573944Y-71228872D01*
X93573939Y-71228872D01*
X93567487Y-71227500D01*
X93376513Y-71227500D01*
X93370061Y-71228872D01*
X93370056Y-71228872D01*
X93286688Y-71246593D01*
X93189712Y-71267206D01*
X93183682Y-71269891D01*
X93183681Y-71269891D01*
X93021278Y-71342197D01*
X93021276Y-71342198D01*
X93015248Y-71344882D01*
X92990522Y-71362847D01*
X92923656Y-71386704D01*
X92854504Y-71370624D01*
X92805024Y-71319711D01*
X92796629Y-71299846D01*
X92790762Y-71281787D01*
X92782527Y-71256444D01*
X92687040Y-71091056D01*
X92610312Y-71005841D01*
X92579595Y-70941833D01*
X92588360Y-70871380D01*
X92614854Y-70832436D01*
X92964374Y-70482916D01*
X93026686Y-70448890D01*
X93053469Y-70446011D01*
X93176722Y-70446011D01*
X93187905Y-70446538D01*
X93195398Y-70448213D01*
X93203324Y-70447964D01*
X93203325Y-70447964D01*
X93263475Y-70446073D01*
X93267434Y-70446011D01*
X93295345Y-70446011D01*
X93299280Y-70445514D01*
X93299345Y-70445506D01*
X93311182Y-70444573D01*
X93343440Y-70443559D01*
X93347459Y-70443433D01*
X93355378Y-70443184D01*
X93374832Y-70437532D01*
X93394189Y-70433524D01*
X93406419Y-70431979D01*
X93406420Y-70431979D01*
X93414286Y-70430985D01*
X93421657Y-70428066D01*
X93421659Y-70428066D01*
X93455401Y-70414707D01*
X93466631Y-70410862D01*
X93501472Y-70400740D01*
X93501473Y-70400740D01*
X93509082Y-70398529D01*
X93515901Y-70394496D01*
X93515906Y-70394494D01*
X93526517Y-70388218D01*
X93544265Y-70379523D01*
X93563106Y-70372063D01*
X93598876Y-70346075D01*
X93608796Y-70339559D01*
X93640024Y-70321091D01*
X93640027Y-70321089D01*
X93646851Y-70317053D01*
X93661172Y-70302732D01*
X93676206Y-70289891D01*
X93686183Y-70282642D01*
X93692596Y-70277983D01*
X93720787Y-70243906D01*
X93728777Y-70235127D01*
X93930499Y-70033405D01*
X93992811Y-69999379D01*
X94019594Y-69996500D01*
X94075487Y-69996500D01*
X94081939Y-69995128D01*
X94081944Y-69995128D01*
X94168888Y-69976647D01*
X94262288Y-69956794D01*
X94358244Y-69914072D01*
X94430722Y-69881803D01*
X94430724Y-69881802D01*
X94436752Y-69879118D01*
X94591253Y-69766866D01*
X94648365Y-69703436D01*
X94708810Y-69666198D01*
X94779794Y-69667550D01*
X94835634Y-69703436D01*
X94892747Y-69766866D01*
X95047248Y-69879118D01*
X95053276Y-69881802D01*
X95053278Y-69881803D01*
X95125756Y-69914072D01*
X95221712Y-69956794D01*
X95315112Y-69976647D01*
X95402056Y-69995128D01*
X95402061Y-69995128D01*
X95408513Y-69996500D01*
X95599487Y-69996500D01*
X95605939Y-69995128D01*
X95605944Y-69995128D01*
X95692888Y-69976647D01*
X95786288Y-69956794D01*
X95882244Y-69914072D01*
X95954722Y-69881803D01*
X95954724Y-69881802D01*
X95960752Y-69879118D01*
X96115253Y-69766866D01*
X96172365Y-69703437D01*
X96238621Y-69629852D01*
X96238622Y-69629851D01*
X96243040Y-69624944D01*
X96338527Y-69459556D01*
X96397542Y-69277928D01*
X96402177Y-69233834D01*
X96416814Y-69094565D01*
X96417504Y-69088000D01*
X96408793Y-69005123D01*
X96398232Y-68904635D01*
X96398232Y-68904633D01*
X96397542Y-68898072D01*
X96338527Y-68716444D01*
X96243040Y-68551056D01*
X96115253Y-68409134D01*
X95960752Y-68296882D01*
X95954724Y-68294198D01*
X95954722Y-68294197D01*
X95792319Y-68221891D01*
X95792318Y-68221891D01*
X95786288Y-68219206D01*
X95692888Y-68199353D01*
X95605944Y-68180872D01*
X95605939Y-68180872D01*
X95599487Y-68179500D01*
X95543595Y-68179500D01*
X95475474Y-68159498D01*
X95454500Y-68142595D01*
X95283141Y-67971236D01*
X95275601Y-67962950D01*
X95271489Y-67956471D01*
X95221837Y-67909845D01*
X95218996Y-67907091D01*
X95199259Y-67887354D01*
X95196062Y-67884874D01*
X95187040Y-67877169D01*
X95173605Y-67864553D01*
X95154810Y-67846903D01*
X95147864Y-67843084D01*
X95147861Y-67843082D01*
X95137055Y-67837141D01*
X95120536Y-67826290D01*
X95120072Y-67825930D01*
X95104530Y-67813875D01*
X95097261Y-67810730D01*
X95097257Y-67810727D01*
X95063952Y-67796315D01*
X95053302Y-67791098D01*
X95014549Y-67769794D01*
X94994926Y-67764756D01*
X94976223Y-67758352D01*
X94964909Y-67753456D01*
X94964908Y-67753456D01*
X94957634Y-67750308D01*
X94949811Y-67749069D01*
X94949801Y-67749066D01*
X94913965Y-67743390D01*
X94902345Y-67740984D01*
X94867200Y-67731961D01*
X94867199Y-67731961D01*
X94859519Y-67729989D01*
X94839265Y-67729989D01*
X94819554Y-67728438D01*
X94807375Y-67726509D01*
X94799546Y-67725269D01*
X94770275Y-67728036D01*
X94755528Y-67729430D01*
X94743670Y-67729989D01*
X85131278Y-67729989D01*
X85120095Y-67729462D01*
X85112602Y-67727787D01*
X85104676Y-67728036D01*
X85104675Y-67728036D01*
X85044525Y-67729927D01*
X85040566Y-67729989D01*
X85012655Y-67729989D01*
X85008721Y-67730486D01*
X85008720Y-67730486D01*
X85008655Y-67730494D01*
X84996818Y-67731427D01*
X84965001Y-67732427D01*
X84960540Y-67732567D01*
X84952621Y-67732816D01*
X84934965Y-67737945D01*
X84933169Y-67738467D01*
X84913817Y-67742475D01*
X84906746Y-67743369D01*
X84893714Y-67745015D01*
X84886345Y-67747932D01*
X84886343Y-67747933D01*
X84852608Y-67761289D01*
X84841380Y-67765134D01*
X84798918Y-67777471D01*
X84792096Y-67781505D01*
X84792090Y-67781508D01*
X84781479Y-67787783D01*
X84763729Y-67796479D01*
X84752267Y-67801017D01*
X84752262Y-67801020D01*
X84744894Y-67803937D01*
X84727481Y-67816588D01*
X84709136Y-67829916D01*
X84699218Y-67836432D01*
X84687974Y-67843082D01*
X84661148Y-67858947D01*
X84646824Y-67873271D01*
X84631792Y-67886110D01*
X84615404Y-67898017D01*
X84587223Y-67932082D01*
X84579233Y-67940862D01*
X82070500Y-70449595D01*
X82008188Y-70483621D01*
X81981405Y-70486500D01*
X81263700Y-70486500D01*
X81195579Y-70466498D01*
X81176353Y-70450157D01*
X81176080Y-70450460D01*
X81171168Y-70446037D01*
X81166753Y-70441134D01*
X81111156Y-70400740D01*
X81017594Y-70332763D01*
X81017593Y-70332762D01*
X81012252Y-70328882D01*
X81006224Y-70326198D01*
X81006222Y-70326197D01*
X80843819Y-70253891D01*
X80843818Y-70253891D01*
X80837788Y-70251206D01*
X80744388Y-70231353D01*
X80657444Y-70212872D01*
X80657439Y-70212872D01*
X80650987Y-70211500D01*
X80460013Y-70211500D01*
X80453561Y-70212872D01*
X80453556Y-70212872D01*
X80366612Y-70231353D01*
X80273212Y-70251206D01*
X80267182Y-70253891D01*
X80267181Y-70253891D01*
X80205925Y-70281164D01*
X80135558Y-70290598D01*
X80071261Y-70260492D01*
X80033447Y-70200403D01*
X80029366Y-70152887D01*
X80033814Y-70110565D01*
X80034504Y-70104000D01*
X80023508Y-69999379D01*
X80015232Y-69920635D01*
X80015232Y-69920633D01*
X80014542Y-69914072D01*
X79955527Y-69732444D01*
X79860040Y-69567056D01*
X79732253Y-69425134D01*
X79577752Y-69312882D01*
X79571724Y-69310198D01*
X79571722Y-69310197D01*
X79409319Y-69237891D01*
X79409318Y-69237891D01*
X79403288Y-69235206D01*
X79309888Y-69215353D01*
X79222944Y-69196872D01*
X79222939Y-69196872D01*
X79216487Y-69195500D01*
X79025513Y-69195500D01*
X79019061Y-69196872D01*
X79019056Y-69196872D01*
X78932112Y-69215353D01*
X78838712Y-69235206D01*
X78832682Y-69237891D01*
X78832681Y-69237891D01*
X78670278Y-69310197D01*
X78670276Y-69310198D01*
X78664248Y-69312882D01*
X78509747Y-69425134D01*
X78381960Y-69567056D01*
X78286473Y-69732444D01*
X78227458Y-69914072D01*
X78226768Y-69920633D01*
X78226768Y-69920635D01*
X78218492Y-69999379D01*
X78207496Y-70104000D01*
X58928000Y-70104000D01*
X58928000Y-65532000D01*
X73254496Y-65532000D01*
X73255186Y-65538565D01*
X73272863Y-65706749D01*
X73274458Y-65721928D01*
X73333473Y-65903556D01*
X73428960Y-66068944D01*
X73556747Y-66210866D01*
X73711248Y-66323118D01*
X73717276Y-66325802D01*
X73717278Y-66325803D01*
X73807563Y-66366000D01*
X73885712Y-66400794D01*
X73979112Y-66420647D01*
X74066056Y-66439128D01*
X74066061Y-66439128D01*
X74072513Y-66440500D01*
X74263487Y-66440500D01*
X74269939Y-66439128D01*
X74269944Y-66439128D01*
X74356888Y-66420647D01*
X74450288Y-66400794D01*
X74528437Y-66366000D01*
X74618722Y-66325803D01*
X74618724Y-66325802D01*
X74624752Y-66323118D01*
X74779253Y-66210866D01*
X74907040Y-66068944D01*
X75002527Y-65903556D01*
X75061542Y-65721928D01*
X75063138Y-65706749D01*
X75080814Y-65538565D01*
X75081504Y-65532000D01*
X75061542Y-65342072D01*
X75002527Y-65160444D01*
X74923751Y-65024000D01*
X90526496Y-65024000D01*
X90546458Y-65213928D01*
X90605473Y-65395556D01*
X90700960Y-65560944D01*
X90828747Y-65702866D01*
X90983248Y-65815118D01*
X90989276Y-65817802D01*
X90989278Y-65817803D01*
X91151681Y-65890109D01*
X91157712Y-65892794D01*
X91251112Y-65912647D01*
X91338056Y-65931128D01*
X91338061Y-65931128D01*
X91344513Y-65932500D01*
X91535487Y-65932500D01*
X91541939Y-65931128D01*
X91541944Y-65931128D01*
X91628888Y-65912647D01*
X91722288Y-65892794D01*
X91728319Y-65890109D01*
X91890722Y-65817803D01*
X91890724Y-65817802D01*
X91896752Y-65815118D01*
X92051253Y-65702866D01*
X92179040Y-65560944D01*
X92274527Y-65395556D01*
X92333542Y-65213928D01*
X92353504Y-65024000D01*
X92336062Y-64858045D01*
X92334232Y-64840635D01*
X92334232Y-64840633D01*
X92333542Y-64834072D01*
X92274527Y-64652444D01*
X92179040Y-64487056D01*
X92051253Y-64345134D01*
X91896752Y-64232882D01*
X91890724Y-64230198D01*
X91890722Y-64230197D01*
X91728319Y-64157891D01*
X91728318Y-64157891D01*
X91722288Y-64155206D01*
X91628887Y-64135353D01*
X91541944Y-64116872D01*
X91541939Y-64116872D01*
X91535487Y-64115500D01*
X91344513Y-64115500D01*
X91338061Y-64116872D01*
X91338056Y-64116872D01*
X91251113Y-64135353D01*
X91157712Y-64155206D01*
X91151682Y-64157891D01*
X91151681Y-64157891D01*
X90989278Y-64230197D01*
X90989276Y-64230198D01*
X90983248Y-64232882D01*
X90828747Y-64345134D01*
X90700960Y-64487056D01*
X90605473Y-64652444D01*
X90546458Y-64834072D01*
X90545768Y-64840633D01*
X90545768Y-64840635D01*
X90543938Y-64858045D01*
X90526496Y-65024000D01*
X74923751Y-65024000D01*
X74907040Y-64995056D01*
X74779253Y-64853134D01*
X74624752Y-64740882D01*
X74618724Y-64738198D01*
X74618722Y-64738197D01*
X74456319Y-64665891D01*
X74456318Y-64665891D01*
X74450288Y-64663206D01*
X74356887Y-64643353D01*
X74269944Y-64624872D01*
X74269939Y-64624872D01*
X74263487Y-64623500D01*
X74072513Y-64623500D01*
X74066061Y-64624872D01*
X74066056Y-64624872D01*
X73979113Y-64643353D01*
X73885712Y-64663206D01*
X73879682Y-64665891D01*
X73879681Y-64665891D01*
X73717278Y-64738197D01*
X73717276Y-64738198D01*
X73711248Y-64740882D01*
X73556747Y-64853134D01*
X73428960Y-64995056D01*
X73333473Y-65160444D01*
X73274458Y-65342072D01*
X73254496Y-65532000D01*
X58928000Y-65532000D01*
X58928000Y-61397604D01*
X62112787Y-61397604D01*
X62122567Y-61608899D01*
X62172125Y-61814534D01*
X62174607Y-61819992D01*
X62174608Y-61819996D01*
X62216408Y-61911928D01*
X62259674Y-62007087D01*
X62382054Y-62179611D01*
X62534850Y-62325881D01*
X62712548Y-62440620D01*
X62718114Y-62442863D01*
X62903168Y-62517442D01*
X62903171Y-62517443D01*
X62908737Y-62519686D01*
X63116337Y-62560228D01*
X63121899Y-62560500D01*
X63827846Y-62560500D01*
X63985566Y-62545452D01*
X64188534Y-62485908D01*
X64272111Y-62442863D01*
X64371249Y-62391804D01*
X64371252Y-62391802D01*
X64376580Y-62389058D01*
X64542920Y-62258396D01*
X64546852Y-62253865D01*
X64546855Y-62253862D01*
X64677621Y-62103167D01*
X64681552Y-62098637D01*
X64684552Y-62093451D01*
X64684555Y-62093447D01*
X64784467Y-61920742D01*
X64787473Y-61915546D01*
X64854683Y-61722000D01*
X105766496Y-61722000D01*
X105767186Y-61728565D01*
X105776222Y-61814534D01*
X105786458Y-61911928D01*
X105845473Y-62093556D01*
X105940960Y-62258944D01*
X105945378Y-62263851D01*
X105945379Y-62263852D01*
X106064325Y-62395955D01*
X106068747Y-62400866D01*
X106223248Y-62513118D01*
X106229276Y-62515802D01*
X106229278Y-62515803D01*
X106327103Y-62559357D01*
X106397712Y-62590794D01*
X106491113Y-62610647D01*
X106578056Y-62629128D01*
X106578061Y-62629128D01*
X106584513Y-62630500D01*
X106775487Y-62630500D01*
X106781939Y-62629128D01*
X106781944Y-62629128D01*
X106868887Y-62610647D01*
X106962288Y-62590794D01*
X107032897Y-62559357D01*
X107130722Y-62515803D01*
X107130724Y-62515802D01*
X107136752Y-62513118D01*
X107291253Y-62400866D01*
X107295675Y-62395955D01*
X107414621Y-62263852D01*
X107414622Y-62263851D01*
X107419040Y-62258944D01*
X107514527Y-62093556D01*
X107573542Y-61911928D01*
X107583779Y-61814534D01*
X107592814Y-61728565D01*
X107593504Y-61722000D01*
X107573542Y-61532072D01*
X107514527Y-61350444D01*
X107419040Y-61185056D01*
X107332971Y-61089466D01*
X107295675Y-61048045D01*
X107295674Y-61048044D01*
X107291253Y-61043134D01*
X107136752Y-60930882D01*
X107130724Y-60928198D01*
X107130722Y-60928197D01*
X106968319Y-60855891D01*
X106968318Y-60855891D01*
X106962288Y-60853206D01*
X106868887Y-60833353D01*
X106781944Y-60814872D01*
X106781939Y-60814872D01*
X106775487Y-60813500D01*
X106584513Y-60813500D01*
X106578061Y-60814872D01*
X106578056Y-60814872D01*
X106491113Y-60833353D01*
X106397712Y-60853206D01*
X106391682Y-60855891D01*
X106391681Y-60855891D01*
X106229278Y-60928197D01*
X106229276Y-60928198D01*
X106223248Y-60930882D01*
X106068747Y-61043134D01*
X106064326Y-61048044D01*
X106064325Y-61048045D01*
X106027030Y-61089466D01*
X105940960Y-61185056D01*
X105845473Y-61350444D01*
X105786458Y-61532072D01*
X105766496Y-61722000D01*
X64854683Y-61722000D01*
X64856861Y-61715729D01*
X64883490Y-61532072D01*
X64886352Y-61512336D01*
X64886352Y-61512333D01*
X64887213Y-61506396D01*
X64877433Y-61295101D01*
X64827875Y-61089466D01*
X64784525Y-60994122D01*
X64742806Y-60902368D01*
X64740326Y-60896913D01*
X64617946Y-60724389D01*
X64613623Y-60720251D01*
X64613619Y-60720246D01*
X64522309Y-60632836D01*
X64486933Y-60571280D01*
X64490452Y-60500371D01*
X64531749Y-60442621D01*
X64543137Y-60434674D01*
X64592807Y-60403937D01*
X64604208Y-60394901D01*
X64718739Y-60280171D01*
X64727751Y-60268760D01*
X64812816Y-60130757D01*
X64818963Y-60117576D01*
X64870138Y-59963290D01*
X64873005Y-59949914D01*
X64882672Y-59855562D01*
X64883000Y-59849146D01*
X64883000Y-59724115D01*
X64878525Y-59708876D01*
X64877135Y-59707671D01*
X64869452Y-59706000D01*
X62135116Y-59706000D01*
X62119877Y-59710475D01*
X62118672Y-59711865D01*
X62117001Y-59719548D01*
X62117001Y-59849095D01*
X62117338Y-59855614D01*
X62127257Y-59951206D01*
X62130149Y-59964600D01*
X62181588Y-60118784D01*
X62187761Y-60131962D01*
X62273063Y-60269807D01*
X62282099Y-60281208D01*
X62396829Y-60395739D01*
X62408240Y-60404751D01*
X62453655Y-60432745D01*
X62501148Y-60485517D01*
X62512572Y-60555589D01*
X62484298Y-60620713D01*
X62465375Y-60639088D01*
X62457080Y-60645604D01*
X62453148Y-60650135D01*
X62453145Y-60650138D01*
X62384474Y-60729275D01*
X62318448Y-60805363D01*
X62315448Y-60810549D01*
X62315445Y-60810553D01*
X62245833Y-60930882D01*
X62212527Y-60988454D01*
X62143139Y-61188271D01*
X62142278Y-61194206D01*
X62142278Y-61194208D01*
X62118714Y-61356729D01*
X62112787Y-61397604D01*
X58928000Y-61397604D01*
X58928000Y-59179885D01*
X62117000Y-59179885D01*
X62121475Y-59195124D01*
X62122865Y-59196329D01*
X62130548Y-59198000D01*
X63227885Y-59198000D01*
X63243124Y-59193525D01*
X63244329Y-59192135D01*
X63246000Y-59184452D01*
X63246000Y-59179885D01*
X63754000Y-59179885D01*
X63758475Y-59195124D01*
X63759865Y-59196329D01*
X63767548Y-59198000D01*
X64864884Y-59198000D01*
X64880123Y-59193525D01*
X64881328Y-59192135D01*
X64882999Y-59184452D01*
X64882999Y-59054905D01*
X64882662Y-59048386D01*
X64872743Y-58952794D01*
X64869851Y-58939400D01*
X64818412Y-58785216D01*
X64812239Y-58772038D01*
X64726937Y-58634193D01*
X64717901Y-58622792D01*
X64603171Y-58508261D01*
X64591760Y-58499249D01*
X64453757Y-58414184D01*
X64440576Y-58408037D01*
X64286290Y-58356862D01*
X64272914Y-58353995D01*
X64178562Y-58344328D01*
X64172145Y-58344000D01*
X63772115Y-58344000D01*
X63756876Y-58348475D01*
X63755671Y-58349865D01*
X63754000Y-58357548D01*
X63754000Y-59179885D01*
X63246000Y-59179885D01*
X63246000Y-58362116D01*
X63241525Y-58346877D01*
X63240135Y-58345672D01*
X63232452Y-58344001D01*
X62827905Y-58344001D01*
X62821386Y-58344338D01*
X62725794Y-58354257D01*
X62712400Y-58357149D01*
X62558216Y-58408588D01*
X62545038Y-58414761D01*
X62407193Y-58500063D01*
X62395792Y-58509099D01*
X62281261Y-58623829D01*
X62272249Y-58635240D01*
X62187184Y-58773243D01*
X62181037Y-58786424D01*
X62129862Y-58940710D01*
X62126995Y-58954086D01*
X62117328Y-59048438D01*
X62117000Y-59054855D01*
X62117000Y-59179885D01*
X58928000Y-59179885D01*
X58928000Y-56896000D01*
X74778496Y-56896000D01*
X74798458Y-57085928D01*
X74857473Y-57267556D01*
X74952960Y-57432944D01*
X75080747Y-57574866D01*
X75235248Y-57687118D01*
X75241276Y-57689802D01*
X75241278Y-57689803D01*
X75382948Y-57752878D01*
X75409712Y-57764794D01*
X75478056Y-57779321D01*
X75590056Y-57803128D01*
X75590061Y-57803128D01*
X75596513Y-57804500D01*
X75787487Y-57804500D01*
X75793939Y-57803128D01*
X75793944Y-57803128D01*
X75905944Y-57779321D01*
X75974288Y-57764794D01*
X76001052Y-57752878D01*
X76142722Y-57689803D01*
X76142724Y-57689802D01*
X76148752Y-57687118D01*
X76303253Y-57574866D01*
X76431040Y-57432944D01*
X76526527Y-57267556D01*
X76585542Y-57085928D01*
X76605504Y-56896000D01*
X76585542Y-56706072D01*
X76526527Y-56524444D01*
X76431040Y-56359056D01*
X76303253Y-56217134D01*
X76148752Y-56104882D01*
X76142724Y-56102198D01*
X76142722Y-56102197D01*
X75980319Y-56029891D01*
X75980318Y-56029891D01*
X75974288Y-56027206D01*
X75880887Y-56007353D01*
X75793944Y-55988872D01*
X75793939Y-55988872D01*
X75787487Y-55987500D01*
X75596513Y-55987500D01*
X75590061Y-55988872D01*
X75590056Y-55988872D01*
X75503113Y-56007353D01*
X75409712Y-56027206D01*
X75403682Y-56029891D01*
X75403681Y-56029891D01*
X75241278Y-56102197D01*
X75241276Y-56102198D01*
X75235248Y-56104882D01*
X75080747Y-56217134D01*
X74952960Y-56359056D01*
X74857473Y-56524444D01*
X74798458Y-56706072D01*
X74778496Y-56896000D01*
X58928000Y-56896000D01*
X58928000Y-55856381D01*
X61349160Y-55856381D01*
X61349237Y-55857470D01*
X61351698Y-55861206D01*
X61625632Y-56071404D01*
X61631262Y-56075259D01*
X61931591Y-56257862D01*
X61937593Y-56261080D01*
X62255897Y-56410184D01*
X62262202Y-56412732D01*
X62594743Y-56526587D01*
X62601313Y-56528446D01*
X62944183Y-56605714D01*
X62950912Y-56606853D01*
X63300143Y-56646643D01*
X63306933Y-56647046D01*
X63658419Y-56648886D01*
X63665220Y-56648554D01*
X64014853Y-56612423D01*
X64021581Y-56611357D01*
X64365274Y-56537676D01*
X64371822Y-56535897D01*
X64705549Y-56425527D01*
X64711891Y-56423041D01*
X65031718Y-56277288D01*
X65037777Y-56274121D01*
X65339995Y-56094676D01*
X65345659Y-56090884D01*
X65626732Y-55879849D01*
X65631958Y-55875464D01*
X65641613Y-55866428D01*
X65649682Y-55852750D01*
X65649654Y-55852024D01*
X65644512Y-55843723D01*
X63512810Y-53712020D01*
X63498869Y-53704408D01*
X63497034Y-53704539D01*
X63490420Y-53708790D01*
X61356774Y-55842437D01*
X61349160Y-55856381D01*
X58928000Y-55856381D01*
X58928000Y-53331832D01*
X60187333Y-53331832D01*
X60205117Y-53682893D01*
X60205827Y-53689649D01*
X60261420Y-54036723D01*
X60262859Y-54043378D01*
X60355608Y-54382410D01*
X60357757Y-54388871D01*
X60486581Y-54715912D01*
X60489412Y-54722095D01*
X60652803Y-55033310D01*
X60656286Y-55039152D01*
X60852330Y-55330896D01*
X60856433Y-55336340D01*
X60976425Y-55478836D01*
X60989164Y-55487279D01*
X60999608Y-55481181D01*
X63127980Y-53352810D01*
X63134357Y-53341131D01*
X63864408Y-53341131D01*
X63864539Y-53342966D01*
X63868790Y-53349580D01*
X65999009Y-55479798D01*
X66012605Y-55487223D01*
X66022218Y-55480522D01*
X66122518Y-55363912D01*
X66126676Y-55358514D01*
X66325762Y-55068840D01*
X66329310Y-55063029D01*
X66495942Y-54753559D01*
X66498849Y-54747381D01*
X66631090Y-54421713D01*
X66633304Y-54415283D01*
X66729598Y-54077237D01*
X66731105Y-54070607D01*
X66790332Y-53724118D01*
X66791112Y-53717378D01*
X66812668Y-53364925D01*
X66812784Y-53361323D01*
X66812853Y-53341819D01*
X66812761Y-53338194D01*
X66793666Y-52985615D01*
X66792931Y-52978849D01*
X66768884Y-52832000D01*
X75286496Y-52832000D01*
X75306458Y-53021928D01*
X75365473Y-53203556D01*
X75368776Y-53209278D01*
X75368777Y-53209279D01*
X75374716Y-53219565D01*
X75460960Y-53368944D01*
X75588747Y-53510866D01*
X75743248Y-53623118D01*
X75749276Y-53625802D01*
X75749278Y-53625803D01*
X75911681Y-53698109D01*
X75917712Y-53700794D01*
X76011113Y-53720647D01*
X76098056Y-53739128D01*
X76098061Y-53739128D01*
X76104513Y-53740500D01*
X76295487Y-53740500D01*
X76301939Y-53739128D01*
X76301944Y-53739128D01*
X76388888Y-53720647D01*
X76482288Y-53700794D01*
X76488319Y-53698109D01*
X76650722Y-53625803D01*
X76650724Y-53625802D01*
X76656752Y-53623118D01*
X76811253Y-53510866D01*
X76939040Y-53368944D01*
X77025284Y-53219565D01*
X77031223Y-53209279D01*
X77031224Y-53209278D01*
X77034527Y-53203556D01*
X77093542Y-53021928D01*
X77113504Y-52832000D01*
X87986496Y-52832000D01*
X88006458Y-53021928D01*
X88065473Y-53203556D01*
X88068776Y-53209278D01*
X88068777Y-53209279D01*
X88074716Y-53219565D01*
X88160960Y-53368944D01*
X88288747Y-53510866D01*
X88443248Y-53623118D01*
X88449276Y-53625802D01*
X88449278Y-53625803D01*
X88611681Y-53698109D01*
X88617712Y-53700794D01*
X88711113Y-53720647D01*
X88798056Y-53739128D01*
X88798061Y-53739128D01*
X88804513Y-53740500D01*
X88995487Y-53740500D01*
X89001939Y-53739128D01*
X89001944Y-53739128D01*
X89088888Y-53720647D01*
X89182288Y-53700794D01*
X89188319Y-53698109D01*
X89350722Y-53625803D01*
X89350724Y-53625802D01*
X89356752Y-53623118D01*
X89511253Y-53510866D01*
X89639040Y-53368944D01*
X89655751Y-53340000D01*
X125197496Y-53340000D01*
X125198186Y-53346565D01*
X125215863Y-53514749D01*
X125217458Y-53529928D01*
X125276473Y-53711556D01*
X125371960Y-53876944D01*
X125499747Y-54018866D01*
X125654248Y-54131118D01*
X125660276Y-54133802D01*
X125660278Y-54133803D01*
X125822681Y-54206109D01*
X125828712Y-54208794D01*
X125922112Y-54228647D01*
X126009056Y-54247128D01*
X126009061Y-54247128D01*
X126015513Y-54248500D01*
X126206487Y-54248500D01*
X126212939Y-54247128D01*
X126212944Y-54247128D01*
X126299888Y-54228647D01*
X126393288Y-54208794D01*
X126399319Y-54206109D01*
X126561722Y-54133803D01*
X126561724Y-54133802D01*
X126567752Y-54131118D01*
X126722253Y-54018866D01*
X126850040Y-53876944D01*
X126945527Y-53711556D01*
X127004542Y-53529928D01*
X127006138Y-53514749D01*
X127023814Y-53346565D01*
X127024504Y-53340000D01*
X127004542Y-53150072D01*
X126945527Y-52968444D01*
X126850040Y-52803056D01*
X126722253Y-52661134D01*
X126567752Y-52548882D01*
X126561724Y-52546198D01*
X126561722Y-52546197D01*
X126399319Y-52473891D01*
X126399318Y-52473891D01*
X126393288Y-52471206D01*
X126299887Y-52451353D01*
X126212944Y-52432872D01*
X126212939Y-52432872D01*
X126206487Y-52431500D01*
X126015513Y-52431500D01*
X126009061Y-52432872D01*
X126009056Y-52432872D01*
X125922113Y-52451353D01*
X125828712Y-52471206D01*
X125822682Y-52473891D01*
X125822681Y-52473891D01*
X125660278Y-52546197D01*
X125660276Y-52546198D01*
X125654248Y-52548882D01*
X125499747Y-52661134D01*
X125371960Y-52803056D01*
X125276473Y-52968444D01*
X125217458Y-53150072D01*
X125197496Y-53340000D01*
X89655751Y-53340000D01*
X89725284Y-53219565D01*
X89731223Y-53209279D01*
X89731224Y-53209278D01*
X89734527Y-53203556D01*
X89793542Y-53021928D01*
X89813504Y-52832000D01*
X89796062Y-52666045D01*
X89794232Y-52648635D01*
X89794232Y-52648633D01*
X89793542Y-52642072D01*
X89734527Y-52460444D01*
X89639040Y-52295056D01*
X89615776Y-52269218D01*
X89515675Y-52158045D01*
X89515674Y-52158044D01*
X89511253Y-52153134D01*
X89356752Y-52040882D01*
X89350724Y-52038198D01*
X89350722Y-52038197D01*
X89188319Y-51965891D01*
X89188318Y-51965891D01*
X89182288Y-51963206D01*
X89087636Y-51943087D01*
X89001944Y-51924872D01*
X89001939Y-51924872D01*
X88995487Y-51923500D01*
X88804513Y-51923500D01*
X88798061Y-51924872D01*
X88798056Y-51924872D01*
X88712364Y-51943087D01*
X88617712Y-51963206D01*
X88611682Y-51965891D01*
X88611681Y-51965891D01*
X88449278Y-52038197D01*
X88449276Y-52038198D01*
X88443248Y-52040882D01*
X88288747Y-52153134D01*
X88284326Y-52158044D01*
X88284325Y-52158045D01*
X88184225Y-52269218D01*
X88160960Y-52295056D01*
X88065473Y-52460444D01*
X88006458Y-52642072D01*
X88005768Y-52648633D01*
X88005768Y-52648635D01*
X88003938Y-52666045D01*
X87986496Y-52832000D01*
X77113504Y-52832000D01*
X77096062Y-52666045D01*
X77094232Y-52648635D01*
X77094232Y-52648633D01*
X77093542Y-52642072D01*
X77034527Y-52460444D01*
X76939040Y-52295056D01*
X76915776Y-52269218D01*
X76815675Y-52158045D01*
X76815674Y-52158044D01*
X76811253Y-52153134D01*
X76656752Y-52040882D01*
X76650724Y-52038198D01*
X76650722Y-52038197D01*
X76488319Y-51965891D01*
X76488318Y-51965891D01*
X76482288Y-51963206D01*
X76387636Y-51943087D01*
X76301944Y-51924872D01*
X76301939Y-51924872D01*
X76295487Y-51923500D01*
X76104513Y-51923500D01*
X76098061Y-51924872D01*
X76098056Y-51924872D01*
X76012364Y-51943087D01*
X75917712Y-51963206D01*
X75911682Y-51965891D01*
X75911681Y-51965891D01*
X75749278Y-52038197D01*
X75749276Y-52038198D01*
X75743248Y-52040882D01*
X75588747Y-52153134D01*
X75584326Y-52158044D01*
X75584325Y-52158045D01*
X75484225Y-52269218D01*
X75460960Y-52295056D01*
X75365473Y-52460444D01*
X75306458Y-52642072D01*
X75305768Y-52648633D01*
X75305768Y-52648635D01*
X75303938Y-52666045D01*
X75286496Y-52832000D01*
X66768884Y-52832000D01*
X66736130Y-52631985D01*
X66734663Y-52625313D01*
X66640736Y-52286627D01*
X66638562Y-52280163D01*
X66508598Y-51953578D01*
X66505742Y-51947398D01*
X66341269Y-51636763D01*
X66337769Y-51630937D01*
X66205110Y-51435000D01*
X70841496Y-51435000D01*
X70861458Y-51624928D01*
X70920473Y-51806556D01*
X71015960Y-51971944D01*
X71020378Y-51976851D01*
X71020379Y-51976852D01*
X71130468Y-52099118D01*
X71143747Y-52113866D01*
X71161519Y-52126778D01*
X71283122Y-52215128D01*
X71298248Y-52226118D01*
X71304276Y-52228802D01*
X71304278Y-52228803D01*
X71434154Y-52286627D01*
X71472712Y-52303794D01*
X71566112Y-52323647D01*
X71653056Y-52342128D01*
X71653061Y-52342128D01*
X71659513Y-52343500D01*
X71850487Y-52343500D01*
X71856939Y-52342128D01*
X71856944Y-52342128D01*
X71943888Y-52323647D01*
X72037288Y-52303794D01*
X72075846Y-52286627D01*
X72205722Y-52228803D01*
X72205724Y-52228802D01*
X72211752Y-52226118D01*
X72226879Y-52215128D01*
X72348481Y-52126778D01*
X72366253Y-52113866D01*
X72378252Y-52100540D01*
X72438696Y-52063302D01*
X72509680Y-52064654D01*
X72545945Y-52082915D01*
X72562902Y-52095235D01*
X72562909Y-52095239D01*
X72568248Y-52099118D01*
X72574276Y-52101802D01*
X72574278Y-52101803D01*
X72736681Y-52174109D01*
X72742712Y-52176794D01*
X72836113Y-52196647D01*
X72923056Y-52215128D01*
X72923061Y-52215128D01*
X72929513Y-52216500D01*
X73120487Y-52216500D01*
X73126939Y-52215128D01*
X73126944Y-52215128D01*
X73213888Y-52196647D01*
X73307288Y-52176794D01*
X73360430Y-52153134D01*
X73449209Y-52113607D01*
X73519576Y-52104173D01*
X73574519Y-52126778D01*
X73696122Y-52215128D01*
X73711248Y-52226118D01*
X73717276Y-52228802D01*
X73717278Y-52228803D01*
X73847154Y-52286627D01*
X73885712Y-52303794D01*
X73979112Y-52323647D01*
X74066056Y-52342128D01*
X74066061Y-52342128D01*
X74072513Y-52343500D01*
X74263487Y-52343500D01*
X74269939Y-52342128D01*
X74269944Y-52342128D01*
X74356888Y-52323647D01*
X74450288Y-52303794D01*
X74488846Y-52286627D01*
X74618722Y-52228803D01*
X74618724Y-52228802D01*
X74624752Y-52226118D01*
X74639879Y-52215128D01*
X74761481Y-52126778D01*
X74779253Y-52113866D01*
X74792532Y-52099118D01*
X74902621Y-51976852D01*
X74902622Y-51976851D01*
X74907040Y-51971944D01*
X75002527Y-51806556D01*
X75061542Y-51624928D01*
X75081504Y-51435000D01*
X81890496Y-51435000D01*
X81910458Y-51624928D01*
X81969473Y-51806556D01*
X82064960Y-51971944D01*
X82069378Y-51976851D01*
X82069379Y-51976852D01*
X82179468Y-52099118D01*
X82192747Y-52113866D01*
X82210519Y-52126778D01*
X82332122Y-52215128D01*
X82347248Y-52226118D01*
X82353276Y-52228802D01*
X82353278Y-52228803D01*
X82483154Y-52286627D01*
X82521712Y-52303794D01*
X82615112Y-52323647D01*
X82702056Y-52342128D01*
X82702061Y-52342128D01*
X82708513Y-52343500D01*
X82899487Y-52343500D01*
X82905939Y-52342128D01*
X82905944Y-52342128D01*
X82992888Y-52323647D01*
X83086288Y-52303794D01*
X83124846Y-52286627D01*
X83254722Y-52228803D01*
X83254724Y-52228802D01*
X83260752Y-52226118D01*
X83275879Y-52215128D01*
X83397481Y-52126778D01*
X83415253Y-52113866D01*
X83427252Y-52100540D01*
X83487696Y-52063302D01*
X83558680Y-52064654D01*
X83594945Y-52082915D01*
X83611902Y-52095235D01*
X83611909Y-52095239D01*
X83617248Y-52099118D01*
X83623276Y-52101802D01*
X83623278Y-52101803D01*
X83785681Y-52174109D01*
X83791712Y-52176794D01*
X83885113Y-52196647D01*
X83972056Y-52215128D01*
X83972061Y-52215128D01*
X83978513Y-52216500D01*
X84169487Y-52216500D01*
X84175939Y-52215128D01*
X84175944Y-52215128D01*
X84262888Y-52196647D01*
X84356288Y-52176794D01*
X84362319Y-52174109D01*
X84524722Y-52101803D01*
X84524724Y-52101802D01*
X84530752Y-52099118D01*
X84536091Y-52095239D01*
X84536098Y-52095235D01*
X84553055Y-52082915D01*
X84619923Y-52059057D01*
X84689074Y-52075139D01*
X84720747Y-52100538D01*
X84732747Y-52113866D01*
X84750519Y-52126778D01*
X84872122Y-52215128D01*
X84887248Y-52226118D01*
X84893276Y-52228802D01*
X84893278Y-52228803D01*
X85023154Y-52286627D01*
X85061712Y-52303794D01*
X85155112Y-52323647D01*
X85242056Y-52342128D01*
X85242061Y-52342128D01*
X85248513Y-52343500D01*
X85439487Y-52343500D01*
X85445939Y-52342128D01*
X85445944Y-52342128D01*
X85532888Y-52323647D01*
X85626288Y-52303794D01*
X85664846Y-52286627D01*
X85794722Y-52228803D01*
X85794724Y-52228802D01*
X85800752Y-52226118D01*
X85815879Y-52215128D01*
X85937481Y-52126778D01*
X85955253Y-52113866D01*
X85968532Y-52099118D01*
X86078621Y-51976852D01*
X86078622Y-51976851D01*
X86083040Y-51971944D01*
X86178527Y-51806556D01*
X86237542Y-51624928D01*
X86257504Y-51435000D01*
X86237542Y-51245072D01*
X86178527Y-51063444D01*
X86083040Y-50898056D01*
X86018937Y-50826862D01*
X140089950Y-50826862D01*
X140089986Y-50827704D01*
X140095037Y-50835826D01*
X142227190Y-52967980D01*
X142241131Y-52975592D01*
X142242966Y-52975461D01*
X142249580Y-52971210D01*
X144382798Y-50837991D01*
X144390412Y-50824047D01*
X144390344Y-50823089D01*
X144385836Y-50816272D01*
X144384418Y-50815065D01*
X144104813Y-50602064D01*
X144099187Y-50598240D01*
X143798214Y-50416681D01*
X143792202Y-50413484D01*
X143473370Y-50265487D01*
X143467070Y-50262967D01*
X143134129Y-50150273D01*
X143127551Y-50148437D01*
X142784417Y-50072367D01*
X142777678Y-50071251D01*
X142428310Y-50032680D01*
X142421529Y-50032301D01*
X142070015Y-50031687D01*
X142063242Y-50032042D01*
X141713720Y-50069395D01*
X141707010Y-50070482D01*
X141363586Y-50145361D01*
X141357011Y-50147172D01*
X141023683Y-50258702D01*
X141017361Y-50261205D01*
X140698034Y-50408079D01*
X140691991Y-50411265D01*
X140390401Y-50591763D01*
X140384755Y-50595571D01*
X140104408Y-50807596D01*
X140099211Y-50811987D01*
X140097972Y-50813155D01*
X140089950Y-50826862D01*
X86018937Y-50826862D01*
X86015540Y-50823089D01*
X85959675Y-50761045D01*
X85959674Y-50761044D01*
X85955253Y-50756134D01*
X85848187Y-50678346D01*
X85806094Y-50647763D01*
X85806093Y-50647762D01*
X85800752Y-50643882D01*
X85794724Y-50641198D01*
X85794722Y-50641197D01*
X85632319Y-50568891D01*
X85632318Y-50568891D01*
X85626288Y-50566206D01*
X85532888Y-50546353D01*
X85445944Y-50527872D01*
X85445939Y-50527872D01*
X85439487Y-50526500D01*
X85248513Y-50526500D01*
X85242061Y-50527872D01*
X85242056Y-50527872D01*
X85155113Y-50546353D01*
X85061712Y-50566206D01*
X85055682Y-50568891D01*
X85055681Y-50568891D01*
X84893278Y-50641197D01*
X84893276Y-50641198D01*
X84887248Y-50643882D01*
X84881909Y-50647761D01*
X84881902Y-50647765D01*
X84864945Y-50660085D01*
X84798077Y-50683943D01*
X84728926Y-50667861D01*
X84697253Y-50642462D01*
X84685253Y-50629134D01*
X84586157Y-50557136D01*
X84536094Y-50520763D01*
X84536093Y-50520762D01*
X84530752Y-50516882D01*
X84524724Y-50514198D01*
X84524722Y-50514197D01*
X84362319Y-50441891D01*
X84362318Y-50441891D01*
X84356288Y-50439206D01*
X84250317Y-50416681D01*
X84175944Y-50400872D01*
X84175939Y-50400872D01*
X84169487Y-50399500D01*
X83978513Y-50399500D01*
X83972061Y-50400872D01*
X83972056Y-50400872D01*
X83897683Y-50416681D01*
X83791712Y-50439206D01*
X83785682Y-50441891D01*
X83785681Y-50441891D01*
X83623278Y-50514197D01*
X83623276Y-50514198D01*
X83617248Y-50516882D01*
X83611907Y-50520762D01*
X83611906Y-50520763D01*
X83561843Y-50557136D01*
X83462747Y-50629134D01*
X83450748Y-50642460D01*
X83390304Y-50679698D01*
X83319320Y-50678346D01*
X83283055Y-50660085D01*
X83266098Y-50647765D01*
X83266091Y-50647761D01*
X83260752Y-50643882D01*
X83254724Y-50641198D01*
X83254722Y-50641197D01*
X83092319Y-50568891D01*
X83092318Y-50568891D01*
X83086288Y-50566206D01*
X82992888Y-50546353D01*
X82905944Y-50527872D01*
X82905939Y-50527872D01*
X82899487Y-50526500D01*
X82708513Y-50526500D01*
X82702061Y-50527872D01*
X82702056Y-50527872D01*
X82615113Y-50546353D01*
X82521712Y-50566206D01*
X82515682Y-50568891D01*
X82515681Y-50568891D01*
X82353278Y-50641197D01*
X82353276Y-50641198D01*
X82347248Y-50643882D01*
X82341907Y-50647762D01*
X82341906Y-50647763D01*
X82299813Y-50678346D01*
X82192747Y-50756134D01*
X82188326Y-50761044D01*
X82188325Y-50761045D01*
X82132461Y-50823089D01*
X82064960Y-50898056D01*
X81969473Y-51063444D01*
X81910458Y-51245072D01*
X81890496Y-51435000D01*
X75081504Y-51435000D01*
X75061542Y-51245072D01*
X75002527Y-51063444D01*
X74907040Y-50898056D01*
X74839540Y-50823089D01*
X74783675Y-50761045D01*
X74783674Y-50761044D01*
X74779253Y-50756134D01*
X74672187Y-50678346D01*
X74630094Y-50647763D01*
X74630093Y-50647762D01*
X74624752Y-50643882D01*
X74618724Y-50641198D01*
X74618722Y-50641197D01*
X74456319Y-50568891D01*
X74456318Y-50568891D01*
X74450288Y-50566206D01*
X74356888Y-50546353D01*
X74269944Y-50527872D01*
X74269939Y-50527872D01*
X74263487Y-50526500D01*
X74072513Y-50526500D01*
X74066061Y-50527872D01*
X74066056Y-50527872D01*
X73979113Y-50546353D01*
X73885712Y-50566206D01*
X73879682Y-50568891D01*
X73879681Y-50568891D01*
X73743791Y-50629393D01*
X73673424Y-50638827D01*
X73618481Y-50616222D01*
X73487094Y-50520763D01*
X73487093Y-50520762D01*
X73481752Y-50516882D01*
X73475724Y-50514198D01*
X73475722Y-50514197D01*
X73313319Y-50441891D01*
X73313318Y-50441891D01*
X73307288Y-50439206D01*
X73201317Y-50416681D01*
X73126944Y-50400872D01*
X73126939Y-50400872D01*
X73120487Y-50399500D01*
X72929513Y-50399500D01*
X72923061Y-50400872D01*
X72923056Y-50400872D01*
X72848683Y-50416681D01*
X72742712Y-50439206D01*
X72736682Y-50441891D01*
X72736681Y-50441891D01*
X72574278Y-50514197D01*
X72574276Y-50514198D01*
X72568248Y-50516882D01*
X72562907Y-50520762D01*
X72562906Y-50520763D01*
X72512843Y-50557136D01*
X72413747Y-50629134D01*
X72401748Y-50642460D01*
X72341304Y-50679698D01*
X72270320Y-50678346D01*
X72234055Y-50660085D01*
X72217098Y-50647765D01*
X72217091Y-50647761D01*
X72211752Y-50643882D01*
X72205724Y-50641198D01*
X72205722Y-50641197D01*
X72043319Y-50568891D01*
X72043318Y-50568891D01*
X72037288Y-50566206D01*
X71943888Y-50546353D01*
X71856944Y-50527872D01*
X71856939Y-50527872D01*
X71850487Y-50526500D01*
X71659513Y-50526500D01*
X71653061Y-50527872D01*
X71653056Y-50527872D01*
X71566113Y-50546353D01*
X71472712Y-50566206D01*
X71466682Y-50568891D01*
X71466681Y-50568891D01*
X71304278Y-50641197D01*
X71304276Y-50641198D01*
X71298248Y-50643882D01*
X71292907Y-50647762D01*
X71292906Y-50647763D01*
X71250813Y-50678346D01*
X71143747Y-50756134D01*
X71139326Y-50761044D01*
X71139325Y-50761045D01*
X71083461Y-50823089D01*
X71015960Y-50898056D01*
X70920473Y-51063444D01*
X70861458Y-51245072D01*
X70841496Y-51435000D01*
X66205110Y-51435000D01*
X66140697Y-51339862D01*
X66136590Y-51334453D01*
X66023565Y-51201179D01*
X66010740Y-51192743D01*
X66000416Y-51198795D01*
X63872020Y-53327190D01*
X63864408Y-53341131D01*
X63134357Y-53341131D01*
X63135592Y-53338869D01*
X63135461Y-53337034D01*
X63131210Y-53330420D01*
X61000992Y-51200203D01*
X60987455Y-51192811D01*
X60977753Y-51199599D01*
X60870430Y-51325257D01*
X60866296Y-51330664D01*
X60668215Y-51621041D01*
X60664697Y-51626851D01*
X60499134Y-51936922D01*
X60496259Y-51943087D01*
X60365155Y-52269218D01*
X60362962Y-52275658D01*
X60267846Y-52614044D01*
X60266363Y-52620679D01*
X60208350Y-52967354D01*
X60207591Y-52974126D01*
X60187357Y-53325037D01*
X60187333Y-53331832D01*
X58928000Y-53331832D01*
X58928000Y-50826862D01*
X61349950Y-50826862D01*
X61349986Y-50827704D01*
X61355037Y-50835826D01*
X63487190Y-52967980D01*
X63501131Y-52975592D01*
X63502966Y-52975461D01*
X63509580Y-52971210D01*
X65642798Y-50837991D01*
X65650412Y-50824047D01*
X65650344Y-50823089D01*
X65645836Y-50816272D01*
X65644418Y-50815065D01*
X65364813Y-50602064D01*
X65359187Y-50598240D01*
X65058214Y-50416681D01*
X65052202Y-50413484D01*
X64733370Y-50265487D01*
X64727070Y-50262967D01*
X64394129Y-50150273D01*
X64387551Y-50148437D01*
X64044417Y-50072367D01*
X64037678Y-50071251D01*
X63688310Y-50032680D01*
X63681529Y-50032301D01*
X63330015Y-50031687D01*
X63323242Y-50032042D01*
X62973720Y-50069395D01*
X62967010Y-50070482D01*
X62623586Y-50145361D01*
X62617011Y-50147172D01*
X62283683Y-50258702D01*
X62277361Y-50261205D01*
X61958034Y-50408079D01*
X61951991Y-50411265D01*
X61650401Y-50591763D01*
X61644755Y-50595571D01*
X61364408Y-50807596D01*
X61359211Y-50811987D01*
X61357972Y-50813155D01*
X61349950Y-50826862D01*
X58928000Y-50826862D01*
X58928000Y-48894000D01*
X58948002Y-48825879D01*
X59001658Y-48779386D01*
X59054000Y-48768000D01*
X146686000Y-48768000D01*
X146754121Y-48788002D01*
G37*
%TD.AperFunction*%
M02*
