%TF.GenerationSoftware,KiCad,Pcbnew,(6.0.1)*%
%TF.CreationDate,2022-03-10T11:46:56+01:00*%
%TF.ProjectId,ci-poc-board,63692d70-6f63-42d6-926f-6172642e6b69,rev?*%
%TF.SameCoordinates,Original*%
%TF.FileFunction,Copper,L2,Inr*%
%TF.FilePolarity,Positive*%
%FSLAX46Y46*%
G04 Gerber Fmt 4.6, Leading zero omitted, Abs format (unit mm)*
G04 Created by KiCad (PCBNEW (6.0.1)) date 2022-03-10 11:46:56*
%MOMM*%
%LPD*%
G01*
G04 APERTURE LIST*
G04 Aperture macros list*
%AMRoundRect*
0 Rectangle with rounded corners*
0 $1 Rounding radius*
0 $2 $3 $4 $5 $6 $7 $8 $9 X,Y pos of 4 corners*
0 Add a 4 corners polygon primitive as box body*
4,1,4,$2,$3,$4,$5,$6,$7,$8,$9,$2,$3,0*
0 Add four circle primitives for the rounded corners*
1,1,$1+$1,$2,$3*
1,1,$1+$1,$4,$5*
1,1,$1+$1,$6,$7*
1,1,$1+$1,$8,$9*
0 Add four rect primitives between the rounded corners*
20,1,$1+$1,$2,$3,$4,$5,0*
20,1,$1+$1,$4,$5,$6,$7,0*
20,1,$1+$1,$6,$7,$8,$9,0*
20,1,$1+$1,$8,$9,$2,$3,0*%
G04 Aperture macros list end*
%TA.AperFunction,ComponentPad*%
%ADD10RoundRect,0.250000X-0.600000X-0.725000X0.600000X-0.725000X0.600000X0.725000X-0.600000X0.725000X0*%
%TD*%
%TA.AperFunction,ComponentPad*%
%ADD11O,1.700000X1.950000*%
%TD*%
%TA.AperFunction,ComponentPad*%
%ADD12C,5.600000*%
%TD*%
%TA.AperFunction,ComponentPad*%
%ADD13R,1.700000X1.700000*%
%TD*%
%TA.AperFunction,ComponentPad*%
%ADD14O,1.700000X1.700000*%
%TD*%
%TA.AperFunction,ComponentPad*%
%ADD15RoundRect,0.250000X-0.625000X0.350000X-0.625000X-0.350000X0.625000X-0.350000X0.625000X0.350000X0*%
%TD*%
%TA.AperFunction,ComponentPad*%
%ADD16O,1.750000X1.200000*%
%TD*%
%TA.AperFunction,ViaPad*%
%ADD17C,0.800000*%
%TD*%
G04 APERTURE END LIST*
D10*
X88900000Y-83312000D03*
D11*
X91400000Y-83312000D03*
X93900000Y-83312000D03*
X96400000Y-83312000D03*
X98900000Y-83312000D03*
D10*
X71120000Y-83312000D03*
D11*
X73620000Y-83312000D03*
X76120000Y-83312000D03*
X78620000Y-83312000D03*
X81120000Y-83312000D03*
D12*
X63500000Y-83820000D03*
X142240000Y-53340000D03*
X63500000Y-53340000D03*
D10*
X106680000Y-83312000D03*
D11*
X109180000Y-83312000D03*
X111680000Y-83312000D03*
X114180000Y-83312000D03*
X116680000Y-83312000D03*
D12*
X141957500Y-83820000D03*
D13*
X62225000Y-75443000D03*
D14*
X62225000Y-72903000D03*
X64765000Y-75443000D03*
X64765000Y-72903000D03*
X67305000Y-75443000D03*
X67305000Y-72903000D03*
X69845000Y-75443000D03*
X69845000Y-72903000D03*
X72385000Y-75443000D03*
X72385000Y-72903000D03*
D15*
X63500000Y-59452000D03*
D16*
X63500000Y-61452000D03*
D10*
X124460000Y-83312000D03*
D11*
X126960000Y-83312000D03*
X129460000Y-83312000D03*
X131960000Y-83312000D03*
X134460000Y-83312000D03*
D17*
X86360000Y-76708000D03*
X106680000Y-61722000D03*
X71755000Y-51435000D03*
X126111000Y-53340000D03*
X74168000Y-51435000D03*
X74168000Y-65532000D03*
X94996000Y-80772000D03*
X76200000Y-52832000D03*
X73025000Y-51308000D03*
X91440000Y-65024000D03*
X75692000Y-56896000D03*
X123571000Y-74168000D03*
X80555500Y-71120000D03*
X95504000Y-69088000D03*
X88900000Y-52832000D03*
X84074000Y-51308000D03*
X85344000Y-51435000D03*
X82804000Y-51435000D03*
X93980000Y-69088000D03*
X81280000Y-73660000D03*
X80772000Y-72644000D03*
X92456000Y-69088000D03*
X93472000Y-72136000D03*
X115824000Y-74168000D03*
X91948000Y-71628000D03*
X117348000Y-74676000D03*
X94996000Y-73152000D03*
X128651000Y-53213000D03*
X79121000Y-70104000D03*
X91400069Y-69119332D03*
%TA.AperFunction,Conductor*%
G36*
X146754121Y-48788002D02*
G01*
X146800614Y-48841658D01*
X146812000Y-48894000D01*
X146812000Y-88266000D01*
X146791998Y-88334121D01*
X146738342Y-88380614D01*
X146686000Y-88392000D01*
X59054000Y-88392000D01*
X58985879Y-88371998D01*
X58939386Y-88318342D01*
X58928000Y-88266000D01*
X58928000Y-83808434D01*
X60186661Y-83808434D01*
X60186833Y-83811829D01*
X60186833Y-83811830D01*
X60194951Y-83972085D01*
X60204792Y-84166340D01*
X60205329Y-84169695D01*
X60205330Y-84169701D01*
X60240780Y-84391023D01*
X60261470Y-84520195D01*
X60356033Y-84865859D01*
X60487374Y-85199288D01*
X60653957Y-85516582D01*
X60655858Y-85519411D01*
X60655864Y-85519421D01*
X60839569Y-85792800D01*
X60853834Y-85814029D01*
X61084665Y-86088150D01*
X61343751Y-86335738D01*
X61628061Y-86553897D01*
X61660056Y-86573350D01*
X61931355Y-86738303D01*
X61931360Y-86738306D01*
X61934270Y-86740075D01*
X61937358Y-86741521D01*
X61937357Y-86741521D01*
X62255710Y-86890649D01*
X62255720Y-86890653D01*
X62258794Y-86892093D01*
X62262012Y-86893195D01*
X62262015Y-86893196D01*
X62594615Y-87007071D01*
X62594623Y-87007073D01*
X62597838Y-87008174D01*
X62947435Y-87086959D01*
X62999728Y-87092917D01*
X63300114Y-87127142D01*
X63300122Y-87127142D01*
X63303497Y-87127527D01*
X63306901Y-87127545D01*
X63306904Y-87127545D01*
X63501227Y-87128562D01*
X63661857Y-87129403D01*
X63665243Y-87129053D01*
X63665245Y-87129053D01*
X64014932Y-87092917D01*
X64014941Y-87092916D01*
X64018324Y-87092566D01*
X64021657Y-87091852D01*
X64021660Y-87091851D01*
X64194186Y-87054864D01*
X64368727Y-87017446D01*
X64708968Y-86904922D01*
X65035066Y-86756311D01*
X65129052Y-86700506D01*
X65340262Y-86575099D01*
X65340267Y-86575096D01*
X65343207Y-86573350D01*
X65629786Y-86358180D01*
X65891451Y-86113319D01*
X66125140Y-85841630D01*
X66231750Y-85686512D01*
X66326190Y-85549101D01*
X66326195Y-85549094D01*
X66328120Y-85546292D01*
X66329732Y-85543298D01*
X66329737Y-85543290D01*
X66496395Y-85233772D01*
X66498017Y-85230760D01*
X66632842Y-84898724D01*
X66643142Y-84862568D01*
X66700792Y-84660185D01*
X66731020Y-84554070D01*
X66739620Y-84503757D01*
X66790829Y-84204175D01*
X66790829Y-84204173D01*
X66791401Y-84200828D01*
X66792296Y-84186206D01*
X66798541Y-84084095D01*
X69762001Y-84084095D01*
X69762338Y-84090614D01*
X69772257Y-84186206D01*
X69775149Y-84199600D01*
X69826588Y-84353784D01*
X69832761Y-84366962D01*
X69918063Y-84504807D01*
X69927099Y-84516208D01*
X70041829Y-84630739D01*
X70053240Y-84639751D01*
X70191243Y-84724816D01*
X70204424Y-84730963D01*
X70358710Y-84782138D01*
X70372086Y-84785005D01*
X70466438Y-84794672D01*
X70472854Y-84795000D01*
X70847885Y-84795000D01*
X70863124Y-84790525D01*
X70864329Y-84789135D01*
X70866000Y-84781452D01*
X70866000Y-84776884D01*
X71374000Y-84776884D01*
X71378475Y-84792123D01*
X71379865Y-84793328D01*
X71387548Y-84794999D01*
X71767095Y-84794999D01*
X71773614Y-84794662D01*
X71869206Y-84784743D01*
X71882600Y-84781851D01*
X72036784Y-84730412D01*
X72049962Y-84724239D01*
X72187807Y-84638937D01*
X72199208Y-84629901D01*
X72313739Y-84515171D01*
X72322753Y-84503757D01*
X72408723Y-84364287D01*
X72461495Y-84316793D01*
X72531566Y-84305369D01*
X72596690Y-84333643D01*
X72607149Y-84343426D01*
X72716576Y-84458135D01*
X72901542Y-84595754D01*
X72906293Y-84598170D01*
X72906297Y-84598172D01*
X72968704Y-84629901D01*
X73107051Y-84700240D01*
X73112145Y-84701822D01*
X73112148Y-84701823D01*
X73312020Y-84763885D01*
X73327227Y-84768607D01*
X73332516Y-84769308D01*
X73550489Y-84798198D01*
X73550494Y-84798198D01*
X73555774Y-84798898D01*
X73561103Y-84798698D01*
X73561105Y-84798698D01*
X73670966Y-84794573D01*
X73786158Y-84790249D01*
X73791468Y-84789135D01*
X74006572Y-84744002D01*
X74011791Y-84742907D01*
X74016750Y-84740949D01*
X74016752Y-84740948D01*
X74221256Y-84660185D01*
X74221258Y-84660184D01*
X74226221Y-84658224D01*
X74325184Y-84598172D01*
X74418757Y-84541390D01*
X74418756Y-84541390D01*
X74423317Y-84538623D01*
X74440763Y-84523484D01*
X74593412Y-84391023D01*
X74593414Y-84391021D01*
X74597445Y-84387523D01*
X74664807Y-84305369D01*
X74740240Y-84213373D01*
X74740244Y-84213367D01*
X74743624Y-84209245D01*
X74761552Y-84177750D01*
X74812632Y-84128445D01*
X74882262Y-84114583D01*
X74948333Y-84140566D01*
X74975573Y-84169716D01*
X75057441Y-84291319D01*
X75061120Y-84295176D01*
X75061122Y-84295178D01*
X75117030Y-84353784D01*
X75216576Y-84458135D01*
X75401542Y-84595754D01*
X75406293Y-84598170D01*
X75406297Y-84598172D01*
X75468704Y-84629901D01*
X75607051Y-84700240D01*
X75612145Y-84701822D01*
X75612148Y-84701823D01*
X75812020Y-84763885D01*
X75827227Y-84768607D01*
X75832516Y-84769308D01*
X76050489Y-84798198D01*
X76050494Y-84798198D01*
X76055774Y-84798898D01*
X76061103Y-84798698D01*
X76061105Y-84798698D01*
X76170966Y-84794573D01*
X76286158Y-84790249D01*
X76291468Y-84789135D01*
X76506572Y-84744002D01*
X76511791Y-84742907D01*
X76516750Y-84740949D01*
X76516752Y-84740948D01*
X76721256Y-84660185D01*
X76721258Y-84660184D01*
X76726221Y-84658224D01*
X76825184Y-84598172D01*
X76918757Y-84541390D01*
X76918756Y-84541390D01*
X76923317Y-84538623D01*
X76940763Y-84523484D01*
X77093412Y-84391023D01*
X77093414Y-84391021D01*
X77097445Y-84387523D01*
X77164807Y-84305369D01*
X77240240Y-84213373D01*
X77240244Y-84213367D01*
X77243624Y-84209245D01*
X77261552Y-84177750D01*
X77312632Y-84128445D01*
X77382262Y-84114583D01*
X77448333Y-84140566D01*
X77475573Y-84169716D01*
X77557441Y-84291319D01*
X77561120Y-84295176D01*
X77561122Y-84295178D01*
X77617030Y-84353784D01*
X77716576Y-84458135D01*
X77901542Y-84595754D01*
X77906293Y-84598170D01*
X77906297Y-84598172D01*
X77968704Y-84629901D01*
X78107051Y-84700240D01*
X78112145Y-84701822D01*
X78112148Y-84701823D01*
X78312020Y-84763885D01*
X78327227Y-84768607D01*
X78332516Y-84769308D01*
X78550489Y-84798198D01*
X78550494Y-84798198D01*
X78555774Y-84798898D01*
X78561103Y-84798698D01*
X78561105Y-84798698D01*
X78670966Y-84794573D01*
X78786158Y-84790249D01*
X78791468Y-84789135D01*
X79006572Y-84744002D01*
X79011791Y-84742907D01*
X79016750Y-84740949D01*
X79016752Y-84740948D01*
X79221256Y-84660185D01*
X79221258Y-84660184D01*
X79226221Y-84658224D01*
X79325184Y-84598172D01*
X79418757Y-84541390D01*
X79418756Y-84541390D01*
X79423317Y-84538623D01*
X79440763Y-84523484D01*
X79593412Y-84391023D01*
X79593414Y-84391021D01*
X79597445Y-84387523D01*
X79664807Y-84305369D01*
X79740240Y-84213373D01*
X79740244Y-84213367D01*
X79743624Y-84209245D01*
X79761552Y-84177750D01*
X79812632Y-84128445D01*
X79882262Y-84114583D01*
X79948333Y-84140566D01*
X79975573Y-84169716D01*
X80057441Y-84291319D01*
X80061120Y-84295176D01*
X80061122Y-84295178D01*
X80117030Y-84353784D01*
X80216576Y-84458135D01*
X80401542Y-84595754D01*
X80406293Y-84598170D01*
X80406297Y-84598172D01*
X80468704Y-84629901D01*
X80607051Y-84700240D01*
X80612145Y-84701822D01*
X80612148Y-84701823D01*
X80812020Y-84763885D01*
X80827227Y-84768607D01*
X80832516Y-84769308D01*
X81050489Y-84798198D01*
X81050494Y-84798198D01*
X81055774Y-84798898D01*
X81061103Y-84798698D01*
X81061105Y-84798698D01*
X81170966Y-84794573D01*
X81286158Y-84790249D01*
X81291468Y-84789135D01*
X81506572Y-84744002D01*
X81511791Y-84742907D01*
X81516750Y-84740949D01*
X81516752Y-84740948D01*
X81721256Y-84660185D01*
X81721258Y-84660184D01*
X81726221Y-84658224D01*
X81825184Y-84598172D01*
X81918757Y-84541390D01*
X81918756Y-84541390D01*
X81923317Y-84538623D01*
X81940763Y-84523484D01*
X82093412Y-84391023D01*
X82093414Y-84391021D01*
X82097445Y-84387523D01*
X82164807Y-84305369D01*
X82240240Y-84213373D01*
X82240244Y-84213367D01*
X82243624Y-84209245D01*
X82248416Y-84200828D01*
X82314864Y-84084095D01*
X87542001Y-84084095D01*
X87542338Y-84090614D01*
X87552257Y-84186206D01*
X87555149Y-84199600D01*
X87606588Y-84353784D01*
X87612761Y-84366962D01*
X87698063Y-84504807D01*
X87707099Y-84516208D01*
X87821829Y-84630739D01*
X87833240Y-84639751D01*
X87971243Y-84724816D01*
X87984424Y-84730963D01*
X88138710Y-84782138D01*
X88152086Y-84785005D01*
X88246438Y-84794672D01*
X88252854Y-84795000D01*
X88627885Y-84795000D01*
X88643124Y-84790525D01*
X88644329Y-84789135D01*
X88646000Y-84781452D01*
X88646000Y-84776884D01*
X89154000Y-84776884D01*
X89158475Y-84792123D01*
X89159865Y-84793328D01*
X89167548Y-84794999D01*
X89547095Y-84794999D01*
X89553614Y-84794662D01*
X89649206Y-84784743D01*
X89662600Y-84781851D01*
X89816784Y-84730412D01*
X89829962Y-84724239D01*
X89967807Y-84638937D01*
X89979208Y-84629901D01*
X90093739Y-84515171D01*
X90102753Y-84503757D01*
X90188723Y-84364287D01*
X90241495Y-84316793D01*
X90311566Y-84305369D01*
X90376690Y-84333643D01*
X90387149Y-84343426D01*
X90496576Y-84458135D01*
X90681542Y-84595754D01*
X90686293Y-84598170D01*
X90686297Y-84598172D01*
X90748704Y-84629901D01*
X90887051Y-84700240D01*
X90892145Y-84701822D01*
X90892148Y-84701823D01*
X91092020Y-84763885D01*
X91107227Y-84768607D01*
X91112516Y-84769308D01*
X91330489Y-84798198D01*
X91330494Y-84798198D01*
X91335774Y-84798898D01*
X91341103Y-84798698D01*
X91341105Y-84798698D01*
X91450966Y-84794573D01*
X91566158Y-84790249D01*
X91571468Y-84789135D01*
X91786572Y-84744002D01*
X91791791Y-84742907D01*
X91796750Y-84740949D01*
X91796752Y-84740948D01*
X92001256Y-84660185D01*
X92001258Y-84660184D01*
X92006221Y-84658224D01*
X92105184Y-84598172D01*
X92198757Y-84541390D01*
X92198756Y-84541390D01*
X92203317Y-84538623D01*
X92220763Y-84523484D01*
X92373412Y-84391023D01*
X92373414Y-84391021D01*
X92377445Y-84387523D01*
X92444807Y-84305369D01*
X92520240Y-84213373D01*
X92520244Y-84213367D01*
X92523624Y-84209245D01*
X92541552Y-84177750D01*
X92592632Y-84128445D01*
X92662262Y-84114583D01*
X92728333Y-84140566D01*
X92755573Y-84169716D01*
X92837441Y-84291319D01*
X92841120Y-84295176D01*
X92841122Y-84295178D01*
X92897030Y-84353784D01*
X92996576Y-84458135D01*
X93181542Y-84595754D01*
X93186293Y-84598170D01*
X93186297Y-84598172D01*
X93248704Y-84629901D01*
X93387051Y-84700240D01*
X93392145Y-84701822D01*
X93392148Y-84701823D01*
X93592020Y-84763885D01*
X93607227Y-84768607D01*
X93612516Y-84769308D01*
X93830489Y-84798198D01*
X93830494Y-84798198D01*
X93835774Y-84798898D01*
X93841103Y-84798698D01*
X93841105Y-84798698D01*
X93950966Y-84794573D01*
X94066158Y-84790249D01*
X94071468Y-84789135D01*
X94286572Y-84744002D01*
X94291791Y-84742907D01*
X94296750Y-84740949D01*
X94296752Y-84740948D01*
X94501256Y-84660185D01*
X94501258Y-84660184D01*
X94506221Y-84658224D01*
X94605184Y-84598172D01*
X94698757Y-84541390D01*
X94698756Y-84541390D01*
X94703317Y-84538623D01*
X94720763Y-84523484D01*
X94873412Y-84391023D01*
X94873414Y-84391021D01*
X94877445Y-84387523D01*
X94944807Y-84305369D01*
X95020240Y-84213373D01*
X95020244Y-84213367D01*
X95023624Y-84209245D01*
X95041552Y-84177750D01*
X95092632Y-84128445D01*
X95162262Y-84114583D01*
X95228333Y-84140566D01*
X95255573Y-84169716D01*
X95337441Y-84291319D01*
X95341120Y-84295176D01*
X95341122Y-84295178D01*
X95397030Y-84353784D01*
X95496576Y-84458135D01*
X95681542Y-84595754D01*
X95686293Y-84598170D01*
X95686297Y-84598172D01*
X95748704Y-84629901D01*
X95887051Y-84700240D01*
X95892145Y-84701822D01*
X95892148Y-84701823D01*
X96092020Y-84763885D01*
X96107227Y-84768607D01*
X96112516Y-84769308D01*
X96330489Y-84798198D01*
X96330494Y-84798198D01*
X96335774Y-84798898D01*
X96341103Y-84798698D01*
X96341105Y-84798698D01*
X96450966Y-84794573D01*
X96566158Y-84790249D01*
X96571468Y-84789135D01*
X96786572Y-84744002D01*
X96791791Y-84742907D01*
X96796750Y-84740949D01*
X96796752Y-84740948D01*
X97001256Y-84660185D01*
X97001258Y-84660184D01*
X97006221Y-84658224D01*
X97105184Y-84598172D01*
X97198757Y-84541390D01*
X97198756Y-84541390D01*
X97203317Y-84538623D01*
X97220763Y-84523484D01*
X97373412Y-84391023D01*
X97373414Y-84391021D01*
X97377445Y-84387523D01*
X97444807Y-84305369D01*
X97520240Y-84213373D01*
X97520244Y-84213367D01*
X97523624Y-84209245D01*
X97541552Y-84177750D01*
X97592632Y-84128445D01*
X97662262Y-84114583D01*
X97728333Y-84140566D01*
X97755573Y-84169716D01*
X97837441Y-84291319D01*
X97841120Y-84295176D01*
X97841122Y-84295178D01*
X97897030Y-84353784D01*
X97996576Y-84458135D01*
X98181542Y-84595754D01*
X98186293Y-84598170D01*
X98186297Y-84598172D01*
X98248704Y-84629901D01*
X98387051Y-84700240D01*
X98392145Y-84701822D01*
X98392148Y-84701823D01*
X98592020Y-84763885D01*
X98607227Y-84768607D01*
X98612516Y-84769308D01*
X98830489Y-84798198D01*
X98830494Y-84798198D01*
X98835774Y-84798898D01*
X98841103Y-84798698D01*
X98841105Y-84798698D01*
X98950966Y-84794573D01*
X99066158Y-84790249D01*
X99071468Y-84789135D01*
X99286572Y-84744002D01*
X99291791Y-84742907D01*
X99296750Y-84740949D01*
X99296752Y-84740948D01*
X99501256Y-84660185D01*
X99501258Y-84660184D01*
X99506221Y-84658224D01*
X99605184Y-84598172D01*
X99698757Y-84541390D01*
X99698756Y-84541390D01*
X99703317Y-84538623D01*
X99720763Y-84523484D01*
X99873412Y-84391023D01*
X99873414Y-84391021D01*
X99877445Y-84387523D01*
X99944807Y-84305369D01*
X100020240Y-84213373D01*
X100020244Y-84213367D01*
X100023624Y-84209245D01*
X100028416Y-84200828D01*
X100094864Y-84084095D01*
X105322001Y-84084095D01*
X105322338Y-84090614D01*
X105332257Y-84186206D01*
X105335149Y-84199600D01*
X105386588Y-84353784D01*
X105392761Y-84366962D01*
X105478063Y-84504807D01*
X105487099Y-84516208D01*
X105601829Y-84630739D01*
X105613240Y-84639751D01*
X105751243Y-84724816D01*
X105764424Y-84730963D01*
X105918710Y-84782138D01*
X105932086Y-84785005D01*
X106026438Y-84794672D01*
X106032854Y-84795000D01*
X106407885Y-84795000D01*
X106423124Y-84790525D01*
X106424329Y-84789135D01*
X106426000Y-84781452D01*
X106426000Y-84776884D01*
X106934000Y-84776884D01*
X106938475Y-84792123D01*
X106939865Y-84793328D01*
X106947548Y-84794999D01*
X107327095Y-84794999D01*
X107333614Y-84794662D01*
X107429206Y-84784743D01*
X107442600Y-84781851D01*
X107596784Y-84730412D01*
X107609962Y-84724239D01*
X107747807Y-84638937D01*
X107759208Y-84629901D01*
X107873739Y-84515171D01*
X107882753Y-84503757D01*
X107968723Y-84364287D01*
X108021495Y-84316793D01*
X108091566Y-84305369D01*
X108156690Y-84333643D01*
X108167149Y-84343426D01*
X108276576Y-84458135D01*
X108461542Y-84595754D01*
X108466293Y-84598170D01*
X108466297Y-84598172D01*
X108528704Y-84629901D01*
X108667051Y-84700240D01*
X108672145Y-84701822D01*
X108672148Y-84701823D01*
X108872020Y-84763885D01*
X108887227Y-84768607D01*
X108892516Y-84769308D01*
X109110489Y-84798198D01*
X109110494Y-84798198D01*
X109115774Y-84798898D01*
X109121103Y-84798698D01*
X109121105Y-84798698D01*
X109230966Y-84794573D01*
X109346158Y-84790249D01*
X109351468Y-84789135D01*
X109566572Y-84744002D01*
X109571791Y-84742907D01*
X109576750Y-84740949D01*
X109576752Y-84740948D01*
X109781256Y-84660185D01*
X109781258Y-84660184D01*
X109786221Y-84658224D01*
X109885184Y-84598172D01*
X109978757Y-84541390D01*
X109978756Y-84541390D01*
X109983317Y-84538623D01*
X110000763Y-84523484D01*
X110153412Y-84391023D01*
X110153414Y-84391021D01*
X110157445Y-84387523D01*
X110224807Y-84305369D01*
X110300240Y-84213373D01*
X110300244Y-84213367D01*
X110303624Y-84209245D01*
X110321552Y-84177750D01*
X110372632Y-84128445D01*
X110442262Y-84114583D01*
X110508333Y-84140566D01*
X110535573Y-84169716D01*
X110617441Y-84291319D01*
X110621120Y-84295176D01*
X110621122Y-84295178D01*
X110677030Y-84353784D01*
X110776576Y-84458135D01*
X110961542Y-84595754D01*
X110966293Y-84598170D01*
X110966297Y-84598172D01*
X111028704Y-84629901D01*
X111167051Y-84700240D01*
X111172145Y-84701822D01*
X111172148Y-84701823D01*
X111372020Y-84763885D01*
X111387227Y-84768607D01*
X111392516Y-84769308D01*
X111610489Y-84798198D01*
X111610494Y-84798198D01*
X111615774Y-84798898D01*
X111621103Y-84798698D01*
X111621105Y-84798698D01*
X111730966Y-84794573D01*
X111846158Y-84790249D01*
X111851468Y-84789135D01*
X112066572Y-84744002D01*
X112071791Y-84742907D01*
X112076750Y-84740949D01*
X112076752Y-84740948D01*
X112281256Y-84660185D01*
X112281258Y-84660184D01*
X112286221Y-84658224D01*
X112385184Y-84598172D01*
X112478757Y-84541390D01*
X112478756Y-84541390D01*
X112483317Y-84538623D01*
X112500763Y-84523484D01*
X112653412Y-84391023D01*
X112653414Y-84391021D01*
X112657445Y-84387523D01*
X112724807Y-84305369D01*
X112800240Y-84213373D01*
X112800244Y-84213367D01*
X112803624Y-84209245D01*
X112821552Y-84177750D01*
X112872632Y-84128445D01*
X112942262Y-84114583D01*
X113008333Y-84140566D01*
X113035573Y-84169716D01*
X113117441Y-84291319D01*
X113121120Y-84295176D01*
X113121122Y-84295178D01*
X113177030Y-84353784D01*
X113276576Y-84458135D01*
X113461542Y-84595754D01*
X113466293Y-84598170D01*
X113466297Y-84598172D01*
X113528704Y-84629901D01*
X113667051Y-84700240D01*
X113672145Y-84701822D01*
X113672148Y-84701823D01*
X113872020Y-84763885D01*
X113887227Y-84768607D01*
X113892516Y-84769308D01*
X114110489Y-84798198D01*
X114110494Y-84798198D01*
X114115774Y-84798898D01*
X114121103Y-84798698D01*
X114121105Y-84798698D01*
X114230966Y-84794573D01*
X114346158Y-84790249D01*
X114351468Y-84789135D01*
X114566572Y-84744002D01*
X114571791Y-84742907D01*
X114576750Y-84740949D01*
X114576752Y-84740948D01*
X114781256Y-84660185D01*
X114781258Y-84660184D01*
X114786221Y-84658224D01*
X114885184Y-84598172D01*
X114978757Y-84541390D01*
X114978756Y-84541390D01*
X114983317Y-84538623D01*
X115000763Y-84523484D01*
X115153412Y-84391023D01*
X115153414Y-84391021D01*
X115157445Y-84387523D01*
X115224807Y-84305369D01*
X115300240Y-84213373D01*
X115300244Y-84213367D01*
X115303624Y-84209245D01*
X115321552Y-84177750D01*
X115372632Y-84128445D01*
X115442262Y-84114583D01*
X115508333Y-84140566D01*
X115535573Y-84169716D01*
X115617441Y-84291319D01*
X115621120Y-84295176D01*
X115621122Y-84295178D01*
X115677030Y-84353784D01*
X115776576Y-84458135D01*
X115961542Y-84595754D01*
X115966293Y-84598170D01*
X115966297Y-84598172D01*
X116028704Y-84629901D01*
X116167051Y-84700240D01*
X116172145Y-84701822D01*
X116172148Y-84701823D01*
X116372020Y-84763885D01*
X116387227Y-84768607D01*
X116392516Y-84769308D01*
X116610489Y-84798198D01*
X116610494Y-84798198D01*
X116615774Y-84798898D01*
X116621103Y-84798698D01*
X116621105Y-84798698D01*
X116730966Y-84794573D01*
X116846158Y-84790249D01*
X116851468Y-84789135D01*
X117066572Y-84744002D01*
X117071791Y-84742907D01*
X117076750Y-84740949D01*
X117076752Y-84740948D01*
X117281256Y-84660185D01*
X117281258Y-84660184D01*
X117286221Y-84658224D01*
X117385184Y-84598172D01*
X117478757Y-84541390D01*
X117478756Y-84541390D01*
X117483317Y-84538623D01*
X117500763Y-84523484D01*
X117653412Y-84391023D01*
X117653414Y-84391021D01*
X117657445Y-84387523D01*
X117724807Y-84305369D01*
X117800240Y-84213373D01*
X117800244Y-84213367D01*
X117803624Y-84209245D01*
X117808416Y-84200828D01*
X117874864Y-84084095D01*
X123102001Y-84084095D01*
X123102338Y-84090614D01*
X123112257Y-84186206D01*
X123115149Y-84199600D01*
X123166588Y-84353784D01*
X123172761Y-84366962D01*
X123258063Y-84504807D01*
X123267099Y-84516208D01*
X123381829Y-84630739D01*
X123393240Y-84639751D01*
X123531243Y-84724816D01*
X123544424Y-84730963D01*
X123698710Y-84782138D01*
X123712086Y-84785005D01*
X123806438Y-84794672D01*
X123812854Y-84795000D01*
X124187885Y-84795000D01*
X124203124Y-84790525D01*
X124204329Y-84789135D01*
X124206000Y-84781452D01*
X124206000Y-84776884D01*
X124714000Y-84776884D01*
X124718475Y-84792123D01*
X124719865Y-84793328D01*
X124727548Y-84794999D01*
X125107095Y-84794999D01*
X125113614Y-84794662D01*
X125209206Y-84784743D01*
X125222600Y-84781851D01*
X125376784Y-84730412D01*
X125389962Y-84724239D01*
X125527807Y-84638937D01*
X125539208Y-84629901D01*
X125653739Y-84515171D01*
X125662753Y-84503757D01*
X125748723Y-84364287D01*
X125801495Y-84316793D01*
X125871566Y-84305369D01*
X125936690Y-84333643D01*
X125947149Y-84343426D01*
X126056576Y-84458135D01*
X126241542Y-84595754D01*
X126246293Y-84598170D01*
X126246297Y-84598172D01*
X126308704Y-84629901D01*
X126447051Y-84700240D01*
X126452145Y-84701822D01*
X126452148Y-84701823D01*
X126652020Y-84763885D01*
X126667227Y-84768607D01*
X126672516Y-84769308D01*
X126890489Y-84798198D01*
X126890494Y-84798198D01*
X126895774Y-84798898D01*
X126901103Y-84798698D01*
X126901105Y-84798698D01*
X127010966Y-84794573D01*
X127126158Y-84790249D01*
X127131468Y-84789135D01*
X127346572Y-84744002D01*
X127351791Y-84742907D01*
X127356750Y-84740949D01*
X127356752Y-84740948D01*
X127561256Y-84660185D01*
X127561258Y-84660184D01*
X127566221Y-84658224D01*
X127665184Y-84598172D01*
X127758757Y-84541390D01*
X127758756Y-84541390D01*
X127763317Y-84538623D01*
X127780763Y-84523484D01*
X127933412Y-84391023D01*
X127933414Y-84391021D01*
X127937445Y-84387523D01*
X128004807Y-84305369D01*
X128080240Y-84213373D01*
X128080244Y-84213367D01*
X128083624Y-84209245D01*
X128101552Y-84177750D01*
X128152632Y-84128445D01*
X128222262Y-84114583D01*
X128288333Y-84140566D01*
X128315573Y-84169716D01*
X128397441Y-84291319D01*
X128401120Y-84295176D01*
X128401122Y-84295178D01*
X128457030Y-84353784D01*
X128556576Y-84458135D01*
X128741542Y-84595754D01*
X128746293Y-84598170D01*
X128746297Y-84598172D01*
X128808704Y-84629901D01*
X128947051Y-84700240D01*
X128952145Y-84701822D01*
X128952148Y-84701823D01*
X129152020Y-84763885D01*
X129167227Y-84768607D01*
X129172516Y-84769308D01*
X129390489Y-84798198D01*
X129390494Y-84798198D01*
X129395774Y-84798898D01*
X129401103Y-84798698D01*
X129401105Y-84798698D01*
X129510966Y-84794573D01*
X129626158Y-84790249D01*
X129631468Y-84789135D01*
X129846572Y-84744002D01*
X129851791Y-84742907D01*
X129856750Y-84740949D01*
X129856752Y-84740948D01*
X130061256Y-84660185D01*
X130061258Y-84660184D01*
X130066221Y-84658224D01*
X130165184Y-84598172D01*
X130258757Y-84541390D01*
X130258756Y-84541390D01*
X130263317Y-84538623D01*
X130280763Y-84523484D01*
X130433412Y-84391023D01*
X130433414Y-84391021D01*
X130437445Y-84387523D01*
X130504807Y-84305369D01*
X130580240Y-84213373D01*
X130580244Y-84213367D01*
X130583624Y-84209245D01*
X130601552Y-84177750D01*
X130652632Y-84128445D01*
X130722262Y-84114583D01*
X130788333Y-84140566D01*
X130815573Y-84169716D01*
X130897441Y-84291319D01*
X130901120Y-84295176D01*
X130901122Y-84295178D01*
X130957030Y-84353784D01*
X131056576Y-84458135D01*
X131241542Y-84595754D01*
X131246293Y-84598170D01*
X131246297Y-84598172D01*
X131308704Y-84629901D01*
X131447051Y-84700240D01*
X131452145Y-84701822D01*
X131452148Y-84701823D01*
X131652020Y-84763885D01*
X131667227Y-84768607D01*
X131672516Y-84769308D01*
X131890489Y-84798198D01*
X131890494Y-84798198D01*
X131895774Y-84798898D01*
X131901103Y-84798698D01*
X131901105Y-84798698D01*
X132010966Y-84794573D01*
X132126158Y-84790249D01*
X132131468Y-84789135D01*
X132346572Y-84744002D01*
X132351791Y-84742907D01*
X132356750Y-84740949D01*
X132356752Y-84740948D01*
X132561256Y-84660185D01*
X132561258Y-84660184D01*
X132566221Y-84658224D01*
X132665184Y-84598172D01*
X132758757Y-84541390D01*
X132758756Y-84541390D01*
X132763317Y-84538623D01*
X132780763Y-84523484D01*
X132933412Y-84391023D01*
X132933414Y-84391021D01*
X132937445Y-84387523D01*
X133004807Y-84305369D01*
X133080240Y-84213373D01*
X133080244Y-84213367D01*
X133083624Y-84209245D01*
X133101552Y-84177750D01*
X133152632Y-84128445D01*
X133222262Y-84114583D01*
X133288333Y-84140566D01*
X133315573Y-84169716D01*
X133397441Y-84291319D01*
X133401120Y-84295176D01*
X133401122Y-84295178D01*
X133457030Y-84353784D01*
X133556576Y-84458135D01*
X133741542Y-84595754D01*
X133746293Y-84598170D01*
X133746297Y-84598172D01*
X133808704Y-84629901D01*
X133947051Y-84700240D01*
X133952145Y-84701822D01*
X133952148Y-84701823D01*
X134152020Y-84763885D01*
X134167227Y-84768607D01*
X134172516Y-84769308D01*
X134390489Y-84798198D01*
X134390494Y-84798198D01*
X134395774Y-84798898D01*
X134401103Y-84798698D01*
X134401105Y-84798698D01*
X134510966Y-84794573D01*
X134626158Y-84790249D01*
X134631468Y-84789135D01*
X134846572Y-84744002D01*
X134851791Y-84742907D01*
X134856750Y-84740949D01*
X134856752Y-84740948D01*
X135061256Y-84660185D01*
X135061258Y-84660184D01*
X135066221Y-84658224D01*
X135165184Y-84598172D01*
X135258757Y-84541390D01*
X135258756Y-84541390D01*
X135263317Y-84538623D01*
X135280763Y-84523484D01*
X135433412Y-84391023D01*
X135433414Y-84391021D01*
X135437445Y-84387523D01*
X135504807Y-84305369D01*
X135580240Y-84213373D01*
X135580244Y-84213367D01*
X135583624Y-84209245D01*
X135588416Y-84200828D01*
X135695032Y-84013529D01*
X135697675Y-84008886D01*
X135770435Y-83808434D01*
X138644161Y-83808434D01*
X138644333Y-83811829D01*
X138644333Y-83811830D01*
X138652451Y-83972085D01*
X138662292Y-84166340D01*
X138662829Y-84169695D01*
X138662830Y-84169701D01*
X138698280Y-84391023D01*
X138718970Y-84520195D01*
X138813533Y-84865859D01*
X138944874Y-85199288D01*
X139111457Y-85516582D01*
X139113358Y-85519411D01*
X139113364Y-85519421D01*
X139297069Y-85792800D01*
X139311334Y-85814029D01*
X139542165Y-86088150D01*
X139801251Y-86335738D01*
X140085561Y-86553897D01*
X140117556Y-86573350D01*
X140388855Y-86738303D01*
X140388860Y-86738306D01*
X140391770Y-86740075D01*
X140394858Y-86741521D01*
X140394857Y-86741521D01*
X140713210Y-86890649D01*
X140713220Y-86890653D01*
X140716294Y-86892093D01*
X140719512Y-86893195D01*
X140719515Y-86893196D01*
X141052115Y-87007071D01*
X141052123Y-87007073D01*
X141055338Y-87008174D01*
X141404935Y-87086959D01*
X141457228Y-87092917D01*
X141757614Y-87127142D01*
X141757622Y-87127142D01*
X141760997Y-87127527D01*
X141764401Y-87127545D01*
X141764404Y-87127545D01*
X141958727Y-87128562D01*
X142119357Y-87129403D01*
X142122743Y-87129053D01*
X142122745Y-87129053D01*
X142472432Y-87092917D01*
X142472441Y-87092916D01*
X142475824Y-87092566D01*
X142479157Y-87091852D01*
X142479160Y-87091851D01*
X142651686Y-87054864D01*
X142826227Y-87017446D01*
X143166468Y-86904922D01*
X143492566Y-86756311D01*
X143586552Y-86700506D01*
X143797762Y-86575099D01*
X143797767Y-86575096D01*
X143800707Y-86573350D01*
X144087286Y-86358180D01*
X144348951Y-86113319D01*
X144582640Y-85841630D01*
X144689250Y-85686512D01*
X144783690Y-85549101D01*
X144783695Y-85549094D01*
X144785620Y-85546292D01*
X144787232Y-85543298D01*
X144787237Y-85543290D01*
X144953895Y-85233772D01*
X144955517Y-85230760D01*
X145090342Y-84898724D01*
X145100642Y-84862568D01*
X145158292Y-84660185D01*
X145188520Y-84554070D01*
X145197120Y-84503757D01*
X145248329Y-84204175D01*
X145248329Y-84204173D01*
X145248901Y-84200828D01*
X145249796Y-84186206D01*
X145270668Y-83844928D01*
X145270778Y-83843131D01*
X145270859Y-83820000D01*
X145251479Y-83462159D01*
X145193566Y-83108505D01*
X145097797Y-82763173D01*
X145094743Y-82755497D01*
X144966552Y-82433369D01*
X144965293Y-82430205D01*
X144913657Y-82332681D01*
X144799202Y-82116513D01*
X144799198Y-82116506D01*
X144797603Y-82113494D01*
X144596690Y-81816746D01*
X144364903Y-81543432D01*
X144104954Y-81296750D01*
X143819884Y-81079585D01*
X143816972Y-81077828D01*
X143816967Y-81077825D01*
X143515943Y-80896236D01*
X143515937Y-80896233D01*
X143513028Y-80894478D01*
X143187975Y-80743593D01*
X143018252Y-80686145D01*
X142851755Y-80629789D01*
X142851750Y-80629788D01*
X142848528Y-80628697D01*
X142650181Y-80584724D01*
X142501993Y-80551871D01*
X142501987Y-80551870D01*
X142498658Y-80551132D01*
X142495269Y-80550758D01*
X142495264Y-80550757D01*
X142145838Y-80512180D01*
X142145833Y-80512180D01*
X142142457Y-80511807D01*
X142139058Y-80511801D01*
X142139057Y-80511801D01*
X141969580Y-80511505D01*
X141784092Y-80511182D01*
X141670913Y-80523277D01*
X141431139Y-80548901D01*
X141431131Y-80548902D01*
X141427756Y-80549263D01*
X141077617Y-80625606D01*
X140737771Y-80739317D01*
X140734678Y-80740739D01*
X140734677Y-80740740D01*
X140728474Y-80743593D01*
X140412194Y-80889066D01*
X140104693Y-81073101D01*
X140101967Y-81075163D01*
X140101965Y-81075164D01*
X140096120Y-81079585D01*
X139818867Y-81289270D01*
X139558059Y-81535043D01*
X139325319Y-81807546D01*
X139323400Y-81810358D01*
X139323397Y-81810363D01*
X139275149Y-81881093D01*
X139123371Y-82103591D01*
X138954577Y-82419714D01*
X138820911Y-82752218D01*
X138819991Y-82755492D01*
X138819989Y-82755497D01*
X138734765Y-83058692D01*
X138723937Y-83097213D01*
X138664790Y-83450663D01*
X138644161Y-83808434D01*
X135770435Y-83808434D01*
X135776337Y-83792175D01*
X135799023Y-83666720D01*
X135816623Y-83569392D01*
X135816624Y-83569385D01*
X135817361Y-83565308D01*
X135818500Y-83541156D01*
X135818500Y-83129110D01*
X135803920Y-82957280D01*
X135802582Y-82952125D01*
X135802581Y-82952119D01*
X135747343Y-82739297D01*
X135747342Y-82739293D01*
X135746001Y-82734128D01*
X135651312Y-82523925D01*
X135522559Y-82332681D01*
X135363424Y-82165865D01*
X135178458Y-82028246D01*
X135173707Y-82025830D01*
X135173703Y-82025828D01*
X135051731Y-81963815D01*
X134972949Y-81923760D01*
X134967855Y-81922178D01*
X134967852Y-81922177D01*
X134757871Y-81856976D01*
X134752773Y-81855393D01*
X134747484Y-81854692D01*
X134529511Y-81825802D01*
X134529506Y-81825802D01*
X134524226Y-81825102D01*
X134518897Y-81825302D01*
X134518895Y-81825302D01*
X134420368Y-81829001D01*
X134293842Y-81833751D01*
X134288623Y-81834846D01*
X134268849Y-81838995D01*
X134068209Y-81881093D01*
X134063250Y-81883051D01*
X134063248Y-81883052D01*
X133858744Y-81963815D01*
X133858742Y-81963816D01*
X133853779Y-81965776D01*
X133849220Y-81968543D01*
X133849217Y-81968544D01*
X133750832Y-82028246D01*
X133656683Y-82085377D01*
X133652653Y-82088874D01*
X133559484Y-82169722D01*
X133482555Y-82236477D01*
X133479168Y-82240608D01*
X133339760Y-82410627D01*
X133339756Y-82410633D01*
X133336376Y-82414755D01*
X133318448Y-82446250D01*
X133267368Y-82495555D01*
X133197738Y-82509417D01*
X133131667Y-82483434D01*
X133104427Y-82454284D01*
X133088216Y-82430205D01*
X133022559Y-82332681D01*
X132863424Y-82165865D01*
X132678458Y-82028246D01*
X132673707Y-82025830D01*
X132673703Y-82025828D01*
X132551731Y-81963815D01*
X132472949Y-81923760D01*
X132467855Y-81922178D01*
X132467852Y-81922177D01*
X132257871Y-81856976D01*
X132252773Y-81855393D01*
X132247484Y-81854692D01*
X132029511Y-81825802D01*
X132029506Y-81825802D01*
X132024226Y-81825102D01*
X132018897Y-81825302D01*
X132018895Y-81825302D01*
X131920368Y-81829001D01*
X131793842Y-81833751D01*
X131788623Y-81834846D01*
X131768849Y-81838995D01*
X131568209Y-81881093D01*
X131563250Y-81883051D01*
X131563248Y-81883052D01*
X131358744Y-81963815D01*
X131358742Y-81963816D01*
X131353779Y-81965776D01*
X131349220Y-81968543D01*
X131349217Y-81968544D01*
X131250832Y-82028246D01*
X131156683Y-82085377D01*
X131152653Y-82088874D01*
X131059484Y-82169722D01*
X130982555Y-82236477D01*
X130979168Y-82240608D01*
X130839760Y-82410627D01*
X130839756Y-82410633D01*
X130836376Y-82414755D01*
X130818448Y-82446250D01*
X130767368Y-82495555D01*
X130697738Y-82509417D01*
X130631667Y-82483434D01*
X130604427Y-82454284D01*
X130588216Y-82430205D01*
X130522559Y-82332681D01*
X130363424Y-82165865D01*
X130178458Y-82028246D01*
X130173707Y-82025830D01*
X130173703Y-82025828D01*
X130051731Y-81963815D01*
X129972949Y-81923760D01*
X129967855Y-81922178D01*
X129967852Y-81922177D01*
X129757871Y-81856976D01*
X129752773Y-81855393D01*
X129747484Y-81854692D01*
X129529511Y-81825802D01*
X129529506Y-81825802D01*
X129524226Y-81825102D01*
X129518897Y-81825302D01*
X129518895Y-81825302D01*
X129420368Y-81829001D01*
X129293842Y-81833751D01*
X129288623Y-81834846D01*
X129268849Y-81838995D01*
X129068209Y-81881093D01*
X129063250Y-81883051D01*
X129063248Y-81883052D01*
X128858744Y-81963815D01*
X128858742Y-81963816D01*
X128853779Y-81965776D01*
X128849220Y-81968543D01*
X128849217Y-81968544D01*
X128750832Y-82028246D01*
X128656683Y-82085377D01*
X128652653Y-82088874D01*
X128559484Y-82169722D01*
X128482555Y-82236477D01*
X128479168Y-82240608D01*
X128339760Y-82410627D01*
X128339756Y-82410633D01*
X128336376Y-82414755D01*
X128318448Y-82446250D01*
X128267368Y-82495555D01*
X128197738Y-82509417D01*
X128131667Y-82483434D01*
X128104427Y-82454284D01*
X128088216Y-82430205D01*
X128022559Y-82332681D01*
X127863424Y-82165865D01*
X127678458Y-82028246D01*
X127673707Y-82025830D01*
X127673703Y-82025828D01*
X127551731Y-81963815D01*
X127472949Y-81923760D01*
X127467855Y-81922178D01*
X127467852Y-81922177D01*
X127257871Y-81856976D01*
X127252773Y-81855393D01*
X127247484Y-81854692D01*
X127029511Y-81825802D01*
X127029506Y-81825802D01*
X127024226Y-81825102D01*
X127018897Y-81825302D01*
X127018895Y-81825302D01*
X126920368Y-81829001D01*
X126793842Y-81833751D01*
X126788623Y-81834846D01*
X126768849Y-81838995D01*
X126568209Y-81881093D01*
X126563250Y-81883051D01*
X126563248Y-81883052D01*
X126358744Y-81963815D01*
X126358742Y-81963816D01*
X126353779Y-81965776D01*
X126349220Y-81968543D01*
X126349217Y-81968544D01*
X126250832Y-82028246D01*
X126156683Y-82085377D01*
X126152653Y-82088874D01*
X126059484Y-82169722D01*
X125982555Y-82236477D01*
X125979168Y-82240608D01*
X125952994Y-82272529D01*
X125894334Y-82312524D01*
X125823364Y-82314455D01*
X125762616Y-82277710D01*
X125748416Y-82258941D01*
X125661937Y-82119193D01*
X125652901Y-82107792D01*
X125538171Y-81993261D01*
X125526760Y-81984249D01*
X125388757Y-81899184D01*
X125375576Y-81893037D01*
X125221290Y-81841862D01*
X125207914Y-81838995D01*
X125113562Y-81829328D01*
X125107145Y-81829000D01*
X124732115Y-81829000D01*
X124716876Y-81833475D01*
X124715671Y-81834865D01*
X124714000Y-81842548D01*
X124714000Y-84776884D01*
X124206000Y-84776884D01*
X124206000Y-83584115D01*
X124201525Y-83568876D01*
X124200135Y-83567671D01*
X124192452Y-83566000D01*
X123120116Y-83566000D01*
X123104877Y-83570475D01*
X123103672Y-83571865D01*
X123102001Y-83579548D01*
X123102001Y-84084095D01*
X117874864Y-84084095D01*
X117915032Y-84013529D01*
X117917675Y-84008886D01*
X117996337Y-83792175D01*
X118019023Y-83666720D01*
X118036623Y-83569392D01*
X118036624Y-83569385D01*
X118037361Y-83565308D01*
X118038500Y-83541156D01*
X118038500Y-83129110D01*
X118030929Y-83039885D01*
X123102000Y-83039885D01*
X123106475Y-83055124D01*
X123107865Y-83056329D01*
X123115548Y-83058000D01*
X124187885Y-83058000D01*
X124203124Y-83053525D01*
X124204329Y-83052135D01*
X124206000Y-83044452D01*
X124206000Y-81847116D01*
X124201525Y-81831877D01*
X124200135Y-81830672D01*
X124192452Y-81829001D01*
X123812905Y-81829001D01*
X123806386Y-81829338D01*
X123710794Y-81839257D01*
X123697400Y-81842149D01*
X123543216Y-81893588D01*
X123530038Y-81899761D01*
X123392193Y-81985063D01*
X123380792Y-81994099D01*
X123266261Y-82108829D01*
X123257249Y-82120240D01*
X123172184Y-82258243D01*
X123166037Y-82271424D01*
X123114862Y-82425710D01*
X123111995Y-82439086D01*
X123102328Y-82533438D01*
X123102000Y-82539855D01*
X123102000Y-83039885D01*
X118030929Y-83039885D01*
X118023920Y-82957280D01*
X118022582Y-82952125D01*
X118022581Y-82952119D01*
X117967343Y-82739297D01*
X117967342Y-82739293D01*
X117966001Y-82734128D01*
X117871312Y-82523925D01*
X117742559Y-82332681D01*
X117583424Y-82165865D01*
X117398458Y-82028246D01*
X117393707Y-82025830D01*
X117393703Y-82025828D01*
X117271731Y-81963815D01*
X117192949Y-81923760D01*
X117187855Y-81922178D01*
X117187852Y-81922177D01*
X116977871Y-81856976D01*
X116972773Y-81855393D01*
X116967484Y-81854692D01*
X116749511Y-81825802D01*
X116749506Y-81825802D01*
X116744226Y-81825102D01*
X116738897Y-81825302D01*
X116738895Y-81825302D01*
X116640368Y-81829001D01*
X116513842Y-81833751D01*
X116508623Y-81834846D01*
X116488849Y-81838995D01*
X116288209Y-81881093D01*
X116283250Y-81883051D01*
X116283248Y-81883052D01*
X116078744Y-81963815D01*
X116078742Y-81963816D01*
X116073779Y-81965776D01*
X116069220Y-81968543D01*
X116069217Y-81968544D01*
X115970832Y-82028246D01*
X115876683Y-82085377D01*
X115872653Y-82088874D01*
X115779484Y-82169722D01*
X115702555Y-82236477D01*
X115699168Y-82240608D01*
X115559760Y-82410627D01*
X115559756Y-82410633D01*
X115556376Y-82414755D01*
X115538448Y-82446250D01*
X115487368Y-82495555D01*
X115417738Y-82509417D01*
X115351667Y-82483434D01*
X115324427Y-82454284D01*
X115308216Y-82430205D01*
X115242559Y-82332681D01*
X115083424Y-82165865D01*
X114898458Y-82028246D01*
X114893707Y-82025830D01*
X114893703Y-82025828D01*
X114771731Y-81963815D01*
X114692949Y-81923760D01*
X114687855Y-81922178D01*
X114687852Y-81922177D01*
X114477871Y-81856976D01*
X114472773Y-81855393D01*
X114467484Y-81854692D01*
X114249511Y-81825802D01*
X114249506Y-81825802D01*
X114244226Y-81825102D01*
X114238897Y-81825302D01*
X114238895Y-81825302D01*
X114140368Y-81829001D01*
X114013842Y-81833751D01*
X114008623Y-81834846D01*
X113988849Y-81838995D01*
X113788209Y-81881093D01*
X113783250Y-81883051D01*
X113783248Y-81883052D01*
X113578744Y-81963815D01*
X113578742Y-81963816D01*
X113573779Y-81965776D01*
X113569220Y-81968543D01*
X113569217Y-81968544D01*
X113470832Y-82028246D01*
X113376683Y-82085377D01*
X113372653Y-82088874D01*
X113279484Y-82169722D01*
X113202555Y-82236477D01*
X113199168Y-82240608D01*
X113059760Y-82410627D01*
X113059756Y-82410633D01*
X113056376Y-82414755D01*
X113038448Y-82446250D01*
X112987368Y-82495555D01*
X112917738Y-82509417D01*
X112851667Y-82483434D01*
X112824427Y-82454284D01*
X112808216Y-82430205D01*
X112742559Y-82332681D01*
X112583424Y-82165865D01*
X112398458Y-82028246D01*
X112393707Y-82025830D01*
X112393703Y-82025828D01*
X112271731Y-81963815D01*
X112192949Y-81923760D01*
X112187855Y-81922178D01*
X112187852Y-81922177D01*
X111977871Y-81856976D01*
X111972773Y-81855393D01*
X111967484Y-81854692D01*
X111749511Y-81825802D01*
X111749506Y-81825802D01*
X111744226Y-81825102D01*
X111738897Y-81825302D01*
X111738895Y-81825302D01*
X111640368Y-81829001D01*
X111513842Y-81833751D01*
X111508623Y-81834846D01*
X111488849Y-81838995D01*
X111288209Y-81881093D01*
X111283250Y-81883051D01*
X111283248Y-81883052D01*
X111078744Y-81963815D01*
X111078742Y-81963816D01*
X111073779Y-81965776D01*
X111069220Y-81968543D01*
X111069217Y-81968544D01*
X110970832Y-82028246D01*
X110876683Y-82085377D01*
X110872653Y-82088874D01*
X110779484Y-82169722D01*
X110702555Y-82236477D01*
X110699168Y-82240608D01*
X110559760Y-82410627D01*
X110559756Y-82410633D01*
X110556376Y-82414755D01*
X110538448Y-82446250D01*
X110487368Y-82495555D01*
X110417738Y-82509417D01*
X110351667Y-82483434D01*
X110324427Y-82454284D01*
X110308216Y-82430205D01*
X110242559Y-82332681D01*
X110083424Y-82165865D01*
X109898458Y-82028246D01*
X109893707Y-82025830D01*
X109893703Y-82025828D01*
X109771731Y-81963815D01*
X109692949Y-81923760D01*
X109687855Y-81922178D01*
X109687852Y-81922177D01*
X109477871Y-81856976D01*
X109472773Y-81855393D01*
X109467484Y-81854692D01*
X109249511Y-81825802D01*
X109249506Y-81825802D01*
X109244226Y-81825102D01*
X109238897Y-81825302D01*
X109238895Y-81825302D01*
X109140368Y-81829001D01*
X109013842Y-81833751D01*
X109008623Y-81834846D01*
X108988849Y-81838995D01*
X108788209Y-81881093D01*
X108783250Y-81883051D01*
X108783248Y-81883052D01*
X108578744Y-81963815D01*
X108578742Y-81963816D01*
X108573779Y-81965776D01*
X108569220Y-81968543D01*
X108569217Y-81968544D01*
X108470832Y-82028246D01*
X108376683Y-82085377D01*
X108372653Y-82088874D01*
X108279484Y-82169722D01*
X108202555Y-82236477D01*
X108199168Y-82240608D01*
X108172994Y-82272529D01*
X108114334Y-82312524D01*
X108043364Y-82314455D01*
X107982616Y-82277710D01*
X107968416Y-82258941D01*
X107881937Y-82119193D01*
X107872901Y-82107792D01*
X107758171Y-81993261D01*
X107746760Y-81984249D01*
X107608757Y-81899184D01*
X107595576Y-81893037D01*
X107441290Y-81841862D01*
X107427914Y-81838995D01*
X107333562Y-81829328D01*
X107327145Y-81829000D01*
X106952115Y-81829000D01*
X106936876Y-81833475D01*
X106935671Y-81834865D01*
X106934000Y-81842548D01*
X106934000Y-84776884D01*
X106426000Y-84776884D01*
X106426000Y-83584115D01*
X106421525Y-83568876D01*
X106420135Y-83567671D01*
X106412452Y-83566000D01*
X105340116Y-83566000D01*
X105324877Y-83570475D01*
X105323672Y-83571865D01*
X105322001Y-83579548D01*
X105322001Y-84084095D01*
X100094864Y-84084095D01*
X100135032Y-84013529D01*
X100137675Y-84008886D01*
X100216337Y-83792175D01*
X100239023Y-83666720D01*
X100256623Y-83569392D01*
X100256624Y-83569385D01*
X100257361Y-83565308D01*
X100258500Y-83541156D01*
X100258500Y-83129110D01*
X100250929Y-83039885D01*
X105322000Y-83039885D01*
X105326475Y-83055124D01*
X105327865Y-83056329D01*
X105335548Y-83058000D01*
X106407885Y-83058000D01*
X106423124Y-83053525D01*
X106424329Y-83052135D01*
X106426000Y-83044452D01*
X106426000Y-81847116D01*
X106421525Y-81831877D01*
X106420135Y-81830672D01*
X106412452Y-81829001D01*
X106032905Y-81829001D01*
X106026386Y-81829338D01*
X105930794Y-81839257D01*
X105917400Y-81842149D01*
X105763216Y-81893588D01*
X105750038Y-81899761D01*
X105612193Y-81985063D01*
X105600792Y-81994099D01*
X105486261Y-82108829D01*
X105477249Y-82120240D01*
X105392184Y-82258243D01*
X105386037Y-82271424D01*
X105334862Y-82425710D01*
X105331995Y-82439086D01*
X105322328Y-82533438D01*
X105322000Y-82539855D01*
X105322000Y-83039885D01*
X100250929Y-83039885D01*
X100243920Y-82957280D01*
X100242582Y-82952125D01*
X100242581Y-82952119D01*
X100187343Y-82739297D01*
X100187342Y-82739293D01*
X100186001Y-82734128D01*
X100091312Y-82523925D01*
X99962559Y-82332681D01*
X99803424Y-82165865D01*
X99618458Y-82028246D01*
X99613707Y-82025830D01*
X99613703Y-82025828D01*
X99491731Y-81963815D01*
X99412949Y-81923760D01*
X99407855Y-81922178D01*
X99407852Y-81922177D01*
X99197871Y-81856976D01*
X99192773Y-81855393D01*
X99187484Y-81854692D01*
X98969511Y-81825802D01*
X98969506Y-81825802D01*
X98964226Y-81825102D01*
X98958897Y-81825302D01*
X98958895Y-81825302D01*
X98860368Y-81829001D01*
X98733842Y-81833751D01*
X98728623Y-81834846D01*
X98708849Y-81838995D01*
X98508209Y-81881093D01*
X98503250Y-81883051D01*
X98503248Y-81883052D01*
X98298744Y-81963815D01*
X98298742Y-81963816D01*
X98293779Y-81965776D01*
X98289220Y-81968543D01*
X98289217Y-81968544D01*
X98190832Y-82028246D01*
X98096683Y-82085377D01*
X98092653Y-82088874D01*
X97999484Y-82169722D01*
X97922555Y-82236477D01*
X97919168Y-82240608D01*
X97779760Y-82410627D01*
X97779756Y-82410633D01*
X97776376Y-82414755D01*
X97758448Y-82446250D01*
X97707368Y-82495555D01*
X97637738Y-82509417D01*
X97571667Y-82483434D01*
X97544427Y-82454284D01*
X97528216Y-82430205D01*
X97462559Y-82332681D01*
X97303424Y-82165865D01*
X97118458Y-82028246D01*
X97113707Y-82025830D01*
X97113703Y-82025828D01*
X96991731Y-81963815D01*
X96912949Y-81923760D01*
X96907855Y-81922178D01*
X96907852Y-81922177D01*
X96697871Y-81856976D01*
X96692773Y-81855393D01*
X96687484Y-81854692D01*
X96469511Y-81825802D01*
X96469506Y-81825802D01*
X96464226Y-81825102D01*
X96458897Y-81825302D01*
X96458895Y-81825302D01*
X96360368Y-81829001D01*
X96233842Y-81833751D01*
X96228623Y-81834846D01*
X96208849Y-81838995D01*
X96008209Y-81881093D01*
X96003250Y-81883051D01*
X96003248Y-81883052D01*
X95798744Y-81963815D01*
X95798742Y-81963816D01*
X95793779Y-81965776D01*
X95789220Y-81968543D01*
X95789217Y-81968544D01*
X95690832Y-82028246D01*
X95596683Y-82085377D01*
X95592653Y-82088874D01*
X95499484Y-82169722D01*
X95422555Y-82236477D01*
X95419168Y-82240608D01*
X95279760Y-82410627D01*
X95279756Y-82410633D01*
X95276376Y-82414755D01*
X95258448Y-82446250D01*
X95207368Y-82495555D01*
X95137738Y-82509417D01*
X95071667Y-82483434D01*
X95044427Y-82454284D01*
X95028216Y-82430205D01*
X94962559Y-82332681D01*
X94803424Y-82165865D01*
X94618458Y-82028246D01*
X94613707Y-82025830D01*
X94613703Y-82025828D01*
X94491731Y-81963815D01*
X94412949Y-81923760D01*
X94407855Y-81922178D01*
X94407852Y-81922177D01*
X94197871Y-81856976D01*
X94192773Y-81855393D01*
X94187484Y-81854692D01*
X93969511Y-81825802D01*
X93969506Y-81825802D01*
X93964226Y-81825102D01*
X93958897Y-81825302D01*
X93958895Y-81825302D01*
X93860368Y-81829001D01*
X93733842Y-81833751D01*
X93728623Y-81834846D01*
X93708849Y-81838995D01*
X93508209Y-81881093D01*
X93503250Y-81883051D01*
X93503248Y-81883052D01*
X93298744Y-81963815D01*
X93298742Y-81963816D01*
X93293779Y-81965776D01*
X93289220Y-81968543D01*
X93289217Y-81968544D01*
X93190832Y-82028246D01*
X93096683Y-82085377D01*
X93092653Y-82088874D01*
X92999484Y-82169722D01*
X92922555Y-82236477D01*
X92919168Y-82240608D01*
X92779760Y-82410627D01*
X92779756Y-82410633D01*
X92776376Y-82414755D01*
X92758448Y-82446250D01*
X92707368Y-82495555D01*
X92637738Y-82509417D01*
X92571667Y-82483434D01*
X92544427Y-82454284D01*
X92528216Y-82430205D01*
X92462559Y-82332681D01*
X92303424Y-82165865D01*
X92118458Y-82028246D01*
X92113707Y-82025830D01*
X92113703Y-82025828D01*
X91991731Y-81963815D01*
X91912949Y-81923760D01*
X91907855Y-81922178D01*
X91907852Y-81922177D01*
X91697871Y-81856976D01*
X91692773Y-81855393D01*
X91687484Y-81854692D01*
X91469511Y-81825802D01*
X91469506Y-81825802D01*
X91464226Y-81825102D01*
X91458897Y-81825302D01*
X91458895Y-81825302D01*
X91360368Y-81829001D01*
X91233842Y-81833751D01*
X91228623Y-81834846D01*
X91208849Y-81838995D01*
X91008209Y-81881093D01*
X91003250Y-81883051D01*
X91003248Y-81883052D01*
X90798744Y-81963815D01*
X90798742Y-81963816D01*
X90793779Y-81965776D01*
X90789220Y-81968543D01*
X90789217Y-81968544D01*
X90690832Y-82028246D01*
X90596683Y-82085377D01*
X90592653Y-82088874D01*
X90499484Y-82169722D01*
X90422555Y-82236477D01*
X90419168Y-82240608D01*
X90392994Y-82272529D01*
X90334334Y-82312524D01*
X90263364Y-82314455D01*
X90202616Y-82277710D01*
X90188416Y-82258941D01*
X90101937Y-82119193D01*
X90092901Y-82107792D01*
X89978171Y-81993261D01*
X89966760Y-81984249D01*
X89828757Y-81899184D01*
X89815576Y-81893037D01*
X89661290Y-81841862D01*
X89647914Y-81838995D01*
X89553562Y-81829328D01*
X89547145Y-81829000D01*
X89172115Y-81829000D01*
X89156876Y-81833475D01*
X89155671Y-81834865D01*
X89154000Y-81842548D01*
X89154000Y-84776884D01*
X88646000Y-84776884D01*
X88646000Y-83584115D01*
X88641525Y-83568876D01*
X88640135Y-83567671D01*
X88632452Y-83566000D01*
X87560116Y-83566000D01*
X87544877Y-83570475D01*
X87543672Y-83571865D01*
X87542001Y-83579548D01*
X87542001Y-84084095D01*
X82314864Y-84084095D01*
X82355032Y-84013529D01*
X82357675Y-84008886D01*
X82436337Y-83792175D01*
X82459023Y-83666720D01*
X82476623Y-83569392D01*
X82476624Y-83569385D01*
X82477361Y-83565308D01*
X82478500Y-83541156D01*
X82478500Y-83129110D01*
X82470929Y-83039885D01*
X87542000Y-83039885D01*
X87546475Y-83055124D01*
X87547865Y-83056329D01*
X87555548Y-83058000D01*
X88627885Y-83058000D01*
X88643124Y-83053525D01*
X88644329Y-83052135D01*
X88646000Y-83044452D01*
X88646000Y-81847116D01*
X88641525Y-81831877D01*
X88640135Y-81830672D01*
X88632452Y-81829001D01*
X88252905Y-81829001D01*
X88246386Y-81829338D01*
X88150794Y-81839257D01*
X88137400Y-81842149D01*
X87983216Y-81893588D01*
X87970038Y-81899761D01*
X87832193Y-81985063D01*
X87820792Y-81994099D01*
X87706261Y-82108829D01*
X87697249Y-82120240D01*
X87612184Y-82258243D01*
X87606037Y-82271424D01*
X87554862Y-82425710D01*
X87551995Y-82439086D01*
X87542328Y-82533438D01*
X87542000Y-82539855D01*
X87542000Y-83039885D01*
X82470929Y-83039885D01*
X82463920Y-82957280D01*
X82462582Y-82952125D01*
X82462581Y-82952119D01*
X82407343Y-82739297D01*
X82407342Y-82739293D01*
X82406001Y-82734128D01*
X82311312Y-82523925D01*
X82182559Y-82332681D01*
X82023424Y-82165865D01*
X81838458Y-82028246D01*
X81833707Y-82025830D01*
X81833703Y-82025828D01*
X81711731Y-81963815D01*
X81632949Y-81923760D01*
X81627855Y-81922178D01*
X81627852Y-81922177D01*
X81417871Y-81856976D01*
X81412773Y-81855393D01*
X81407484Y-81854692D01*
X81189511Y-81825802D01*
X81189506Y-81825802D01*
X81184226Y-81825102D01*
X81178897Y-81825302D01*
X81178895Y-81825302D01*
X81080368Y-81829001D01*
X80953842Y-81833751D01*
X80948623Y-81834846D01*
X80928849Y-81838995D01*
X80728209Y-81881093D01*
X80723250Y-81883051D01*
X80723248Y-81883052D01*
X80518744Y-81963815D01*
X80518742Y-81963816D01*
X80513779Y-81965776D01*
X80509220Y-81968543D01*
X80509217Y-81968544D01*
X80410832Y-82028246D01*
X80316683Y-82085377D01*
X80312653Y-82088874D01*
X80219484Y-82169722D01*
X80142555Y-82236477D01*
X80139168Y-82240608D01*
X79999760Y-82410627D01*
X79999756Y-82410633D01*
X79996376Y-82414755D01*
X79978448Y-82446250D01*
X79927368Y-82495555D01*
X79857738Y-82509417D01*
X79791667Y-82483434D01*
X79764427Y-82454284D01*
X79748216Y-82430205D01*
X79682559Y-82332681D01*
X79523424Y-82165865D01*
X79338458Y-82028246D01*
X79333707Y-82025830D01*
X79333703Y-82025828D01*
X79211731Y-81963815D01*
X79132949Y-81923760D01*
X79127855Y-81922178D01*
X79127852Y-81922177D01*
X78917871Y-81856976D01*
X78912773Y-81855393D01*
X78907484Y-81854692D01*
X78689511Y-81825802D01*
X78689506Y-81825802D01*
X78684226Y-81825102D01*
X78678897Y-81825302D01*
X78678895Y-81825302D01*
X78580368Y-81829001D01*
X78453842Y-81833751D01*
X78448623Y-81834846D01*
X78428849Y-81838995D01*
X78228209Y-81881093D01*
X78223250Y-81883051D01*
X78223248Y-81883052D01*
X78018744Y-81963815D01*
X78018742Y-81963816D01*
X78013779Y-81965776D01*
X78009220Y-81968543D01*
X78009217Y-81968544D01*
X77910832Y-82028246D01*
X77816683Y-82085377D01*
X77812653Y-82088874D01*
X77719484Y-82169722D01*
X77642555Y-82236477D01*
X77639168Y-82240608D01*
X77499760Y-82410627D01*
X77499756Y-82410633D01*
X77496376Y-82414755D01*
X77478448Y-82446250D01*
X77427368Y-82495555D01*
X77357738Y-82509417D01*
X77291667Y-82483434D01*
X77264427Y-82454284D01*
X77248216Y-82430205D01*
X77182559Y-82332681D01*
X77023424Y-82165865D01*
X76838458Y-82028246D01*
X76833707Y-82025830D01*
X76833703Y-82025828D01*
X76711731Y-81963815D01*
X76632949Y-81923760D01*
X76627855Y-81922178D01*
X76627852Y-81922177D01*
X76417871Y-81856976D01*
X76412773Y-81855393D01*
X76407484Y-81854692D01*
X76189511Y-81825802D01*
X76189506Y-81825802D01*
X76184226Y-81825102D01*
X76178897Y-81825302D01*
X76178895Y-81825302D01*
X76080368Y-81829001D01*
X75953842Y-81833751D01*
X75948623Y-81834846D01*
X75928849Y-81838995D01*
X75728209Y-81881093D01*
X75723250Y-81883051D01*
X75723248Y-81883052D01*
X75518744Y-81963815D01*
X75518742Y-81963816D01*
X75513779Y-81965776D01*
X75509220Y-81968543D01*
X75509217Y-81968544D01*
X75410832Y-82028246D01*
X75316683Y-82085377D01*
X75312653Y-82088874D01*
X75219484Y-82169722D01*
X75142555Y-82236477D01*
X75139168Y-82240608D01*
X74999760Y-82410627D01*
X74999756Y-82410633D01*
X74996376Y-82414755D01*
X74978448Y-82446250D01*
X74927368Y-82495555D01*
X74857738Y-82509417D01*
X74791667Y-82483434D01*
X74764427Y-82454284D01*
X74748216Y-82430205D01*
X74682559Y-82332681D01*
X74523424Y-82165865D01*
X74338458Y-82028246D01*
X74333707Y-82025830D01*
X74333703Y-82025828D01*
X74211731Y-81963815D01*
X74132949Y-81923760D01*
X74127855Y-81922178D01*
X74127852Y-81922177D01*
X73917871Y-81856976D01*
X73912773Y-81855393D01*
X73907484Y-81854692D01*
X73689511Y-81825802D01*
X73689506Y-81825802D01*
X73684226Y-81825102D01*
X73678897Y-81825302D01*
X73678895Y-81825302D01*
X73580368Y-81829001D01*
X73453842Y-81833751D01*
X73448623Y-81834846D01*
X73428849Y-81838995D01*
X73228209Y-81881093D01*
X73223250Y-81883051D01*
X73223248Y-81883052D01*
X73018744Y-81963815D01*
X73018742Y-81963816D01*
X73013779Y-81965776D01*
X73009220Y-81968543D01*
X73009217Y-81968544D01*
X72910832Y-82028246D01*
X72816683Y-82085377D01*
X72812653Y-82088874D01*
X72719484Y-82169722D01*
X72642555Y-82236477D01*
X72639168Y-82240608D01*
X72612994Y-82272529D01*
X72554334Y-82312524D01*
X72483364Y-82314455D01*
X72422616Y-82277710D01*
X72408416Y-82258941D01*
X72321937Y-82119193D01*
X72312901Y-82107792D01*
X72198171Y-81993261D01*
X72186760Y-81984249D01*
X72048757Y-81899184D01*
X72035576Y-81893037D01*
X71881290Y-81841862D01*
X71867914Y-81838995D01*
X71773562Y-81829328D01*
X71767145Y-81829000D01*
X71392115Y-81829000D01*
X71376876Y-81833475D01*
X71375671Y-81834865D01*
X71374000Y-81842548D01*
X71374000Y-84776884D01*
X70866000Y-84776884D01*
X70866000Y-83584115D01*
X70861525Y-83568876D01*
X70860135Y-83567671D01*
X70852452Y-83566000D01*
X69780116Y-83566000D01*
X69764877Y-83570475D01*
X69763672Y-83571865D01*
X69762001Y-83579548D01*
X69762001Y-84084095D01*
X66798541Y-84084095D01*
X66813168Y-83844928D01*
X66813278Y-83843131D01*
X66813359Y-83820000D01*
X66793979Y-83462159D01*
X66736066Y-83108505D01*
X66717036Y-83039885D01*
X69762000Y-83039885D01*
X69766475Y-83055124D01*
X69767865Y-83056329D01*
X69775548Y-83058000D01*
X70847885Y-83058000D01*
X70863124Y-83053525D01*
X70864329Y-83052135D01*
X70866000Y-83044452D01*
X70866000Y-81847116D01*
X70861525Y-81831877D01*
X70860135Y-81830672D01*
X70852452Y-81829001D01*
X70472905Y-81829001D01*
X70466386Y-81829338D01*
X70370794Y-81839257D01*
X70357400Y-81842149D01*
X70203216Y-81893588D01*
X70190038Y-81899761D01*
X70052193Y-81985063D01*
X70040792Y-81994099D01*
X69926261Y-82108829D01*
X69917249Y-82120240D01*
X69832184Y-82258243D01*
X69826037Y-82271424D01*
X69774862Y-82425710D01*
X69771995Y-82439086D01*
X69762328Y-82533438D01*
X69762000Y-82539855D01*
X69762000Y-83039885D01*
X66717036Y-83039885D01*
X66640297Y-82763173D01*
X66637243Y-82755497D01*
X66509052Y-82433369D01*
X66507793Y-82430205D01*
X66456157Y-82332681D01*
X66341702Y-82116513D01*
X66341698Y-82116506D01*
X66340103Y-82113494D01*
X66139190Y-81816746D01*
X65907403Y-81543432D01*
X65647454Y-81296750D01*
X65362384Y-81079585D01*
X65359472Y-81077828D01*
X65359467Y-81077825D01*
X65058443Y-80896236D01*
X65058437Y-80896233D01*
X65055528Y-80894478D01*
X64730475Y-80743593D01*
X64560752Y-80686145D01*
X64394255Y-80629789D01*
X64394250Y-80629788D01*
X64391028Y-80628697D01*
X64192681Y-80584724D01*
X64044493Y-80551871D01*
X64044487Y-80551870D01*
X64041158Y-80551132D01*
X64037769Y-80550758D01*
X64037764Y-80550757D01*
X63688338Y-80512180D01*
X63688333Y-80512180D01*
X63684957Y-80511807D01*
X63681558Y-80511801D01*
X63681557Y-80511801D01*
X63512080Y-80511505D01*
X63326592Y-80511182D01*
X63213413Y-80523277D01*
X62973639Y-80548901D01*
X62973631Y-80548902D01*
X62970256Y-80549263D01*
X62620117Y-80625606D01*
X62280271Y-80739317D01*
X62277178Y-80740739D01*
X62277177Y-80740740D01*
X62270974Y-80743593D01*
X61954694Y-80889066D01*
X61647193Y-81073101D01*
X61644467Y-81075163D01*
X61644465Y-81075164D01*
X61638620Y-81079585D01*
X61361367Y-81289270D01*
X61100559Y-81535043D01*
X60867819Y-81807546D01*
X60865900Y-81810358D01*
X60865897Y-81810363D01*
X60817649Y-81881093D01*
X60665871Y-82103591D01*
X60497077Y-82419714D01*
X60363411Y-82752218D01*
X60362491Y-82755492D01*
X60362489Y-82755497D01*
X60277265Y-83058692D01*
X60266437Y-83097213D01*
X60207290Y-83450663D01*
X60186661Y-83808434D01*
X58928000Y-83808434D01*
X58928000Y-72869695D01*
X60862251Y-72869695D01*
X60862548Y-72874848D01*
X60862548Y-72874851D01*
X60870120Y-73006166D01*
X60875110Y-73092715D01*
X60876247Y-73097761D01*
X60876248Y-73097767D01*
X60896100Y-73185852D01*
X60924222Y-73310639D01*
X60962461Y-73404811D01*
X60988961Y-73470072D01*
X61008266Y-73517616D01*
X61059019Y-73600438D01*
X61122291Y-73703688D01*
X61124987Y-73708088D01*
X61271250Y-73876938D01*
X61275230Y-73880242D01*
X61279981Y-73884187D01*
X61319616Y-73943090D01*
X61321113Y-74014071D01*
X61283997Y-74074593D01*
X61243725Y-74099112D01*
X61202913Y-74114412D01*
X61128295Y-74142385D01*
X61011739Y-74229739D01*
X60924385Y-74346295D01*
X60873255Y-74482684D01*
X60866500Y-74544866D01*
X60866500Y-76341134D01*
X60873255Y-76403316D01*
X60924385Y-76539705D01*
X61011739Y-76656261D01*
X61128295Y-76743615D01*
X61264684Y-76794745D01*
X61326866Y-76801500D01*
X63123134Y-76801500D01*
X63185316Y-76794745D01*
X63321705Y-76743615D01*
X63438261Y-76656261D01*
X63525615Y-76539705D01*
X63530346Y-76527086D01*
X63569598Y-76422382D01*
X63612240Y-76365618D01*
X63678802Y-76340918D01*
X63748150Y-76356126D01*
X63782817Y-76384114D01*
X63811250Y-76416938D01*
X63983126Y-76559632D01*
X64176000Y-76672338D01*
X64384692Y-76752030D01*
X64389760Y-76753061D01*
X64389763Y-76753062D01*
X64484862Y-76772410D01*
X64603597Y-76796567D01*
X64608772Y-76796757D01*
X64608774Y-76796757D01*
X64821673Y-76804564D01*
X64821677Y-76804564D01*
X64826837Y-76804753D01*
X64831957Y-76804097D01*
X64831959Y-76804097D01*
X65043288Y-76777025D01*
X65043289Y-76777025D01*
X65048416Y-76776368D01*
X65053366Y-76774883D01*
X65257429Y-76713661D01*
X65257434Y-76713659D01*
X65262384Y-76712174D01*
X65462994Y-76613896D01*
X65644860Y-76484173D01*
X65803096Y-76326489D01*
X65933453Y-76145077D01*
X65934776Y-76146028D01*
X65981645Y-76102857D01*
X66051580Y-76090625D01*
X66117026Y-76118144D01*
X66144875Y-76149994D01*
X66204987Y-76248088D01*
X66351250Y-76416938D01*
X66523126Y-76559632D01*
X66716000Y-76672338D01*
X66924692Y-76752030D01*
X66929760Y-76753061D01*
X66929763Y-76753062D01*
X67024862Y-76772410D01*
X67143597Y-76796567D01*
X67148772Y-76796757D01*
X67148774Y-76796757D01*
X67361673Y-76804564D01*
X67361677Y-76804564D01*
X67366837Y-76804753D01*
X67371957Y-76804097D01*
X67371959Y-76804097D01*
X67583288Y-76777025D01*
X67583289Y-76777025D01*
X67588416Y-76776368D01*
X67593366Y-76774883D01*
X67797429Y-76713661D01*
X67797434Y-76713659D01*
X67802384Y-76712174D01*
X68002994Y-76613896D01*
X68184860Y-76484173D01*
X68343096Y-76326489D01*
X68473453Y-76145077D01*
X68474776Y-76146028D01*
X68521645Y-76102857D01*
X68591580Y-76090625D01*
X68657026Y-76118144D01*
X68684875Y-76149994D01*
X68744987Y-76248088D01*
X68891250Y-76416938D01*
X69063126Y-76559632D01*
X69256000Y-76672338D01*
X69464692Y-76752030D01*
X69469760Y-76753061D01*
X69469763Y-76753062D01*
X69564862Y-76772410D01*
X69683597Y-76796567D01*
X69688772Y-76796757D01*
X69688774Y-76796757D01*
X69901673Y-76804564D01*
X69901677Y-76804564D01*
X69906837Y-76804753D01*
X69911957Y-76804097D01*
X69911959Y-76804097D01*
X70123288Y-76777025D01*
X70123289Y-76777025D01*
X70128416Y-76776368D01*
X70133366Y-76774883D01*
X70337429Y-76713661D01*
X70337434Y-76713659D01*
X70342384Y-76712174D01*
X70542994Y-76613896D01*
X70724860Y-76484173D01*
X70883096Y-76326489D01*
X71013453Y-76145077D01*
X71014640Y-76145930D01*
X71061960Y-76102362D01*
X71131897Y-76090145D01*
X71197338Y-76117678D01*
X71225166Y-76149511D01*
X71282694Y-76243388D01*
X71288777Y-76251699D01*
X71428213Y-76412667D01*
X71435580Y-76419883D01*
X71599434Y-76555916D01*
X71607881Y-76561831D01*
X71791756Y-76669279D01*
X71801042Y-76673729D01*
X72000001Y-76749703D01*
X72009899Y-76752579D01*
X72113250Y-76773606D01*
X72127299Y-76772410D01*
X72131000Y-76762065D01*
X72131000Y-76761517D01*
X72639000Y-76761517D01*
X72643064Y-76775359D01*
X72656478Y-76777393D01*
X72663184Y-76776534D01*
X72673262Y-76774392D01*
X72877255Y-76713191D01*
X72886842Y-76709433D01*
X72889767Y-76708000D01*
X85446496Y-76708000D01*
X85447186Y-76714565D01*
X85450571Y-76746767D01*
X85466458Y-76897928D01*
X85525473Y-77079556D01*
X85620960Y-77244944D01*
X85748747Y-77386866D01*
X85903248Y-77499118D01*
X85909276Y-77501802D01*
X85909278Y-77501803D01*
X86071681Y-77574109D01*
X86077712Y-77576794D01*
X86171113Y-77596647D01*
X86258056Y-77615128D01*
X86258061Y-77615128D01*
X86264513Y-77616500D01*
X86455487Y-77616500D01*
X86461939Y-77615128D01*
X86461944Y-77615128D01*
X86548887Y-77596647D01*
X86642288Y-77576794D01*
X86648319Y-77574109D01*
X86810722Y-77501803D01*
X86810724Y-77501802D01*
X86816752Y-77499118D01*
X86971253Y-77386866D01*
X87099040Y-77244944D01*
X87194527Y-77079556D01*
X87253542Y-76897928D01*
X87269430Y-76746767D01*
X87272814Y-76714565D01*
X87273504Y-76708000D01*
X87263253Y-76610464D01*
X87254232Y-76524635D01*
X87254232Y-76524633D01*
X87253542Y-76518072D01*
X87194527Y-76336444D01*
X87188780Y-76326489D01*
X87145599Y-76251699D01*
X87099040Y-76171056D01*
X87076417Y-76145930D01*
X86975675Y-76034045D01*
X86975674Y-76034044D01*
X86971253Y-76029134D01*
X86816752Y-75916882D01*
X86810724Y-75914198D01*
X86810722Y-75914197D01*
X86648319Y-75841891D01*
X86648318Y-75841891D01*
X86642288Y-75839206D01*
X86548887Y-75819353D01*
X86461944Y-75800872D01*
X86461939Y-75800872D01*
X86455487Y-75799500D01*
X86264513Y-75799500D01*
X86258061Y-75800872D01*
X86258056Y-75800872D01*
X86171113Y-75819353D01*
X86077712Y-75839206D01*
X86071682Y-75841891D01*
X86071681Y-75841891D01*
X85909278Y-75914197D01*
X85909276Y-75914198D01*
X85903248Y-75916882D01*
X85748747Y-76029134D01*
X85744326Y-76034044D01*
X85744325Y-76034045D01*
X85643584Y-76145930D01*
X85620960Y-76171056D01*
X85574401Y-76251699D01*
X85531221Y-76326489D01*
X85525473Y-76336444D01*
X85466458Y-76518072D01*
X85465768Y-76524633D01*
X85465768Y-76524635D01*
X85456747Y-76610464D01*
X85446496Y-76708000D01*
X72889767Y-76708000D01*
X73078095Y-76615739D01*
X73086945Y-76610464D01*
X73260328Y-76486792D01*
X73268200Y-76480139D01*
X73419052Y-76329812D01*
X73425730Y-76321965D01*
X73550003Y-76149020D01*
X73555313Y-76140183D01*
X73649670Y-75949267D01*
X73653469Y-75939672D01*
X73715377Y-75735910D01*
X73717555Y-75725837D01*
X73718986Y-75714962D01*
X73716775Y-75700778D01*
X73703617Y-75697000D01*
X72657115Y-75697000D01*
X72641876Y-75701475D01*
X72640671Y-75702865D01*
X72639000Y-75710548D01*
X72639000Y-76761517D01*
X72131000Y-76761517D01*
X72131000Y-75315000D01*
X72151002Y-75246879D01*
X72204658Y-75200386D01*
X72257000Y-75189000D01*
X73703344Y-75189000D01*
X73716875Y-75185027D01*
X73718180Y-75175947D01*
X73676214Y-75008875D01*
X73672894Y-74999124D01*
X73587972Y-74803814D01*
X73583105Y-74794739D01*
X73467426Y-74615926D01*
X73461136Y-74607757D01*
X73317806Y-74450240D01*
X73310273Y-74443215D01*
X73143139Y-74311222D01*
X73134556Y-74305520D01*
X73097602Y-74285120D01*
X73047631Y-74234687D01*
X73032859Y-74165245D01*
X73057975Y-74098839D01*
X73085327Y-74072232D01*
X73151164Y-74025271D01*
X73264860Y-73944173D01*
X73269814Y-73939237D01*
X73419435Y-73790137D01*
X73423096Y-73786489D01*
X73482594Y-73703689D01*
X73550435Y-73609277D01*
X73553453Y-73605077D01*
X73574320Y-73562857D01*
X73650136Y-73409453D01*
X73650137Y-73409451D01*
X73652430Y-73404811D01*
X73717370Y-73191069D01*
X73746529Y-72969590D01*
X73748156Y-72903000D01*
X73729852Y-72680361D01*
X73675431Y-72463702D01*
X73586354Y-72258840D01*
X73491860Y-72112774D01*
X73467822Y-72075617D01*
X73467820Y-72075614D01*
X73465014Y-72071277D01*
X73314670Y-71906051D01*
X73310619Y-71902852D01*
X73310615Y-71902848D01*
X73143414Y-71770800D01*
X73143410Y-71770798D01*
X73139359Y-71767598D01*
X73123279Y-71758721D01*
X73017441Y-71700296D01*
X72943789Y-71659638D01*
X72938920Y-71657914D01*
X72938916Y-71657912D01*
X72738087Y-71586795D01*
X72738083Y-71586794D01*
X72733212Y-71585069D01*
X72728119Y-71584162D01*
X72728116Y-71584161D01*
X72518373Y-71546800D01*
X72518367Y-71546799D01*
X72513284Y-71545894D01*
X72439452Y-71544992D01*
X72295081Y-71543228D01*
X72295079Y-71543228D01*
X72289911Y-71543165D01*
X72069091Y-71576955D01*
X71856756Y-71646357D01*
X71658607Y-71749507D01*
X71654474Y-71752610D01*
X71654471Y-71752612D01*
X71559117Y-71824206D01*
X71479965Y-71883635D01*
X71325629Y-72045138D01*
X71218201Y-72202621D01*
X71163293Y-72247621D01*
X71092768Y-72255792D01*
X71029021Y-72224538D01*
X71008324Y-72200054D01*
X70927822Y-72075617D01*
X70927820Y-72075614D01*
X70925014Y-72071277D01*
X70774670Y-71906051D01*
X70770619Y-71902852D01*
X70770615Y-71902848D01*
X70603414Y-71770800D01*
X70603410Y-71770798D01*
X70599359Y-71767598D01*
X70583279Y-71758721D01*
X70477441Y-71700296D01*
X70403789Y-71659638D01*
X70398920Y-71657914D01*
X70398916Y-71657912D01*
X70198087Y-71586795D01*
X70198083Y-71586794D01*
X70193212Y-71585069D01*
X70188119Y-71584162D01*
X70188116Y-71584161D01*
X69978373Y-71546800D01*
X69978367Y-71546799D01*
X69973284Y-71545894D01*
X69899452Y-71544992D01*
X69755081Y-71543228D01*
X69755079Y-71543228D01*
X69749911Y-71543165D01*
X69529091Y-71576955D01*
X69316756Y-71646357D01*
X69118607Y-71749507D01*
X69114474Y-71752610D01*
X69114471Y-71752612D01*
X69019117Y-71824206D01*
X68939965Y-71883635D01*
X68785629Y-72045138D01*
X68678201Y-72202621D01*
X68623293Y-72247621D01*
X68552768Y-72255792D01*
X68489021Y-72224538D01*
X68468324Y-72200054D01*
X68387822Y-72075617D01*
X68387820Y-72075614D01*
X68385014Y-72071277D01*
X68234670Y-71906051D01*
X68230619Y-71902852D01*
X68230615Y-71902848D01*
X68063414Y-71770800D01*
X68063410Y-71770798D01*
X68059359Y-71767598D01*
X68043279Y-71758721D01*
X67937441Y-71700296D01*
X67863789Y-71659638D01*
X67858920Y-71657914D01*
X67858916Y-71657912D01*
X67658087Y-71586795D01*
X67658083Y-71586794D01*
X67653212Y-71585069D01*
X67648119Y-71584162D01*
X67648116Y-71584161D01*
X67438373Y-71546800D01*
X67438367Y-71546799D01*
X67433284Y-71545894D01*
X67359452Y-71544992D01*
X67215081Y-71543228D01*
X67215079Y-71543228D01*
X67209911Y-71543165D01*
X66989091Y-71576955D01*
X66776756Y-71646357D01*
X66578607Y-71749507D01*
X66574474Y-71752610D01*
X66574471Y-71752612D01*
X66479117Y-71824206D01*
X66399965Y-71883635D01*
X66245629Y-72045138D01*
X66138201Y-72202621D01*
X66083293Y-72247621D01*
X66012768Y-72255792D01*
X65949021Y-72224538D01*
X65928324Y-72200054D01*
X65847822Y-72075617D01*
X65847820Y-72075614D01*
X65845014Y-72071277D01*
X65694670Y-71906051D01*
X65690619Y-71902852D01*
X65690615Y-71902848D01*
X65523414Y-71770800D01*
X65523410Y-71770798D01*
X65519359Y-71767598D01*
X65503279Y-71758721D01*
X65397441Y-71700296D01*
X65323789Y-71659638D01*
X65318920Y-71657914D01*
X65318916Y-71657912D01*
X65118087Y-71586795D01*
X65118083Y-71586794D01*
X65113212Y-71585069D01*
X65108119Y-71584162D01*
X65108116Y-71584161D01*
X64898373Y-71546800D01*
X64898367Y-71546799D01*
X64893284Y-71545894D01*
X64819452Y-71544992D01*
X64675081Y-71543228D01*
X64675079Y-71543228D01*
X64669911Y-71543165D01*
X64449091Y-71576955D01*
X64236756Y-71646357D01*
X64038607Y-71749507D01*
X64034474Y-71752610D01*
X64034471Y-71752612D01*
X63939117Y-71824206D01*
X63859965Y-71883635D01*
X63705629Y-72045138D01*
X63598201Y-72202621D01*
X63543293Y-72247621D01*
X63472768Y-72255792D01*
X63409021Y-72224538D01*
X63388324Y-72200054D01*
X63307822Y-72075617D01*
X63307820Y-72075614D01*
X63305014Y-72071277D01*
X63154670Y-71906051D01*
X63150619Y-71902852D01*
X63150615Y-71902848D01*
X62983414Y-71770800D01*
X62983410Y-71770798D01*
X62979359Y-71767598D01*
X62963279Y-71758721D01*
X62857441Y-71700296D01*
X62783789Y-71659638D01*
X62778920Y-71657914D01*
X62778916Y-71657912D01*
X62578087Y-71586795D01*
X62578083Y-71586794D01*
X62573212Y-71585069D01*
X62568119Y-71584162D01*
X62568116Y-71584161D01*
X62358373Y-71546800D01*
X62358367Y-71546799D01*
X62353284Y-71545894D01*
X62279452Y-71544992D01*
X62135081Y-71543228D01*
X62135079Y-71543228D01*
X62129911Y-71543165D01*
X61909091Y-71576955D01*
X61696756Y-71646357D01*
X61498607Y-71749507D01*
X61494474Y-71752610D01*
X61494471Y-71752612D01*
X61399117Y-71824206D01*
X61319965Y-71883635D01*
X61165629Y-72045138D01*
X61039743Y-72229680D01*
X61006194Y-72301955D01*
X60953611Y-72415237D01*
X60945688Y-72432305D01*
X60885989Y-72647570D01*
X60862251Y-72869695D01*
X58928000Y-72869695D01*
X58928000Y-70104000D01*
X78207496Y-70104000D01*
X78208186Y-70110565D01*
X78222824Y-70249834D01*
X78227458Y-70293928D01*
X78286473Y-70475556D01*
X78381960Y-70640944D01*
X78509747Y-70782866D01*
X78664248Y-70895118D01*
X78670276Y-70897802D01*
X78670278Y-70897803D01*
X78817855Y-70963508D01*
X78838712Y-70972794D01*
X78932112Y-70992647D01*
X79019056Y-71011128D01*
X79019061Y-71011128D01*
X79025513Y-71012500D01*
X79216487Y-71012500D01*
X79222939Y-71011128D01*
X79222944Y-71011128D01*
X79309888Y-70992647D01*
X79403288Y-70972794D01*
X79470575Y-70942836D01*
X79540942Y-70933402D01*
X79605239Y-70963508D01*
X79643053Y-71023597D01*
X79647134Y-71071113D01*
X79641996Y-71120000D01*
X79642686Y-71126565D01*
X79657324Y-71265834D01*
X79661958Y-71309928D01*
X79720973Y-71491556D01*
X79724276Y-71497278D01*
X79724277Y-71497279D01*
X79750806Y-71543228D01*
X79816460Y-71656944D01*
X79944247Y-71798866D01*
X79987538Y-71830319D01*
X80052419Y-71877458D01*
X80095773Y-71933681D01*
X80101848Y-72004417D01*
X80071996Y-72063702D01*
X80032960Y-72107056D01*
X80002840Y-72159226D01*
X79947838Y-72254492D01*
X79937473Y-72272444D01*
X79878458Y-72454072D01*
X79877768Y-72460633D01*
X79877768Y-72460635D01*
X79862054Y-72610148D01*
X79858496Y-72644000D01*
X79859186Y-72650564D01*
X79859186Y-72650565D01*
X79876863Y-72818749D01*
X79878458Y-72833928D01*
X79937473Y-73015556D01*
X80032960Y-73180944D01*
X80037378Y-73185851D01*
X80037379Y-73185852D01*
X80046537Y-73196023D01*
X80160747Y-73322866D01*
X80231398Y-73374197D01*
X80309903Y-73431235D01*
X80309906Y-73431236D01*
X80315248Y-73435118D01*
X80316426Y-73435643D01*
X80364058Y-73485599D01*
X80377374Y-73556504D01*
X80366496Y-73660000D01*
X80367186Y-73666565D01*
X80384863Y-73834749D01*
X80386458Y-73849928D01*
X80445473Y-74031556D01*
X80540960Y-74196944D01*
X80545378Y-74201851D01*
X80545379Y-74201852D01*
X80638722Y-74305520D01*
X80668747Y-74338866D01*
X80767843Y-74410864D01*
X80781664Y-74420905D01*
X80823248Y-74451118D01*
X80829276Y-74453802D01*
X80829278Y-74453803D01*
X80951151Y-74508064D01*
X80997712Y-74528794D01*
X81089400Y-74548283D01*
X81178056Y-74567128D01*
X81178061Y-74567128D01*
X81184513Y-74568500D01*
X81375487Y-74568500D01*
X81381939Y-74567128D01*
X81381944Y-74567128D01*
X81470600Y-74548283D01*
X81562288Y-74528794D01*
X81608849Y-74508064D01*
X81730722Y-74453803D01*
X81730724Y-74453802D01*
X81736752Y-74451118D01*
X81778337Y-74420905D01*
X81792157Y-74410864D01*
X81891253Y-74338866D01*
X81921278Y-74305520D01*
X82014621Y-74201852D01*
X82014622Y-74201851D01*
X82019040Y-74196944D01*
X82035751Y-74168000D01*
X114910496Y-74168000D01*
X114911186Y-74174565D01*
X114928863Y-74342749D01*
X114930458Y-74357928D01*
X114989473Y-74539556D01*
X114992776Y-74545278D01*
X114992777Y-74545279D01*
X115005392Y-74567128D01*
X115084960Y-74704944D01*
X115089378Y-74709851D01*
X115089379Y-74709852D01*
X115159812Y-74788076D01*
X115212747Y-74846866D01*
X115309685Y-74917296D01*
X115360763Y-74954406D01*
X115367248Y-74959118D01*
X115373276Y-74961802D01*
X115373278Y-74961803D01*
X115535681Y-75034109D01*
X115541712Y-75036794D01*
X115635113Y-75056647D01*
X115722056Y-75075128D01*
X115722061Y-75075128D01*
X115728513Y-75076500D01*
X115919487Y-75076500D01*
X115925939Y-75075128D01*
X115925944Y-75075128D01*
X116012887Y-75056647D01*
X116106288Y-75036794D01*
X116112319Y-75034109D01*
X116274722Y-74961803D01*
X116274724Y-74961802D01*
X116280752Y-74959118D01*
X116305478Y-74941153D01*
X116372344Y-74917296D01*
X116441496Y-74933376D01*
X116490976Y-74984289D01*
X116499370Y-75004151D01*
X116513473Y-75047556D01*
X116608960Y-75212944D01*
X116613378Y-75217851D01*
X116613379Y-75217852D01*
X116732325Y-75349955D01*
X116736747Y-75354866D01*
X116835843Y-75426864D01*
X116858053Y-75443000D01*
X116891248Y-75467118D01*
X116897276Y-75469802D01*
X116897278Y-75469803D01*
X116986642Y-75509590D01*
X117065712Y-75544794D01*
X117159113Y-75564647D01*
X117246056Y-75583128D01*
X117246061Y-75583128D01*
X117252513Y-75584500D01*
X117443487Y-75584500D01*
X117449939Y-75583128D01*
X117449944Y-75583128D01*
X117536887Y-75564647D01*
X117630288Y-75544794D01*
X117709358Y-75509590D01*
X117798722Y-75469803D01*
X117798724Y-75469802D01*
X117804752Y-75467118D01*
X117837948Y-75443000D01*
X117860157Y-75426864D01*
X117959253Y-75354866D01*
X117963675Y-75349955D01*
X118082621Y-75217852D01*
X118082622Y-75217851D01*
X118087040Y-75212944D01*
X118182527Y-75047556D01*
X118241542Y-74865928D01*
X118243138Y-74850749D01*
X118260814Y-74682565D01*
X118261504Y-74676000D01*
X118254701Y-74611277D01*
X118242232Y-74492635D01*
X118242232Y-74492633D01*
X118241542Y-74486072D01*
X118182527Y-74304444D01*
X118087040Y-74139056D01*
X118064851Y-74114412D01*
X117963675Y-74002045D01*
X117963674Y-74002044D01*
X117959253Y-73997134D01*
X117804752Y-73884882D01*
X117798724Y-73882198D01*
X117798722Y-73882197D01*
X117636319Y-73809891D01*
X117636318Y-73809891D01*
X117630288Y-73807206D01*
X117532823Y-73786489D01*
X117449944Y-73768872D01*
X117449939Y-73768872D01*
X117443487Y-73767500D01*
X117252513Y-73767500D01*
X117246061Y-73768872D01*
X117246056Y-73768872D01*
X117163177Y-73786489D01*
X117065712Y-73807206D01*
X117059682Y-73809891D01*
X117059681Y-73809891D01*
X116897278Y-73882197D01*
X116897276Y-73882198D01*
X116891248Y-73884882D01*
X116866522Y-73902847D01*
X116799656Y-73926704D01*
X116730504Y-73910624D01*
X116681024Y-73859711D01*
X116672629Y-73839846D01*
X116660569Y-73802728D01*
X116660568Y-73802726D01*
X116658527Y-73796444D01*
X116652780Y-73786489D01*
X116609767Y-73711990D01*
X116563040Y-73631056D01*
X116539649Y-73605077D01*
X116439675Y-73494045D01*
X116439674Y-73494044D01*
X116435253Y-73489134D01*
X116280752Y-73376882D01*
X116274724Y-73374198D01*
X116274722Y-73374197D01*
X116112319Y-73301891D01*
X116112318Y-73301891D01*
X116106288Y-73299206D01*
X116012887Y-73279353D01*
X115925944Y-73260872D01*
X115925939Y-73260872D01*
X115919487Y-73259500D01*
X115728513Y-73259500D01*
X115722061Y-73260872D01*
X115722056Y-73260872D01*
X115635113Y-73279353D01*
X115541712Y-73299206D01*
X115535682Y-73301891D01*
X115535681Y-73301891D01*
X115373278Y-73374197D01*
X115373276Y-73374198D01*
X115367248Y-73376882D01*
X115212747Y-73489134D01*
X115208326Y-73494044D01*
X115208325Y-73494045D01*
X115108352Y-73605077D01*
X115084960Y-73631056D01*
X115038233Y-73711990D01*
X114995221Y-73786489D01*
X114989473Y-73796444D01*
X114930458Y-73978072D01*
X114929768Y-73984633D01*
X114929768Y-73984635D01*
X114920387Y-74073896D01*
X114910496Y-74168000D01*
X82035751Y-74168000D01*
X82114527Y-74031556D01*
X82173542Y-73849928D01*
X82175138Y-73834749D01*
X82192814Y-73666565D01*
X82193504Y-73660000D01*
X82176062Y-73494045D01*
X82174232Y-73476635D01*
X82174232Y-73476633D01*
X82173542Y-73470072D01*
X82114527Y-73288444D01*
X82019040Y-73123056D01*
X81891253Y-72981134D01*
X81744968Y-72874851D01*
X81742097Y-72872765D01*
X81742094Y-72872764D01*
X81736752Y-72868882D01*
X81735574Y-72868357D01*
X81687942Y-72818401D01*
X81674626Y-72747495D01*
X81684814Y-72650564D01*
X81685504Y-72644000D01*
X81681946Y-72610148D01*
X81666232Y-72460635D01*
X81666232Y-72460633D01*
X81665542Y-72454072D01*
X81606527Y-72272444D01*
X81596163Y-72254492D01*
X81541160Y-72159226D01*
X81511040Y-72107056D01*
X81478825Y-72071277D01*
X81387675Y-71970045D01*
X81387674Y-71970044D01*
X81383253Y-71965134D01*
X81275081Y-71886542D01*
X81231727Y-71830319D01*
X81225652Y-71759583D01*
X81255504Y-71700298D01*
X81294540Y-71656944D01*
X81311251Y-71628000D01*
X91034496Y-71628000D01*
X91035186Y-71634565D01*
X91052863Y-71802749D01*
X91054458Y-71817928D01*
X91113473Y-71999556D01*
X91208960Y-72164944D01*
X91213378Y-72169851D01*
X91213379Y-72169852D01*
X91289589Y-72254492D01*
X91336747Y-72306866D01*
X91407398Y-72358197D01*
X91484763Y-72414406D01*
X91491248Y-72419118D01*
X91497276Y-72421802D01*
X91497278Y-72421803D01*
X91659681Y-72494109D01*
X91665712Y-72496794D01*
X91759112Y-72516647D01*
X91846056Y-72535128D01*
X91846061Y-72535128D01*
X91852513Y-72536500D01*
X92043487Y-72536500D01*
X92049939Y-72535128D01*
X92049944Y-72535128D01*
X92136888Y-72516647D01*
X92230288Y-72496794D01*
X92236319Y-72494109D01*
X92398722Y-72421803D01*
X92398724Y-72421802D01*
X92404752Y-72419118D01*
X92429478Y-72401153D01*
X92496344Y-72377296D01*
X92565496Y-72393376D01*
X92614976Y-72444289D01*
X92623370Y-72464151D01*
X92637473Y-72507556D01*
X92732960Y-72672944D01*
X92860747Y-72814866D01*
X92935093Y-72868882D01*
X92982053Y-72903000D01*
X93015248Y-72927118D01*
X93021276Y-72929802D01*
X93021278Y-72929803D01*
X93183681Y-73002109D01*
X93189712Y-73004794D01*
X93283112Y-73024647D01*
X93370056Y-73043128D01*
X93370061Y-73043128D01*
X93376513Y-73044500D01*
X93567487Y-73044500D01*
X93573939Y-73043128D01*
X93573944Y-73043128D01*
X93660888Y-73024647D01*
X93754288Y-73004794D01*
X93807430Y-72981134D01*
X93915469Y-72933032D01*
X93985836Y-72923598D01*
X94050133Y-72953705D01*
X94087947Y-73013793D01*
X94092028Y-73061309D01*
X94082496Y-73152000D01*
X94083186Y-73158565D01*
X94100863Y-73326749D01*
X94102458Y-73341928D01*
X94161473Y-73523556D01*
X94256960Y-73688944D01*
X94261378Y-73693851D01*
X94261379Y-73693852D01*
X94270236Y-73703689D01*
X94384747Y-73830866D01*
X94539248Y-73943118D01*
X94545276Y-73945802D01*
X94545278Y-73945803D01*
X94703679Y-74016327D01*
X94713712Y-74020794D01*
X94807113Y-74040647D01*
X94894056Y-74059128D01*
X94894061Y-74059128D01*
X94900513Y-74060500D01*
X95091487Y-74060500D01*
X95097939Y-74059128D01*
X95097944Y-74059128D01*
X95184887Y-74040647D01*
X95278288Y-74020794D01*
X95288321Y-74016327D01*
X95446722Y-73945803D01*
X95446724Y-73945802D01*
X95452752Y-73943118D01*
X95607253Y-73830866D01*
X95721764Y-73703689D01*
X95730621Y-73693852D01*
X95730622Y-73693851D01*
X95735040Y-73688944D01*
X95830527Y-73523556D01*
X95889542Y-73341928D01*
X95891138Y-73326749D01*
X95908814Y-73158565D01*
X95909504Y-73152000D01*
X95899972Y-73061310D01*
X95890232Y-72968635D01*
X95890232Y-72968633D01*
X95889542Y-72962072D01*
X95830527Y-72780444D01*
X95735040Y-72615056D01*
X95607253Y-72473134D01*
X95452752Y-72360882D01*
X95446724Y-72358198D01*
X95446722Y-72358197D01*
X95284319Y-72285891D01*
X95284318Y-72285891D01*
X95278288Y-72283206D01*
X95163656Y-72258840D01*
X95097944Y-72244872D01*
X95097939Y-72244872D01*
X95091487Y-72243500D01*
X94900513Y-72243500D01*
X94894061Y-72244872D01*
X94894056Y-72244872D01*
X94828344Y-72258840D01*
X94713712Y-72283206D01*
X94707682Y-72285891D01*
X94707681Y-72285891D01*
X94552531Y-72354968D01*
X94482164Y-72364402D01*
X94417867Y-72334295D01*
X94380053Y-72274207D01*
X94375972Y-72226690D01*
X94376108Y-72225401D01*
X94385504Y-72136000D01*
X94378300Y-72067457D01*
X94366232Y-71952635D01*
X94366232Y-71952633D01*
X94365542Y-71946072D01*
X94306527Y-71764444D01*
X94211040Y-71599056D01*
X94197629Y-71584161D01*
X94087675Y-71462045D01*
X94087674Y-71462044D01*
X94083253Y-71457134D01*
X93928752Y-71344882D01*
X93922724Y-71342198D01*
X93922722Y-71342197D01*
X93760319Y-71269891D01*
X93760318Y-71269891D01*
X93754288Y-71267206D01*
X93660887Y-71247353D01*
X93573944Y-71228872D01*
X93573939Y-71228872D01*
X93567487Y-71227500D01*
X93376513Y-71227500D01*
X93370061Y-71228872D01*
X93370056Y-71228872D01*
X93283113Y-71247353D01*
X93189712Y-71267206D01*
X93183682Y-71269891D01*
X93183681Y-71269891D01*
X93021278Y-71342197D01*
X93021276Y-71342198D01*
X93015248Y-71344882D01*
X92990522Y-71362847D01*
X92923656Y-71386704D01*
X92854504Y-71370624D01*
X92805024Y-71319711D01*
X92796629Y-71299846D01*
X92784569Y-71262728D01*
X92784568Y-71262726D01*
X92782527Y-71256444D01*
X92687040Y-71091056D01*
X92572196Y-70963508D01*
X92563675Y-70954045D01*
X92563674Y-70954044D01*
X92559253Y-70949134D01*
X92404752Y-70836882D01*
X92398724Y-70834198D01*
X92398722Y-70834197D01*
X92236319Y-70761891D01*
X92236318Y-70761891D01*
X92230288Y-70759206D01*
X92136888Y-70739353D01*
X92049944Y-70720872D01*
X92049939Y-70720872D01*
X92043487Y-70719500D01*
X91852513Y-70719500D01*
X91846061Y-70720872D01*
X91846056Y-70720872D01*
X91759112Y-70739353D01*
X91665712Y-70759206D01*
X91659682Y-70761891D01*
X91659681Y-70761891D01*
X91497278Y-70834197D01*
X91497276Y-70834198D01*
X91491248Y-70836882D01*
X91336747Y-70949134D01*
X91332326Y-70954044D01*
X91332325Y-70954045D01*
X91323805Y-70963508D01*
X91208960Y-71091056D01*
X91113473Y-71256444D01*
X91054458Y-71438072D01*
X91053768Y-71444633D01*
X91053768Y-71444635D01*
X91043030Y-71546800D01*
X91034496Y-71628000D01*
X81311251Y-71628000D01*
X81360194Y-71543228D01*
X81386723Y-71497279D01*
X81386724Y-71497278D01*
X81390027Y-71491556D01*
X81449042Y-71309928D01*
X81453677Y-71265834D01*
X81468314Y-71126565D01*
X81469004Y-71120000D01*
X81458872Y-71023597D01*
X81449732Y-70936635D01*
X81449732Y-70936633D01*
X81449042Y-70930072D01*
X81390027Y-70748444D01*
X81294540Y-70583056D01*
X81166753Y-70441134D01*
X81012252Y-70328882D01*
X81006224Y-70326198D01*
X81006222Y-70326197D01*
X80843819Y-70253891D01*
X80843818Y-70253891D01*
X80837788Y-70251206D01*
X80744388Y-70231353D01*
X80657444Y-70212872D01*
X80657439Y-70212872D01*
X80650987Y-70211500D01*
X80460013Y-70211500D01*
X80453561Y-70212872D01*
X80453556Y-70212872D01*
X80366612Y-70231353D01*
X80273212Y-70251206D01*
X80267182Y-70253891D01*
X80267181Y-70253891D01*
X80205925Y-70281164D01*
X80135558Y-70290598D01*
X80071261Y-70260492D01*
X80033447Y-70200403D01*
X80029366Y-70152887D01*
X80033814Y-70110565D01*
X80034504Y-70104000D01*
X80026354Y-70026460D01*
X80015232Y-69920635D01*
X80015232Y-69920633D01*
X80014542Y-69914072D01*
X79955527Y-69732444D01*
X79860040Y-69567056D01*
X79732253Y-69425134D01*
X79577752Y-69312882D01*
X79571724Y-69310198D01*
X79571722Y-69310197D01*
X79409319Y-69237891D01*
X79409318Y-69237891D01*
X79403288Y-69235206D01*
X79309888Y-69215353D01*
X79222944Y-69196872D01*
X79222939Y-69196872D01*
X79216487Y-69195500D01*
X79025513Y-69195500D01*
X79019061Y-69196872D01*
X79019056Y-69196872D01*
X78932112Y-69215353D01*
X78838712Y-69235206D01*
X78832682Y-69237891D01*
X78832681Y-69237891D01*
X78670278Y-69310197D01*
X78670276Y-69310198D01*
X78664248Y-69312882D01*
X78509747Y-69425134D01*
X78381960Y-69567056D01*
X78286473Y-69732444D01*
X78227458Y-69914072D01*
X78226768Y-69920633D01*
X78226768Y-69920635D01*
X78215646Y-70026460D01*
X78207496Y-70104000D01*
X58928000Y-70104000D01*
X58928000Y-69119332D01*
X90486565Y-69119332D01*
X90487255Y-69125897D01*
X90498600Y-69233834D01*
X90506527Y-69309260D01*
X90565542Y-69490888D01*
X90661029Y-69656276D01*
X90665447Y-69661183D01*
X90665448Y-69661184D01*
X90764101Y-69770749D01*
X90788816Y-69798198D01*
X90943317Y-69910450D01*
X90949345Y-69913134D01*
X90949347Y-69913135D01*
X91050489Y-69958166D01*
X91117781Y-69988126D01*
X91211182Y-70007979D01*
X91298125Y-70026460D01*
X91298130Y-70026460D01*
X91304582Y-70027832D01*
X91495556Y-70027832D01*
X91502008Y-70026460D01*
X91502013Y-70026460D01*
X91588956Y-70007979D01*
X91682357Y-69988126D01*
X91749649Y-69958166D01*
X91850791Y-69913135D01*
X91850793Y-69913134D01*
X91856821Y-69910450D01*
X91878824Y-69894464D01*
X91945692Y-69870605D01*
X92004133Y-69881293D01*
X92173712Y-69956794D01*
X92267112Y-69976647D01*
X92354056Y-69995128D01*
X92354061Y-69995128D01*
X92360513Y-69996500D01*
X92551487Y-69996500D01*
X92557939Y-69995128D01*
X92557944Y-69995128D01*
X92644888Y-69976647D01*
X92738288Y-69956794D01*
X92834244Y-69914072D01*
X92906722Y-69881803D01*
X92906724Y-69881802D01*
X92912752Y-69879118D01*
X93067253Y-69766866D01*
X93124365Y-69703436D01*
X93184810Y-69666198D01*
X93255794Y-69667550D01*
X93311634Y-69703436D01*
X93368747Y-69766866D01*
X93523248Y-69879118D01*
X93529276Y-69881802D01*
X93529278Y-69881803D01*
X93601756Y-69914072D01*
X93697712Y-69956794D01*
X93791112Y-69976647D01*
X93878056Y-69995128D01*
X93878061Y-69995128D01*
X93884513Y-69996500D01*
X94075487Y-69996500D01*
X94081939Y-69995128D01*
X94081944Y-69995128D01*
X94168888Y-69976647D01*
X94262288Y-69956794D01*
X94358244Y-69914072D01*
X94430722Y-69881803D01*
X94430724Y-69881802D01*
X94436752Y-69879118D01*
X94591253Y-69766866D01*
X94648365Y-69703436D01*
X94708810Y-69666198D01*
X94779794Y-69667550D01*
X94835634Y-69703436D01*
X94892747Y-69766866D01*
X95047248Y-69879118D01*
X95053276Y-69881802D01*
X95053278Y-69881803D01*
X95125756Y-69914072D01*
X95221712Y-69956794D01*
X95315112Y-69976647D01*
X95402056Y-69995128D01*
X95402061Y-69995128D01*
X95408513Y-69996500D01*
X95599487Y-69996500D01*
X95605939Y-69995128D01*
X95605944Y-69995128D01*
X95692888Y-69976647D01*
X95786288Y-69956794D01*
X95882244Y-69914072D01*
X95954722Y-69881803D01*
X95954724Y-69881802D01*
X95960752Y-69879118D01*
X96115253Y-69766866D01*
X96172365Y-69703437D01*
X96238621Y-69629852D01*
X96238622Y-69629851D01*
X96243040Y-69624944D01*
X96317133Y-69496611D01*
X96335223Y-69465279D01*
X96335224Y-69465278D01*
X96338527Y-69459556D01*
X96397542Y-69277928D01*
X96402177Y-69233834D01*
X96416814Y-69094565D01*
X96417504Y-69088000D01*
X96397542Y-68898072D01*
X96338527Y-68716444D01*
X96243040Y-68551056D01*
X96204678Y-68508450D01*
X96119675Y-68414045D01*
X96119671Y-68414041D01*
X96115253Y-68409134D01*
X95960752Y-68296882D01*
X95954724Y-68294198D01*
X95954722Y-68294197D01*
X95792319Y-68221891D01*
X95792318Y-68221891D01*
X95786288Y-68219206D01*
X95692888Y-68199353D01*
X95605944Y-68180872D01*
X95605939Y-68180872D01*
X95599487Y-68179500D01*
X95408513Y-68179500D01*
X95402061Y-68180872D01*
X95402056Y-68180872D01*
X95315112Y-68199353D01*
X95221712Y-68219206D01*
X95215682Y-68221891D01*
X95215681Y-68221891D01*
X95053278Y-68294197D01*
X95053276Y-68294198D01*
X95047248Y-68296882D01*
X94892747Y-68409134D01*
X94835635Y-68472564D01*
X94775190Y-68509802D01*
X94704206Y-68508450D01*
X94648366Y-68472564D01*
X94591253Y-68409134D01*
X94436752Y-68296882D01*
X94430724Y-68294198D01*
X94430722Y-68294197D01*
X94268319Y-68221891D01*
X94268318Y-68221891D01*
X94262288Y-68219206D01*
X94168888Y-68199353D01*
X94081944Y-68180872D01*
X94081939Y-68180872D01*
X94075487Y-68179500D01*
X93884513Y-68179500D01*
X93878061Y-68180872D01*
X93878056Y-68180872D01*
X93791112Y-68199353D01*
X93697712Y-68219206D01*
X93691682Y-68221891D01*
X93691681Y-68221891D01*
X93529278Y-68294197D01*
X93529276Y-68294198D01*
X93523248Y-68296882D01*
X93368747Y-68409134D01*
X93311635Y-68472564D01*
X93251190Y-68509802D01*
X93180206Y-68508450D01*
X93124366Y-68472564D01*
X93067253Y-68409134D01*
X92912752Y-68296882D01*
X92906724Y-68294198D01*
X92906722Y-68294197D01*
X92744319Y-68221891D01*
X92744318Y-68221891D01*
X92738288Y-68219206D01*
X92644888Y-68199353D01*
X92557944Y-68180872D01*
X92557939Y-68180872D01*
X92551487Y-68179500D01*
X92360513Y-68179500D01*
X92354061Y-68180872D01*
X92354056Y-68180872D01*
X92267112Y-68199353D01*
X92173712Y-68219206D01*
X92167682Y-68221891D01*
X92167681Y-68221891D01*
X92005278Y-68294197D01*
X92005276Y-68294198D01*
X91999248Y-68296882D01*
X91993907Y-68300762D01*
X91993906Y-68300763D01*
X91977245Y-68312868D01*
X91910377Y-68336727D01*
X91851936Y-68326039D01*
X91682357Y-68250538D01*
X91588957Y-68230685D01*
X91502013Y-68212204D01*
X91502008Y-68212204D01*
X91495556Y-68210832D01*
X91304582Y-68210832D01*
X91298130Y-68212204D01*
X91298125Y-68212204D01*
X91211181Y-68230685D01*
X91117781Y-68250538D01*
X91111751Y-68253223D01*
X91111750Y-68253223D01*
X90949347Y-68325529D01*
X90949345Y-68325530D01*
X90943317Y-68328214D01*
X90788816Y-68440466D01*
X90784395Y-68445376D01*
X90784394Y-68445377D01*
X90693660Y-68546148D01*
X90661029Y-68582388D01*
X90602755Y-68683322D01*
X90583632Y-68716444D01*
X90565542Y-68747776D01*
X90506527Y-68929404D01*
X90486565Y-69119332D01*
X58928000Y-69119332D01*
X58928000Y-61397604D01*
X62112787Y-61397604D01*
X62122567Y-61608899D01*
X62172125Y-61814534D01*
X62174607Y-61819992D01*
X62174608Y-61819996D01*
X62218053Y-61915546D01*
X62259674Y-62007087D01*
X62382054Y-62179611D01*
X62534850Y-62325881D01*
X62712548Y-62440620D01*
X62718114Y-62442863D01*
X62903168Y-62517442D01*
X62903171Y-62517443D01*
X62908737Y-62519686D01*
X63116337Y-62560228D01*
X63121899Y-62560500D01*
X63827846Y-62560500D01*
X63985566Y-62545452D01*
X64188534Y-62485908D01*
X64272111Y-62442863D01*
X64371249Y-62391804D01*
X64371252Y-62391802D01*
X64376580Y-62389058D01*
X64542920Y-62258396D01*
X64546852Y-62253865D01*
X64546855Y-62253862D01*
X64677621Y-62103167D01*
X64681552Y-62098637D01*
X64684552Y-62093451D01*
X64684555Y-62093447D01*
X64784467Y-61920742D01*
X64787473Y-61915546D01*
X64856861Y-61715729D01*
X64887213Y-61506396D01*
X64877433Y-61295101D01*
X64827875Y-61089466D01*
X64784525Y-60994122D01*
X64742806Y-60902368D01*
X64740326Y-60896913D01*
X64617946Y-60724389D01*
X64613619Y-60720247D01*
X64613614Y-60720241D01*
X64522683Y-60633194D01*
X64487306Y-60571639D01*
X64490825Y-60500730D01*
X64532121Y-60442979D01*
X64543504Y-60435035D01*
X64599348Y-60400478D01*
X64724305Y-60275303D01*
X64817115Y-60124738D01*
X64872797Y-59956861D01*
X64883500Y-59852400D01*
X64883500Y-59051600D01*
X64872526Y-58945834D01*
X64816550Y-58778054D01*
X64723478Y-58627652D01*
X64598303Y-58502695D01*
X64592072Y-58498854D01*
X64453968Y-58413725D01*
X64453966Y-58413724D01*
X64447738Y-58409885D01*
X64287254Y-58356655D01*
X64286389Y-58356368D01*
X64286387Y-58356368D01*
X64279861Y-58354203D01*
X64273025Y-58353503D01*
X64273022Y-58353502D01*
X64229969Y-58349091D01*
X64175400Y-58343500D01*
X62824600Y-58343500D01*
X62821354Y-58343837D01*
X62821350Y-58343837D01*
X62725692Y-58353762D01*
X62725688Y-58353763D01*
X62718834Y-58354474D01*
X62712298Y-58356655D01*
X62712296Y-58356655D01*
X62580194Y-58400728D01*
X62551054Y-58410450D01*
X62400652Y-58503522D01*
X62275695Y-58628697D01*
X62182885Y-58779262D01*
X62127203Y-58947139D01*
X62116500Y-59051600D01*
X62116500Y-59852400D01*
X62127474Y-59958166D01*
X62183450Y-60125946D01*
X62276522Y-60276348D01*
X62401697Y-60401305D01*
X62407927Y-60405145D01*
X62407928Y-60405146D01*
X62453236Y-60433074D01*
X62500729Y-60485846D01*
X62512153Y-60555918D01*
X62483879Y-60621042D01*
X62464955Y-60639418D01*
X62457080Y-60645604D01*
X62453148Y-60650135D01*
X62453145Y-60650138D01*
X62384474Y-60729275D01*
X62318448Y-60805363D01*
X62315448Y-60810549D01*
X62315445Y-60810553D01*
X62268312Y-60892026D01*
X62212527Y-60988454D01*
X62143139Y-61188271D01*
X62112787Y-61397604D01*
X58928000Y-61397604D01*
X58928000Y-53328434D01*
X60186661Y-53328434D01*
X60186833Y-53331829D01*
X60186833Y-53331830D01*
X60188510Y-53364928D01*
X60204792Y-53686340D01*
X60205329Y-53689695D01*
X60205330Y-53689701D01*
X60215766Y-53754852D01*
X60261470Y-54040195D01*
X60356033Y-54385859D01*
X60487374Y-54719288D01*
X60653957Y-55036582D01*
X60655858Y-55039411D01*
X60655864Y-55039421D01*
X60839569Y-55312800D01*
X60853834Y-55334029D01*
X61084665Y-55608150D01*
X61343751Y-55855738D01*
X61628061Y-56073897D01*
X61660056Y-56093350D01*
X61931355Y-56258303D01*
X61931360Y-56258306D01*
X61934270Y-56260075D01*
X61937358Y-56261521D01*
X61937357Y-56261521D01*
X62255710Y-56410649D01*
X62255720Y-56410653D01*
X62258794Y-56412093D01*
X62262012Y-56413195D01*
X62262015Y-56413196D01*
X62594615Y-56527071D01*
X62594623Y-56527073D01*
X62597838Y-56528174D01*
X62947435Y-56606959D01*
X62999728Y-56612917D01*
X63300114Y-56647142D01*
X63300122Y-56647142D01*
X63303497Y-56647527D01*
X63306901Y-56647545D01*
X63306904Y-56647545D01*
X63501227Y-56648562D01*
X63661857Y-56649403D01*
X63665243Y-56649053D01*
X63665245Y-56649053D01*
X64014932Y-56612917D01*
X64014941Y-56612916D01*
X64018324Y-56612566D01*
X64021657Y-56611852D01*
X64021660Y-56611851D01*
X64194186Y-56574864D01*
X64368727Y-56537446D01*
X64708968Y-56424922D01*
X65035066Y-56276311D01*
X65129052Y-56220506D01*
X65340262Y-56095099D01*
X65340267Y-56095096D01*
X65343207Y-56093350D01*
X65629786Y-55878180D01*
X65891451Y-55633319D01*
X66125140Y-55361630D01*
X66231750Y-55206512D01*
X66326190Y-55069101D01*
X66326195Y-55069094D01*
X66328120Y-55066292D01*
X66329732Y-55063298D01*
X66329737Y-55063290D01*
X66496395Y-54753772D01*
X66498017Y-54750760D01*
X66632842Y-54418724D01*
X66643142Y-54382568D01*
X66717900Y-54120128D01*
X66731020Y-54074070D01*
X66786424Y-53749944D01*
X66790829Y-53724175D01*
X66790829Y-53724173D01*
X66791401Y-53720828D01*
X66792543Y-53702166D01*
X66813168Y-53364928D01*
X66813278Y-53363131D01*
X66813359Y-53340000D01*
X66793979Y-52982159D01*
X66769390Y-52832000D01*
X87986496Y-52832000D01*
X87987186Y-52838565D01*
X88001925Y-52978795D01*
X88006458Y-53021928D01*
X88065473Y-53203556D01*
X88068776Y-53209278D01*
X88068777Y-53209279D01*
X88074716Y-53219565D01*
X88160960Y-53368944D01*
X88288747Y-53510866D01*
X88443248Y-53623118D01*
X88449276Y-53625802D01*
X88449278Y-53625803D01*
X88611681Y-53698109D01*
X88617712Y-53700794D01*
X88711113Y-53720647D01*
X88798056Y-53739128D01*
X88798061Y-53739128D01*
X88804513Y-53740500D01*
X88995487Y-53740500D01*
X89001939Y-53739128D01*
X89001944Y-53739128D01*
X89088888Y-53720647D01*
X89182288Y-53700794D01*
X89188319Y-53698109D01*
X89350722Y-53625803D01*
X89350724Y-53625802D01*
X89356752Y-53623118D01*
X89511253Y-53510866D01*
X89639040Y-53368944D01*
X89725284Y-53219565D01*
X89729075Y-53213000D01*
X127737496Y-53213000D01*
X127738186Y-53219565D01*
X127753086Y-53361326D01*
X127757458Y-53402928D01*
X127816473Y-53584556D01*
X127911960Y-53749944D01*
X128039747Y-53891866D01*
X128194248Y-54004118D01*
X128200276Y-54006802D01*
X128200278Y-54006803D01*
X128362681Y-54079109D01*
X128368712Y-54081794D01*
X128462112Y-54101647D01*
X128549056Y-54120128D01*
X128549061Y-54120128D01*
X128555513Y-54121500D01*
X128746487Y-54121500D01*
X128752939Y-54120128D01*
X128752944Y-54120128D01*
X128839888Y-54101647D01*
X128933288Y-54081794D01*
X128939319Y-54079109D01*
X129101722Y-54006803D01*
X129101724Y-54006802D01*
X129107752Y-54004118D01*
X129262253Y-53891866D01*
X129390040Y-53749944D01*
X129485527Y-53584556D01*
X129544542Y-53402928D01*
X129548915Y-53361326D01*
X129552372Y-53328434D01*
X138926661Y-53328434D01*
X138926833Y-53331829D01*
X138926833Y-53331830D01*
X138928510Y-53364928D01*
X138944792Y-53686340D01*
X138945329Y-53689695D01*
X138945330Y-53689701D01*
X138955766Y-53754852D01*
X139001470Y-54040195D01*
X139096033Y-54385859D01*
X139227374Y-54719288D01*
X139393957Y-55036582D01*
X139395858Y-55039411D01*
X139395864Y-55039421D01*
X139579569Y-55312800D01*
X139593834Y-55334029D01*
X139824665Y-55608150D01*
X140083751Y-55855738D01*
X140368061Y-56073897D01*
X140400056Y-56093350D01*
X140671355Y-56258303D01*
X140671360Y-56258306D01*
X140674270Y-56260075D01*
X140677358Y-56261521D01*
X140677357Y-56261521D01*
X140995710Y-56410649D01*
X140995720Y-56410653D01*
X140998794Y-56412093D01*
X141002012Y-56413195D01*
X141002015Y-56413196D01*
X141334615Y-56527071D01*
X141334623Y-56527073D01*
X141337838Y-56528174D01*
X141687435Y-56606959D01*
X141739728Y-56612917D01*
X142040114Y-56647142D01*
X142040122Y-56647142D01*
X142043497Y-56647527D01*
X142046901Y-56647545D01*
X142046904Y-56647545D01*
X142241227Y-56648562D01*
X142401857Y-56649403D01*
X142405243Y-56649053D01*
X142405245Y-56649053D01*
X142754932Y-56612917D01*
X142754941Y-56612916D01*
X142758324Y-56612566D01*
X142761657Y-56611852D01*
X142761660Y-56611851D01*
X142934186Y-56574864D01*
X143108727Y-56537446D01*
X143448968Y-56424922D01*
X143775066Y-56276311D01*
X143869052Y-56220506D01*
X144080262Y-56095099D01*
X144080267Y-56095096D01*
X144083207Y-56093350D01*
X144369786Y-55878180D01*
X144631451Y-55633319D01*
X144865140Y-55361630D01*
X144971750Y-55206512D01*
X145066190Y-55069101D01*
X145066195Y-55069094D01*
X145068120Y-55066292D01*
X145069732Y-55063298D01*
X145069737Y-55063290D01*
X145236395Y-54753772D01*
X145238017Y-54750760D01*
X145372842Y-54418724D01*
X145383142Y-54382568D01*
X145457900Y-54120128D01*
X145471020Y-54074070D01*
X145526424Y-53749944D01*
X145530829Y-53724175D01*
X145530829Y-53724173D01*
X145531401Y-53720828D01*
X145532543Y-53702166D01*
X145553168Y-53364928D01*
X145553278Y-53363131D01*
X145553359Y-53340000D01*
X145533979Y-52982159D01*
X145476066Y-52628505D01*
X145380297Y-52283173D01*
X145377243Y-52275497D01*
X145256444Y-51971944D01*
X145247793Y-51950205D01*
X145168407Y-51800271D01*
X145081702Y-51636513D01*
X145081698Y-51636506D01*
X145080103Y-51633494D01*
X144879190Y-51336746D01*
X144647403Y-51063432D01*
X144387454Y-50816750D01*
X144141173Y-50629134D01*
X144105091Y-50601647D01*
X144105089Y-50601646D01*
X144102384Y-50599585D01*
X144099472Y-50597828D01*
X144099467Y-50597825D01*
X143798443Y-50416236D01*
X143798437Y-50416233D01*
X143795528Y-50414478D01*
X143470475Y-50263593D01*
X143300752Y-50206145D01*
X143134255Y-50149789D01*
X143134250Y-50149788D01*
X143131028Y-50148697D01*
X142932681Y-50104724D01*
X142784493Y-50071871D01*
X142784487Y-50071870D01*
X142781158Y-50071132D01*
X142777769Y-50070758D01*
X142777764Y-50070757D01*
X142428338Y-50032180D01*
X142428333Y-50032180D01*
X142424957Y-50031807D01*
X142421558Y-50031801D01*
X142421557Y-50031801D01*
X142252080Y-50031505D01*
X142066592Y-50031182D01*
X141953413Y-50043277D01*
X141713639Y-50068901D01*
X141713631Y-50068902D01*
X141710256Y-50069263D01*
X141360117Y-50145606D01*
X141020271Y-50259317D01*
X141017178Y-50260739D01*
X141017177Y-50260740D01*
X141010974Y-50263593D01*
X140694694Y-50409066D01*
X140691760Y-50410822D01*
X140691758Y-50410823D01*
X140434424Y-50564834D01*
X140387193Y-50593101D01*
X140384467Y-50595163D01*
X140384465Y-50595164D01*
X140165132Y-50761045D01*
X140101367Y-50809270D01*
X139840559Y-51055043D01*
X139607819Y-51327546D01*
X139605900Y-51330358D01*
X139605897Y-51330363D01*
X139538997Y-51428435D01*
X139405871Y-51623591D01*
X139237077Y-51939714D01*
X139103411Y-52272218D01*
X139102491Y-52275492D01*
X139102489Y-52275497D01*
X139029790Y-52534134D01*
X139006437Y-52617213D01*
X139005875Y-52620570D01*
X139005875Y-52620571D01*
X138969396Y-52838565D01*
X138947290Y-52970663D01*
X138926661Y-53328434D01*
X129552372Y-53328434D01*
X129563814Y-53219565D01*
X129564504Y-53213000D01*
X129544542Y-53023072D01*
X129485527Y-52841444D01*
X129480075Y-52832000D01*
X129393341Y-52681774D01*
X129390040Y-52676056D01*
X129262253Y-52534134D01*
X129107752Y-52421882D01*
X129101724Y-52419198D01*
X129101722Y-52419197D01*
X128939319Y-52346891D01*
X128939318Y-52346891D01*
X128933288Y-52344206D01*
X128839887Y-52324353D01*
X128752944Y-52305872D01*
X128752939Y-52305872D01*
X128746487Y-52304500D01*
X128555513Y-52304500D01*
X128549061Y-52305872D01*
X128549056Y-52305872D01*
X128462112Y-52324353D01*
X128368712Y-52344206D01*
X128362682Y-52346891D01*
X128362681Y-52346891D01*
X128200278Y-52419197D01*
X128200276Y-52419198D01*
X128194248Y-52421882D01*
X128039747Y-52534134D01*
X127911960Y-52676056D01*
X127908659Y-52681774D01*
X127821926Y-52832000D01*
X127816473Y-52841444D01*
X127757458Y-53023072D01*
X127737496Y-53213000D01*
X89729075Y-53213000D01*
X89731223Y-53209279D01*
X89731224Y-53209278D01*
X89734527Y-53203556D01*
X89793542Y-53021928D01*
X89798076Y-52978795D01*
X89812814Y-52838565D01*
X89813504Y-52832000D01*
X89793542Y-52642072D01*
X89734527Y-52460444D01*
X89639040Y-52295056D01*
X89615631Y-52269057D01*
X89515675Y-52158045D01*
X89515674Y-52158044D01*
X89511253Y-52153134D01*
X89356752Y-52040882D01*
X89350724Y-52038198D01*
X89350722Y-52038197D01*
X89188319Y-51965891D01*
X89188318Y-51965891D01*
X89182288Y-51963206D01*
X89086643Y-51942876D01*
X89001944Y-51924872D01*
X89001939Y-51924872D01*
X88995487Y-51923500D01*
X88804513Y-51923500D01*
X88798061Y-51924872D01*
X88798056Y-51924872D01*
X88713357Y-51942876D01*
X88617712Y-51963206D01*
X88611682Y-51965891D01*
X88611681Y-51965891D01*
X88449278Y-52038197D01*
X88449276Y-52038198D01*
X88443248Y-52040882D01*
X88288747Y-52153134D01*
X88284326Y-52158044D01*
X88284325Y-52158045D01*
X88184370Y-52269057D01*
X88160960Y-52295056D01*
X88065473Y-52460444D01*
X88006458Y-52642072D01*
X87986496Y-52832000D01*
X66769390Y-52832000D01*
X66736066Y-52628505D01*
X66640297Y-52283173D01*
X66637243Y-52275497D01*
X66516444Y-51971944D01*
X66507793Y-51950205D01*
X66428407Y-51800271D01*
X66341702Y-51636513D01*
X66341698Y-51636506D01*
X66340103Y-51633494D01*
X66205713Y-51435000D01*
X81890496Y-51435000D01*
X81910458Y-51624928D01*
X81969473Y-51806556D01*
X82064960Y-51971944D01*
X82069378Y-51976851D01*
X82069379Y-51976852D01*
X82179468Y-52099118D01*
X82192747Y-52113866D01*
X82241450Y-52149251D01*
X82332122Y-52215128D01*
X82347248Y-52226118D01*
X82353276Y-52228802D01*
X82353278Y-52228803D01*
X82468276Y-52280003D01*
X82521712Y-52303794D01*
X82615112Y-52323647D01*
X82702056Y-52342128D01*
X82702061Y-52342128D01*
X82708513Y-52343500D01*
X82899487Y-52343500D01*
X82905939Y-52342128D01*
X82905944Y-52342128D01*
X82992888Y-52323647D01*
X83086288Y-52303794D01*
X83139724Y-52280003D01*
X83254722Y-52228803D01*
X83254724Y-52228802D01*
X83260752Y-52226118D01*
X83275879Y-52215128D01*
X83366550Y-52149251D01*
X83415253Y-52113866D01*
X83427252Y-52100540D01*
X83487696Y-52063302D01*
X83558680Y-52064654D01*
X83594945Y-52082915D01*
X83611902Y-52095235D01*
X83611909Y-52095239D01*
X83617248Y-52099118D01*
X83623276Y-52101802D01*
X83623278Y-52101803D01*
X83785681Y-52174109D01*
X83791712Y-52176794D01*
X83885113Y-52196647D01*
X83972056Y-52215128D01*
X83972061Y-52215128D01*
X83978513Y-52216500D01*
X84169487Y-52216500D01*
X84175939Y-52215128D01*
X84175944Y-52215128D01*
X84262888Y-52196647D01*
X84356288Y-52176794D01*
X84362319Y-52174109D01*
X84524722Y-52101803D01*
X84524724Y-52101802D01*
X84530752Y-52099118D01*
X84536091Y-52095239D01*
X84536098Y-52095235D01*
X84553055Y-52082915D01*
X84619923Y-52059057D01*
X84689074Y-52075139D01*
X84720747Y-52100538D01*
X84732747Y-52113866D01*
X84781450Y-52149251D01*
X84872122Y-52215128D01*
X84887248Y-52226118D01*
X84893276Y-52228802D01*
X84893278Y-52228803D01*
X85008276Y-52280003D01*
X85061712Y-52303794D01*
X85155112Y-52323647D01*
X85242056Y-52342128D01*
X85242061Y-52342128D01*
X85248513Y-52343500D01*
X85439487Y-52343500D01*
X85445939Y-52342128D01*
X85445944Y-52342128D01*
X85532888Y-52323647D01*
X85626288Y-52303794D01*
X85679724Y-52280003D01*
X85794722Y-52228803D01*
X85794724Y-52228802D01*
X85800752Y-52226118D01*
X85815879Y-52215128D01*
X85906550Y-52149251D01*
X85955253Y-52113866D01*
X85968532Y-52099118D01*
X86078621Y-51976852D01*
X86078622Y-51976851D01*
X86083040Y-51971944D01*
X86178527Y-51806556D01*
X86237542Y-51624928D01*
X86257504Y-51435000D01*
X86237542Y-51245072D01*
X86178527Y-51063444D01*
X86083040Y-50898056D01*
X86001238Y-50807205D01*
X85959675Y-50761045D01*
X85959674Y-50761044D01*
X85955253Y-50756134D01*
X85833756Y-50667861D01*
X85806094Y-50647763D01*
X85806093Y-50647762D01*
X85800752Y-50643882D01*
X85794724Y-50641198D01*
X85794722Y-50641197D01*
X85632319Y-50568891D01*
X85632318Y-50568891D01*
X85626288Y-50566206D01*
X85532888Y-50546353D01*
X85445944Y-50527872D01*
X85445939Y-50527872D01*
X85439487Y-50526500D01*
X85248513Y-50526500D01*
X85242061Y-50527872D01*
X85242056Y-50527872D01*
X85155113Y-50546353D01*
X85061712Y-50566206D01*
X85055682Y-50568891D01*
X85055681Y-50568891D01*
X84893278Y-50641197D01*
X84893276Y-50641198D01*
X84887248Y-50643882D01*
X84881909Y-50647761D01*
X84881902Y-50647765D01*
X84864945Y-50660085D01*
X84798077Y-50683943D01*
X84728926Y-50667861D01*
X84697253Y-50642462D01*
X84685253Y-50629134D01*
X84586157Y-50557136D01*
X84536094Y-50520763D01*
X84536093Y-50520762D01*
X84530752Y-50516882D01*
X84524724Y-50514198D01*
X84524722Y-50514197D01*
X84362319Y-50441891D01*
X84362318Y-50441891D01*
X84356288Y-50439206D01*
X84262888Y-50419353D01*
X84175944Y-50400872D01*
X84175939Y-50400872D01*
X84169487Y-50399500D01*
X83978513Y-50399500D01*
X83972061Y-50400872D01*
X83972056Y-50400872D01*
X83885112Y-50419353D01*
X83791712Y-50439206D01*
X83785682Y-50441891D01*
X83785681Y-50441891D01*
X83623278Y-50514197D01*
X83623276Y-50514198D01*
X83617248Y-50516882D01*
X83611907Y-50520762D01*
X83611906Y-50520763D01*
X83561843Y-50557136D01*
X83462747Y-50629134D01*
X83450748Y-50642460D01*
X83390304Y-50679698D01*
X83319320Y-50678346D01*
X83283055Y-50660085D01*
X83266098Y-50647765D01*
X83266091Y-50647761D01*
X83260752Y-50643882D01*
X83254724Y-50641198D01*
X83254722Y-50641197D01*
X83092319Y-50568891D01*
X83092318Y-50568891D01*
X83086288Y-50566206D01*
X82992888Y-50546353D01*
X82905944Y-50527872D01*
X82905939Y-50527872D01*
X82899487Y-50526500D01*
X82708513Y-50526500D01*
X82702061Y-50527872D01*
X82702056Y-50527872D01*
X82615113Y-50546353D01*
X82521712Y-50566206D01*
X82515682Y-50568891D01*
X82515681Y-50568891D01*
X82353278Y-50641197D01*
X82353276Y-50641198D01*
X82347248Y-50643882D01*
X82341907Y-50647762D01*
X82341906Y-50647763D01*
X82314244Y-50667861D01*
X82192747Y-50756134D01*
X82188326Y-50761044D01*
X82188325Y-50761045D01*
X82146763Y-50807205D01*
X82064960Y-50898056D01*
X81969473Y-51063444D01*
X81910458Y-51245072D01*
X81890496Y-51435000D01*
X66205713Y-51435000D01*
X66139190Y-51336746D01*
X65907403Y-51063432D01*
X65647454Y-50816750D01*
X65401173Y-50629134D01*
X65365091Y-50601647D01*
X65365089Y-50601646D01*
X65362384Y-50599585D01*
X65359472Y-50597828D01*
X65359467Y-50597825D01*
X65058443Y-50416236D01*
X65058437Y-50416233D01*
X65055528Y-50414478D01*
X64730475Y-50263593D01*
X64560752Y-50206145D01*
X64394255Y-50149789D01*
X64394250Y-50149788D01*
X64391028Y-50148697D01*
X64192681Y-50104724D01*
X64044493Y-50071871D01*
X64044487Y-50071870D01*
X64041158Y-50071132D01*
X64037769Y-50070758D01*
X64037764Y-50070757D01*
X63688338Y-50032180D01*
X63688333Y-50032180D01*
X63684957Y-50031807D01*
X63681558Y-50031801D01*
X63681557Y-50031801D01*
X63512080Y-50031505D01*
X63326592Y-50031182D01*
X63213413Y-50043277D01*
X62973639Y-50068901D01*
X62973631Y-50068902D01*
X62970256Y-50069263D01*
X62620117Y-50145606D01*
X62280271Y-50259317D01*
X62277178Y-50260739D01*
X62277177Y-50260740D01*
X62270974Y-50263593D01*
X61954694Y-50409066D01*
X61951760Y-50410822D01*
X61951758Y-50410823D01*
X61694424Y-50564834D01*
X61647193Y-50593101D01*
X61644467Y-50595163D01*
X61644465Y-50595164D01*
X61425132Y-50761045D01*
X61361367Y-50809270D01*
X61100559Y-51055043D01*
X60867819Y-51327546D01*
X60865900Y-51330358D01*
X60865897Y-51330363D01*
X60798997Y-51428435D01*
X60665871Y-51623591D01*
X60497077Y-51939714D01*
X60363411Y-52272218D01*
X60362491Y-52275492D01*
X60362489Y-52275497D01*
X60289790Y-52534134D01*
X60266437Y-52617213D01*
X60265875Y-52620570D01*
X60265875Y-52620571D01*
X60229396Y-52838565D01*
X60207290Y-52970663D01*
X60186661Y-53328434D01*
X58928000Y-53328434D01*
X58928000Y-48894000D01*
X58948002Y-48825879D01*
X59001658Y-48779386D01*
X59054000Y-48768000D01*
X146686000Y-48768000D01*
X146754121Y-48788002D01*
G37*
%TD.AperFunction*%
M02*
