%TF.GenerationSoftware,KiCad,Pcbnew,(6.0.1)*%
%TF.CreationDate,2022-03-10T11:46:57+01:00*%
%TF.ProjectId,ci-poc-board,63692d70-6f63-42d6-926f-6172642e6b69,rev?*%
%TF.SameCoordinates,Original*%
%TF.FileFunction,Legend,Top*%
%TF.FilePolarity,Positive*%
%FSLAX46Y46*%
G04 Gerber Fmt 4.6, Leading zero omitted, Abs format (unit mm)*
G04 Created by KiCad (PCBNEW (6.0.1)) date 2022-03-10 11:46:57*
%MOMM*%
%LPD*%
G01*
G04 APERTURE LIST*
G04 Aperture macros list*
%AMRoundRect*
0 Rectangle with rounded corners*
0 $1 Rounding radius*
0 $2 $3 $4 $5 $6 $7 $8 $9 X,Y pos of 4 corners*
0 Add a 4 corners polygon primitive as box body*
4,1,4,$2,$3,$4,$5,$6,$7,$8,$9,$2,$3,0*
0 Add four circle primitives for the rounded corners*
1,1,$1+$1,$2,$3*
1,1,$1+$1,$4,$5*
1,1,$1+$1,$6,$7*
1,1,$1+$1,$8,$9*
0 Add four rect primitives between the rounded corners*
20,1,$1+$1,$2,$3,$4,$5,0*
20,1,$1+$1,$4,$5,$6,$7,0*
20,1,$1+$1,$6,$7,$8,$9,0*
20,1,$1+$1,$8,$9,$2,$3,0*%
G04 Aperture macros list end*
%ADD10C,0.150000*%
%ADD11C,0.120000*%
%ADD12RoundRect,0.250000X-0.600000X-0.725000X0.600000X-0.725000X0.600000X0.725000X-0.600000X0.725000X0*%
%ADD13O,1.700000X1.950000*%
%ADD14RoundRect,0.250000X0.337500X0.475000X-0.337500X0.475000X-0.337500X-0.475000X0.337500X-0.475000X0*%
%ADD15R,1.500000X2.000000*%
%ADD16R,3.800000X2.000000*%
%ADD17RoundRect,0.250000X-0.475000X0.337500X-0.475000X-0.337500X0.475000X-0.337500X0.475000X0.337500X0*%
%ADD18R,1.016000X1.524000*%
%ADD19R,1.524000X1.016000*%
%ADD20RoundRect,0.250000X-0.450000X0.350000X-0.450000X-0.350000X0.450000X-0.350000X0.450000X0.350000X0*%
%ADD21RoundRect,0.250000X0.475000X-0.337500X0.475000X0.337500X-0.475000X0.337500X-0.475000X-0.337500X0*%
%ADD22R,5.080000X1.500000*%
%ADD23RoundRect,0.250000X0.450000X-0.350000X0.450000X0.350000X-0.450000X0.350000X-0.450000X-0.350000X0*%
%ADD24RoundRect,0.250000X-0.350000X-0.450000X0.350000X-0.450000X0.350000X0.450000X-0.350000X0.450000X0*%
%ADD25C,5.600000*%
%ADD26R,1.000000X0.900000*%
%ADD27R,1.550000X1.300000*%
%ADD28RoundRect,0.075000X-0.662500X-0.075000X0.662500X-0.075000X0.662500X0.075000X-0.662500X0.075000X0*%
%ADD29RoundRect,0.075000X-0.075000X-0.662500X0.075000X-0.662500X0.075000X0.662500X-0.075000X0.662500X0*%
%ADD30RoundRect,0.250000X0.350000X0.450000X-0.350000X0.450000X-0.350000X-0.450000X0.350000X-0.450000X0*%
%ADD31R,1.700000X1.700000*%
%ADD32O,1.700000X1.700000*%
%ADD33RoundRect,0.250000X-0.625000X0.350000X-0.625000X-0.350000X0.625000X-0.350000X0.625000X0.350000X0*%
%ADD34O,1.750000X1.200000*%
%ADD35R,1.800000X1.000000*%
G04 APERTURE END LIST*
D10*
X93005928Y-52325535D02*
X93255928Y-53075535D01*
X93505928Y-52325535D01*
X94148785Y-53075535D02*
X93720214Y-53075535D01*
X93934500Y-53075535D02*
X93934500Y-52325535D01*
X93863071Y-52432678D01*
X93791642Y-52504107D01*
X93720214Y-52539821D01*
X94470214Y-53004107D02*
X94505928Y-53039821D01*
X94470214Y-53075535D01*
X94434500Y-53039821D01*
X94470214Y-53004107D01*
X94470214Y-53075535D01*
X94970214Y-52325535D02*
X95041642Y-52325535D01*
X95113071Y-52361250D01*
X95148785Y-52396964D01*
X95184500Y-52468392D01*
X95220214Y-52611250D01*
X95220214Y-52789821D01*
X95184500Y-52932678D01*
X95148785Y-53004107D01*
X95113071Y-53039821D01*
X95041642Y-53075535D01*
X94970214Y-53075535D01*
X94898785Y-53039821D01*
X94863071Y-53004107D01*
X94827357Y-52932678D01*
X94791642Y-52789821D01*
X94791642Y-52611250D01*
X94827357Y-52468392D01*
X94863071Y-52396964D01*
X94898785Y-52361250D01*
X94970214Y-52325535D01*
X96505928Y-53075535D02*
X96077357Y-53075535D01*
X96291642Y-53075535D02*
X96291642Y-52325535D01*
X96220214Y-52432678D01*
X96148785Y-52504107D01*
X96077357Y-52539821D01*
X96970214Y-52325535D02*
X97041642Y-52325535D01*
X97113071Y-52361250D01*
X97148785Y-52396964D01*
X97184500Y-52468392D01*
X97220214Y-52611250D01*
X97220214Y-52789821D01*
X97184500Y-52932678D01*
X97148785Y-53004107D01*
X97113071Y-53039821D01*
X97041642Y-53075535D01*
X96970214Y-53075535D01*
X96898785Y-53039821D01*
X96863071Y-53004107D01*
X96827357Y-52932678D01*
X96791642Y-52789821D01*
X96791642Y-52611250D01*
X96827357Y-52468392D01*
X96863071Y-52396964D01*
X96898785Y-52361250D01*
X96970214Y-52325535D01*
X97541642Y-52789821D02*
X98113071Y-52789821D01*
X98613071Y-52325535D02*
X98684500Y-52325535D01*
X98755928Y-52361250D01*
X98791642Y-52396964D01*
X98827357Y-52468392D01*
X98863071Y-52611250D01*
X98863071Y-52789821D01*
X98827357Y-52932678D01*
X98791642Y-53004107D01*
X98755928Y-53039821D01*
X98684500Y-53075535D01*
X98613071Y-53075535D01*
X98541642Y-53039821D01*
X98505928Y-53004107D01*
X98470214Y-52932678D01*
X98434500Y-52789821D01*
X98434500Y-52611250D01*
X98470214Y-52468392D01*
X98505928Y-52396964D01*
X98541642Y-52361250D01*
X98613071Y-52325535D01*
X99113071Y-52325535D02*
X99577357Y-52325535D01*
X99327357Y-52611250D01*
X99434500Y-52611250D01*
X99505928Y-52646964D01*
X99541642Y-52682678D01*
X99577357Y-52754107D01*
X99577357Y-52932678D01*
X99541642Y-53004107D01*
X99505928Y-53039821D01*
X99434500Y-53075535D01*
X99220214Y-53075535D01*
X99148785Y-53039821D01*
X99113071Y-53004107D01*
X99898785Y-52789821D02*
X100470214Y-52789821D01*
X100791642Y-52396964D02*
X100827357Y-52361250D01*
X100898785Y-52325535D01*
X101077357Y-52325535D01*
X101148785Y-52361250D01*
X101184500Y-52396964D01*
X101220214Y-52468392D01*
X101220214Y-52539821D01*
X101184500Y-52646964D01*
X100755928Y-53075535D01*
X101220214Y-53075535D01*
X101684500Y-52325535D02*
X101755928Y-52325535D01*
X101827357Y-52361250D01*
X101863071Y-52396964D01*
X101898785Y-52468392D01*
X101934500Y-52611250D01*
X101934500Y-52789821D01*
X101898785Y-52932678D01*
X101863071Y-53004107D01*
X101827357Y-53039821D01*
X101755928Y-53075535D01*
X101684500Y-53075535D01*
X101613071Y-53039821D01*
X101577357Y-53004107D01*
X101541642Y-52932678D01*
X101505928Y-52789821D01*
X101505928Y-52611250D01*
X101541642Y-52468392D01*
X101577357Y-52396964D01*
X101613071Y-52361250D01*
X101684500Y-52325535D01*
X102220214Y-52396964D02*
X102255928Y-52361250D01*
X102327357Y-52325535D01*
X102505928Y-52325535D01*
X102577357Y-52361250D01*
X102613071Y-52396964D01*
X102648785Y-52468392D01*
X102648785Y-52539821D01*
X102613071Y-52646964D01*
X102184500Y-53075535D01*
X102648785Y-53075535D01*
X102934500Y-52396964D02*
X102970214Y-52361250D01*
X103041642Y-52325535D01*
X103220214Y-52325535D01*
X103291642Y-52361250D01*
X103327357Y-52396964D01*
X103363071Y-52468392D01*
X103363071Y-52539821D01*
X103327357Y-52646964D01*
X102898785Y-53075535D01*
X103363071Y-53075535D01*
X93113071Y-54283035D02*
X93113071Y-53533035D01*
X93363071Y-54068750D01*
X93613071Y-53533035D01*
X93613071Y-54283035D01*
X94291642Y-54283035D02*
X94291642Y-53890178D01*
X94255928Y-53818750D01*
X94184500Y-53783035D01*
X94041642Y-53783035D01*
X93970214Y-53818750D01*
X94291642Y-54247321D02*
X94220214Y-54283035D01*
X94041642Y-54283035D01*
X93970214Y-54247321D01*
X93934500Y-54175892D01*
X93934500Y-54104464D01*
X93970214Y-54033035D01*
X94041642Y-53997321D01*
X94220214Y-53997321D01*
X94291642Y-53961607D01*
X94970214Y-54283035D02*
X94970214Y-53533035D01*
X94970214Y-54247321D02*
X94898785Y-54283035D01*
X94755928Y-54283035D01*
X94684500Y-54247321D01*
X94648785Y-54211607D01*
X94613071Y-54140178D01*
X94613071Y-53925892D01*
X94648785Y-53854464D01*
X94684500Y-53818750D01*
X94755928Y-53783035D01*
X94898785Y-53783035D01*
X94970214Y-53818750D01*
X95613071Y-54247321D02*
X95541642Y-54283035D01*
X95398785Y-54283035D01*
X95327357Y-54247321D01*
X95291642Y-54175892D01*
X95291642Y-53890178D01*
X95327357Y-53818750D01*
X95398785Y-53783035D01*
X95541642Y-53783035D01*
X95613071Y-53818750D01*
X95648785Y-53890178D01*
X95648785Y-53961607D01*
X95291642Y-54033035D01*
X96541642Y-54283035D02*
X96541642Y-53533035D01*
X96541642Y-53818750D02*
X96613071Y-53783035D01*
X96755928Y-53783035D01*
X96827357Y-53818750D01*
X96863071Y-53854464D01*
X96898785Y-53925892D01*
X96898785Y-54140178D01*
X96863071Y-54211607D01*
X96827357Y-54247321D01*
X96755928Y-54283035D01*
X96613071Y-54283035D01*
X96541642Y-54247321D01*
X97148785Y-53783035D02*
X97327357Y-54283035D01*
X97505928Y-53783035D02*
X97327357Y-54283035D01*
X97255928Y-54461607D01*
X97220214Y-54497321D01*
X97148785Y-54533035D01*
X98363071Y-54283035D02*
X98363071Y-53533035D01*
X98541642Y-53533035D01*
X98648785Y-53568750D01*
X98720214Y-53640178D01*
X98755928Y-53711607D01*
X98791642Y-53854464D01*
X98791642Y-53961607D01*
X98755928Y-54104464D01*
X98720214Y-54175892D01*
X98648785Y-54247321D01*
X98541642Y-54283035D01*
X98363071Y-54283035D01*
X99434500Y-54283035D02*
X99434500Y-53890178D01*
X99398785Y-53818750D01*
X99327357Y-53783035D01*
X99184500Y-53783035D01*
X99113071Y-53818750D01*
X99434500Y-54247321D02*
X99363071Y-54283035D01*
X99184500Y-54283035D01*
X99113071Y-54247321D01*
X99077357Y-54175892D01*
X99077357Y-54104464D01*
X99113071Y-54033035D01*
X99184500Y-53997321D01*
X99363071Y-53997321D01*
X99434500Y-53961607D01*
X100113071Y-54283035D02*
X100113071Y-53890178D01*
X100077357Y-53818750D01*
X100005928Y-53783035D01*
X99863071Y-53783035D01*
X99791642Y-53818750D01*
X100113071Y-54247321D02*
X100041642Y-54283035D01*
X99863071Y-54283035D01*
X99791642Y-54247321D01*
X99755928Y-54175892D01*
X99755928Y-54104464D01*
X99791642Y-54033035D01*
X99863071Y-53997321D01*
X100041642Y-53997321D01*
X100113071Y-53961607D01*
X100470214Y-53783035D02*
X100470214Y-54283035D01*
X100470214Y-53854464D02*
X100505928Y-53818750D01*
X100577357Y-53783035D01*
X100684500Y-53783035D01*
X100755928Y-53818750D01*
X100791642Y-53890178D01*
X100791642Y-54283035D01*
X101720214Y-54283035D02*
X101720214Y-53533035D01*
X101898785Y-53533035D01*
X102005928Y-53568750D01*
X102077357Y-53640178D01*
X102113071Y-53711607D01*
X102148785Y-53854464D01*
X102148785Y-53961607D01*
X102113071Y-54104464D01*
X102077357Y-54175892D01*
X102005928Y-54247321D01*
X101898785Y-54283035D01*
X101720214Y-54283035D01*
X102755928Y-54247321D02*
X102684500Y-54283035D01*
X102541642Y-54283035D01*
X102470214Y-54247321D01*
X102434500Y-54175892D01*
X102434500Y-53890178D01*
X102470214Y-53818750D01*
X102541642Y-53783035D01*
X102684500Y-53783035D01*
X102755928Y-53818750D01*
X102791642Y-53890178D01*
X102791642Y-53961607D01*
X102434500Y-54033035D01*
X103113071Y-54283035D02*
X103113071Y-53533035D01*
X103184500Y-53997321D02*
X103398785Y-54283035D01*
X103398785Y-53783035D02*
X103113071Y-54068750D01*
X103827357Y-54283035D02*
X103755928Y-54247321D01*
X103720214Y-54211607D01*
X103684500Y-54140178D01*
X103684500Y-53925892D01*
X103720214Y-53854464D01*
X103755928Y-53818750D01*
X103827357Y-53783035D01*
X103934500Y-53783035D01*
X104005928Y-53818750D01*
X104041642Y-53854464D01*
X104077357Y-53925892D01*
X104077357Y-54140178D01*
X104041642Y-54211607D01*
X104005928Y-54247321D01*
X103934500Y-54283035D01*
X103827357Y-54283035D01*
X104398785Y-53783035D02*
X104398785Y-54283035D01*
X104398785Y-53854464D02*
X104434500Y-53818750D01*
X104505928Y-53783035D01*
X104613071Y-53783035D01*
X104684500Y-53818750D01*
X104720214Y-53890178D01*
X104720214Y-54283035D01*
X105077357Y-54283035D02*
X105077357Y-53783035D01*
X105077357Y-53533035D02*
X105041642Y-53568750D01*
X105077357Y-53604464D01*
X105113071Y-53568750D01*
X105077357Y-53533035D01*
X105077357Y-53604464D01*
X105434500Y-53783035D02*
X105434500Y-54283035D01*
X105434500Y-53854464D02*
X105470214Y-53818750D01*
X105541642Y-53783035D01*
X105648785Y-53783035D01*
X105720214Y-53818750D01*
X105755928Y-53890178D01*
X105755928Y-54283035D01*
X106434500Y-53783035D02*
X106434500Y-54390178D01*
X106398785Y-54461607D01*
X106363071Y-54497321D01*
X106291642Y-54533035D01*
X106184500Y-54533035D01*
X106113071Y-54497321D01*
X106434500Y-54247321D02*
X106363071Y-54283035D01*
X106220214Y-54283035D01*
X106148785Y-54247321D01*
X106113071Y-54211607D01*
X106077357Y-54140178D01*
X106077357Y-53925892D01*
X106113071Y-53854464D01*
X106148785Y-53818750D01*
X106220214Y-53783035D01*
X106363071Y-53783035D01*
X106434500Y-53818750D01*
X94188999Y-51514285D02*
X94093761Y-51609523D01*
X93808047Y-51704761D01*
X93617571Y-51704761D01*
X93331857Y-51609523D01*
X93141380Y-51419047D01*
X93046142Y-51228571D01*
X92950904Y-50847619D01*
X92950904Y-50561904D01*
X93046142Y-50180952D01*
X93141380Y-49990476D01*
X93331857Y-49800000D01*
X93617571Y-49704761D01*
X93808047Y-49704761D01*
X94093761Y-49800000D01*
X94188999Y-49895238D01*
X95331857Y-51704761D02*
X95141380Y-51609523D01*
X95046142Y-51514285D01*
X94950904Y-51323809D01*
X94950904Y-50752380D01*
X95046142Y-50561904D01*
X95141380Y-50466666D01*
X95331857Y-50371428D01*
X95617571Y-50371428D01*
X95808047Y-50466666D01*
X95903285Y-50561904D01*
X95998523Y-50752380D01*
X95998523Y-51323809D01*
X95903285Y-51514285D01*
X95808047Y-51609523D01*
X95617571Y-51704761D01*
X95331857Y-51704761D01*
X96855666Y-50371428D02*
X96855666Y-51704761D01*
X96855666Y-50561904D02*
X96950904Y-50466666D01*
X97141380Y-50371428D01*
X97427095Y-50371428D01*
X97617571Y-50466666D01*
X97712809Y-50657142D01*
X97712809Y-51704761D01*
X98665190Y-50371428D02*
X98665190Y-51704761D01*
X98665190Y-50561904D02*
X98760428Y-50466666D01*
X98950904Y-50371428D01*
X99236619Y-50371428D01*
X99427095Y-50466666D01*
X99522333Y-50657142D01*
X99522333Y-51704761D01*
X101236619Y-51609523D02*
X101046142Y-51704761D01*
X100665190Y-51704761D01*
X100474714Y-51609523D01*
X100379476Y-51419047D01*
X100379476Y-50657142D01*
X100474714Y-50466666D01*
X100665190Y-50371428D01*
X101046142Y-50371428D01*
X101236619Y-50466666D01*
X101331857Y-50657142D01*
X101331857Y-50847619D01*
X100379476Y-51038095D01*
X103046142Y-51609523D02*
X102855666Y-51704761D01*
X102474714Y-51704761D01*
X102284238Y-51609523D01*
X102188999Y-51514285D01*
X102093761Y-51323809D01*
X102093761Y-50752380D01*
X102188999Y-50561904D01*
X102284238Y-50466666D01*
X102474714Y-50371428D01*
X102855666Y-50371428D01*
X103046142Y-50466666D01*
X103617571Y-50371428D02*
X104379476Y-50371428D01*
X103903285Y-49704761D02*
X103903285Y-51419047D01*
X103998523Y-51609523D01*
X104188999Y-51704761D01*
X104379476Y-51704761D01*
X105808047Y-51609523D02*
X105617571Y-51704761D01*
X105236619Y-51704761D01*
X105046142Y-51609523D01*
X104950904Y-51419047D01*
X104950904Y-50657142D01*
X105046142Y-50466666D01*
X105236619Y-50371428D01*
X105617571Y-50371428D01*
X105808047Y-50466666D01*
X105903285Y-50657142D01*
X105903285Y-50847619D01*
X104950904Y-51038095D01*
X107617571Y-51704761D02*
X107617571Y-49704761D01*
X107617571Y-51609523D02*
X107427095Y-51704761D01*
X107046142Y-51704761D01*
X106855666Y-51609523D01*
X106760428Y-51514285D01*
X106665190Y-51323809D01*
X106665190Y-50752380D01*
X106760428Y-50561904D01*
X106855666Y-50466666D01*
X107046142Y-50371428D01*
X107427095Y-50371428D01*
X107617571Y-50466666D01*
X110093761Y-51704761D02*
X110093761Y-49704761D01*
X110950904Y-51609523D02*
X111141380Y-51704761D01*
X111522333Y-51704761D01*
X111712809Y-51609523D01*
X111808047Y-51419047D01*
X111808047Y-51323809D01*
X111712809Y-51133333D01*
X111522333Y-51038095D01*
X111236619Y-51038095D01*
X111046142Y-50942857D01*
X110950904Y-50752380D01*
X110950904Y-50657142D01*
X111046142Y-50466666D01*
X111236619Y-50371428D01*
X111522333Y-50371428D01*
X111712809Y-50466666D01*
X112950904Y-51704761D02*
X112760428Y-51609523D01*
X112665190Y-51419047D01*
X112665190Y-49704761D01*
X114569952Y-51704761D02*
X114569952Y-50657142D01*
X114474714Y-50466666D01*
X114284238Y-50371428D01*
X113903285Y-50371428D01*
X113712809Y-50466666D01*
X114569952Y-51609523D02*
X114379476Y-51704761D01*
X113903285Y-51704761D01*
X113712809Y-51609523D01*
X113617571Y-51419047D01*
X113617571Y-51228571D01*
X113712809Y-51038095D01*
X113903285Y-50942857D01*
X114379476Y-50942857D01*
X114569952Y-50847619D01*
X115522333Y-50371428D02*
X115522333Y-51704761D01*
X115522333Y-50561904D02*
X115617571Y-50466666D01*
X115808047Y-50371428D01*
X116093761Y-50371428D01*
X116284238Y-50466666D01*
X116379476Y-50657142D01*
X116379476Y-51704761D01*
X118189000Y-51704761D02*
X118189000Y-49704761D01*
X118189000Y-51609523D02*
X117998523Y-51704761D01*
X117617571Y-51704761D01*
X117427095Y-51609523D01*
X117331857Y-51514285D01*
X117236619Y-51323809D01*
X117236619Y-50752380D01*
X117331857Y-50561904D01*
X117427095Y-50466666D01*
X117617571Y-50371428D01*
X117998523Y-50371428D01*
X118189000Y-50466666D01*
X119046142Y-51609523D02*
X119236619Y-51704761D01*
X119617571Y-51704761D01*
X119808047Y-51609523D01*
X119903285Y-51419047D01*
X119903285Y-51323809D01*
X119808047Y-51133333D01*
X119617571Y-51038095D01*
X119331857Y-51038095D01*
X119141380Y-50942857D01*
X119046142Y-50752380D01*
X119046142Y-50657142D01*
X119141380Y-50466666D01*
X119331857Y-50371428D01*
X119617571Y-50371428D01*
X119808047Y-50466666D01*
X122284238Y-51704761D02*
X122284238Y-49704761D01*
X123046142Y-49704761D01*
X123236619Y-49800000D01*
X123331857Y-49895238D01*
X123427095Y-50085714D01*
X123427095Y-50371428D01*
X123331857Y-50561904D01*
X123236619Y-50657142D01*
X123046142Y-50752380D01*
X122284238Y-50752380D01*
X124569952Y-51704761D02*
X124379476Y-51609523D01*
X124284238Y-51514285D01*
X124189000Y-51323809D01*
X124189000Y-50752380D01*
X124284238Y-50561904D01*
X124379476Y-50466666D01*
X124569952Y-50371428D01*
X124855666Y-50371428D01*
X125046142Y-50466666D01*
X125141380Y-50561904D01*
X125236619Y-50752380D01*
X125236619Y-51323809D01*
X125141380Y-51514285D01*
X125046142Y-51609523D01*
X124855666Y-51704761D01*
X124569952Y-51704761D01*
X127236619Y-51514285D02*
X127141380Y-51609523D01*
X126855666Y-51704761D01*
X126665190Y-51704761D01*
X126379476Y-51609523D01*
X126189000Y-51419047D01*
X126093761Y-51228571D01*
X125998523Y-50847619D01*
X125998523Y-50561904D01*
X126093761Y-50180952D01*
X126189000Y-49990476D01*
X126379476Y-49800000D01*
X126665190Y-49704761D01*
X126855666Y-49704761D01*
X127141380Y-49800000D01*
X127236619Y-49895238D01*
X130284238Y-50657142D02*
X130569952Y-50752380D01*
X130665190Y-50847619D01*
X130760428Y-51038095D01*
X130760428Y-51323809D01*
X130665190Y-51514285D01*
X130569952Y-51609523D01*
X130379476Y-51704761D01*
X129617571Y-51704761D01*
X129617571Y-49704761D01*
X130284238Y-49704761D01*
X130474714Y-49800000D01*
X130569952Y-49895238D01*
X130665190Y-50085714D01*
X130665190Y-50276190D01*
X130569952Y-50466666D01*
X130474714Y-50561904D01*
X130284238Y-50657142D01*
X129617571Y-50657142D01*
X131903285Y-51704761D02*
X131712809Y-51609523D01*
X131617571Y-51514285D01*
X131522333Y-51323809D01*
X131522333Y-50752380D01*
X131617571Y-50561904D01*
X131712809Y-50466666D01*
X131903285Y-50371428D01*
X132188999Y-50371428D01*
X132379476Y-50466666D01*
X132474714Y-50561904D01*
X132569952Y-50752380D01*
X132569952Y-51323809D01*
X132474714Y-51514285D01*
X132379476Y-51609523D01*
X132188999Y-51704761D01*
X131903285Y-51704761D01*
X134284238Y-51704761D02*
X134284238Y-50657142D01*
X134188999Y-50466666D01*
X133998523Y-50371428D01*
X133617571Y-50371428D01*
X133427095Y-50466666D01*
X134284238Y-51609523D02*
X134093761Y-51704761D01*
X133617571Y-51704761D01*
X133427095Y-51609523D01*
X133331857Y-51419047D01*
X133331857Y-51228571D01*
X133427095Y-51038095D01*
X133617571Y-50942857D01*
X134093761Y-50942857D01*
X134284238Y-50847619D01*
X135236619Y-51704761D02*
X135236619Y-50371428D01*
X135236619Y-50752380D02*
X135331857Y-50561904D01*
X135427095Y-50466666D01*
X135617571Y-50371428D01*
X135808047Y-50371428D01*
X137331857Y-51704761D02*
X137331857Y-49704761D01*
X137331857Y-51609523D02*
X137141380Y-51704761D01*
X136760428Y-51704761D01*
X136569952Y-51609523D01*
X136474714Y-51514285D01*
X136379476Y-51323809D01*
X136379476Y-50752380D01*
X136474714Y-50561904D01*
X136569952Y-50466666D01*
X136760428Y-50371428D01*
X137141380Y-50371428D01*
X137331857Y-50466666D01*
X100758666Y-79214380D02*
X100758666Y-79928666D01*
X100711047Y-80071523D01*
X100615809Y-80166761D01*
X100472952Y-80214380D01*
X100377714Y-80214380D01*
X101711047Y-79214380D02*
X101234857Y-79214380D01*
X101187238Y-79690571D01*
X101234857Y-79642952D01*
X101330095Y-79595333D01*
X101568190Y-79595333D01*
X101663428Y-79642952D01*
X101711047Y-79690571D01*
X101758666Y-79785809D01*
X101758666Y-80023904D01*
X101711047Y-80119142D01*
X101663428Y-80166761D01*
X101568190Y-80214380D01*
X101330095Y-80214380D01*
X101234857Y-80166761D01*
X101187238Y-80119142D01*
X72509142Y-64034642D02*
X72461523Y-64082261D01*
X72318666Y-64129880D01*
X72223428Y-64129880D01*
X72080571Y-64082261D01*
X71985333Y-63987023D01*
X71937714Y-63891785D01*
X71890095Y-63701309D01*
X71890095Y-63558452D01*
X71937714Y-63367976D01*
X71985333Y-63272738D01*
X72080571Y-63177500D01*
X72223428Y-63129880D01*
X72318666Y-63129880D01*
X72461523Y-63177500D01*
X72509142Y-63225119D01*
X73461523Y-64129880D02*
X72890095Y-64129880D01*
X73175809Y-64129880D02*
X73175809Y-63129880D01*
X73080571Y-63272738D01*
X72985333Y-63367976D01*
X72890095Y-63415595D01*
X74413904Y-64129880D02*
X73842476Y-64129880D01*
X74128190Y-64129880D02*
X74128190Y-63129880D01*
X74032952Y-63272738D01*
X73937714Y-63367976D01*
X73842476Y-63415595D01*
X67992380Y-57069404D02*
X68801904Y-57069404D01*
X68897142Y-57021785D01*
X68944761Y-56974166D01*
X68992380Y-56878928D01*
X68992380Y-56688452D01*
X68944761Y-56593214D01*
X68897142Y-56545595D01*
X68801904Y-56497976D01*
X67992380Y-56497976D01*
X68087619Y-56069404D02*
X68040000Y-56021785D01*
X67992380Y-55926547D01*
X67992380Y-55688452D01*
X68040000Y-55593214D01*
X68087619Y-55545595D01*
X68182857Y-55497976D01*
X68278095Y-55497976D01*
X68420952Y-55545595D01*
X68992380Y-56117023D01*
X68992380Y-55497976D01*
X91273333Y-60301142D02*
X91225714Y-60348761D01*
X91082857Y-60396380D01*
X90987619Y-60396380D01*
X90844761Y-60348761D01*
X90749523Y-60253523D01*
X90701904Y-60158285D01*
X90654285Y-59967809D01*
X90654285Y-59824952D01*
X90701904Y-59634476D01*
X90749523Y-59539238D01*
X90844761Y-59444000D01*
X90987619Y-59396380D01*
X91082857Y-59396380D01*
X91225714Y-59444000D01*
X91273333Y-59491619D01*
X91654285Y-59491619D02*
X91701904Y-59444000D01*
X91797142Y-59396380D01*
X92035238Y-59396380D01*
X92130476Y-59444000D01*
X92178095Y-59491619D01*
X92225714Y-59586857D01*
X92225714Y-59682095D01*
X92178095Y-59824952D01*
X91606666Y-60396380D01*
X92225714Y-60396380D01*
X75786666Y-79214380D02*
X75786666Y-79928666D01*
X75739047Y-80071523D01*
X75643809Y-80166761D01*
X75500952Y-80214380D01*
X75405714Y-80214380D01*
X76167619Y-79214380D02*
X76786666Y-79214380D01*
X76453333Y-79595333D01*
X76596190Y-79595333D01*
X76691428Y-79642952D01*
X76739047Y-79690571D01*
X76786666Y-79785809D01*
X76786666Y-80023904D01*
X76739047Y-80119142D01*
X76691428Y-80166761D01*
X76596190Y-80214380D01*
X76310476Y-80214380D01*
X76215238Y-80166761D01*
X76167619Y-80119142D01*
X107865880Y-73826285D02*
X106865880Y-73826285D01*
X107580166Y-73492952D01*
X106865880Y-73159619D01*
X107865880Y-73159619D01*
X106865880Y-72492952D02*
X106865880Y-72302476D01*
X106913500Y-72207238D01*
X107008738Y-72112000D01*
X107199214Y-72064380D01*
X107532547Y-72064380D01*
X107723023Y-72112000D01*
X107818261Y-72207238D01*
X107865880Y-72302476D01*
X107865880Y-72492952D01*
X107818261Y-72588190D01*
X107723023Y-72683428D01*
X107532547Y-72731047D01*
X107199214Y-72731047D01*
X107008738Y-72683428D01*
X106913500Y-72588190D01*
X106865880Y-72492952D01*
X107865880Y-71635809D02*
X106865880Y-71635809D01*
X106865880Y-71397714D01*
X106913500Y-71254857D01*
X107008738Y-71159619D01*
X107103976Y-71112000D01*
X107294452Y-71064380D01*
X107437309Y-71064380D01*
X107627785Y-71112000D01*
X107723023Y-71159619D01*
X107818261Y-71254857D01*
X107865880Y-71397714D01*
X107865880Y-71635809D01*
X106865880Y-70635809D02*
X107675404Y-70635809D01*
X107770642Y-70588190D01*
X107818261Y-70540571D01*
X107865880Y-70445333D01*
X107865880Y-70254857D01*
X107818261Y-70159619D01*
X107770642Y-70112000D01*
X107675404Y-70064380D01*
X106865880Y-70064380D01*
X107865880Y-69112000D02*
X107865880Y-69588190D01*
X106865880Y-69588190D01*
X107342071Y-68778666D02*
X107342071Y-68445333D01*
X107865880Y-68302476D02*
X107865880Y-68778666D01*
X106865880Y-68778666D01*
X106865880Y-68302476D01*
X107865880Y-67350095D02*
X107865880Y-67921523D01*
X107865880Y-67635809D02*
X106865880Y-67635809D01*
X107008738Y-67731047D01*
X107103976Y-67826285D01*
X107151595Y-67921523D01*
X71461333Y-66492380D02*
X71128000Y-66016190D01*
X70889904Y-66492380D02*
X70889904Y-65492380D01*
X71270857Y-65492380D01*
X71366095Y-65540000D01*
X71413714Y-65587619D01*
X71461333Y-65682857D01*
X71461333Y-65825714D01*
X71413714Y-65920952D01*
X71366095Y-65968571D01*
X71270857Y-66016190D01*
X70889904Y-66016190D01*
X72413714Y-66492380D02*
X71842285Y-66492380D01*
X72128000Y-66492380D02*
X72128000Y-65492380D01*
X72032761Y-65635238D01*
X71937523Y-65730476D01*
X71842285Y-65778095D01*
X88733333Y-75541142D02*
X88685714Y-75588761D01*
X88542857Y-75636380D01*
X88447619Y-75636380D01*
X88304761Y-75588761D01*
X88209523Y-75493523D01*
X88161904Y-75398285D01*
X88114285Y-75207809D01*
X88114285Y-75064952D01*
X88161904Y-74874476D01*
X88209523Y-74779238D01*
X88304761Y-74684000D01*
X88447619Y-74636380D01*
X88542857Y-74636380D01*
X88685714Y-74684000D01*
X88733333Y-74731619D01*
X89590476Y-74969714D02*
X89590476Y-75636380D01*
X89352380Y-74588761D02*
X89114285Y-75303047D01*
X89733333Y-75303047D01*
X90937142Y-57560357D02*
X90984761Y-57607976D01*
X91032380Y-57750833D01*
X91032380Y-57846071D01*
X90984761Y-57988928D01*
X90889523Y-58084166D01*
X90794285Y-58131785D01*
X90603809Y-58179404D01*
X90460952Y-58179404D01*
X90270476Y-58131785D01*
X90175238Y-58084166D01*
X90080000Y-57988928D01*
X90032380Y-57846071D01*
X90032380Y-57750833D01*
X90080000Y-57607976D01*
X90127619Y-57560357D01*
X91032380Y-56607976D02*
X91032380Y-57179404D01*
X91032380Y-56893690D02*
X90032380Y-56893690D01*
X90175238Y-56988928D01*
X90270476Y-57084166D01*
X90318095Y-57179404D01*
X90365714Y-55750833D02*
X91032380Y-55750833D01*
X89984761Y-55988928D02*
X90699047Y-56227023D01*
X90699047Y-55607976D01*
X79012380Y-57069404D02*
X79821904Y-57069404D01*
X79917142Y-57021785D01*
X79964761Y-56974166D01*
X80012380Y-56878928D01*
X80012380Y-56688452D01*
X79964761Y-56593214D01*
X79917142Y-56545595D01*
X79821904Y-56497976D01*
X79012380Y-56497976D01*
X79012380Y-56117023D02*
X79012380Y-55497976D01*
X79393333Y-55831309D01*
X79393333Y-55688452D01*
X79440952Y-55593214D01*
X79488571Y-55545595D01*
X79583809Y-55497976D01*
X79821904Y-55497976D01*
X79917142Y-55545595D01*
X79964761Y-55593214D01*
X80012380Y-55688452D01*
X80012380Y-55974166D01*
X79964761Y-56069404D01*
X79917142Y-56117023D01*
X139764380Y-60833333D02*
X140478666Y-60833333D01*
X140621523Y-60880952D01*
X140716761Y-60976190D01*
X140764380Y-61119047D01*
X140764380Y-61214285D01*
X140764380Y-59833333D02*
X140764380Y-60404761D01*
X140764380Y-60119047D02*
X139764380Y-60119047D01*
X139907238Y-60214285D01*
X140002476Y-60309523D01*
X140050095Y-60404761D01*
X75636380Y-64174666D02*
X75160190Y-64508000D01*
X75636380Y-64746095D02*
X74636380Y-64746095D01*
X74636380Y-64365142D01*
X74684000Y-64269904D01*
X74731619Y-64222285D01*
X74826857Y-64174666D01*
X74969714Y-64174666D01*
X75064952Y-64222285D01*
X75112571Y-64269904D01*
X75160190Y-64365142D01*
X75160190Y-64746095D01*
X74636380Y-63269904D02*
X74636380Y-63746095D01*
X75112571Y-63793714D01*
X75064952Y-63746095D01*
X75017333Y-63650857D01*
X75017333Y-63412761D01*
X75064952Y-63317523D01*
X75112571Y-63269904D01*
X75207809Y-63222285D01*
X75445904Y-63222285D01*
X75541142Y-63269904D01*
X75588761Y-63317523D01*
X75636380Y-63412761D01*
X75636380Y-63650857D01*
X75588761Y-63746095D01*
X75541142Y-63793714D01*
X94845333Y-77542380D02*
X94512000Y-77066190D01*
X94273904Y-77542380D02*
X94273904Y-76542380D01*
X94654857Y-76542380D01*
X94750095Y-76590000D01*
X94797714Y-76637619D01*
X94845333Y-76732857D01*
X94845333Y-76875714D01*
X94797714Y-76970952D01*
X94750095Y-77018571D01*
X94654857Y-77066190D01*
X94273904Y-77066190D01*
X95178666Y-76542380D02*
X95845333Y-76542380D01*
X95416761Y-77542380D01*
X62738095Y-80472380D02*
X62738095Y-79472380D01*
X62738095Y-79948571D02*
X63309523Y-79948571D01*
X63309523Y-80472380D02*
X63309523Y-79472380D01*
X64309523Y-80472380D02*
X63738095Y-80472380D01*
X64023809Y-80472380D02*
X64023809Y-79472380D01*
X63928571Y-79615238D01*
X63833333Y-79710476D01*
X63738095Y-79758095D01*
X80842380Y-63158666D02*
X80366190Y-63492000D01*
X80842380Y-63730095D02*
X79842380Y-63730095D01*
X79842380Y-63349142D01*
X79890000Y-63253904D01*
X79937619Y-63206285D01*
X80032857Y-63158666D01*
X80175714Y-63158666D01*
X80270952Y-63206285D01*
X80318571Y-63253904D01*
X80366190Y-63349142D01*
X80366190Y-63730095D01*
X80175714Y-62301523D02*
X80842380Y-62301523D01*
X79794761Y-62539619D02*
X80509047Y-62777714D01*
X80509047Y-62158666D01*
X83161142Y-71286666D02*
X83208761Y-71334285D01*
X83256380Y-71477142D01*
X83256380Y-71572380D01*
X83208761Y-71715238D01*
X83113523Y-71810476D01*
X83018285Y-71858095D01*
X82827809Y-71905714D01*
X82684952Y-71905714D01*
X82494476Y-71858095D01*
X82399238Y-71810476D01*
X82304000Y-71715238D01*
X82256380Y-71572380D01*
X82256380Y-71477142D01*
X82304000Y-71334285D01*
X82351619Y-71286666D01*
X83256380Y-70810476D02*
X83256380Y-70620000D01*
X83208761Y-70524761D01*
X83161142Y-70477142D01*
X83018285Y-70381904D01*
X82827809Y-70334285D01*
X82446857Y-70334285D01*
X82351619Y-70381904D01*
X82304000Y-70429523D01*
X82256380Y-70524761D01*
X82256380Y-70715238D01*
X82304000Y-70810476D01*
X82351619Y-70858095D01*
X82446857Y-70905714D01*
X82684952Y-70905714D01*
X82780190Y-70858095D01*
X82827809Y-70810476D01*
X82875428Y-70715238D01*
X82875428Y-70524761D01*
X82827809Y-70429523D01*
X82780190Y-70381904D01*
X82684952Y-70334285D01*
X141478095Y-49992380D02*
X141478095Y-48992380D01*
X141478095Y-49468571D02*
X142049523Y-49468571D01*
X142049523Y-49992380D02*
X142049523Y-48992380D01*
X142954285Y-49325714D02*
X142954285Y-49992380D01*
X142716190Y-48944761D02*
X142478095Y-49659047D01*
X143097142Y-49659047D01*
X80113142Y-53934166D02*
X80160761Y-53981785D01*
X80208380Y-54124642D01*
X80208380Y-54219880D01*
X80160761Y-54362738D01*
X80065523Y-54457976D01*
X79970285Y-54505595D01*
X79779809Y-54553214D01*
X79636952Y-54553214D01*
X79446476Y-54505595D01*
X79351238Y-54457976D01*
X79256000Y-54362738D01*
X79208380Y-54219880D01*
X79208380Y-54124642D01*
X79256000Y-53981785D01*
X79303619Y-53934166D01*
X79208380Y-53077023D02*
X79208380Y-53267500D01*
X79256000Y-53362738D01*
X79303619Y-53410357D01*
X79446476Y-53505595D01*
X79636952Y-53553214D01*
X80017904Y-53553214D01*
X80113142Y-53505595D01*
X80160761Y-53457976D01*
X80208380Y-53362738D01*
X80208380Y-53172261D01*
X80160761Y-53077023D01*
X80113142Y-53029404D01*
X80017904Y-52981785D01*
X79779809Y-52981785D01*
X79684571Y-53029404D01*
X79636952Y-53077023D01*
X79589333Y-53172261D01*
X79589333Y-53362738D01*
X79636952Y-53457976D01*
X79684571Y-53505595D01*
X79779809Y-53553214D01*
X62738095Y-49992380D02*
X62738095Y-48992380D01*
X62738095Y-49468571D02*
X63309523Y-49468571D01*
X63309523Y-49992380D02*
X63309523Y-48992380D01*
X63738095Y-49087619D02*
X63785714Y-49040000D01*
X63880952Y-48992380D01*
X64119047Y-48992380D01*
X64214285Y-49040000D01*
X64261904Y-49087619D01*
X64309523Y-49182857D01*
X64309523Y-49278095D01*
X64261904Y-49420952D01*
X63690476Y-49992380D01*
X64309523Y-49992380D01*
X104314666Y-79208380D02*
X104314666Y-79922666D01*
X104267047Y-80065523D01*
X104171809Y-80160761D01*
X104028952Y-80208380D01*
X103933714Y-80208380D01*
X105219428Y-79541714D02*
X105219428Y-80208380D01*
X104981333Y-79160761D02*
X104743238Y-79875047D01*
X105362285Y-79875047D01*
X81621333Y-78176380D02*
X81145142Y-78176380D01*
X81145142Y-77176380D01*
X82478476Y-78176380D02*
X81907047Y-78176380D01*
X82192761Y-78176380D02*
X82192761Y-77176380D01*
X82097523Y-77319238D01*
X82002285Y-77414476D01*
X81907047Y-77462095D01*
X105005142Y-65180357D02*
X105052761Y-65227976D01*
X105100380Y-65370833D01*
X105100380Y-65466071D01*
X105052761Y-65608928D01*
X104957523Y-65704166D01*
X104862285Y-65751785D01*
X104671809Y-65799404D01*
X104528952Y-65799404D01*
X104338476Y-65751785D01*
X104243238Y-65704166D01*
X104148000Y-65608928D01*
X104100380Y-65466071D01*
X104100380Y-65370833D01*
X104148000Y-65227976D01*
X104195619Y-65180357D01*
X105100380Y-64227976D02*
X105100380Y-64799404D01*
X105100380Y-64513690D02*
X104100380Y-64513690D01*
X104243238Y-64608928D01*
X104338476Y-64704166D01*
X104386095Y-64799404D01*
X104100380Y-63608928D02*
X104100380Y-63513690D01*
X104148000Y-63418452D01*
X104195619Y-63370833D01*
X104290857Y-63323214D01*
X104481333Y-63275595D01*
X104719428Y-63275595D01*
X104909904Y-63323214D01*
X105005142Y-63370833D01*
X105052761Y-63418452D01*
X105100380Y-63513690D01*
X105100380Y-63608928D01*
X105052761Y-63704166D01*
X105005142Y-63751785D01*
X104909904Y-63799404D01*
X104719428Y-63847023D01*
X104481333Y-63847023D01*
X104290857Y-63799404D01*
X104195619Y-63751785D01*
X104148000Y-63704166D01*
X104100380Y-63608928D01*
X80113142Y-59570857D02*
X80160761Y-59618476D01*
X80208380Y-59761333D01*
X80208380Y-59856571D01*
X80160761Y-59999428D01*
X80065523Y-60094666D01*
X79970285Y-60142285D01*
X79779809Y-60189904D01*
X79636952Y-60189904D01*
X79446476Y-60142285D01*
X79351238Y-60094666D01*
X79256000Y-59999428D01*
X79208380Y-59856571D01*
X79208380Y-59761333D01*
X79256000Y-59618476D01*
X79303619Y-59570857D01*
X80208380Y-58618476D02*
X80208380Y-59189904D01*
X80208380Y-58904190D02*
X79208380Y-58904190D01*
X79351238Y-58999428D01*
X79446476Y-59094666D01*
X79494095Y-59189904D01*
X79208380Y-58285142D02*
X79208380Y-57666095D01*
X79589333Y-57999428D01*
X79589333Y-57856571D01*
X79636952Y-57761333D01*
X79684571Y-57713714D01*
X79779809Y-57666095D01*
X80017904Y-57666095D01*
X80113142Y-57713714D01*
X80160761Y-57761333D01*
X80208380Y-57856571D01*
X80208380Y-58142285D01*
X80160761Y-58237523D01*
X80113142Y-58285142D01*
X63690666Y-67968761D02*
X63833523Y-68016380D01*
X64071619Y-68016380D01*
X64166857Y-67968761D01*
X64214476Y-67921142D01*
X64262095Y-67825904D01*
X64262095Y-67730666D01*
X64214476Y-67635428D01*
X64166857Y-67587809D01*
X64071619Y-67540190D01*
X63881142Y-67492571D01*
X63785904Y-67444952D01*
X63738285Y-67397333D01*
X63690666Y-67302095D01*
X63690666Y-67206857D01*
X63738285Y-67111619D01*
X63785904Y-67064000D01*
X63881142Y-67016380D01*
X64119238Y-67016380D01*
X64262095Y-67064000D01*
X64595428Y-67016380D02*
X64833523Y-68016380D01*
X65024000Y-67302095D01*
X65214476Y-68016380D01*
X65452571Y-67016380D01*
X66357333Y-68016380D02*
X65785904Y-68016380D01*
X66071619Y-68016380D02*
X66071619Y-67016380D01*
X65976380Y-67159238D01*
X65881142Y-67254476D01*
X65785904Y-67302095D01*
X97790095Y-66508380D02*
X97790095Y-67317904D01*
X97837714Y-67413142D01*
X97885333Y-67460761D01*
X97980571Y-67508380D01*
X98171047Y-67508380D01*
X98266285Y-67460761D01*
X98313904Y-67413142D01*
X98361523Y-67317904D01*
X98361523Y-66508380D01*
X99361523Y-67508380D02*
X98790095Y-67508380D01*
X99075809Y-67508380D02*
X99075809Y-66508380D01*
X98980571Y-66651238D01*
X98885333Y-66746476D01*
X98790095Y-66794095D01*
X93813333Y-60301142D02*
X93765714Y-60348761D01*
X93622857Y-60396380D01*
X93527619Y-60396380D01*
X93384761Y-60348761D01*
X93289523Y-60253523D01*
X93241904Y-60158285D01*
X93194285Y-59967809D01*
X93194285Y-59824952D01*
X93241904Y-59634476D01*
X93289523Y-59539238D01*
X93384761Y-59444000D01*
X93527619Y-59396380D01*
X93622857Y-59396380D01*
X93765714Y-59444000D01*
X93813333Y-59491619D01*
X94765714Y-60396380D02*
X94194285Y-60396380D01*
X94480000Y-60396380D02*
X94480000Y-59396380D01*
X94384761Y-59539238D01*
X94289523Y-59634476D01*
X94194285Y-59682095D01*
X65746333Y-79065380D02*
X65413000Y-78589190D01*
X65174904Y-79065380D02*
X65174904Y-78065380D01*
X65555857Y-78065380D01*
X65651095Y-78113000D01*
X65698714Y-78160619D01*
X65746333Y-78255857D01*
X65746333Y-78398714D01*
X65698714Y-78493952D01*
X65651095Y-78541571D01*
X65555857Y-78589190D01*
X65174904Y-78589190D01*
X66079666Y-78065380D02*
X66698714Y-78065380D01*
X66365380Y-78446333D01*
X66508238Y-78446333D01*
X66603476Y-78493952D01*
X66651095Y-78541571D01*
X66698714Y-78636809D01*
X66698714Y-78874904D01*
X66651095Y-78970142D01*
X66603476Y-79017761D01*
X66508238Y-79065380D01*
X66222523Y-79065380D01*
X66127285Y-79017761D01*
X66079666Y-78970142D01*
X141195595Y-80472380D02*
X141195595Y-79472380D01*
X141195595Y-79948571D02*
X141767023Y-79948571D01*
X141767023Y-80472380D02*
X141767023Y-79472380D01*
X142147976Y-79472380D02*
X142767023Y-79472380D01*
X142433690Y-79853333D01*
X142576547Y-79853333D01*
X142671785Y-79900952D01*
X142719404Y-79948571D01*
X142767023Y-80043809D01*
X142767023Y-80281904D01*
X142719404Y-80377142D01*
X142671785Y-80424761D01*
X142576547Y-80472380D01*
X142290833Y-80472380D01*
X142195595Y-80424761D01*
X142147976Y-80377142D01*
X59347380Y-74506333D02*
X60061666Y-74506333D01*
X60204523Y-74553952D01*
X60299761Y-74649190D01*
X60347380Y-74792047D01*
X60347380Y-74887285D01*
X59775952Y-73887285D02*
X59728333Y-73982523D01*
X59680714Y-74030142D01*
X59585476Y-74077761D01*
X59537857Y-74077761D01*
X59442619Y-74030142D01*
X59395000Y-73982523D01*
X59347380Y-73887285D01*
X59347380Y-73696809D01*
X59395000Y-73601571D01*
X59442619Y-73553952D01*
X59537857Y-73506333D01*
X59585476Y-73506333D01*
X59680714Y-73553952D01*
X59728333Y-73601571D01*
X59775952Y-73696809D01*
X59775952Y-73887285D01*
X59823571Y-73982523D01*
X59871190Y-74030142D01*
X59966428Y-74077761D01*
X60156904Y-74077761D01*
X60252142Y-74030142D01*
X60299761Y-73982523D01*
X60347380Y-73887285D01*
X60347380Y-73696809D01*
X60299761Y-73601571D01*
X60252142Y-73553952D01*
X60156904Y-73506333D01*
X59966428Y-73506333D01*
X59871190Y-73553952D01*
X59823571Y-73601571D01*
X59775952Y-73696809D01*
X66000380Y-57737333D02*
X66714666Y-57737333D01*
X66857523Y-57784952D01*
X66952761Y-57880190D01*
X67000380Y-58023047D01*
X67000380Y-58118285D01*
X66000380Y-57356380D02*
X66000380Y-56689714D01*
X67000380Y-57118285D01*
X86899809Y-66016190D02*
X86899809Y-66492380D01*
X86566476Y-65492380D02*
X86899809Y-66016190D01*
X87233142Y-65492380D01*
X88090285Y-66492380D02*
X87518857Y-66492380D01*
X87804571Y-66492380D02*
X87804571Y-65492380D01*
X87709333Y-65635238D01*
X87614095Y-65730476D01*
X87518857Y-65778095D01*
X83132142Y-66206666D02*
X83179761Y-66254285D01*
X83227380Y-66397142D01*
X83227380Y-66492380D01*
X83179761Y-66635238D01*
X83084523Y-66730476D01*
X82989285Y-66778095D01*
X82798809Y-66825714D01*
X82655952Y-66825714D01*
X82465476Y-66778095D01*
X82370238Y-66730476D01*
X82275000Y-66635238D01*
X82227380Y-66492380D01*
X82227380Y-66397142D01*
X82275000Y-66254285D01*
X82322619Y-66206666D01*
X82655952Y-65635238D02*
X82608333Y-65730476D01*
X82560714Y-65778095D01*
X82465476Y-65825714D01*
X82417857Y-65825714D01*
X82322619Y-65778095D01*
X82275000Y-65730476D01*
X82227380Y-65635238D01*
X82227380Y-65444761D01*
X82275000Y-65349523D01*
X82322619Y-65301904D01*
X82417857Y-65254285D01*
X82465476Y-65254285D01*
X82560714Y-65301904D01*
X82608333Y-65349523D01*
X82655952Y-65444761D01*
X82655952Y-65635238D01*
X82703571Y-65730476D01*
X82751190Y-65778095D01*
X82846428Y-65825714D01*
X83036904Y-65825714D01*
X83132142Y-65778095D01*
X83179761Y-65730476D01*
X83227380Y-65635238D01*
X83227380Y-65444761D01*
X83179761Y-65349523D01*
X83132142Y-65301904D01*
X83036904Y-65254285D01*
X82846428Y-65254285D01*
X82751190Y-65301904D01*
X82703571Y-65349523D01*
X82655952Y-65444761D01*
X136318666Y-79208380D02*
X136318666Y-79922666D01*
X136271047Y-80065523D01*
X136175809Y-80160761D01*
X136032952Y-80208380D01*
X135937714Y-80208380D01*
X136747238Y-79303619D02*
X136794857Y-79256000D01*
X136890095Y-79208380D01*
X137128190Y-79208380D01*
X137223428Y-79256000D01*
X137271047Y-79303619D01*
X137318666Y-79398857D01*
X137318666Y-79494095D01*
X137271047Y-79636952D01*
X136699619Y-80208380D01*
X137318666Y-80208380D01*
X90765333Y-80716380D02*
X90432000Y-80240190D01*
X90193904Y-80716380D02*
X90193904Y-79716380D01*
X90574857Y-79716380D01*
X90670095Y-79764000D01*
X90717714Y-79811619D01*
X90765333Y-79906857D01*
X90765333Y-80049714D01*
X90717714Y-80144952D01*
X90670095Y-80192571D01*
X90574857Y-80240190D01*
X90193904Y-80240190D01*
X91622476Y-79716380D02*
X91432000Y-79716380D01*
X91336761Y-79764000D01*
X91289142Y-79811619D01*
X91193904Y-79954476D01*
X91146285Y-80144952D01*
X91146285Y-80525904D01*
X91193904Y-80621142D01*
X91241523Y-80668761D01*
X91336761Y-80716380D01*
X91527238Y-80716380D01*
X91622476Y-80668761D01*
X91670095Y-80621142D01*
X91717714Y-80525904D01*
X91717714Y-80287809D01*
X91670095Y-80192571D01*
X91622476Y-80144952D01*
X91527238Y-80097333D01*
X91336761Y-80097333D01*
X91241523Y-80144952D01*
X91193904Y-80192571D01*
X91146285Y-80287809D01*
X68937142Y-61094857D02*
X68984761Y-61142476D01*
X69032380Y-61285333D01*
X69032380Y-61380571D01*
X68984761Y-61523428D01*
X68889523Y-61618666D01*
X68794285Y-61666285D01*
X68603809Y-61713904D01*
X68460952Y-61713904D01*
X68270476Y-61666285D01*
X68175238Y-61618666D01*
X68080000Y-61523428D01*
X68032380Y-61380571D01*
X68032380Y-61285333D01*
X68080000Y-61142476D01*
X68127619Y-61094857D01*
X69032380Y-60142476D02*
X69032380Y-60713904D01*
X69032380Y-60428190D02*
X68032380Y-60428190D01*
X68175238Y-60523428D01*
X68270476Y-60618666D01*
X68318095Y-60713904D01*
X68127619Y-59761523D02*
X68080000Y-59713904D01*
X68032380Y-59618666D01*
X68032380Y-59380571D01*
X68080000Y-59285333D01*
X68127619Y-59237714D01*
X68222857Y-59190095D01*
X68318095Y-59190095D01*
X68460952Y-59237714D01*
X69032380Y-59809142D01*
X69032380Y-59190095D01*
X84161333Y-78589142D02*
X84113714Y-78636761D01*
X83970857Y-78684380D01*
X83875619Y-78684380D01*
X83732761Y-78636761D01*
X83637523Y-78541523D01*
X83589904Y-78446285D01*
X83542285Y-78255809D01*
X83542285Y-78112952D01*
X83589904Y-77922476D01*
X83637523Y-77827238D01*
X83732761Y-77732000D01*
X83875619Y-77684380D01*
X83970857Y-77684380D01*
X84113714Y-77732000D01*
X84161333Y-77779619D01*
X85066095Y-77684380D02*
X84589904Y-77684380D01*
X84542285Y-78160571D01*
X84589904Y-78112952D01*
X84685142Y-78065333D01*
X84923238Y-78065333D01*
X85018476Y-78112952D01*
X85066095Y-78160571D01*
X85113714Y-78255809D01*
X85113714Y-78493904D01*
X85066095Y-78589142D01*
X85018476Y-78636761D01*
X84923238Y-78684380D01*
X84685142Y-78684380D01*
X84589904Y-78636761D01*
X84542285Y-78589142D01*
X88733333Y-60301142D02*
X88685714Y-60348761D01*
X88542857Y-60396380D01*
X88447619Y-60396380D01*
X88304761Y-60348761D01*
X88209523Y-60253523D01*
X88161904Y-60158285D01*
X88114285Y-59967809D01*
X88114285Y-59824952D01*
X88161904Y-59634476D01*
X88209523Y-59539238D01*
X88304761Y-59444000D01*
X88447619Y-59396380D01*
X88542857Y-59396380D01*
X88685714Y-59444000D01*
X88733333Y-59491619D01*
X89066666Y-59396380D02*
X89685714Y-59396380D01*
X89352380Y-59777333D01*
X89495238Y-59777333D01*
X89590476Y-59824952D01*
X89638095Y-59872571D01*
X89685714Y-59967809D01*
X89685714Y-60205904D01*
X89638095Y-60301142D01*
X89590476Y-60348761D01*
X89495238Y-60396380D01*
X89209523Y-60396380D01*
X89114285Y-60348761D01*
X89066666Y-60301142D01*
X74369142Y-73318666D02*
X74416761Y-73366285D01*
X74464380Y-73509142D01*
X74464380Y-73604380D01*
X74416761Y-73747238D01*
X74321523Y-73842476D01*
X74226285Y-73890095D01*
X74035809Y-73937714D01*
X73892952Y-73937714D01*
X73702476Y-73890095D01*
X73607238Y-73842476D01*
X73512000Y-73747238D01*
X73464380Y-73604380D01*
X73464380Y-73509142D01*
X73512000Y-73366285D01*
X73559619Y-73318666D01*
X73464380Y-72985333D02*
X73464380Y-72318666D01*
X74464380Y-72747238D01*
X76270380Y-68746666D02*
X75794190Y-69080000D01*
X76270380Y-69318095D02*
X75270380Y-69318095D01*
X75270380Y-68937142D01*
X75318000Y-68841904D01*
X75365619Y-68794285D01*
X75460857Y-68746666D01*
X75603714Y-68746666D01*
X75698952Y-68794285D01*
X75746571Y-68841904D01*
X75794190Y-68937142D01*
X75794190Y-69318095D01*
X75365619Y-68365714D02*
X75318000Y-68318095D01*
X75270380Y-68222857D01*
X75270380Y-67984761D01*
X75318000Y-67889523D01*
X75365619Y-67841904D01*
X75460857Y-67794285D01*
X75556095Y-67794285D01*
X75698952Y-67841904D01*
X76270380Y-68413333D01*
X76270380Y-67794285D01*
D11*
X87100000Y-83112000D02*
X87100000Y-86062000D01*
X86350000Y-81612000D02*
X88150000Y-81612000D01*
X88150000Y-80862000D02*
X86350000Y-80862000D01*
X98150000Y-80862000D02*
X89650000Y-80862000D01*
X89650000Y-81612000D02*
X98150000Y-81612000D01*
X86340000Y-86822000D02*
X101460000Y-86822000D01*
X101450000Y-81612000D02*
X101450000Y-80862000D01*
X88150000Y-81612000D02*
X88150000Y-80862000D01*
X99650000Y-81612000D02*
X101450000Y-81612000D01*
X101460000Y-80852000D02*
X86340000Y-80852000D01*
X99650000Y-80862000D02*
X99650000Y-81612000D01*
X89650000Y-80862000D02*
X89650000Y-81612000D01*
X86340000Y-80852000D02*
X86340000Y-86822000D01*
X100700000Y-86062000D02*
X93900000Y-86062000D01*
X87300000Y-80562000D02*
X86050000Y-80562000D01*
X86350000Y-80862000D02*
X86350000Y-81612000D01*
X87100000Y-86062000D02*
X93900000Y-86062000D01*
X100700000Y-83112000D02*
X100700000Y-86062000D01*
X101450000Y-83112000D02*
X100700000Y-83112000D01*
X86050000Y-80562000D02*
X86050000Y-81812000D01*
X86350000Y-83112000D02*
X87100000Y-83112000D01*
X101460000Y-86822000D02*
X101460000Y-80852000D01*
X101450000Y-80862000D02*
X99650000Y-80862000D01*
X98150000Y-81612000D02*
X98150000Y-80862000D01*
X73921252Y-61262500D02*
X73398748Y-61262500D01*
X73921252Y-62732500D02*
X73398748Y-62732500D01*
X69630000Y-60407500D02*
X69630000Y-54397500D01*
X76450000Y-58157500D02*
X76450000Y-54397500D01*
X69630000Y-54397500D02*
X70890000Y-54397500D01*
X76450000Y-54397500D02*
X75190000Y-54397500D01*
X92175000Y-62201248D02*
X92175000Y-62723752D01*
X90705000Y-62201248D02*
X90705000Y-62723752D01*
X68560000Y-80852000D02*
X68560000Y-86822000D01*
X81870000Y-81612000D02*
X83670000Y-81612000D01*
X82920000Y-83112000D02*
X82920000Y-86062000D01*
X68570000Y-81612000D02*
X70370000Y-81612000D01*
X83680000Y-80852000D02*
X68560000Y-80852000D01*
X68570000Y-80862000D02*
X68570000Y-81612000D01*
X69320000Y-86062000D02*
X76120000Y-86062000D01*
X69320000Y-83112000D02*
X69320000Y-86062000D01*
X80370000Y-80862000D02*
X71870000Y-80862000D01*
X83670000Y-80862000D02*
X81870000Y-80862000D01*
X80370000Y-81612000D02*
X80370000Y-80862000D01*
X70370000Y-81612000D02*
X70370000Y-80862000D01*
X81870000Y-80862000D02*
X81870000Y-81612000D01*
X83670000Y-81612000D02*
X83670000Y-80862000D01*
X69520000Y-80562000D02*
X68270000Y-80562000D01*
X68560000Y-86822000D02*
X83680000Y-86822000D01*
X68570000Y-83112000D02*
X69320000Y-83112000D01*
X71870000Y-80862000D02*
X71870000Y-81612000D01*
X83670000Y-83112000D02*
X82920000Y-83112000D01*
X83680000Y-86822000D02*
X83680000Y-80852000D01*
X70370000Y-80862000D02*
X68570000Y-80862000D01*
X71870000Y-81612000D02*
X80370000Y-81612000D01*
X68270000Y-80562000D02*
X68270000Y-81812000D01*
X82920000Y-86062000D02*
X76120000Y-86062000D01*
X108887500Y-72500000D02*
X108887500Y-73152000D01*
X135077500Y-58928000D02*
X135077500Y-54500000D01*
X108887500Y-72500000D02*
X108197500Y-72500000D01*
X135077500Y-54500000D02*
X134337500Y-54500000D01*
X108197500Y-54500000D02*
X108887500Y-54500000D01*
X135077500Y-72500000D02*
X135077500Y-68072000D01*
X134337500Y-72500000D02*
X135077500Y-72500000D01*
X108197500Y-72500000D02*
X108197500Y-54500000D01*
X70893000Y-68352936D02*
X70893000Y-68807064D01*
X72363000Y-68352936D02*
X72363000Y-68807064D01*
X87730000Y-73942752D02*
X87730000Y-73420248D01*
X86260000Y-73942752D02*
X86260000Y-73420248D01*
X89635000Y-56656248D02*
X89635000Y-57178752D01*
X88165000Y-56656248D02*
X88165000Y-57178752D01*
X87470000Y-58157500D02*
X87470000Y-54397500D01*
X80650000Y-60407500D02*
X80650000Y-54397500D01*
X80650000Y-54397500D02*
X81910000Y-54397500D01*
X87470000Y-54397500D02*
X86210000Y-54397500D01*
X140562000Y-63250000D02*
X140562000Y-63750000D01*
X141062000Y-63500000D02*
X140562000Y-63250000D01*
X140562000Y-63750000D02*
X141062000Y-63500000D01*
X77443000Y-63219064D02*
X77443000Y-62764936D01*
X75973000Y-63219064D02*
X75973000Y-62764936D01*
X94784936Y-79475000D02*
X95239064Y-79475000D01*
X94784936Y-78005000D02*
X95239064Y-78005000D01*
X78005000Y-62764936D02*
X78005000Y-63219064D01*
X79475000Y-62764936D02*
X79475000Y-63219064D01*
X83720000Y-70858748D02*
X83720000Y-71381252D01*
X85190000Y-70858748D02*
X85190000Y-71381252D01*
X78855000Y-54028752D02*
X78855000Y-53506248D01*
X77385000Y-54028752D02*
X77385000Y-53506248D01*
X115930000Y-81612000D02*
X115930000Y-80862000D01*
X105930000Y-80862000D02*
X104130000Y-80862000D01*
X118480000Y-83112000D02*
X118480000Y-86062000D01*
X117430000Y-80862000D02*
X117430000Y-81612000D01*
X117430000Y-81612000D02*
X119230000Y-81612000D01*
X104880000Y-83112000D02*
X104880000Y-86062000D01*
X119240000Y-80852000D02*
X104120000Y-80852000D01*
X104120000Y-86822000D02*
X119240000Y-86822000D01*
X104130000Y-80862000D02*
X104130000Y-81612000D01*
X103830000Y-80562000D02*
X103830000Y-81812000D01*
X107430000Y-80862000D02*
X107430000Y-81612000D01*
X104130000Y-81612000D02*
X105930000Y-81612000D01*
X105080000Y-80562000D02*
X103830000Y-80562000D01*
X115930000Y-80862000D02*
X107430000Y-80862000D01*
X104880000Y-86062000D02*
X111680000Y-86062000D01*
X107430000Y-81612000D02*
X115930000Y-81612000D01*
X105930000Y-81612000D02*
X105930000Y-80862000D01*
X104120000Y-80852000D02*
X104120000Y-86822000D01*
X104130000Y-83112000D02*
X104880000Y-83112000D01*
X119230000Y-83112000D02*
X118480000Y-83112000D01*
X119230000Y-80862000D02*
X117430000Y-80862000D01*
X118480000Y-86062000D02*
X111680000Y-86062000D01*
X119240000Y-86822000D02*
X119240000Y-80852000D01*
X119230000Y-81612000D02*
X119230000Y-80862000D01*
X81005000Y-76675000D02*
X81005000Y-74455000D01*
X82615000Y-74455000D02*
X82825000Y-74455000D01*
X81215000Y-74455000D02*
X81005000Y-74455000D01*
X82825000Y-76675000D02*
X82615000Y-76675000D01*
X81215000Y-76675000D02*
X81005000Y-76675000D01*
X82825000Y-74455000D02*
X82825000Y-76675000D01*
X107415000Y-64276248D02*
X107415000Y-64798752D01*
X105945000Y-64276248D02*
X105945000Y-64798752D01*
X77497000Y-58180248D02*
X77497000Y-58702752D01*
X78967000Y-58180248D02*
X78967000Y-58702752D01*
X61794000Y-70794000D02*
X61794000Y-70764000D01*
X68254000Y-70764000D02*
X68254000Y-70794000D01*
X68254000Y-64334000D02*
X68254000Y-64364000D01*
X61794000Y-68864000D02*
X61794000Y-66264000D01*
X68254000Y-64334000D02*
X61794000Y-64334000D01*
X61794000Y-64334000D02*
X61794000Y-64364000D01*
X68254000Y-70794000D02*
X61794000Y-70794000D01*
X68254000Y-68864000D02*
X68254000Y-66264000D01*
X90820000Y-67510000D02*
X90370000Y-67510000D01*
X97140000Y-74730000D02*
X97590000Y-74730000D01*
X90370000Y-67960000D02*
X89080000Y-67960000D01*
X97590000Y-67510000D02*
X97590000Y-67960000D01*
X90370000Y-74730000D02*
X90370000Y-74280000D01*
X97590000Y-74730000D02*
X97590000Y-74280000D01*
X90370000Y-67510000D02*
X90370000Y-67960000D01*
X97140000Y-67510000D02*
X97590000Y-67510000D01*
X90820000Y-74730000D02*
X90370000Y-74730000D01*
X94715000Y-62723752D02*
X94715000Y-62201248D01*
X93245000Y-62723752D02*
X93245000Y-62201248D01*
X63219064Y-77497000D02*
X62764936Y-77497000D01*
X63219064Y-78967000D02*
X62764936Y-78967000D01*
X73715000Y-76773000D02*
X73715000Y-71573000D01*
X60895000Y-76773000D02*
X60895000Y-75443000D01*
X63495000Y-74173000D02*
X60895000Y-74173000D01*
X63495000Y-76773000D02*
X73715000Y-76773000D01*
X60895000Y-71573000D02*
X73715000Y-71573000D01*
X63495000Y-76773000D02*
X63495000Y-74173000D01*
X62225000Y-76773000D02*
X60895000Y-76773000D01*
X60895000Y-74173000D02*
X60895000Y-71573000D01*
X65310000Y-63512000D02*
X65310000Y-57392000D01*
X65510000Y-58852000D02*
X65310000Y-58852000D01*
X64700000Y-60952000D02*
X65310000Y-60952000D01*
X65410000Y-59152000D02*
X65410000Y-58852000D01*
X64700000Y-62902000D02*
X64700000Y-60952000D01*
X65310000Y-59152000D02*
X65510000Y-59152000D01*
X65610000Y-58342000D02*
X65610000Y-57092000D01*
X61700000Y-60352000D02*
X61700000Y-60552000D01*
X61200000Y-60352000D02*
X61700000Y-60352000D01*
X61200000Y-62902000D02*
X64700000Y-62902000D01*
X64000000Y-57392000D02*
X64000000Y-58002000D01*
X61200000Y-60452000D02*
X61700000Y-60452000D01*
X61700000Y-60552000D02*
X61200000Y-60552000D01*
X62700000Y-63512000D02*
X62700000Y-62902000D01*
X65310000Y-57392000D02*
X60590000Y-57392000D01*
X65610000Y-57092000D02*
X64360000Y-57092000D01*
X61200000Y-58002000D02*
X61200000Y-62902000D01*
X64700000Y-58002000D02*
X61200000Y-58002000D01*
X64000000Y-63512000D02*
X64000000Y-62902000D01*
X62700000Y-57392000D02*
X62700000Y-58002000D01*
X64700000Y-59952000D02*
X64700000Y-58002000D01*
X65310000Y-59952000D02*
X64700000Y-59952000D01*
X60590000Y-57392000D02*
X60590000Y-63512000D01*
X65510000Y-59152000D02*
X65510000Y-58852000D01*
X60590000Y-63512000D02*
X65310000Y-63512000D01*
X86120000Y-67905000D02*
X86120000Y-69255000D01*
X87870000Y-67905000D02*
X87870000Y-69255000D01*
X85190000Y-66301252D02*
X85190000Y-65778748D01*
X83720000Y-66301252D02*
X83720000Y-65778748D01*
X122660000Y-86062000D02*
X129460000Y-86062000D01*
X133710000Y-81612000D02*
X133710000Y-80862000D01*
X137020000Y-86822000D02*
X137020000Y-80852000D01*
X121910000Y-83112000D02*
X122660000Y-83112000D01*
X137010000Y-80862000D02*
X135210000Y-80862000D01*
X136260000Y-86062000D02*
X129460000Y-86062000D01*
X121900000Y-86822000D02*
X137020000Y-86822000D01*
X122660000Y-83112000D02*
X122660000Y-86062000D01*
X137010000Y-83112000D02*
X136260000Y-83112000D01*
X125210000Y-81612000D02*
X133710000Y-81612000D01*
X121910000Y-81612000D02*
X123710000Y-81612000D01*
X135210000Y-81612000D02*
X137010000Y-81612000D01*
X133710000Y-80862000D02*
X125210000Y-80862000D01*
X123710000Y-81612000D02*
X123710000Y-80862000D01*
X123710000Y-80862000D02*
X121910000Y-80862000D01*
X122860000Y-80562000D02*
X121610000Y-80562000D01*
X137020000Y-80852000D02*
X121900000Y-80852000D01*
X135210000Y-80862000D02*
X135210000Y-81612000D01*
X136260000Y-83112000D02*
X136260000Y-86062000D01*
X121610000Y-80562000D02*
X121610000Y-81812000D01*
X137010000Y-81612000D02*
X137010000Y-80862000D01*
X125210000Y-80862000D02*
X125210000Y-81612000D01*
X121910000Y-80862000D02*
X121910000Y-81612000D01*
X121900000Y-80852000D02*
X121900000Y-86822000D01*
X90720936Y-79475000D02*
X91175064Y-79475000D01*
X90720936Y-78005000D02*
X91175064Y-78005000D01*
X67791000Y-60713252D02*
X67791000Y-60190748D01*
X66321000Y-60713252D02*
X66321000Y-60190748D01*
X85190000Y-75826252D02*
X85190000Y-75303748D01*
X83720000Y-75826252D02*
X83720000Y-75303748D01*
X89635000Y-62723752D02*
X89635000Y-62201248D01*
X88165000Y-62723752D02*
X88165000Y-62201248D01*
X76427000Y-73413252D02*
X76427000Y-72890748D01*
X74957000Y-73413252D02*
X74957000Y-72890748D01*
X73433000Y-68352936D02*
X73433000Y-68807064D01*
X74903000Y-68352936D02*
X74903000Y-68807064D01*
%LPC*%
D12*
X88900000Y-83312000D03*
D13*
X91400000Y-83312000D03*
X93900000Y-83312000D03*
X96400000Y-83312000D03*
X98900000Y-83312000D03*
D14*
X74697500Y-61997500D03*
X72622500Y-61997500D03*
D15*
X70740000Y-59457500D03*
X73040000Y-59457500D03*
D16*
X73040000Y-53157500D03*
D15*
X75340000Y-59457500D03*
D17*
X91440000Y-61425000D03*
X91440000Y-63500000D03*
D12*
X71120000Y-83312000D03*
D13*
X73620000Y-83312000D03*
X76120000Y-83312000D03*
X78620000Y-83312000D03*
X81120000Y-83312000D03*
D18*
X109572500Y-72390000D03*
X110842500Y-72390000D03*
X112112500Y-72390000D03*
X113382500Y-72390000D03*
X114652500Y-72390000D03*
X115922500Y-72390000D03*
X117192500Y-72390000D03*
X118462500Y-72390000D03*
X119732500Y-72390000D03*
X121002500Y-72390000D03*
X122272500Y-72390000D03*
X123542500Y-72390000D03*
X124812500Y-72390000D03*
X126082500Y-72390000D03*
X127352500Y-72390000D03*
X128622500Y-72390000D03*
X129892500Y-72390000D03*
X131162500Y-72390000D03*
X132432500Y-72390000D03*
X133702500Y-72390000D03*
D19*
X134972500Y-67310000D03*
X134972500Y-66040000D03*
X134972500Y-64770000D03*
X134972500Y-63500000D03*
X134972500Y-62230000D03*
X134972500Y-60960000D03*
X134972500Y-59690000D03*
D18*
X133702500Y-54610000D03*
X132432500Y-54610000D03*
X131162500Y-54610000D03*
X129892500Y-54610000D03*
X128622500Y-54610000D03*
X127352500Y-54610000D03*
X126082500Y-54610000D03*
X124812500Y-54610000D03*
X123542500Y-54610000D03*
X122272500Y-54610000D03*
X121002500Y-54610000D03*
X119732500Y-54610000D03*
X118462500Y-54610000D03*
X117192500Y-54610000D03*
X115922500Y-54610000D03*
X114652500Y-54610000D03*
X113382500Y-54610000D03*
X112112500Y-54610000D03*
X110842500Y-54610000D03*
X109572500Y-54610000D03*
D20*
X71628000Y-67580000D03*
X71628000Y-69580000D03*
D21*
X86995000Y-74719000D03*
X86995000Y-72644000D03*
D17*
X88900000Y-55880000D03*
X88900000Y-57955000D03*
D15*
X81760000Y-59457500D03*
D16*
X84060000Y-53157500D03*
D15*
X84060000Y-59457500D03*
X86360000Y-59457500D03*
D22*
X144272000Y-63500000D03*
X144272000Y-59250000D03*
X144272000Y-67750000D03*
D23*
X76708000Y-63992000D03*
X76708000Y-61992000D03*
D24*
X94012000Y-78740000D03*
X96012000Y-78740000D03*
D25*
X63500000Y-83820000D03*
D20*
X78740000Y-61992000D03*
X78740000Y-63992000D03*
D17*
X84455000Y-70082500D03*
X84455000Y-72157500D03*
D25*
X142240000Y-53340000D03*
D21*
X78120000Y-54805000D03*
X78120000Y-52730000D03*
D25*
X63500000Y-53340000D03*
D12*
X106680000Y-83312000D03*
D13*
X109180000Y-83312000D03*
X111680000Y-83312000D03*
X114180000Y-83312000D03*
X116680000Y-83312000D03*
D26*
X81915000Y-76415000D03*
X81915000Y-74715000D03*
D17*
X106680000Y-63500000D03*
X106680000Y-65575000D03*
X78232000Y-57404000D03*
X78232000Y-59479000D03*
D27*
X68999000Y-69814000D03*
X61049000Y-69814000D03*
X61049000Y-65314000D03*
X68999000Y-65314000D03*
D28*
X89817500Y-68370000D03*
X89817500Y-68870000D03*
X89817500Y-69370000D03*
X89817500Y-69870000D03*
X89817500Y-70370000D03*
X89817500Y-70870000D03*
X89817500Y-71370000D03*
X89817500Y-71870000D03*
X89817500Y-72370000D03*
X89817500Y-72870000D03*
X89817500Y-73370000D03*
X89817500Y-73870000D03*
D29*
X91230000Y-75282500D03*
X91730000Y-75282500D03*
X92230000Y-75282500D03*
X92730000Y-75282500D03*
X93230000Y-75282500D03*
X93730000Y-75282500D03*
X94230000Y-75282500D03*
X94730000Y-75282500D03*
X95230000Y-75282500D03*
X95730000Y-75282500D03*
X96230000Y-75282500D03*
X96730000Y-75282500D03*
D28*
X98142500Y-73870000D03*
X98142500Y-73370000D03*
X98142500Y-72870000D03*
X98142500Y-72370000D03*
X98142500Y-71870000D03*
X98142500Y-71370000D03*
X98142500Y-70870000D03*
X98142500Y-70370000D03*
X98142500Y-69870000D03*
X98142500Y-69370000D03*
X98142500Y-68870000D03*
X98142500Y-68370000D03*
D29*
X96730000Y-66957500D03*
X96230000Y-66957500D03*
X95730000Y-66957500D03*
X95230000Y-66957500D03*
X94730000Y-66957500D03*
X94230000Y-66957500D03*
X93730000Y-66957500D03*
X93230000Y-66957500D03*
X92730000Y-66957500D03*
X92230000Y-66957500D03*
X91730000Y-66957500D03*
X91230000Y-66957500D03*
D21*
X93980000Y-63500000D03*
X93980000Y-61425000D03*
D30*
X63992000Y-78232000D03*
X61992000Y-78232000D03*
D25*
X141957500Y-83820000D03*
D31*
X62225000Y-75443000D03*
D32*
X62225000Y-72903000D03*
X64765000Y-75443000D03*
X64765000Y-72903000D03*
X67305000Y-75443000D03*
X67305000Y-72903000D03*
X69845000Y-75443000D03*
X69845000Y-72903000D03*
X72385000Y-75443000D03*
X72385000Y-72903000D03*
D33*
X63500000Y-59452000D03*
D34*
X63500000Y-61452000D03*
D35*
X86995000Y-69830000D03*
X86995000Y-67330000D03*
D21*
X84455000Y-67077500D03*
X84455000Y-65002500D03*
D12*
X124460000Y-83312000D03*
D13*
X126960000Y-83312000D03*
X129460000Y-83312000D03*
X131960000Y-83312000D03*
X134460000Y-83312000D03*
D24*
X89948000Y-78740000D03*
X91948000Y-78740000D03*
D21*
X67056000Y-61489500D03*
X67056000Y-59414500D03*
X84455000Y-76602500D03*
X84455000Y-74527500D03*
X88900000Y-63500000D03*
X88900000Y-61425000D03*
X75692000Y-74189500D03*
X75692000Y-72114500D03*
D20*
X74168000Y-67580000D03*
X74168000Y-69580000D03*
M02*
